<?xml version="1.0" encoding="utf-8" standalone="no"?>
<!DOCTYPE svg PUBLIC "-//W3C//DTD SVG 1.1//EN"
  "http://www.w3.org/Graphics/SVG/1.1/DTD/svg11.dtd">
<svg xmlns:xlink="http://www.w3.org/1999/xlink" width="1080pt" height="720pt" viewBox="0 0 1080 720" xmlns="http://www.w3.org/2000/svg" version="1.1">
 <metadata>
  <rdf:RDF xmlns:dc="http://purl.org/dc/elements/1.1/" xmlns:cc="http://creativecommons.org/ns#" xmlns:rdf="http://www.w3.org/1999/02/22-rdf-syntax-ns#">
   <cc:Work>
    <dc:type rdf:resource="http://purl.org/dc/dcmitype/StillImage"/>
    <dc:date>2022-08-05T11:17:43.017586</dc:date>
    <dc:format>image/svg+xml</dc:format>
    <dc:creator>
     <cc:Agent>
      <dc:title>Matplotlib v3.5.0, https://matplotlib.org/</dc:title>
     </cc:Agent>
    </dc:creator>
   </cc:Work>
  </rdf:RDF>
 </metadata>
 <defs>
  <style type="text/css">*{stroke-linejoin: round; stroke-linecap: butt}</style>
 </defs>
 <g id="figure_1">
  <g id="patch_1">
   <path d="M 0 720 
L 1080 720 
L 1080 0 
L 0 0 
z
" style="fill: #ffffff"/>
  </g>
  <g id="axes_1">
   <g id="patch_2">
    <path d="M 135 640.8 
L 972 640.8 
L 972 86.4 
L 135 86.4 
z
" style="fill: #ffffff"/>
   </g>
   <g id="patch_3">
    <path d="M 173.045455 640.8 
L 181.076157 640.8 
L 181.076157 394.4 
L 173.045455 394.4 
z
" clip-path="url(#p8f273742a3)" style="fill: #1f77b4"/>
   </g>
   <g id="patch_4">
    <path d="M 183.083833 640.8 
L 191.114536 640.8 
L 191.114536 394.4 
L 183.083833 394.4 
z
" clip-path="url(#p8f273742a3)" style="fill: #1f77b4"/>
   </g>
   <g id="patch_5">
    <path d="M 193.122212 640.8 
L 201.152914 640.8 
L 201.152914 517.6 
L 193.122212 517.6 
z
" clip-path="url(#p8f273742a3)" style="fill: #1f77b4"/>
   </g>
   <g id="patch_6">
    <path d="M 203.16059 640.8 
L 211.191293 640.8 
L 211.191293 456 
L 203.16059 456 
z
" clip-path="url(#p8f273742a3)" style="fill: #1f77b4"/>
   </g>
   <g id="patch_7">
    <path d="M 213.198969 640.8 
L 221.229671 640.8 
L 221.229671 456 
L 213.198969 456 
z
" clip-path="url(#p8f273742a3)" style="fill: #1f77b4"/>
   </g>
   <g id="patch_8">
    <path d="M 223.237347 640.8 
L 231.26805 640.8 
L 231.26805 456 
L 223.237347 456 
z
" clip-path="url(#p8f273742a3)" style="fill: #1f77b4"/>
   </g>
   <g id="patch_9">
    <path d="M 233.275726 640.8 
L 241.306428 640.8 
L 241.306428 394.4 
L 233.275726 394.4 
z
" clip-path="url(#p8f273742a3)" style="fill: #1f77b4"/>
   </g>
   <g id="patch_10">
    <path d="M 243.314104 640.8 
L 251.344807 640.8 
L 251.344807 456 
L 243.314104 456 
z
" clip-path="url(#p8f273742a3)" style="fill: #1f77b4"/>
   </g>
   <g id="patch_11">
    <path d="M 253.352483 640.8 
L 261.383185 640.8 
L 261.383185 517.6 
L 253.352483 517.6 
z
" clip-path="url(#p8f273742a3)" style="fill: #1f77b4"/>
   </g>
   <g id="patch_12">
    <path d="M 263.390861 640.8 
L 271.421564 640.8 
L 271.421564 394.4 
L 263.390861 394.4 
z
" clip-path="url(#p8f273742a3)" style="fill: #1f77b4"/>
   </g>
   <g id="patch_13">
    <path d="M 273.42924 640.8 
L 281.459942 640.8 
L 281.459942 517.6 
L 273.42924 517.6 
z
" clip-path="url(#p8f273742a3)" style="fill: #1f77b4"/>
   </g>
   <g id="patch_14">
    <path d="M 283.467618 640.8 
L 291.498321 640.8 
L 291.498321 394.4 
L 283.467618 394.4 
z
" clip-path="url(#p8f273742a3)" style="fill: #1f77b4"/>
   </g>
   <g id="patch_15">
    <path d="M 293.505997 640.8 
L 301.536699 640.8 
L 301.536699 456 
L 293.505997 456 
z
" clip-path="url(#p8f273742a3)" style="fill: #1f77b4"/>
   </g>
   <g id="patch_16">
    <path d="M 303.544375 640.8 
L 311.575078 640.8 
L 311.575078 517.6 
L 303.544375 517.6 
z
" clip-path="url(#p8f273742a3)" style="fill: #1f77b4"/>
   </g>
   <g id="patch_17">
    <path d="M 313.582754 640.8 
L 321.613456 640.8 
L 321.613456 456 
L 313.582754 456 
z
" clip-path="url(#p8f273742a3)" style="fill: #1f77b4"/>
   </g>
   <g id="patch_18">
    <path d="M 323.621132 640.8 
L 331.651835 640.8 
L 331.651835 456 
L 323.621132 456 
z
" clip-path="url(#p8f273742a3)" style="fill: #1f77b4"/>
   </g>
   <g id="patch_19">
    <path d="M 333.659511 640.8 
L 341.690213 640.8 
L 341.690213 394.4 
L 333.659511 394.4 
z
" clip-path="url(#p8f273742a3)" style="fill: #1f77b4"/>
   </g>
   <g id="patch_20">
    <path d="M 343.697889 640.8 
L 351.728592 640.8 
L 351.728592 394.4 
L 343.697889 394.4 
z
" clip-path="url(#p8f273742a3)" style="fill: #1f77b4"/>
   </g>
   <g id="patch_21">
    <path d="M 353.736268 640.8 
L 361.76697 640.8 
L 361.76697 394.4 
L 353.736268 394.4 
z
" clip-path="url(#p8f273742a3)" style="fill: #1f77b4"/>
   </g>
   <g id="patch_22">
    <path d="M 363.774646 640.8 
L 371.805349 640.8 
L 371.805349 394.4 
L 363.774646 394.4 
z
" clip-path="url(#p8f273742a3)" style="fill: #1f77b4"/>
   </g>
   <g id="patch_23">
    <path d="M 373.813025 640.8 
L 381.843728 640.8 
L 381.843728 517.6 
L 373.813025 517.6 
z
" clip-path="url(#p8f273742a3)" style="fill: #1f77b4"/>
   </g>
   <g id="patch_24">
    <path d="M 383.851403 640.8 
L 391.882106 640.8 
L 391.882106 394.4 
L 383.851403 394.4 
z
" clip-path="url(#p8f273742a3)" style="fill: #1f77b4"/>
   </g>
   <g id="patch_25">
    <path d="M 393.889782 640.8 
L 401.920485 640.8 
L 401.920485 517.6 
L 393.889782 517.6 
z
" clip-path="url(#p8f273742a3)" style="fill: #1f77b4"/>
   </g>
   <g id="patch_26">
    <path d="M 403.92816 640.8 
L 411.958863 640.8 
L 411.958863 394.4 
L 403.92816 394.4 
z
" clip-path="url(#p8f273742a3)" style="fill: #1f77b4"/>
   </g>
   <g id="patch_27">
    <path d="M 413.966539 640.8 
L 421.997242 640.8 
L 421.997242 456 
L 413.966539 456 
z
" clip-path="url(#p8f273742a3)" style="fill: #1f77b4"/>
   </g>
   <g id="patch_28">
    <path d="M 424.004917 640.8 
L 432.03562 640.8 
L 432.03562 456 
L 424.004917 456 
z
" clip-path="url(#p8f273742a3)" style="fill: #1f77b4"/>
   </g>
   <g id="patch_29">
    <path d="M 434.043296 640.8 
L 442.073999 640.8 
L 442.073999 517.6 
L 434.043296 517.6 
z
" clip-path="url(#p8f273742a3)" style="fill: #1f77b4"/>
   </g>
   <g id="patch_30">
    <path d="M 444.081674 640.8 
L 452.112377 640.8 
L 452.112377 517.6 
L 444.081674 517.6 
z
" clip-path="url(#p8f273742a3)" style="fill: #1f77b4"/>
   </g>
   <g id="patch_31">
    <path d="M 454.120053 640.8 
L 462.150756 640.8 
L 462.150756 456 
L 454.120053 456 
z
" clip-path="url(#p8f273742a3)" style="fill: #1f77b4"/>
   </g>
   <g id="patch_32">
    <path d="M 464.158431 640.8 
L 472.189134 640.8 
L 472.189134 517.6 
L 464.158431 517.6 
z
" clip-path="url(#p8f273742a3)" style="fill: #1f77b4"/>
   </g>
   <g id="patch_33">
    <path d="M 474.19681 640.8 
L 482.227513 640.8 
L 482.227513 394.4 
L 474.19681 394.4 
z
" clip-path="url(#p8f273742a3)" style="fill: #1f77b4"/>
   </g>
   <g id="patch_34">
    <path d="M 484.235188 640.8 
L 492.265891 640.8 
L 492.265891 456 
L 484.235188 456 
z
" clip-path="url(#p8f273742a3)" style="fill: #1f77b4"/>
   </g>
   <g id="patch_35">
    <path d="M 494.273567 640.8 
L 502.30427 640.8 
L 502.30427 517.6 
L 494.273567 517.6 
z
" clip-path="url(#p8f273742a3)" style="fill: #1f77b4"/>
   </g>
   <g id="patch_36">
    <path d="M 504.311945 640.8 
L 512.342648 640.8 
L 512.342648 517.6 
L 504.311945 517.6 
z
" clip-path="url(#p8f273742a3)" style="fill: #1f77b4"/>
   </g>
   <g id="patch_37">
    <path d="M 514.350324 640.8 
L 522.381027 640.8 
L 522.381027 394.4 
L 514.350324 394.4 
z
" clip-path="url(#p8f273742a3)" style="fill: #1f77b4"/>
   </g>
   <g id="patch_38">
    <path d="M 524.388702 640.8 
L 532.419405 640.8 
L 532.419405 517.6 
L 524.388702 517.6 
z
" clip-path="url(#p8f273742a3)" style="fill: #1f77b4"/>
   </g>
   <g id="patch_39">
    <path d="M 534.427081 640.8 
L 542.457784 640.8 
L 542.457784 456 
L 534.427081 456 
z
" clip-path="url(#p8f273742a3)" style="fill: #1f77b4"/>
   </g>
   <g id="patch_40">
    <path d="M 544.465459 640.8 
L 552.496162 640.8 
L 552.496162 456 
L 544.465459 456 
z
" clip-path="url(#p8f273742a3)" style="fill: #1f77b4"/>
   </g>
   <g id="patch_41">
    <path d="M 554.503838 640.8 
L 562.534541 640.8 
L 562.534541 456 
L 554.503838 456 
z
" clip-path="url(#p8f273742a3)" style="fill: #1f77b4"/>
   </g>
   <g id="patch_42">
    <path d="M 564.542216 640.8 
L 572.572919 640.8 
L 572.572919 394.4 
L 564.542216 394.4 
z
" clip-path="url(#p8f273742a3)" style="fill: #1f77b4"/>
   </g>
   <g id="patch_43">
    <path d="M 574.580595 640.8 
L 582.611298 640.8 
L 582.611298 332.8 
L 574.580595 332.8 
z
" clip-path="url(#p8f273742a3)" style="fill: #1f77b4"/>
   </g>
   <g id="patch_44">
    <path d="M 584.618973 640.8 
L 592.649676 640.8 
L 592.649676 394.4 
L 584.618973 394.4 
z
" clip-path="url(#p8f273742a3)" style="fill: #1f77b4"/>
   </g>
   <g id="patch_45">
    <path d="M 594.657352 640.8 
L 602.688055 640.8 
L 602.688055 456 
L 594.657352 456 
z
" clip-path="url(#p8f273742a3)" style="fill: #1f77b4"/>
   </g>
   <g id="patch_46">
    <path d="M 604.69573 640.8 
L 612.726433 640.8 
L 612.726433 332.8 
L 604.69573 332.8 
z
" clip-path="url(#p8f273742a3)" style="fill: #1f77b4"/>
   </g>
   <g id="patch_47">
    <path d="M 614.734109 640.8 
L 622.764812 640.8 
L 622.764812 332.8 
L 614.734109 332.8 
z
" clip-path="url(#p8f273742a3)" style="fill: #1f77b4"/>
   </g>
   <g id="patch_48">
    <path d="M 624.772487 640.8 
L 632.80319 640.8 
L 632.80319 332.8 
L 624.772487 332.8 
z
" clip-path="url(#p8f273742a3)" style="fill: #1f77b4"/>
   </g>
   <g id="patch_49">
    <path d="M 634.810866 640.8 
L 642.841569 640.8 
L 642.841569 517.6 
L 634.810866 517.6 
z
" clip-path="url(#p8f273742a3)" style="fill: #1f77b4"/>
   </g>
   <g id="patch_50">
    <path d="M 644.849244 640.8 
L 652.879947 640.8 
L 652.879947 332.8 
L 644.849244 332.8 
z
" clip-path="url(#p8f273742a3)" style="fill: #1f77b4"/>
   </g>
   <g id="patch_51">
    <path d="M 654.887623 640.8 
L 662.918326 640.8 
L 662.918326 394.4 
L 654.887623 394.4 
z
" clip-path="url(#p8f273742a3)" style="fill: #1f77b4"/>
   </g>
   <g id="patch_52">
    <path d="M 664.926001 640.8 
L 672.956704 640.8 
L 672.956704 517.6 
L 664.926001 517.6 
z
" clip-path="url(#p8f273742a3)" style="fill: #1f77b4"/>
   </g>
   <g id="patch_53">
    <path d="M 674.96438 640.8 
L 682.995083 640.8 
L 682.995083 517.6 
L 674.96438 517.6 
z
" clip-path="url(#p8f273742a3)" style="fill: #1f77b4"/>
   </g>
   <g id="patch_54">
    <path d="M 685.002758 640.8 
L 693.033461 640.8 
L 693.033461 332.8 
L 685.002758 332.8 
z
" clip-path="url(#p8f273742a3)" style="fill: #1f77b4"/>
   </g>
   <g id="patch_55">
    <path d="M 695.041137 640.8 
L 703.07184 640.8 
L 703.07184 456 
L 695.041137 456 
z
" clip-path="url(#p8f273742a3)" style="fill: #1f77b4"/>
   </g>
   <g id="patch_56">
    <path d="M 705.079515 640.8 
L 713.110218 640.8 
L 713.110218 456 
L 705.079515 456 
z
" clip-path="url(#p8f273742a3)" style="fill: #1f77b4"/>
   </g>
   <g id="patch_57">
    <path d="M 715.117894 640.8 
L 723.148597 640.8 
L 723.148597 271.2 
L 715.117894 271.2 
z
" clip-path="url(#p8f273742a3)" style="fill: #1f77b4"/>
   </g>
   <g id="patch_58">
    <path d="M 725.156272 640.8 
L 733.186975 640.8 
L 733.186975 517.6 
L 725.156272 517.6 
z
" clip-path="url(#p8f273742a3)" style="fill: #1f77b4"/>
   </g>
   <g id="patch_59">
    <path d="M 735.194651 640.8 
L 743.225354 640.8 
L 743.225354 394.4 
L 735.194651 394.4 
z
" clip-path="url(#p8f273742a3)" style="fill: #1f77b4"/>
   </g>
   <g id="patch_60">
    <path d="M 745.23303 640.8 
L 753.263732 640.8 
L 753.263732 271.2 
L 745.23303 271.2 
z
" clip-path="url(#p8f273742a3)" style="fill: #1f77b4"/>
   </g>
   <g id="patch_61">
    <path d="M 755.271408 640.8 
L 763.302111 640.8 
L 763.302111 332.8 
L 755.271408 332.8 
z
" clip-path="url(#p8f273742a3)" style="fill: #1f77b4"/>
   </g>
   <g id="patch_62">
    <path d="M 765.309787 640.8 
L 773.340489 640.8 
L 773.340489 271.2 
L 765.309787 271.2 
z
" clip-path="url(#p8f273742a3)" style="fill: #1f77b4"/>
   </g>
   <g id="patch_63">
    <path d="M 775.348165 640.8 
L 783.378868 640.8 
L 783.378868 456 
L 775.348165 456 
z
" clip-path="url(#p8f273742a3)" style="fill: #1f77b4"/>
   </g>
   <g id="patch_64">
    <path d="M 785.386544 640.8 
L 793.417246 640.8 
L 793.417246 209.6 
L 785.386544 209.6 
z
" clip-path="url(#p8f273742a3)" style="fill: #1f77b4"/>
   </g>
   <g id="patch_65">
    <path d="M 795.424922 640.8 
L 803.455625 640.8 
L 803.455625 456 
L 795.424922 456 
z
" clip-path="url(#p8f273742a3)" style="fill: #1f77b4"/>
   </g>
   <g id="patch_66">
    <path d="M 805.463301 640.8 
L 813.494003 640.8 
L 813.494003 332.8 
L 805.463301 332.8 
z
" clip-path="url(#p8f273742a3)" style="fill: #1f77b4"/>
   </g>
   <g id="patch_67">
    <path d="M 815.501679 640.8 
L 823.532382 640.8 
L 823.532382 209.6 
L 815.501679 209.6 
z
" clip-path="url(#p8f273742a3)" style="fill: #1f77b4"/>
   </g>
   <g id="patch_68">
    <path d="M 825.540058 640.8 
L 833.57076 640.8 
L 833.57076 517.6 
L 825.540058 517.6 
z
" clip-path="url(#p8f273742a3)" style="fill: #1f77b4"/>
   </g>
   <g id="patch_69">
    <path d="M 835.578436 640.8 
L 843.609139 640.8 
L 843.609139 517.6 
L 835.578436 517.6 
z
" clip-path="url(#p8f273742a3)" style="fill: #1f77b4"/>
   </g>
   <g id="patch_70">
    <path d="M 845.616815 640.8 
L 853.647517 640.8 
L 853.647517 209.6 
L 845.616815 209.6 
z
" clip-path="url(#p8f273742a3)" style="fill: #1f77b4"/>
   </g>
   <g id="patch_71">
    <path d="M 855.655193 640.8 
L 863.685896 640.8 
L 863.685896 209.6 
L 855.655193 209.6 
z
" clip-path="url(#p8f273742a3)" style="fill: #1f77b4"/>
   </g>
   <g id="patch_72">
    <path d="M 865.693572 640.8 
L 873.724274 640.8 
L 873.724274 456 
L 865.693572 456 
z
" clip-path="url(#p8f273742a3)" style="fill: #1f77b4"/>
   </g>
   <g id="patch_73">
    <path d="M 875.73195 640.8 
L 883.762653 640.8 
L 883.762653 394.4 
L 875.73195 394.4 
z
" clip-path="url(#p8f273742a3)" style="fill: #1f77b4"/>
   </g>
   <g id="patch_74">
    <path d="M 885.770329 640.8 
L 893.801031 640.8 
L 893.801031 332.8 
L 885.770329 332.8 
z
" clip-path="url(#p8f273742a3)" style="fill: #1f77b4"/>
   </g>
   <g id="patch_75">
    <path d="M 895.808707 640.8 
L 903.83941 640.8 
L 903.83941 271.2 
L 895.808707 271.2 
z
" clip-path="url(#p8f273742a3)" style="fill: #1f77b4"/>
   </g>
   <g id="patch_76">
    <path d="M 905.847086 640.8 
L 913.877788 640.8 
L 913.877788 271.2 
L 905.847086 271.2 
z
" clip-path="url(#p8f273742a3)" style="fill: #1f77b4"/>
   </g>
   <g id="patch_77">
    <path d="M 915.885464 640.8 
L 923.916167 640.8 
L 923.916167 456 
L 915.885464 456 
z
" clip-path="url(#p8f273742a3)" style="fill: #1f77b4"/>
   </g>
   <g id="patch_78">
    <path d="M 925.923843 640.8 
L 933.954545 640.8 
L 933.954545 332.8 
L 925.923843 332.8 
z
" clip-path="url(#p8f273742a3)" style="fill: #1f77b4"/>
   </g>
   <g id="patch_79">
    <path d="M 173.045455 394.4 
L 181.076157 394.4 
L 181.076157 271.2 
L 173.045455 271.2 
z
" clip-path="url(#p8f273742a3)" style="fill: #ff7f0e"/>
   </g>
   <g id="patch_80">
    <path d="M 183.083833 394.4 
L 191.114536 394.4 
L 191.114536 271.2 
L 183.083833 271.2 
z
" clip-path="url(#p8f273742a3)" style="fill: #ff7f0e"/>
   </g>
   <g id="patch_81">
    <path d="M 193.122212 517.6 
L 201.152914 517.6 
L 201.152914 517.6 
L 193.122212 517.6 
z
" clip-path="url(#p8f273742a3)" style="fill: #ff7f0e"/>
   </g>
   <g id="patch_82">
    <path d="M 203.16059 456 
L 211.191293 456 
L 211.191293 271.2 
L 203.16059 271.2 
z
" clip-path="url(#p8f273742a3)" style="fill: #ff7f0e"/>
   </g>
   <g id="patch_83">
    <path d="M 213.198969 456 
L 221.229671 456 
L 221.229671 271.2 
L 213.198969 271.2 
z
" clip-path="url(#p8f273742a3)" style="fill: #ff7f0e"/>
   </g>
   <g id="patch_84">
    <path d="M 223.237347 456 
L 231.26805 456 
L 231.26805 332.8 
L 223.237347 332.8 
z
" clip-path="url(#p8f273742a3)" style="fill: #ff7f0e"/>
   </g>
   <g id="patch_85">
    <path d="M 233.275726 394.4 
L 241.306428 394.4 
L 241.306428 271.2 
L 233.275726 271.2 
z
" clip-path="url(#p8f273742a3)" style="fill: #ff7f0e"/>
   </g>
   <g id="patch_86">
    <path d="M 243.314104 456 
L 251.344807 456 
L 251.344807 271.2 
L 243.314104 271.2 
z
" clip-path="url(#p8f273742a3)" style="fill: #ff7f0e"/>
   </g>
   <g id="patch_87">
    <path d="M 253.352483 517.6 
L 261.383185 517.6 
L 261.383185 271.2 
L 253.352483 271.2 
z
" clip-path="url(#p8f273742a3)" style="fill: #ff7f0e"/>
   </g>
   <g id="patch_88">
    <path d="M 263.390861 394.4 
L 271.421564 394.4 
L 271.421564 271.2 
L 263.390861 271.2 
z
" clip-path="url(#p8f273742a3)" style="fill: #ff7f0e"/>
   </g>
   <g id="patch_89">
    <path d="M 273.42924 517.6 
L 281.459942 517.6 
L 281.459942 332.8 
L 273.42924 332.8 
z
" clip-path="url(#p8f273742a3)" style="fill: #ff7f0e"/>
   </g>
   <g id="patch_90">
    <path d="M 283.467618 394.4 
L 291.498321 394.4 
L 291.498321 271.2 
L 283.467618 271.2 
z
" clip-path="url(#p8f273742a3)" style="fill: #ff7f0e"/>
   </g>
   <g id="patch_91">
    <path d="M 293.505997 456 
L 301.536699 456 
L 301.536699 271.2 
L 293.505997 271.2 
z
" clip-path="url(#p8f273742a3)" style="fill: #ff7f0e"/>
   </g>
   <g id="patch_92">
    <path d="M 303.544375 517.6 
L 311.575078 517.6 
L 311.575078 271.2 
L 303.544375 271.2 
z
" clip-path="url(#p8f273742a3)" style="fill: #ff7f0e"/>
   </g>
   <g id="patch_93">
    <path d="M 313.582754 456 
L 321.613456 456 
L 321.613456 271.2 
L 313.582754 271.2 
z
" clip-path="url(#p8f273742a3)" style="fill: #ff7f0e"/>
   </g>
   <g id="patch_94">
    <path d="M 323.621132 456 
L 331.651835 456 
L 331.651835 271.2 
L 323.621132 271.2 
z
" clip-path="url(#p8f273742a3)" style="fill: #ff7f0e"/>
   </g>
   <g id="patch_95">
    <path d="M 333.659511 394.4 
L 341.690213 394.4 
L 341.690213 271.2 
L 333.659511 271.2 
z
" clip-path="url(#p8f273742a3)" style="fill: #ff7f0e"/>
   </g>
   <g id="patch_96">
    <path d="M 343.697889 394.4 
L 351.728592 394.4 
L 351.728592 271.2 
L 343.697889 271.2 
z
" clip-path="url(#p8f273742a3)" style="fill: #ff7f0e"/>
   </g>
   <g id="patch_97">
    <path d="M 353.736268 394.4 
L 361.76697 394.4 
L 361.76697 332.8 
L 353.736268 332.8 
z
" clip-path="url(#p8f273742a3)" style="fill: #ff7f0e"/>
   </g>
   <g id="patch_98">
    <path d="M 363.774646 394.4 
L 371.805349 394.4 
L 371.805349 271.2 
L 363.774646 271.2 
z
" clip-path="url(#p8f273742a3)" style="fill: #ff7f0e"/>
   </g>
   <g id="patch_99">
    <path d="M 373.813025 517.6 
L 381.843728 517.6 
L 381.843728 394.4 
L 373.813025 394.4 
z
" clip-path="url(#p8f273742a3)" style="fill: #ff7f0e"/>
   </g>
   <g id="patch_100">
    <path d="M 383.851403 394.4 
L 391.882106 394.4 
L 391.882106 271.2 
L 383.851403 271.2 
z
" clip-path="url(#p8f273742a3)" style="fill: #ff7f0e"/>
   </g>
   <g id="patch_101">
    <path d="M 393.889782 517.6 
L 401.920485 517.6 
L 401.920485 332.8 
L 393.889782 332.8 
z
" clip-path="url(#p8f273742a3)" style="fill: #ff7f0e"/>
   </g>
   <g id="patch_102">
    <path d="M 403.92816 394.4 
L 411.958863 394.4 
L 411.958863 332.8 
L 403.92816 332.8 
z
" clip-path="url(#p8f273742a3)" style="fill: #ff7f0e"/>
   </g>
   <g id="patch_103">
    <path d="M 413.966539 456 
L 421.997242 456 
L 421.997242 271.2 
L 413.966539 271.2 
z
" clip-path="url(#p8f273742a3)" style="fill: #ff7f0e"/>
   </g>
   <g id="patch_104">
    <path d="M 424.004917 456 
L 432.03562 456 
L 432.03562 271.2 
L 424.004917 271.2 
z
" clip-path="url(#p8f273742a3)" style="fill: #ff7f0e"/>
   </g>
   <g id="patch_105">
    <path d="M 434.043296 517.6 
L 442.073999 517.6 
L 442.073999 332.8 
L 434.043296 332.8 
z
" clip-path="url(#p8f273742a3)" style="fill: #ff7f0e"/>
   </g>
   <g id="patch_106">
    <path d="M 444.081674 517.6 
L 452.112377 517.6 
L 452.112377 517.6 
L 444.081674 517.6 
z
" clip-path="url(#p8f273742a3)" style="fill: #ff7f0e"/>
   </g>
   <g id="patch_107">
    <path d="M 454.120053 456 
L 462.150756 456 
L 462.150756 271.2 
L 454.120053 271.2 
z
" clip-path="url(#p8f273742a3)" style="fill: #ff7f0e"/>
   </g>
   <g id="patch_108">
    <path d="M 464.158431 517.6 
L 472.189134 517.6 
L 472.189134 271.2 
L 464.158431 271.2 
z
" clip-path="url(#p8f273742a3)" style="fill: #ff7f0e"/>
   </g>
   <g id="patch_109">
    <path d="M 474.19681 394.4 
L 482.227513 394.4 
L 482.227513 271.2 
L 474.19681 271.2 
z
" clip-path="url(#p8f273742a3)" style="fill: #ff7f0e"/>
   </g>
   <g id="patch_110">
    <path d="M 484.235188 456 
L 492.265891 456 
L 492.265891 271.2 
L 484.235188 271.2 
z
" clip-path="url(#p8f273742a3)" style="fill: #ff7f0e"/>
   </g>
   <g id="patch_111">
    <path d="M 494.273567 517.6 
L 502.30427 517.6 
L 502.30427 332.8 
L 494.273567 332.8 
z
" clip-path="url(#p8f273742a3)" style="fill: #ff7f0e"/>
   </g>
   <g id="patch_112">
    <path d="M 504.311945 517.6 
L 512.342648 517.6 
L 512.342648 271.2 
L 504.311945 271.2 
z
" clip-path="url(#p8f273742a3)" style="fill: #ff7f0e"/>
   </g>
   <g id="patch_113">
    <path d="M 514.350324 394.4 
L 522.381027 394.4 
L 522.381027 271.2 
L 514.350324 271.2 
z
" clip-path="url(#p8f273742a3)" style="fill: #ff7f0e"/>
   </g>
   <g id="patch_114">
    <path d="M 524.388702 517.6 
L 532.419405 517.6 
L 532.419405 271.2 
L 524.388702 271.2 
z
" clip-path="url(#p8f273742a3)" style="fill: #ff7f0e"/>
   </g>
   <g id="patch_115">
    <path d="M 534.427081 456 
L 542.457784 456 
L 542.457784 271.2 
L 534.427081 271.2 
z
" clip-path="url(#p8f273742a3)" style="fill: #ff7f0e"/>
   </g>
   <g id="patch_116">
    <path d="M 544.465459 456 
L 552.496162 456 
L 552.496162 271.2 
L 544.465459 271.2 
z
" clip-path="url(#p8f273742a3)" style="fill: #ff7f0e"/>
   </g>
   <g id="patch_117">
    <path d="M 554.503838 456 
L 562.534541 456 
L 562.534541 209.6 
L 554.503838 209.6 
z
" clip-path="url(#p8f273742a3)" style="fill: #ff7f0e"/>
   </g>
   <g id="patch_118">
    <path d="M 564.542216 394.4 
L 572.572919 394.4 
L 572.572919 271.2 
L 564.542216 271.2 
z
" clip-path="url(#p8f273742a3)" style="fill: #ff7f0e"/>
   </g>
   <g id="patch_119">
    <path d="M 574.580595 332.8 
L 582.611298 332.8 
L 582.611298 209.6 
L 574.580595 209.6 
z
" clip-path="url(#p8f273742a3)" style="fill: #ff7f0e"/>
   </g>
   <g id="patch_120">
    <path d="M 584.618973 394.4 
L 592.649676 394.4 
L 592.649676 209.6 
L 584.618973 209.6 
z
" clip-path="url(#p8f273742a3)" style="fill: #ff7f0e"/>
   </g>
   <g id="patch_121">
    <path d="M 594.657352 456 
L 602.688055 456 
L 602.688055 148 
L 594.657352 148 
z
" clip-path="url(#p8f273742a3)" style="fill: #ff7f0e"/>
   </g>
   <g id="patch_122">
    <path d="M 604.69573 332.8 
L 612.726433 332.8 
L 612.726433 209.6 
L 604.69573 209.6 
z
" clip-path="url(#p8f273742a3)" style="fill: #ff7f0e"/>
   </g>
   <g id="patch_123">
    <path d="M 614.734109 332.8 
L 622.764812 332.8 
L 622.764812 209.6 
L 614.734109 209.6 
z
" clip-path="url(#p8f273742a3)" style="fill: #ff7f0e"/>
   </g>
   <g id="patch_124">
    <path d="M 624.772487 332.8 
L 632.80319 332.8 
L 632.80319 271.2 
L 624.772487 271.2 
z
" clip-path="url(#p8f273742a3)" style="fill: #ff7f0e"/>
   </g>
   <g id="patch_125">
    <path d="M 634.810866 517.6 
L 642.841569 517.6 
L 642.841569 86.4 
L 634.810866 86.4 
z
" clip-path="url(#p8f273742a3)" style="fill: #ff7f0e"/>
   </g>
   <g id="patch_126">
    <path d="M 644.849244 332.8 
L 652.879947 332.8 
L 652.879947 86.4 
L 644.849244 86.4 
z
" clip-path="url(#p8f273742a3)" style="fill: #ff7f0e"/>
   </g>
   <g id="patch_127">
    <path d="M 654.887623 394.4 
L 662.918326 394.4 
L 662.918326 86.4 
L 654.887623 86.4 
z
" clip-path="url(#p8f273742a3)" style="fill: #ff7f0e"/>
   </g>
   <g id="patch_128">
    <path d="M 664.926001 517.6 
L 672.956704 517.6 
L 672.956704 209.6 
L 664.926001 209.6 
z
" clip-path="url(#p8f273742a3)" style="fill: #ff7f0e"/>
   </g>
   <g id="patch_129">
    <path d="M 674.96438 517.6 
L 682.995083 517.6 
L 682.995083 148 
L 674.96438 148 
z
" clip-path="url(#p8f273742a3)" style="fill: #ff7f0e"/>
   </g>
   <g id="patch_130">
    <path d="M 685.002758 332.8 
L 693.033461 332.8 
L 693.033461 148 
L 685.002758 148 
z
" clip-path="url(#p8f273742a3)" style="fill: #ff7f0e"/>
   </g>
   <g id="patch_131">
    <path d="M 695.041137 456 
L 703.07184 456 
L 703.07184 209.6 
L 695.041137 209.6 
z
" clip-path="url(#p8f273742a3)" style="fill: #ff7f0e"/>
   </g>
   <g id="patch_132">
    <path d="M 705.079515 456 
L 713.110218 456 
L 713.110218 271.2 
L 705.079515 271.2 
z
" clip-path="url(#p8f273742a3)" style="fill: #ff7f0e"/>
   </g>
   <g id="patch_133">
    <path d="M 715.117894 271.2 
L 723.148597 271.2 
L 723.148597 148 
L 715.117894 148 
z
" clip-path="url(#p8f273742a3)" style="fill: #ff7f0e"/>
   </g>
   <g id="patch_134">
    <path d="M 725.156272 517.6 
L 733.186975 517.6 
L 733.186975 271.2 
L 725.156272 271.2 
z
" clip-path="url(#p8f273742a3)" style="fill: #ff7f0e"/>
   </g>
   <g id="patch_135">
    <path d="M 735.194651 394.4 
L 743.225354 394.4 
L 743.225354 148 
L 735.194651 148 
z
" clip-path="url(#p8f273742a3)" style="fill: #ff7f0e"/>
   </g>
   <g id="patch_136">
    <path d="M 745.23303 271.2 
L 753.263732 271.2 
L 753.263732 209.6 
L 745.23303 209.6 
z
" clip-path="url(#p8f273742a3)" style="fill: #ff7f0e"/>
   </g>
   <g id="patch_137">
    <path d="M 755.271408 332.8 
L 763.302111 332.8 
L 763.302111 271.2 
L 755.271408 271.2 
z
" clip-path="url(#p8f273742a3)" style="fill: #ff7f0e"/>
   </g>
   <g id="patch_138">
    <path d="M 765.309787 271.2 
L 773.340489 271.2 
L 773.340489 86.4 
L 765.309787 86.4 
z
" clip-path="url(#p8f273742a3)" style="fill: #ff7f0e"/>
   </g>
   <g id="patch_139">
    <path d="M 775.348165 456 
L 783.378868 456 
L 783.378868 209.6 
L 775.348165 209.6 
z
" clip-path="url(#p8f273742a3)" style="fill: #ff7f0e"/>
   </g>
   <g id="patch_140">
    <path d="M 785.386544 209.6 
L 793.417246 209.6 
L 793.417246 86.4 
L 785.386544 86.4 
z
" clip-path="url(#p8f273742a3)" style="fill: #ff7f0e"/>
   </g>
   <g id="patch_141">
    <path d="M 795.424922 456 
L 803.455625 456 
L 803.455625 148 
L 795.424922 148 
z
" clip-path="url(#p8f273742a3)" style="fill: #ff7f0e"/>
   </g>
   <g id="patch_142">
    <path d="M 805.463301 332.8 
L 813.494003 332.8 
L 813.494003 86.4 
L 805.463301 86.4 
z
" clip-path="url(#p8f273742a3)" style="fill: #ff7f0e"/>
   </g>
   <g id="patch_143">
    <path d="M 815.501679 209.6 
L 823.532382 209.6 
L 823.532382 86.4 
L 815.501679 86.4 
z
" clip-path="url(#p8f273742a3)" style="fill: #ff7f0e"/>
   </g>
   <g id="patch_144">
    <path d="M 825.540058 517.6 
L 833.57076 517.6 
L 833.57076 209.6 
L 825.540058 209.6 
z
" clip-path="url(#p8f273742a3)" style="fill: #ff7f0e"/>
   </g>
   <g id="patch_145">
    <path d="M 835.578436 517.6 
L 843.609139 517.6 
L 843.609139 271.2 
L 835.578436 271.2 
z
" clip-path="url(#p8f273742a3)" style="fill: #ff7f0e"/>
   </g>
   <g id="patch_146">
    <path d="M 845.616815 209.6 
L 853.647517 209.6 
L 853.647517 86.4 
L 845.616815 86.4 
z
" clip-path="url(#p8f273742a3)" style="fill: #ff7f0e"/>
   </g>
   <g id="patch_147">
    <path d="M 855.655193 209.6 
L 863.685896 209.6 
L 863.685896 86.4 
L 855.655193 86.4 
z
" clip-path="url(#p8f273742a3)" style="fill: #ff7f0e"/>
   </g>
   <g id="patch_148">
    <path d="M 865.693572 456 
L 873.724274 456 
L 873.724274 271.2 
L 865.693572 271.2 
z
" clip-path="url(#p8f273742a3)" style="fill: #ff7f0e"/>
   </g>
   <g id="patch_149">
    <path d="M 875.73195 394.4 
L 883.762653 394.4 
L 883.762653 209.6 
L 875.73195 209.6 
z
" clip-path="url(#p8f273742a3)" style="fill: #ff7f0e"/>
   </g>
   <g id="patch_150">
    <path d="M 885.770329 332.8 
L 893.801031 332.8 
L 893.801031 86.4 
L 885.770329 86.4 
z
" clip-path="url(#p8f273742a3)" style="fill: #ff7f0e"/>
   </g>
   <g id="patch_151">
    <path d="M 895.808707 271.2 
L 903.83941 271.2 
L 903.83941 86.4 
L 895.808707 86.4 
z
" clip-path="url(#p8f273742a3)" style="fill: #ff7f0e"/>
   </g>
   <g id="patch_152">
    <path d="M 905.847086 271.2 
L 913.877788 271.2 
L 913.877788 86.4 
L 905.847086 86.4 
z
" clip-path="url(#p8f273742a3)" style="fill: #ff7f0e"/>
   </g>
   <g id="patch_153">
    <path d="M 915.885464 456 
L 923.916167 456 
L 923.916167 209.6 
L 915.885464 209.6 
z
" clip-path="url(#p8f273742a3)" style="fill: #ff7f0e"/>
   </g>
   <g id="patch_154">
    <path d="M 925.923843 332.8 
L 933.954545 332.8 
L 933.954545 86.4 
L 925.923843 86.4 
z
" clip-path="url(#p8f273742a3)" style="fill: #ff7f0e"/>
   </g>
   <g id="patch_155">
    <path d="M 173.045455 271.2 
L 181.076157 271.2 
L 181.076157 271.2 
L 173.045455 271.2 
z
" clip-path="url(#p8f273742a3)" style="fill: #2ca02c"/>
   </g>
   <g id="patch_156">
    <path d="M 183.083833 271.2 
L 191.114536 271.2 
L 191.114536 271.2 
L 183.083833 271.2 
z
" clip-path="url(#p8f273742a3)" style="fill: #2ca02c"/>
   </g>
   <g id="patch_157">
    <path d="M 193.122212 517.6 
L 201.152914 517.6 
L 201.152914 517.6 
L 193.122212 517.6 
z
" clip-path="url(#p8f273742a3)" style="fill: #2ca02c"/>
   </g>
   <g id="patch_158">
    <path d="M 203.16059 271.2 
L 211.191293 271.2 
L 211.191293 271.2 
L 203.16059 271.2 
z
" clip-path="url(#p8f273742a3)" style="fill: #2ca02c"/>
   </g>
   <g id="patch_159">
    <path d="M 213.198969 271.2 
L 221.229671 271.2 
L 221.229671 271.2 
L 213.198969 271.2 
z
" clip-path="url(#p8f273742a3)" style="fill: #2ca02c"/>
   </g>
   <g id="patch_160">
    <path d="M 223.237347 332.8 
L 231.26805 332.8 
L 231.26805 271.2 
L 223.237347 271.2 
z
" clip-path="url(#p8f273742a3)" style="fill: #2ca02c"/>
   </g>
   <g id="patch_161">
    <path d="M 233.275726 271.2 
L 241.306428 271.2 
L 241.306428 271.2 
L 233.275726 271.2 
z
" clip-path="url(#p8f273742a3)" style="fill: #2ca02c"/>
   </g>
   <g id="patch_162">
    <path d="M 243.314104 271.2 
L 251.344807 271.2 
L 251.344807 271.2 
L 243.314104 271.2 
z
" clip-path="url(#p8f273742a3)" style="fill: #2ca02c"/>
   </g>
   <g id="patch_163">
    <path d="M 253.352483 271.2 
L 261.383185 271.2 
L 261.383185 271.2 
L 253.352483 271.2 
z
" clip-path="url(#p8f273742a3)" style="fill: #2ca02c"/>
   </g>
   <g id="patch_164">
    <path d="M 263.390861 271.2 
L 271.421564 271.2 
L 271.421564 271.2 
L 263.390861 271.2 
z
" clip-path="url(#p8f273742a3)" style="fill: #2ca02c"/>
   </g>
   <g id="patch_165">
    <path d="M 273.42924 332.8 
L 281.459942 332.8 
L 281.459942 271.2 
L 273.42924 271.2 
z
" clip-path="url(#p8f273742a3)" style="fill: #2ca02c"/>
   </g>
   <g id="patch_166">
    <path d="M 283.467618 271.2 
L 291.498321 271.2 
L 291.498321 271.2 
L 283.467618 271.2 
z
" clip-path="url(#p8f273742a3)" style="fill: #2ca02c"/>
   </g>
   <g id="patch_167">
    <path d="M 293.505997 271.2 
L 301.536699 271.2 
L 301.536699 271.2 
L 293.505997 271.2 
z
" clip-path="url(#p8f273742a3)" style="fill: #2ca02c"/>
   </g>
   <g id="patch_168">
    <path d="M 303.544375 271.2 
L 311.575078 271.2 
L 311.575078 271.2 
L 303.544375 271.2 
z
" clip-path="url(#p8f273742a3)" style="fill: #2ca02c"/>
   </g>
   <g id="patch_169">
    <path d="M 313.582754 271.2 
L 321.613456 271.2 
L 321.613456 271.2 
L 313.582754 271.2 
z
" clip-path="url(#p8f273742a3)" style="fill: #2ca02c"/>
   </g>
   <g id="patch_170">
    <path d="M 323.621132 271.2 
L 331.651835 271.2 
L 331.651835 271.2 
L 323.621132 271.2 
z
" clip-path="url(#p8f273742a3)" style="fill: #2ca02c"/>
   </g>
   <g id="patch_171">
    <path d="M 333.659511 271.2 
L 341.690213 271.2 
L 341.690213 271.2 
L 333.659511 271.2 
z
" clip-path="url(#p8f273742a3)" style="fill: #2ca02c"/>
   </g>
   <g id="patch_172">
    <path d="M 343.697889 271.2 
L 351.728592 271.2 
L 351.728592 271.2 
L 343.697889 271.2 
z
" clip-path="url(#p8f273742a3)" style="fill: #2ca02c"/>
   </g>
   <g id="patch_173">
    <path d="M 353.736268 332.8 
L 361.76697 332.8 
L 361.76697 271.2 
L 353.736268 271.2 
z
" clip-path="url(#p8f273742a3)" style="fill: #2ca02c"/>
   </g>
   <g id="patch_174">
    <path d="M 363.774646 271.2 
L 371.805349 271.2 
L 371.805349 271.2 
L 363.774646 271.2 
z
" clip-path="url(#p8f273742a3)" style="fill: #2ca02c"/>
   </g>
   <g id="patch_175">
    <path d="M 373.813025 394.4 
L 381.843728 394.4 
L 381.843728 271.2 
L 373.813025 271.2 
z
" clip-path="url(#p8f273742a3)" style="fill: #2ca02c"/>
   </g>
   <g id="patch_176">
    <path d="M 383.851403 271.2 
L 391.882106 271.2 
L 391.882106 271.2 
L 383.851403 271.2 
z
" clip-path="url(#p8f273742a3)" style="fill: #2ca02c"/>
   </g>
   <g id="patch_177">
    <path d="M 393.889782 332.8 
L 401.920485 332.8 
L 401.920485 271.2 
L 393.889782 271.2 
z
" clip-path="url(#p8f273742a3)" style="fill: #2ca02c"/>
   </g>
   <g id="patch_178">
    <path d="M 403.92816 332.8 
L 411.958863 332.8 
L 411.958863 271.2 
L 403.92816 271.2 
z
" clip-path="url(#p8f273742a3)" style="fill: #2ca02c"/>
   </g>
   <g id="patch_179">
    <path d="M 413.966539 271.2 
L 421.997242 271.2 
L 421.997242 271.2 
L 413.966539 271.2 
z
" clip-path="url(#p8f273742a3)" style="fill: #2ca02c"/>
   </g>
   <g id="patch_180">
    <path d="M 424.004917 271.2 
L 432.03562 271.2 
L 432.03562 271.2 
L 424.004917 271.2 
z
" clip-path="url(#p8f273742a3)" style="fill: #2ca02c"/>
   </g>
   <g id="patch_181">
    <path d="M 434.043296 332.8 
L 442.073999 332.8 
L 442.073999 271.2 
L 434.043296 271.2 
z
" clip-path="url(#p8f273742a3)" style="fill: #2ca02c"/>
   </g>
   <g id="patch_182">
    <path d="M 444.081674 517.6 
L 452.112377 517.6 
L 452.112377 271.2 
L 444.081674 271.2 
z
" clip-path="url(#p8f273742a3)" style="fill: #2ca02c"/>
   </g>
   <g id="patch_183">
    <path d="M 454.120053 271.2 
L 462.150756 271.2 
L 462.150756 271.2 
L 454.120053 271.2 
z
" clip-path="url(#p8f273742a3)" style="fill: #2ca02c"/>
   </g>
   <g id="patch_184">
    <path d="M 464.158431 271.2 
L 472.189134 271.2 
L 472.189134 271.2 
L 464.158431 271.2 
z
" clip-path="url(#p8f273742a3)" style="fill: #2ca02c"/>
   </g>
   <g id="patch_185">
    <path d="M 474.19681 271.2 
L 482.227513 271.2 
L 482.227513 271.2 
L 474.19681 271.2 
z
" clip-path="url(#p8f273742a3)" style="fill: #2ca02c"/>
   </g>
   <g id="patch_186">
    <path d="M 484.235188 271.2 
L 492.265891 271.2 
L 492.265891 271.2 
L 484.235188 271.2 
z
" clip-path="url(#p8f273742a3)" style="fill: #2ca02c"/>
   </g>
   <g id="patch_187">
    <path d="M 494.273567 332.8 
L 502.30427 332.8 
L 502.30427 271.2 
L 494.273567 271.2 
z
" clip-path="url(#p8f273742a3)" style="fill: #2ca02c"/>
   </g>
   <g id="patch_188">
    <path d="M 504.311945 271.2 
L 512.342648 271.2 
L 512.342648 271.2 
L 504.311945 271.2 
z
" clip-path="url(#p8f273742a3)" style="fill: #2ca02c"/>
   </g>
   <g id="patch_189">
    <path d="M 514.350324 271.2 
L 522.381027 271.2 
L 522.381027 271.2 
L 514.350324 271.2 
z
" clip-path="url(#p8f273742a3)" style="fill: #2ca02c"/>
   </g>
   <g id="patch_190">
    <path d="M 524.388702 271.2 
L 532.419405 271.2 
L 532.419405 271.2 
L 524.388702 271.2 
z
" clip-path="url(#p8f273742a3)" style="fill: #2ca02c"/>
   </g>
   <g id="patch_191">
    <path d="M 534.427081 271.2 
L 542.457784 271.2 
L 542.457784 271.2 
L 534.427081 271.2 
z
" clip-path="url(#p8f273742a3)" style="fill: #2ca02c"/>
   </g>
   <g id="patch_192">
    <path d="M 544.465459 271.2 
L 552.496162 271.2 
L 552.496162 271.2 
L 544.465459 271.2 
z
" clip-path="url(#p8f273742a3)" style="fill: #2ca02c"/>
   </g>
   <g id="patch_193">
    <path d="M 554.503838 209.6 
L 562.534541 209.6 
L 562.534541 86.4 
L 554.503838 86.4 
z
" clip-path="url(#p8f273742a3)" style="fill: #2ca02c"/>
   </g>
   <g id="patch_194">
    <path d="M 564.542216 271.2 
L 572.572919 271.2 
L 572.572919 209.6 
L 564.542216 209.6 
z
" clip-path="url(#p8f273742a3)" style="fill: #2ca02c"/>
   </g>
   <g id="patch_195">
    <path d="M 574.580595 209.6 
L 582.611298 209.6 
L 582.611298 209.6 
L 574.580595 209.6 
z
" clip-path="url(#p8f273742a3)" style="fill: #2ca02c"/>
   </g>
   <g id="patch_196">
    <path d="M 584.618973 209.6 
L 592.649676 209.6 
L 592.649676 209.6 
L 584.618973 209.6 
z
" clip-path="url(#p8f273742a3)" style="fill: #2ca02c"/>
   </g>
   <g id="patch_197">
    <path d="M 594.657352 148 
L 602.688055 148 
L 602.688055 86.4 
L 594.657352 86.4 
z
" clip-path="url(#p8f273742a3)" style="fill: #2ca02c"/>
   </g>
   <g id="patch_198">
    <path d="M 604.69573 209.6 
L 612.726433 209.6 
L 612.726433 209.6 
L 604.69573 209.6 
z
" clip-path="url(#p8f273742a3)" style="fill: #2ca02c"/>
   </g>
   <g id="patch_199">
    <path d="M 614.734109 209.6 
L 622.764812 209.6 
L 622.764812 209.6 
L 614.734109 209.6 
z
" clip-path="url(#p8f273742a3)" style="fill: #2ca02c"/>
   </g>
   <g id="patch_200">
    <path d="M 624.772487 271.2 
L 632.80319 271.2 
L 632.80319 209.6 
L 624.772487 209.6 
z
" clip-path="url(#p8f273742a3)" style="fill: #2ca02c"/>
   </g>
   <g id="patch_201">
    <path d="M 634.810866 86.4 
L 642.841569 86.4 
L 642.841569 86.4 
L 634.810866 86.4 
z
" clip-path="url(#p8f273742a3)" style="fill: #2ca02c"/>
   </g>
   <g id="patch_202">
    <path d="M 644.849244 86.4 
L 652.879947 86.4 
L 652.879947 86.4 
L 644.849244 86.4 
z
" clip-path="url(#p8f273742a3)" style="fill: #2ca02c"/>
   </g>
   <g id="patch_203">
    <path d="M 654.887623 86.4 
L 662.918326 86.4 
L 662.918326 86.4 
L 654.887623 86.4 
z
" clip-path="url(#p8f273742a3)" style="fill: #2ca02c"/>
   </g>
   <g id="patch_204">
    <path d="M 664.926001 209.6 
L 672.956704 209.6 
L 672.956704 209.6 
L 664.926001 209.6 
z
" clip-path="url(#p8f273742a3)" style="fill: #2ca02c"/>
   </g>
   <g id="patch_205">
    <path d="M 674.96438 148 
L 682.995083 148 
L 682.995083 148 
L 674.96438 148 
z
" clip-path="url(#p8f273742a3)" style="fill: #2ca02c"/>
   </g>
   <g id="patch_206">
    <path d="M 685.002758 148 
L 693.033461 148 
L 693.033461 86.4 
L 685.002758 86.4 
z
" clip-path="url(#p8f273742a3)" style="fill: #2ca02c"/>
   </g>
   <g id="patch_207">
    <path d="M 695.041137 209.6 
L 703.07184 209.6 
L 703.07184 209.6 
L 695.041137 209.6 
z
" clip-path="url(#p8f273742a3)" style="fill: #2ca02c"/>
   </g>
   <g id="patch_208">
    <path d="M 705.079515 271.2 
L 713.110218 271.2 
L 713.110218 209.6 
L 705.079515 209.6 
z
" clip-path="url(#p8f273742a3)" style="fill: #2ca02c"/>
   </g>
   <g id="patch_209">
    <path d="M 715.117894 148 
L 723.148597 148 
L 723.148597 86.4 
L 715.117894 86.4 
z
" clip-path="url(#p8f273742a3)" style="fill: #2ca02c"/>
   </g>
   <g id="patch_210">
    <path d="M 725.156272 271.2 
L 733.186975 271.2 
L 733.186975 209.6 
L 725.156272 209.6 
z
" clip-path="url(#p8f273742a3)" style="fill: #2ca02c"/>
   </g>
   <g id="patch_211">
    <path d="M 735.194651 148 
L 743.225354 148 
L 743.225354 86.4 
L 735.194651 86.4 
z
" clip-path="url(#p8f273742a3)" style="fill: #2ca02c"/>
   </g>
   <g id="patch_212">
    <path d="M 745.23303 209.6 
L 753.263732 209.6 
L 753.263732 86.4 
L 745.23303 86.4 
z
" clip-path="url(#p8f273742a3)" style="fill: #2ca02c"/>
   </g>
   <g id="patch_213">
    <path d="M 755.271408 271.2 
L 763.302111 271.2 
L 763.302111 209.6 
L 755.271408 209.6 
z
" clip-path="url(#p8f273742a3)" style="fill: #2ca02c"/>
   </g>
   <g id="patch_214">
    <path d="M 765.309787 86.4 
L 773.340489 86.4 
L 773.340489 86.4 
L 765.309787 86.4 
z
" clip-path="url(#p8f273742a3)" style="fill: #2ca02c"/>
   </g>
   <g id="patch_215">
    <path d="M 775.348165 209.6 
L 783.378868 209.6 
L 783.378868 209.6 
L 775.348165 209.6 
z
" clip-path="url(#p8f273742a3)" style="fill: #2ca02c"/>
   </g>
   <g id="patch_216">
    <path d="M 785.386544 86.4 
L 793.417246 86.4 
L 793.417246 86.4 
L 785.386544 86.4 
z
" clip-path="url(#p8f273742a3)" style="fill: #2ca02c"/>
   </g>
   <g id="patch_217">
    <path d="M 795.424922 148 
L 803.455625 148 
L 803.455625 86.4 
L 795.424922 86.4 
z
" clip-path="url(#p8f273742a3)" style="fill: #2ca02c"/>
   </g>
   <g id="patch_218">
    <path d="M 805.463301 86.4 
L 813.494003 86.4 
L 813.494003 86.4 
L 805.463301 86.4 
z
" clip-path="url(#p8f273742a3)" style="fill: #2ca02c"/>
   </g>
   <g id="patch_219">
    <path d="M 815.501679 86.4 
L 823.532382 86.4 
L 823.532382 86.4 
L 815.501679 86.4 
z
" clip-path="url(#p8f273742a3)" style="fill: #2ca02c"/>
   </g>
   <g id="patch_220">
    <path d="M 825.540058 209.6 
L 833.57076 209.6 
L 833.57076 209.6 
L 825.540058 209.6 
z
" clip-path="url(#p8f273742a3)" style="fill: #2ca02c"/>
   </g>
   <g id="patch_221">
    <path d="M 835.578436 271.2 
L 843.609139 271.2 
L 843.609139 209.6 
L 835.578436 209.6 
z
" clip-path="url(#p8f273742a3)" style="fill: #2ca02c"/>
   </g>
   <g id="patch_222">
    <path d="M 845.616815 86.4 
L 853.647517 86.4 
L 853.647517 86.4 
L 845.616815 86.4 
z
" clip-path="url(#p8f273742a3)" style="fill: #2ca02c"/>
   </g>
   <g id="patch_223">
    <path d="M 855.655193 86.4 
L 863.685896 86.4 
L 863.685896 86.4 
L 855.655193 86.4 
z
" clip-path="url(#p8f273742a3)" style="fill: #2ca02c"/>
   </g>
   <g id="patch_224">
    <path d="M 865.693572 271.2 
L 873.724274 271.2 
L 873.724274 209.6 
L 865.693572 209.6 
z
" clip-path="url(#p8f273742a3)" style="fill: #2ca02c"/>
   </g>
   <g id="patch_225">
    <path d="M 875.73195 209.6 
L 883.762653 209.6 
L 883.762653 209.6 
L 875.73195 209.6 
z
" clip-path="url(#p8f273742a3)" style="fill: #2ca02c"/>
   </g>
   <g id="patch_226">
    <path d="M 885.770329 86.4 
L 893.801031 86.4 
L 893.801031 86.4 
L 885.770329 86.4 
z
" clip-path="url(#p8f273742a3)" style="fill: #2ca02c"/>
   </g>
   <g id="patch_227">
    <path d="M 895.808707 86.4 
L 903.83941 86.4 
L 903.83941 86.4 
L 895.808707 86.4 
z
" clip-path="url(#p8f273742a3)" style="fill: #2ca02c"/>
   </g>
   <g id="patch_228">
    <path d="M 905.847086 86.4 
L 913.877788 86.4 
L 913.877788 86.4 
L 905.847086 86.4 
z
" clip-path="url(#p8f273742a3)" style="fill: #2ca02c"/>
   </g>
   <g id="patch_229">
    <path d="M 915.885464 209.6 
L 923.916167 209.6 
L 923.916167 209.6 
L 915.885464 209.6 
z
" clip-path="url(#p8f273742a3)" style="fill: #2ca02c"/>
   </g>
   <g id="patch_230">
    <path d="M 925.923843 86.4 
L 933.954545 86.4 
L 933.954545 86.4 
L 925.923843 86.4 
z
" clip-path="url(#p8f273742a3)" style="fill: #2ca02c"/>
   </g>
   <g id="matplotlib.axis_1">
    <g id="xtick_1">
     <g id="line2d_1">
      <defs>
       <path id="m4b173ffed0" d="M 0 0 
L 0 3.5 
" style="stroke: #000000; stroke-width: 0.8"/>
      </defs>
      <g>
       <use xlink:href="#m4b173ffed0" x="167.022427" y="640.8" style="stroke: #000000; stroke-width: 0.8"/>
      </g>
     </g>
     <g id="text_1">
      <!-- 0 -->
      <g transform="translate(159.387427 666.03625)scale(0.24 -0.24)">
       <defs>
        <path id="DejaVuSans-30" d="M 2034 4250 
Q 1547 4250 1301 3770 
Q 1056 3291 1056 2328 
Q 1056 1369 1301 889 
Q 1547 409 2034 409 
Q 2525 409 2770 889 
Q 3016 1369 3016 2328 
Q 3016 3291 2770 3770 
Q 2525 4250 2034 4250 
z
M 2034 4750 
Q 2819 4750 3233 4129 
Q 3647 3509 3647 2328 
Q 3647 1150 3233 529 
Q 2819 -91 2034 -91 
Q 1250 -91 836 529 
Q 422 1150 422 2328 
Q 422 3509 836 4129 
Q 1250 4750 2034 4750 
z
" transform="scale(0.015625)"/>
       </defs>
       <use xlink:href="#DejaVuSans-30"/>
      </g>
     </g>
    </g>
    <g id="xtick_2">
     <g id="line2d_2">
      <g>
       <use xlink:href="#m4b173ffed0" x="267.406213" y="640.8" style="stroke: #000000; stroke-width: 0.8"/>
      </g>
     </g>
     <g id="text_2">
      <!-- 10 -->
      <g transform="translate(252.136213 666.03625)scale(0.24 -0.24)">
       <defs>
        <path id="DejaVuSans-31" d="M 794 531 
L 1825 531 
L 1825 4091 
L 703 3866 
L 703 4441 
L 1819 4666 
L 2450 4666 
L 2450 531 
L 3481 531 
L 3481 0 
L 794 0 
L 794 531 
z
" transform="scale(0.015625)"/>
       </defs>
       <use xlink:href="#DejaVuSans-31"/>
       <use xlink:href="#DejaVuSans-30" x="63.623047"/>
      </g>
     </g>
    </g>
    <g id="xtick_3">
     <g id="line2d_3">
      <g>
       <use xlink:href="#m4b173ffed0" x="367.789998" y="640.8" style="stroke: #000000; stroke-width: 0.8"/>
      </g>
     </g>
     <g id="text_3">
      <!-- 20 -->
      <g transform="translate(352.519998 666.03625)scale(0.24 -0.24)">
       <defs>
        <path id="DejaVuSans-32" d="M 1228 531 
L 3431 531 
L 3431 0 
L 469 0 
L 469 531 
Q 828 903 1448 1529 
Q 2069 2156 2228 2338 
Q 2531 2678 2651 2914 
Q 2772 3150 2772 3378 
Q 2772 3750 2511 3984 
Q 2250 4219 1831 4219 
Q 1534 4219 1204 4116 
Q 875 4013 500 3803 
L 500 4441 
Q 881 4594 1212 4672 
Q 1544 4750 1819 4750 
Q 2544 4750 2975 4387 
Q 3406 4025 3406 3419 
Q 3406 3131 3298 2873 
Q 3191 2616 2906 2266 
Q 2828 2175 2409 1742 
Q 1991 1309 1228 531 
z
" transform="scale(0.015625)"/>
       </defs>
       <use xlink:href="#DejaVuSans-32"/>
       <use xlink:href="#DejaVuSans-30" x="63.623047"/>
      </g>
     </g>
    </g>
    <g id="xtick_4">
     <g id="line2d_4">
      <g>
       <use xlink:href="#m4b173ffed0" x="468.173783" y="640.8" style="stroke: #000000; stroke-width: 0.8"/>
      </g>
     </g>
     <g id="text_4">
      <!-- 30 -->
      <g transform="translate(452.903783 666.03625)scale(0.24 -0.24)">
       <defs>
        <path id="DejaVuSans-33" d="M 2597 2516 
Q 3050 2419 3304 2112 
Q 3559 1806 3559 1356 
Q 3559 666 3084 287 
Q 2609 -91 1734 -91 
Q 1441 -91 1130 -33 
Q 819 25 488 141 
L 488 750 
Q 750 597 1062 519 
Q 1375 441 1716 441 
Q 2309 441 2620 675 
Q 2931 909 2931 1356 
Q 2931 1769 2642 2001 
Q 2353 2234 1838 2234 
L 1294 2234 
L 1294 2753 
L 1863 2753 
Q 2328 2753 2575 2939 
Q 2822 3125 2822 3475 
Q 2822 3834 2567 4026 
Q 2313 4219 1838 4219 
Q 1578 4219 1281 4162 
Q 984 4106 628 3988 
L 628 4550 
Q 988 4650 1302 4700 
Q 1616 4750 1894 4750 
Q 2613 4750 3031 4423 
Q 3450 4097 3450 3541 
Q 3450 3153 3228 2886 
Q 3006 2619 2597 2516 
z
" transform="scale(0.015625)"/>
       </defs>
       <use xlink:href="#DejaVuSans-33"/>
       <use xlink:href="#DejaVuSans-30" x="63.623047"/>
      </g>
     </g>
    </g>
    <g id="xtick_5">
     <g id="line2d_5">
      <g>
       <use xlink:href="#m4b173ffed0" x="568.557568" y="640.8" style="stroke: #000000; stroke-width: 0.8"/>
      </g>
     </g>
     <g id="text_5">
      <!-- 40 -->
      <g transform="translate(553.287568 666.03625)scale(0.24 -0.24)">
       <defs>
        <path id="DejaVuSans-34" d="M 2419 4116 
L 825 1625 
L 2419 1625 
L 2419 4116 
z
M 2253 4666 
L 3047 4666 
L 3047 1625 
L 3713 1625 
L 3713 1100 
L 3047 1100 
L 3047 0 
L 2419 0 
L 2419 1100 
L 313 1100 
L 313 1709 
L 2253 4666 
z
" transform="scale(0.015625)"/>
       </defs>
       <use xlink:href="#DejaVuSans-34"/>
       <use xlink:href="#DejaVuSans-30" x="63.623047"/>
      </g>
     </g>
    </g>
    <g id="xtick_6">
     <g id="line2d_6">
      <g>
       <use xlink:href="#m4b173ffed0" x="668.941353" y="640.8" style="stroke: #000000; stroke-width: 0.8"/>
      </g>
     </g>
     <g id="text_6">
      <!-- 50 -->
      <g transform="translate(653.671353 666.03625)scale(0.24 -0.24)">
       <defs>
        <path id="DejaVuSans-35" d="M 691 4666 
L 3169 4666 
L 3169 4134 
L 1269 4134 
L 1269 2991 
Q 1406 3038 1543 3061 
Q 1681 3084 1819 3084 
Q 2600 3084 3056 2656 
Q 3513 2228 3513 1497 
Q 3513 744 3044 326 
Q 2575 -91 1722 -91 
Q 1428 -91 1123 -41 
Q 819 9 494 109 
L 494 744 
Q 775 591 1075 516 
Q 1375 441 1709 441 
Q 2250 441 2565 725 
Q 2881 1009 2881 1497 
Q 2881 1984 2565 2268 
Q 2250 2553 1709 2553 
Q 1456 2553 1204 2497 
Q 953 2441 691 2322 
L 691 4666 
z
" transform="scale(0.015625)"/>
       </defs>
       <use xlink:href="#DejaVuSans-35"/>
       <use xlink:href="#DejaVuSans-30" x="63.623047"/>
      </g>
     </g>
    </g>
    <g id="xtick_7">
     <g id="line2d_7">
      <g>
       <use xlink:href="#m4b173ffed0" x="769.325138" y="640.8" style="stroke: #000000; stroke-width: 0.8"/>
      </g>
     </g>
     <g id="text_7">
      <!-- 60 -->
      <g transform="translate(754.055138 666.03625)scale(0.24 -0.24)">
       <defs>
        <path id="DejaVuSans-36" d="M 2113 2584 
Q 1688 2584 1439 2293 
Q 1191 2003 1191 1497 
Q 1191 994 1439 701 
Q 1688 409 2113 409 
Q 2538 409 2786 701 
Q 3034 994 3034 1497 
Q 3034 2003 2786 2293 
Q 2538 2584 2113 2584 
z
M 3366 4563 
L 3366 3988 
Q 3128 4100 2886 4159 
Q 2644 4219 2406 4219 
Q 1781 4219 1451 3797 
Q 1122 3375 1075 2522 
Q 1259 2794 1537 2939 
Q 1816 3084 2150 3084 
Q 2853 3084 3261 2657 
Q 3669 2231 3669 1497 
Q 3669 778 3244 343 
Q 2819 -91 2113 -91 
Q 1303 -91 875 529 
Q 447 1150 447 2328 
Q 447 3434 972 4092 
Q 1497 4750 2381 4750 
Q 2619 4750 2861 4703 
Q 3103 4656 3366 4563 
z
" transform="scale(0.015625)"/>
       </defs>
       <use xlink:href="#DejaVuSans-36"/>
       <use xlink:href="#DejaVuSans-30" x="63.623047"/>
      </g>
     </g>
    </g>
    <g id="xtick_8">
     <g id="line2d_8">
      <g>
       <use xlink:href="#m4b173ffed0" x="869.708923" y="640.8" style="stroke: #000000; stroke-width: 0.8"/>
      </g>
     </g>
     <g id="text_8">
      <!-- 70 -->
      <g transform="translate(854.438923 666.03625)scale(0.24 -0.24)">
       <defs>
        <path id="DejaVuSans-37" d="M 525 4666 
L 3525 4666 
L 3525 4397 
L 1831 0 
L 1172 0 
L 2766 4134 
L 525 4134 
L 525 4666 
z
" transform="scale(0.015625)"/>
       </defs>
       <use xlink:href="#DejaVuSans-37"/>
       <use xlink:href="#DejaVuSans-30" x="63.623047"/>
      </g>
     </g>
    </g>
    <g id="xtick_9">
     <g id="line2d_9">
      <g>
       <use xlink:href="#m4b173ffed0" x="970.092708" y="640.8" style="stroke: #000000; stroke-width: 0.8"/>
      </g>
     </g>
     <g id="text_9">
      <!-- 80 -->
      <g transform="translate(954.822708 666.03625)scale(0.24 -0.24)">
       <defs>
        <path id="DejaVuSans-38" d="M 2034 2216 
Q 1584 2216 1326 1975 
Q 1069 1734 1069 1313 
Q 1069 891 1326 650 
Q 1584 409 2034 409 
Q 2484 409 2743 651 
Q 3003 894 3003 1313 
Q 3003 1734 2745 1975 
Q 2488 2216 2034 2216 
z
M 1403 2484 
Q 997 2584 770 2862 
Q 544 3141 544 3541 
Q 544 4100 942 4425 
Q 1341 4750 2034 4750 
Q 2731 4750 3128 4425 
Q 3525 4100 3525 3541 
Q 3525 3141 3298 2862 
Q 3072 2584 2669 2484 
Q 3125 2378 3379 2068 
Q 3634 1759 3634 1313 
Q 3634 634 3220 271 
Q 2806 -91 2034 -91 
Q 1263 -91 848 271 
Q 434 634 434 1313 
Q 434 1759 690 2068 
Q 947 2378 1403 2484 
z
M 1172 3481 
Q 1172 3119 1398 2916 
Q 1625 2713 2034 2713 
Q 2441 2713 2670 2916 
Q 2900 3119 2900 3481 
Q 2900 3844 2670 4047 
Q 2441 4250 2034 4250 
Q 1625 4250 1398 4047 
Q 1172 3844 1172 3481 
z
" transform="scale(0.015625)"/>
       </defs>
       <use xlink:href="#DejaVuSans-38"/>
       <use xlink:href="#DejaVuSans-30" x="63.623047"/>
      </g>
     </g>
    </g>
   </g>
   <g id="matplotlib.axis_2">
    <g id="ytick_1">
     <g id="line2d_10">
      <defs>
       <path id="m4072bfa278" d="M 0 0 
L -3.5 0 
" style="stroke: #000000; stroke-width: 0.8"/>
      </defs>
      <g>
       <use xlink:href="#m4072bfa278" x="135" y="640.8" style="stroke: #000000; stroke-width: 0.8"/>
      </g>
     </g>
     <g id="text_10">
      <!-- 0 -->
      <g transform="translate(112.73 649.918125)scale(0.24 -0.24)">
       <use xlink:href="#DejaVuSans-30"/>
      </g>
     </g>
    </g>
    <g id="ytick_2">
     <g id="line2d_11">
      <g>
       <use xlink:href="#m4072bfa278" x="135" y="579.2" style="stroke: #000000; stroke-width: 0.8"/>
      </g>
     </g>
     <g id="text_11">
      <!-- 1 -->
      <g transform="translate(112.73 588.318125)scale(0.24 -0.24)">
       <use xlink:href="#DejaVuSans-31"/>
      </g>
     </g>
    </g>
    <g id="ytick_3">
     <g id="line2d_12">
      <g>
       <use xlink:href="#m4072bfa278" x="135" y="517.6" style="stroke: #000000; stroke-width: 0.8"/>
      </g>
     </g>
     <g id="text_12">
      <!-- 2 -->
      <g transform="translate(112.73 526.718125)scale(0.24 -0.24)">
       <use xlink:href="#DejaVuSans-32"/>
      </g>
     </g>
    </g>
    <g id="ytick_4">
     <g id="line2d_13">
      <g>
       <use xlink:href="#m4072bfa278" x="135" y="456" style="stroke: #000000; stroke-width: 0.8"/>
      </g>
     </g>
     <g id="text_13">
      <!-- 3 -->
      <g transform="translate(112.73 465.118125)scale(0.24 -0.24)">
       <use xlink:href="#DejaVuSans-33"/>
      </g>
     </g>
    </g>
    <g id="ytick_5">
     <g id="line2d_14">
      <g>
       <use xlink:href="#m4072bfa278" x="135" y="394.4" style="stroke: #000000; stroke-width: 0.8"/>
      </g>
     </g>
     <g id="text_14">
      <!-- 4 -->
      <g transform="translate(112.73 403.518125)scale(0.24 -0.24)">
       <use xlink:href="#DejaVuSans-34"/>
      </g>
     </g>
    </g>
    <g id="ytick_6">
     <g id="line2d_15">
      <g>
       <use xlink:href="#m4072bfa278" x="135" y="332.8" style="stroke: #000000; stroke-width: 0.8"/>
      </g>
     </g>
     <g id="text_15">
      <!-- 5 -->
      <g transform="translate(112.73 341.918125)scale(0.24 -0.24)">
       <use xlink:href="#DejaVuSans-35"/>
      </g>
     </g>
    </g>
    <g id="ytick_7">
     <g id="line2d_16">
      <g>
       <use xlink:href="#m4072bfa278" x="135" y="271.2" style="stroke: #000000; stroke-width: 0.8"/>
      </g>
     </g>
     <g id="text_16">
      <!-- 6 -->
      <g transform="translate(112.73 280.318125)scale(0.24 -0.24)">
       <use xlink:href="#DejaVuSans-36"/>
      </g>
     </g>
    </g>
    <g id="ytick_8">
     <g id="line2d_17">
      <g>
       <use xlink:href="#m4072bfa278" x="135" y="209.6" style="stroke: #000000; stroke-width: 0.8"/>
      </g>
     </g>
     <g id="text_17">
      <!-- 7 -->
      <g transform="translate(112.73 218.718125)scale(0.24 -0.24)">
       <use xlink:href="#DejaVuSans-37"/>
      </g>
     </g>
    </g>
    <g id="ytick_9">
     <g id="line2d_18">
      <g>
       <use xlink:href="#m4072bfa278" x="135" y="148" style="stroke: #000000; stroke-width: 0.8"/>
      </g>
     </g>
     <g id="text_18">
      <!-- 8 -->
      <g transform="translate(112.73 157.118125)scale(0.24 -0.24)">
       <use xlink:href="#DejaVuSans-38"/>
      </g>
     </g>
    </g>
    <g id="ytick_10">
     <g id="line2d_19">
      <g>
       <use xlink:href="#m4072bfa278" x="135" y="86.4" style="stroke: #000000; stroke-width: 0.8"/>
      </g>
     </g>
     <g id="text_19">
      <!-- 9 -->
      <g transform="translate(112.73 95.518125)scale(0.24 -0.24)">
       <defs>
        <path id="DejaVuSans-39" d="M 703 97 
L 703 672 
Q 941 559 1184 500 
Q 1428 441 1663 441 
Q 2288 441 2617 861 
Q 2947 1281 2994 2138 
Q 2813 1869 2534 1725 
Q 2256 1581 1919 1581 
Q 1219 1581 811 2004 
Q 403 2428 403 3163 
Q 403 3881 828 4315 
Q 1253 4750 1959 4750 
Q 2769 4750 3195 4129 
Q 3622 3509 3622 2328 
Q 3622 1225 3098 567 
Q 2575 -91 1691 -91 
Q 1453 -91 1209 -44 
Q 966 3 703 97 
z
M 1959 2075 
Q 2384 2075 2632 2365 
Q 2881 2656 2881 3163 
Q 2881 3666 2632 3958 
Q 2384 4250 1959 4250 
Q 1534 4250 1286 3958 
Q 1038 3666 1038 3163 
Q 1038 2656 1286 2365 
Q 1534 2075 1959 2075 
z
" transform="scale(0.015625)"/>
       </defs>
       <use xlink:href="#DejaVuSans-39"/>
      </g>
     </g>
    </g>
   </g>
   <g id="patch_231">
    <path d="M 135 640.8 
L 135 86.4 
" style="fill: none; stroke: #000000; stroke-width: 0.8; stroke-linejoin: miter; stroke-linecap: square"/>
   </g>
   <g id="patch_232">
    <path d="M 972 640.8 
L 972 86.4 
" style="fill: none; stroke: #000000; stroke-width: 0.8; stroke-linejoin: miter; stroke-linecap: square"/>
   </g>
   <g id="patch_233">
    <path d="M 135 640.8 
L 972 640.8 
" style="fill: none; stroke: #000000; stroke-width: 0.8; stroke-linejoin: miter; stroke-linecap: square"/>
   </g>
   <g id="patch_234">
    <path d="M 135 86.4 
L 972 86.4 
" style="fill: none; stroke: #000000; stroke-width: 0.8; stroke-linejoin: miter; stroke-linecap: square"/>
   </g>
   <g id="text_20">
    <!-- Ambiguous mails: Distribution of aggressiveness ratings -->
    <g transform="translate(215.334375 80.4)scale(0.24 -0.24)">
     <defs>
      <path id="DejaVuSans-41" d="M 2188 4044 
L 1331 1722 
L 3047 1722 
L 2188 4044 
z
M 1831 4666 
L 2547 4666 
L 4325 0 
L 3669 0 
L 3244 1197 
L 1141 1197 
L 716 0 
L 50 0 
L 1831 4666 
z
" transform="scale(0.015625)"/>
      <path id="DejaVuSans-6d" d="M 3328 2828 
Q 3544 3216 3844 3400 
Q 4144 3584 4550 3584 
Q 5097 3584 5394 3201 
Q 5691 2819 5691 2113 
L 5691 0 
L 5113 0 
L 5113 2094 
Q 5113 2597 4934 2840 
Q 4756 3084 4391 3084 
Q 3944 3084 3684 2787 
Q 3425 2491 3425 1978 
L 3425 0 
L 2847 0 
L 2847 2094 
Q 2847 2600 2669 2842 
Q 2491 3084 2119 3084 
Q 1678 3084 1418 2786 
Q 1159 2488 1159 1978 
L 1159 0 
L 581 0 
L 581 3500 
L 1159 3500 
L 1159 2956 
Q 1356 3278 1631 3431 
Q 1906 3584 2284 3584 
Q 2666 3584 2933 3390 
Q 3200 3197 3328 2828 
z
" transform="scale(0.015625)"/>
      <path id="DejaVuSans-62" d="M 3116 1747 
Q 3116 2381 2855 2742 
Q 2594 3103 2138 3103 
Q 1681 3103 1420 2742 
Q 1159 2381 1159 1747 
Q 1159 1113 1420 752 
Q 1681 391 2138 391 
Q 2594 391 2855 752 
Q 3116 1113 3116 1747 
z
M 1159 2969 
Q 1341 3281 1617 3432 
Q 1894 3584 2278 3584 
Q 2916 3584 3314 3078 
Q 3713 2572 3713 1747 
Q 3713 922 3314 415 
Q 2916 -91 2278 -91 
Q 1894 -91 1617 61 
Q 1341 213 1159 525 
L 1159 0 
L 581 0 
L 581 4863 
L 1159 4863 
L 1159 2969 
z
" transform="scale(0.015625)"/>
      <path id="DejaVuSans-69" d="M 603 3500 
L 1178 3500 
L 1178 0 
L 603 0 
L 603 3500 
z
M 603 4863 
L 1178 4863 
L 1178 4134 
L 603 4134 
L 603 4863 
z
" transform="scale(0.015625)"/>
      <path id="DejaVuSans-67" d="M 2906 1791 
Q 2906 2416 2648 2759 
Q 2391 3103 1925 3103 
Q 1463 3103 1205 2759 
Q 947 2416 947 1791 
Q 947 1169 1205 825 
Q 1463 481 1925 481 
Q 2391 481 2648 825 
Q 2906 1169 2906 1791 
z
M 3481 434 
Q 3481 -459 3084 -895 
Q 2688 -1331 1869 -1331 
Q 1566 -1331 1297 -1286 
Q 1028 -1241 775 -1147 
L 775 -588 
Q 1028 -725 1275 -790 
Q 1522 -856 1778 -856 
Q 2344 -856 2625 -561 
Q 2906 -266 2906 331 
L 2906 616 
Q 2728 306 2450 153 
Q 2172 0 1784 0 
Q 1141 0 747 490 
Q 353 981 353 1791 
Q 353 2603 747 3093 
Q 1141 3584 1784 3584 
Q 2172 3584 2450 3431 
Q 2728 3278 2906 2969 
L 2906 3500 
L 3481 3500 
L 3481 434 
z
" transform="scale(0.015625)"/>
      <path id="DejaVuSans-75" d="M 544 1381 
L 544 3500 
L 1119 3500 
L 1119 1403 
Q 1119 906 1312 657 
Q 1506 409 1894 409 
Q 2359 409 2629 706 
Q 2900 1003 2900 1516 
L 2900 3500 
L 3475 3500 
L 3475 0 
L 2900 0 
L 2900 538 
Q 2691 219 2414 64 
Q 2138 -91 1772 -91 
Q 1169 -91 856 284 
Q 544 659 544 1381 
z
M 1991 3584 
L 1991 3584 
z
" transform="scale(0.015625)"/>
      <path id="DejaVuSans-6f" d="M 1959 3097 
Q 1497 3097 1228 2736 
Q 959 2375 959 1747 
Q 959 1119 1226 758 
Q 1494 397 1959 397 
Q 2419 397 2687 759 
Q 2956 1122 2956 1747 
Q 2956 2369 2687 2733 
Q 2419 3097 1959 3097 
z
M 1959 3584 
Q 2709 3584 3137 3096 
Q 3566 2609 3566 1747 
Q 3566 888 3137 398 
Q 2709 -91 1959 -91 
Q 1206 -91 779 398 
Q 353 888 353 1747 
Q 353 2609 779 3096 
Q 1206 3584 1959 3584 
z
" transform="scale(0.015625)"/>
      <path id="DejaVuSans-73" d="M 2834 3397 
L 2834 2853 
Q 2591 2978 2328 3040 
Q 2066 3103 1784 3103 
Q 1356 3103 1142 2972 
Q 928 2841 928 2578 
Q 928 2378 1081 2264 
Q 1234 2150 1697 2047 
L 1894 2003 
Q 2506 1872 2764 1633 
Q 3022 1394 3022 966 
Q 3022 478 2636 193 
Q 2250 -91 1575 -91 
Q 1294 -91 989 -36 
Q 684 19 347 128 
L 347 722 
Q 666 556 975 473 
Q 1284 391 1588 391 
Q 1994 391 2212 530 
Q 2431 669 2431 922 
Q 2431 1156 2273 1281 
Q 2116 1406 1581 1522 
L 1381 1569 
Q 847 1681 609 1914 
Q 372 2147 372 2553 
Q 372 3047 722 3315 
Q 1072 3584 1716 3584 
Q 2034 3584 2315 3537 
Q 2597 3491 2834 3397 
z
" transform="scale(0.015625)"/>
      <path id="DejaVuSans-20" transform="scale(0.015625)"/>
      <path id="DejaVuSans-61" d="M 2194 1759 
Q 1497 1759 1228 1600 
Q 959 1441 959 1056 
Q 959 750 1161 570 
Q 1363 391 1709 391 
Q 2188 391 2477 730 
Q 2766 1069 2766 1631 
L 2766 1759 
L 2194 1759 
z
M 3341 1997 
L 3341 0 
L 2766 0 
L 2766 531 
Q 2569 213 2275 61 
Q 1981 -91 1556 -91 
Q 1019 -91 701 211 
Q 384 513 384 1019 
Q 384 1609 779 1909 
Q 1175 2209 1959 2209 
L 2766 2209 
L 2766 2266 
Q 2766 2663 2505 2880 
Q 2244 3097 1772 3097 
Q 1472 3097 1187 3025 
Q 903 2953 641 2809 
L 641 3341 
Q 956 3463 1253 3523 
Q 1550 3584 1831 3584 
Q 2591 3584 2966 3190 
Q 3341 2797 3341 1997 
z
" transform="scale(0.015625)"/>
      <path id="DejaVuSans-6c" d="M 603 4863 
L 1178 4863 
L 1178 0 
L 603 0 
L 603 4863 
z
" transform="scale(0.015625)"/>
      <path id="DejaVuSans-3a" d="M 750 794 
L 1409 794 
L 1409 0 
L 750 0 
L 750 794 
z
M 750 3309 
L 1409 3309 
L 1409 2516 
L 750 2516 
L 750 3309 
z
" transform="scale(0.015625)"/>
      <path id="DejaVuSans-44" d="M 1259 4147 
L 1259 519 
L 2022 519 
Q 2988 519 3436 956 
Q 3884 1394 3884 2338 
Q 3884 3275 3436 3711 
Q 2988 4147 2022 4147 
L 1259 4147 
z
M 628 4666 
L 1925 4666 
Q 3281 4666 3915 4102 
Q 4550 3538 4550 2338 
Q 4550 1131 3912 565 
Q 3275 0 1925 0 
L 628 0 
L 628 4666 
z
" transform="scale(0.015625)"/>
      <path id="DejaVuSans-74" d="M 1172 4494 
L 1172 3500 
L 2356 3500 
L 2356 3053 
L 1172 3053 
L 1172 1153 
Q 1172 725 1289 603 
Q 1406 481 1766 481 
L 2356 481 
L 2356 0 
L 1766 0 
Q 1100 0 847 248 
Q 594 497 594 1153 
L 594 3053 
L 172 3053 
L 172 3500 
L 594 3500 
L 594 4494 
L 1172 4494 
z
" transform="scale(0.015625)"/>
      <path id="DejaVuSans-72" d="M 2631 2963 
Q 2534 3019 2420 3045 
Q 2306 3072 2169 3072 
Q 1681 3072 1420 2755 
Q 1159 2438 1159 1844 
L 1159 0 
L 581 0 
L 581 3500 
L 1159 3500 
L 1159 2956 
Q 1341 3275 1631 3429 
Q 1922 3584 2338 3584 
Q 2397 3584 2469 3576 
Q 2541 3569 2628 3553 
L 2631 2963 
z
" transform="scale(0.015625)"/>
      <path id="DejaVuSans-6e" d="M 3513 2113 
L 3513 0 
L 2938 0 
L 2938 2094 
Q 2938 2591 2744 2837 
Q 2550 3084 2163 3084 
Q 1697 3084 1428 2787 
Q 1159 2491 1159 1978 
L 1159 0 
L 581 0 
L 581 3500 
L 1159 3500 
L 1159 2956 
Q 1366 3272 1645 3428 
Q 1925 3584 2291 3584 
Q 2894 3584 3203 3211 
Q 3513 2838 3513 2113 
z
" transform="scale(0.015625)"/>
      <path id="DejaVuSans-66" d="M 2375 4863 
L 2375 4384 
L 1825 4384 
Q 1516 4384 1395 4259 
Q 1275 4134 1275 3809 
L 1275 3500 
L 2222 3500 
L 2222 3053 
L 1275 3053 
L 1275 0 
L 697 0 
L 697 3053 
L 147 3053 
L 147 3500 
L 697 3500 
L 697 3744 
Q 697 4328 969 4595 
Q 1241 4863 1831 4863 
L 2375 4863 
z
" transform="scale(0.015625)"/>
      <path id="DejaVuSans-65" d="M 3597 1894 
L 3597 1613 
L 953 1613 
Q 991 1019 1311 708 
Q 1631 397 2203 397 
Q 2534 397 2845 478 
Q 3156 559 3463 722 
L 3463 178 
Q 3153 47 2828 -22 
Q 2503 -91 2169 -91 
Q 1331 -91 842 396 
Q 353 884 353 1716 
Q 353 2575 817 3079 
Q 1281 3584 2069 3584 
Q 2775 3584 3186 3129 
Q 3597 2675 3597 1894 
z
M 3022 2063 
Q 3016 2534 2758 2815 
Q 2500 3097 2075 3097 
Q 1594 3097 1305 2825 
Q 1016 2553 972 2059 
L 3022 2063 
z
" transform="scale(0.015625)"/>
      <path id="DejaVuSans-76" d="M 191 3500 
L 800 3500 
L 1894 563 
L 2988 3500 
L 3597 3500 
L 2284 0 
L 1503 0 
L 191 3500 
z
" transform="scale(0.015625)"/>
     </defs>
     <use xlink:href="#DejaVuSans-41"/>
     <use xlink:href="#DejaVuSans-6d" x="68.408203"/>
     <use xlink:href="#DejaVuSans-62" x="165.820312"/>
     <use xlink:href="#DejaVuSans-69" x="229.296875"/>
     <use xlink:href="#DejaVuSans-67" x="257.080078"/>
     <use xlink:href="#DejaVuSans-75" x="320.556641"/>
     <use xlink:href="#DejaVuSans-6f" x="383.935547"/>
     <use xlink:href="#DejaVuSans-75" x="445.117188"/>
     <use xlink:href="#DejaVuSans-73" x="508.496094"/>
     <use xlink:href="#DejaVuSans-20" x="560.595703"/>
     <use xlink:href="#DejaVuSans-6d" x="592.382812"/>
     <use xlink:href="#DejaVuSans-61" x="689.794922"/>
     <use xlink:href="#DejaVuSans-69" x="751.074219"/>
     <use xlink:href="#DejaVuSans-6c" x="778.857422"/>
     <use xlink:href="#DejaVuSans-73" x="806.640625"/>
     <use xlink:href="#DejaVuSans-3a" x="858.740234"/>
     <use xlink:href="#DejaVuSans-20" x="892.431641"/>
     <use xlink:href="#DejaVuSans-44" x="924.21875"/>
     <use xlink:href="#DejaVuSans-69" x="1001.220703"/>
     <use xlink:href="#DejaVuSans-73" x="1029.003906"/>
     <use xlink:href="#DejaVuSans-74" x="1081.103516"/>
     <use xlink:href="#DejaVuSans-72" x="1120.3125"/>
     <use xlink:href="#DejaVuSans-69" x="1161.425781"/>
     <use xlink:href="#DejaVuSans-62" x="1189.208984"/>
     <use xlink:href="#DejaVuSans-75" x="1252.685547"/>
     <use xlink:href="#DejaVuSans-74" x="1316.064453"/>
     <use xlink:href="#DejaVuSans-69" x="1355.273438"/>
     <use xlink:href="#DejaVuSans-6f" x="1383.056641"/>
     <use xlink:href="#DejaVuSans-6e" x="1444.238281"/>
     <use xlink:href="#DejaVuSans-20" x="1507.617188"/>
     <use xlink:href="#DejaVuSans-6f" x="1539.404297"/>
     <use xlink:href="#DejaVuSans-66" x="1600.585938"/>
     <use xlink:href="#DejaVuSans-20" x="1635.791016"/>
     <use xlink:href="#DejaVuSans-61" x="1667.578125"/>
     <use xlink:href="#DejaVuSans-67" x="1728.857422"/>
     <use xlink:href="#DejaVuSans-67" x="1792.333984"/>
     <use xlink:href="#DejaVuSans-72" x="1855.810547"/>
     <use xlink:href="#DejaVuSans-65" x="1894.673828"/>
     <use xlink:href="#DejaVuSans-73" x="1956.197266"/>
     <use xlink:href="#DejaVuSans-73" x="2008.296875"/>
     <use xlink:href="#DejaVuSans-69" x="2060.396484"/>
     <use xlink:href="#DejaVuSans-76" x="2088.179688"/>
     <use xlink:href="#DejaVuSans-65" x="2147.359375"/>
     <use xlink:href="#DejaVuSans-6e" x="2208.882812"/>
     <use xlink:href="#DejaVuSans-65" x="2272.261719"/>
     <use xlink:href="#DejaVuSans-73" x="2333.785156"/>
     <use xlink:href="#DejaVuSans-73" x="2385.884766"/>
     <use xlink:href="#DejaVuSans-20" x="2437.984375"/>
     <use xlink:href="#DejaVuSans-72" x="2469.771484"/>
     <use xlink:href="#DejaVuSans-61" x="2510.884766"/>
     <use xlink:href="#DejaVuSans-74" x="2572.164062"/>
     <use xlink:href="#DejaVuSans-69" x="2611.373047"/>
     <use xlink:href="#DejaVuSans-6e" x="2639.15625"/>
     <use xlink:href="#DejaVuSans-67" x="2702.535156"/>
     <use xlink:href="#DejaVuSans-73" x="2766.011719"/>
    </g>
   </g>
   <g id="legend_1">
    <g id="patch_235">
     <path d="M 142 179.0825 
L 411.52125 179.0825 
Q 413.52125 179.0825 413.52125 177.0825 
L 413.52125 93.4 
Q 413.52125 91.4 411.52125 91.4 
L 142 91.4 
Q 140 91.4 140 93.4 
L 140 177.0825 
Q 140 179.0825 142 179.0825 
z
" style="fill: #ffffff; opacity: 0.8; stroke: #cccccc; stroke-linejoin: miter"/>
    </g>
    <g id="patch_236">
     <path d="M 144 113.63625 
L 164 113.63625 
L 164 106.63625 
L 144 106.63625 
z
" style="fill: #1f77b4"/>
    </g>
    <g id="text_21">
     <!-- Not aggressive -->
     <g transform="translate(172 113.63625)scale(0.24 -0.24)">
      <defs>
       <path id="DejaVuSans-4e" d="M 628 4666 
L 1478 4666 
L 3547 763 
L 3547 4666 
L 4159 4666 
L 4159 0 
L 3309 0 
L 1241 3903 
L 1241 0 
L 628 0 
L 628 4666 
z
" transform="scale(0.015625)"/>
      </defs>
      <use xlink:href="#DejaVuSans-4e"/>
      <use xlink:href="#DejaVuSans-6f" x="74.804688"/>
      <use xlink:href="#DejaVuSans-74" x="135.986328"/>
      <use xlink:href="#DejaVuSans-20" x="175.195312"/>
      <use xlink:href="#DejaVuSans-61" x="206.982422"/>
      <use xlink:href="#DejaVuSans-67" x="268.261719"/>
      <use xlink:href="#DejaVuSans-67" x="331.738281"/>
      <use xlink:href="#DejaVuSans-72" x="395.214844"/>
      <use xlink:href="#DejaVuSans-65" x="434.078125"/>
      <use xlink:href="#DejaVuSans-73" x="495.601562"/>
      <use xlink:href="#DejaVuSans-73" x="547.701172"/>
      <use xlink:href="#DejaVuSans-69" x="599.800781"/>
      <use xlink:href="#DejaVuSans-76" x="627.583984"/>
      <use xlink:href="#DejaVuSans-65" x="686.763672"/>
     </g>
    </g>
    <g id="patch_237">
     <path d="M 144 141.86375 
L 164 141.86375 
L 164 134.86375 
L 144 134.86375 
z
" style="fill: #ff7f0e"/>
    </g>
    <g id="text_22">
     <!-- Mildly aggressive -->
     <g transform="translate(172 141.86375)scale(0.24 -0.24)">
      <defs>
       <path id="DejaVuSans-4d" d="M 628 4666 
L 1569 4666 
L 2759 1491 
L 3956 4666 
L 4897 4666 
L 4897 0 
L 4281 0 
L 4281 4097 
L 3078 897 
L 2444 897 
L 1241 4097 
L 1241 0 
L 628 0 
L 628 4666 
z
" transform="scale(0.015625)"/>
       <path id="DejaVuSans-64" d="M 2906 2969 
L 2906 4863 
L 3481 4863 
L 3481 0 
L 2906 0 
L 2906 525 
Q 2725 213 2448 61 
Q 2172 -91 1784 -91 
Q 1150 -91 751 415 
Q 353 922 353 1747 
Q 353 2572 751 3078 
Q 1150 3584 1784 3584 
Q 2172 3584 2448 3432 
Q 2725 3281 2906 2969 
z
M 947 1747 
Q 947 1113 1208 752 
Q 1469 391 1925 391 
Q 2381 391 2643 752 
Q 2906 1113 2906 1747 
Q 2906 2381 2643 2742 
Q 2381 3103 1925 3103 
Q 1469 3103 1208 2742 
Q 947 2381 947 1747 
z
" transform="scale(0.015625)"/>
       <path id="DejaVuSans-79" d="M 2059 -325 
Q 1816 -950 1584 -1140 
Q 1353 -1331 966 -1331 
L 506 -1331 
L 506 -850 
L 844 -850 
Q 1081 -850 1212 -737 
Q 1344 -625 1503 -206 
L 1606 56 
L 191 3500 
L 800 3500 
L 1894 763 
L 2988 3500 
L 3597 3500 
L 2059 -325 
z
" transform="scale(0.015625)"/>
      </defs>
      <use xlink:href="#DejaVuSans-4d"/>
      <use xlink:href="#DejaVuSans-69" x="86.279297"/>
      <use xlink:href="#DejaVuSans-6c" x="114.0625"/>
      <use xlink:href="#DejaVuSans-64" x="141.845703"/>
      <use xlink:href="#DejaVuSans-6c" x="205.322266"/>
      <use xlink:href="#DejaVuSans-79" x="233.105469"/>
      <use xlink:href="#DejaVuSans-20" x="292.285156"/>
      <use xlink:href="#DejaVuSans-61" x="324.072266"/>
      <use xlink:href="#DejaVuSans-67" x="385.351562"/>
      <use xlink:href="#DejaVuSans-67" x="448.828125"/>
      <use xlink:href="#DejaVuSans-72" x="512.304688"/>
      <use xlink:href="#DejaVuSans-65" x="551.167969"/>
      <use xlink:href="#DejaVuSans-73" x="612.691406"/>
      <use xlink:href="#DejaVuSans-73" x="664.791016"/>
      <use xlink:href="#DejaVuSans-69" x="716.890625"/>
      <use xlink:href="#DejaVuSans-76" x="744.673828"/>
      <use xlink:href="#DejaVuSans-65" x="803.853516"/>
     </g>
    </g>
    <g id="patch_238">
     <path d="M 144 170.09125 
L 164 170.09125 
L 164 163.09125 
L 144 163.09125 
z
" style="fill: #2ca02c"/>
    </g>
    <g id="text_23">
     <!-- Strongly aggressive -->
     <g transform="translate(172 170.09125)scale(0.24 -0.24)">
      <defs>
       <path id="DejaVuSans-53" d="M 3425 4513 
L 3425 3897 
Q 3066 4069 2747 4153 
Q 2428 4238 2131 4238 
Q 1616 4238 1336 4038 
Q 1056 3838 1056 3469 
Q 1056 3159 1242 3001 
Q 1428 2844 1947 2747 
L 2328 2669 
Q 3034 2534 3370 2195 
Q 3706 1856 3706 1288 
Q 3706 609 3251 259 
Q 2797 -91 1919 -91 
Q 1588 -91 1214 -16 
Q 841 59 441 206 
L 441 856 
Q 825 641 1194 531 
Q 1563 422 1919 422 
Q 2459 422 2753 634 
Q 3047 847 3047 1241 
Q 3047 1584 2836 1778 
Q 2625 1972 2144 2069 
L 1759 2144 
Q 1053 2284 737 2584 
Q 422 2884 422 3419 
Q 422 4038 858 4394 
Q 1294 4750 2059 4750 
Q 2388 4750 2728 4690 
Q 3069 4631 3425 4513 
z
" transform="scale(0.015625)"/>
      </defs>
      <use xlink:href="#DejaVuSans-53"/>
      <use xlink:href="#DejaVuSans-74" x="63.476562"/>
      <use xlink:href="#DejaVuSans-72" x="102.685547"/>
      <use xlink:href="#DejaVuSans-6f" x="141.548828"/>
      <use xlink:href="#DejaVuSans-6e" x="202.730469"/>
      <use xlink:href="#DejaVuSans-67" x="266.109375"/>
      <use xlink:href="#DejaVuSans-6c" x="329.585938"/>
      <use xlink:href="#DejaVuSans-79" x="357.369141"/>
      <use xlink:href="#DejaVuSans-20" x="416.548828"/>
      <use xlink:href="#DejaVuSans-61" x="448.335938"/>
      <use xlink:href="#DejaVuSans-67" x="509.615234"/>
      <use xlink:href="#DejaVuSans-67" x="573.091797"/>
      <use xlink:href="#DejaVuSans-72" x="636.568359"/>
      <use xlink:href="#DejaVuSans-65" x="675.431641"/>
      <use xlink:href="#DejaVuSans-73" x="736.955078"/>
      <use xlink:href="#DejaVuSans-73" x="789.054688"/>
      <use xlink:href="#DejaVuSans-69" x="841.154297"/>
      <use xlink:href="#DejaVuSans-76" x="868.9375"/>
      <use xlink:href="#DejaVuSans-65" x="928.117188"/>
     </g>
    </g>
   </g>
  </g>
 </g>
 <defs>
  <clipPath id="p8f273742a3">
   <rect x="135" y="86.4" width="837" height="554.4"/>
  </clipPath>
 </defs>
</svg>
