<?xml version="1.0" encoding="utf-8" standalone="no"?>
<!DOCTYPE svg PUBLIC "-//W3C//DTD SVG 1.1//EN"
  "http://www.w3.org/Graphics/SVG/1.1/DTD/svg11.dtd">
<svg xmlns:xlink="http://www.w3.org/1999/xlink" width="1440pt" height="720pt" viewBox="0 0 1440 720" xmlns="http://www.w3.org/2000/svg" version="1.1">
 <metadata>
  <rdf:RDF xmlns:dc="http://purl.org/dc/elements/1.1/" xmlns:cc="http://creativecommons.org/ns#" xmlns:rdf="http://www.w3.org/1999/02/22-rdf-syntax-ns#">
   <cc:Work>
    <dc:type rdf:resource="http://purl.org/dc/dcmitype/StillImage"/>
    <dc:date>2022-08-29T17:28:54.520830</dc:date>
    <dc:format>image/svg+xml</dc:format>
    <dc:creator>
     <cc:Agent>
      <dc:title>Matplotlib v3.5.3, https://matplotlib.org/</dc:title>
     </cc:Agent>
    </dc:creator>
   </cc:Work>
  </rdf:RDF>
 </metadata>
 <defs>
  <style type="text/css">*{stroke-linejoin: round; stroke-linecap: butt}</style>
 </defs>
 <g id="figure_1">
  <g id="patch_1">
   <path d="M 0 720 
L 1440 720 
L 1440 0 
L 0 0 
z
" style="fill: #ffffff"/>
  </g>
  <g id="axes_1">
   <g id="patch_2">
    <path d="M 180 640.8 
L 1296 640.8 
L 1296 86.4 
L 180 86.4 
z
" style="fill: #ffffff"/>
   </g>
   <g id="matplotlib.axis_1">
    <g id="xtick_1">
     <g id="line2d_1">
      <defs>
       <path id="m2af1dada3b" d="M 0 0 
L 0 3.5 
" style="stroke: #000000; stroke-width: 0.8"/>
      </defs>
      <g>
       <use xlink:href="#m2af1dada3b" x="230.727273" y="640.8" style="stroke: #000000; stroke-width: 0.8"/>
      </g>
     </g>
     <g id="text_1">
      <!-- $\mathdefault{0}$ -->
      <g transform="translate(228.236605 654.718498)scale(0.1 -0.1)">
       <defs>
        <path id="CMR17-30" d="M 2688 2025 
C 2688 2416 2682 3080 2413 3591 
C 2176 4039 1798 4198 1466 4198 
C 1158 4198 768 4058 525 3597 
C 269 3118 243 2524 243 2025 
C 243 1661 250 1106 448 619 
C 723 -39 1216 -128 1466 -128 
C 1760 -128 2208 -7 2470 600 
C 2662 1042 2688 1559 2688 2025 
z
M 1466 -26 
C 1056 -26 813 325 723 812 
C 653 1188 653 1738 653 2096 
C 653 2588 653 2997 736 3387 
C 858 3929 1216 4096 1466 4096 
C 1728 4096 2067 3923 2189 3400 
C 2272 3036 2278 2607 2278 2096 
C 2278 1680 2278 1169 2202 792 
C 2067 95 1690 -26 1466 -26 
z
" transform="scale(0.015625)"/>
       </defs>
       <use xlink:href="#CMR17-30" transform="scale(0.996264)"/>
      </g>
     </g>
    </g>
    <g id="xtick_2">
     <g id="line2d_2">
      <g>
       <use xlink:href="#m2af1dada3b" x="375.249417" y="640.8" style="stroke: #000000; stroke-width: 0.8"/>
      </g>
     </g>
     <g id="text_2">
      <!-- $\mathdefault{50}$ -->
      <g transform="translate(370.268082 654.718498)scale(0.1 -0.1)">
       <defs>
        <path id="CMR17-35" d="M 730 3692 
C 794 3666 1056 3584 1325 3584 
C 1920 3584 2246 3911 2432 4100 
C 2432 4157 2432 4192 2394 4192 
C 2387 4192 2374 4192 2323 4163 
C 2099 4058 1837 3973 1517 3973 
C 1325 3973 1037 3999 723 4139 
C 653 4171 640 4171 634 4171 
C 602 4171 595 4164 595 4037 
L 595 2203 
C 595 2089 595 2057 659 2057 
C 691 2057 704 2070 736 2114 
C 941 2401 1222 2522 1542 2522 
C 1766 2522 2246 2382 2246 1289 
C 2246 1085 2246 715 2054 421 
C 1894 159 1645 25 1370 25 
C 947 25 518 320 403 814 
C 429 807 480 795 506 795 
C 589 795 749 840 749 1038 
C 749 1210 627 1280 506 1280 
C 358 1280 262 1190 262 1011 
C 262 454 704 -128 1382 -128 
C 2042 -128 2669 440 2669 1264 
C 2669 2030 2170 2624 1549 2624 
C 1222 2624 947 2503 730 2274 
L 730 3692 
z
" transform="scale(0.015625)"/>
       </defs>
       <use xlink:href="#CMR17-35" transform="scale(0.996264)"/>
       <use xlink:href="#CMR17-30" transform="translate(45.690477 0)scale(0.996264)"/>
      </g>
     </g>
    </g>
    <g id="xtick_3">
     <g id="line2d_3">
      <g>
       <use xlink:href="#m2af1dada3b" x="519.771562" y="640.8" style="stroke: #000000; stroke-width: 0.8"/>
      </g>
     </g>
     <g id="text_3">
      <!-- $\mathdefault{100}$ -->
      <g transform="translate(512.299559 654.718498)scale(0.1 -0.1)">
       <defs>
        <path id="CMR17-31" d="M 1702 4058 
C 1702 4192 1696 4192 1606 4192 
C 1357 3916 979 3827 621 3827 
C 602 3827 570 3827 563 3808 
C 557 3795 557 3782 557 3648 
C 755 3648 1088 3686 1344 3839 
L 1344 461 
C 1344 236 1331 160 781 160 
L 589 160 
L 589 0 
C 896 0 1216 0 1523 0 
C 1830 0 2150 0 2458 0 
L 2458 160 
L 2266 160 
C 1715 160 1702 230 1702 458 
L 1702 4058 
z
" transform="scale(0.015625)"/>
       </defs>
       <use xlink:href="#CMR17-31" transform="scale(0.996264)"/>
       <use xlink:href="#CMR17-30" transform="translate(45.690477 0)scale(0.996264)"/>
       <use xlink:href="#CMR17-30" transform="translate(91.380954 0)scale(0.996264)"/>
      </g>
     </g>
    </g>
    <g id="xtick_4">
     <g id="line2d_4">
      <g>
       <use xlink:href="#m2af1dada3b" x="664.293706" y="640.8" style="stroke: #000000; stroke-width: 0.8"/>
      </g>
     </g>
     <g id="text_4">
      <!-- $\mathdefault{150}$ -->
      <g transform="translate(656.821703 654.718498)scale(0.1 -0.1)">
       <use xlink:href="#CMR17-31" transform="scale(0.996264)"/>
       <use xlink:href="#CMR17-35" transform="translate(45.690477 0)scale(0.996264)"/>
       <use xlink:href="#CMR17-30" transform="translate(91.380954 0)scale(0.996264)"/>
      </g>
     </g>
    </g>
    <g id="xtick_5">
     <g id="line2d_5">
      <g>
       <use xlink:href="#m2af1dada3b" x="808.815851" y="640.8" style="stroke: #000000; stroke-width: 0.8"/>
      </g>
     </g>
     <g id="text_5">
      <!-- $\mathdefault{200}$ -->
      <g transform="translate(801.343848 654.718498)scale(0.1 -0.1)">
       <defs>
        <path id="CMR17-32" d="M 2669 989 
L 2554 989 
C 2490 536 2438 459 2413 420 
C 2381 369 1920 369 1830 369 
L 602 369 
C 832 619 1280 1072 1824 1597 
C 2214 1967 2669 2402 2669 3035 
C 2669 3790 2067 4224 1395 4224 
C 691 4224 262 3604 262 3030 
C 262 2780 448 2748 525 2748 
C 589 2748 781 2787 781 3010 
C 781 3207 614 3264 525 3264 
C 486 3264 448 3258 422 3245 
C 544 3790 915 4058 1306 4058 
C 1862 4058 2227 3617 2227 3035 
C 2227 2479 1901 2000 1536 1584 
L 262 146 
L 262 0 
L 2515 0 
L 2669 989 
z
" transform="scale(0.015625)"/>
       </defs>
       <use xlink:href="#CMR17-32" transform="scale(0.996264)"/>
       <use xlink:href="#CMR17-30" transform="translate(45.690477 0)scale(0.996264)"/>
       <use xlink:href="#CMR17-30" transform="translate(91.380954 0)scale(0.996264)"/>
      </g>
     </g>
    </g>
    <g id="xtick_6">
     <g id="line2d_6">
      <g>
       <use xlink:href="#m2af1dada3b" x="953.337995" y="640.8" style="stroke: #000000; stroke-width: 0.8"/>
      </g>
     </g>
     <g id="text_6">
      <!-- $\mathdefault{250}$ -->
      <g transform="translate(945.865992 654.718498)scale(0.1 -0.1)">
       <use xlink:href="#CMR17-32" transform="scale(0.996264)"/>
       <use xlink:href="#CMR17-35" transform="translate(45.690477 0)scale(0.996264)"/>
       <use xlink:href="#CMR17-30" transform="translate(91.380954 0)scale(0.996264)"/>
      </g>
     </g>
    </g>
    <g id="xtick_7">
     <g id="line2d_7">
      <g>
       <use xlink:href="#m2af1dada3b" x="1097.86014" y="640.8" style="stroke: #000000; stroke-width: 0.8"/>
      </g>
     </g>
     <g id="text_7">
      <!-- $\mathdefault{300}$ -->
      <g transform="translate(1090.388137 654.718498)scale(0.1 -0.1)">
       <defs>
        <path id="CMR17-33" d="M 1414 2157 
C 1984 2157 2234 1662 2234 1090 
C 2234 320 1824 25 1453 25 
C 1114 25 563 194 390 693 
C 422 680 454 680 486 680 
C 640 680 755 782 755 948 
C 755 1133 614 1216 486 1216 
C 378 1216 211 1165 211 926 
C 211 335 787 -128 1466 -128 
C 2176 -128 2720 430 2720 1085 
C 2720 1707 2208 2157 1600 2227 
C 2086 2328 2554 2756 2554 3329 
C 2554 3820 2048 4179 1472 4179 
C 890 4179 378 3829 378 3329 
C 378 3110 544 3072 627 3072 
C 762 3072 877 3155 877 3321 
C 877 3486 762 3569 627 3569 
C 602 3569 570 3569 544 3557 
C 730 3959 1235 4032 1459 4032 
C 1683 4032 2106 3925 2106 3320 
C 2106 3143 2080 2828 1862 2550 
C 1670 2304 1453 2304 1242 2284 
C 1210 2284 1062 2269 1037 2269 
C 992 2263 966 2257 966 2208 
C 966 2163 973 2157 1101 2157 
L 1414 2157 
z
" transform="scale(0.015625)"/>
       </defs>
       <use xlink:href="#CMR17-33" transform="scale(0.996264)"/>
       <use xlink:href="#CMR17-30" transform="translate(45.690477 0)scale(0.996264)"/>
       <use xlink:href="#CMR17-30" transform="translate(91.380954 0)scale(0.996264)"/>
      </g>
     </g>
    </g>
    <g id="xtick_8">
     <g id="line2d_8">
      <g>
       <use xlink:href="#m2af1dada3b" x="1242.382284" y="640.8" style="stroke: #000000; stroke-width: 0.8"/>
      </g>
     </g>
     <g id="text_8">
      <!-- $\mathdefault{350}$ -->
      <g transform="translate(1234.910282 654.718498)scale(0.1 -0.1)">
       <use xlink:href="#CMR17-33" transform="scale(0.996264)"/>
       <use xlink:href="#CMR17-35" transform="translate(45.690477 0)scale(0.996264)"/>
       <use xlink:href="#CMR17-30" transform="translate(91.380954 0)scale(0.996264)"/>
      </g>
     </g>
    </g>
    <g id="text_9">
     <!-- E-mails in temporal rating order (first prestudy) -->
     <g transform="translate(638.525678 668.127657)scale(0.1 -0.1)">
      <defs>
       <path id="CMSS17-45" d="M 1958 433 
C 1446 433 1216 433 1101 433 
L 1101 2107 
L 3085 2107 
L 3085 2496 
L 1101 2496 
L 1101 4009 
L 1926 4009 
C 2003 4009 2080 4009 2157 4009 
L 3251 4009 
L 3251 4416 
L 563 4416 
L 563 0 
L 3334 0 
L 3334 433 
L 1958 433 
z
" transform="scale(0.015625)"/>
       <path id="CMSS17-2d" d="M 1664 1216 
L 1664 1585 
L 64 1585 
L 64 1216 
L 1664 1216 
z
" transform="scale(0.015625)"/>
       <path id="CMSS17-6d" d="M 4288 1877 
C 4288 2308 4179 2816 3462 2816 
C 2982 2816 2694 2516 2566 2331 
C 2451 2670 2182 2816 1798 2816 
C 1363 2816 1088 2568 941 2389 
L 941 2758 
L 474 2758 
L 474 0 
L 960 0 
L 960 1559 
C 960 1939 1101 2428 1555 2428 
C 2138 2428 2138 2016 2138 1829 
L 2138 0 
L 2624 0 
L 2624 1559 
C 2624 1939 2765 2428 3219 2428 
C 3802 2428 3802 2016 3802 1829 
L 3802 0 
L 4288 0 
L 4288 1877 
z
" transform="scale(0.015625)"/>
       <path id="CMSS17-61" d="M 2406 1791 
C 2406 2392 1978 2808 1402 2808 
C 1120 2808 813 2757 461 2553 
L 499 2135 
C 659 2248 934 2432 1395 2432 
C 1722 2432 1920 2180 1920 1782 
L 1920 1536 
C 896 1536 256 1238 256 726 
C 256 461 416 -64 947 -64 
C 1043 -64 1562 -64 1933 217 
L 1933 -19 
L 2406 -19 
L 2406 1791 
z
M 1920 816 
C 1920 701 1920 548 1728 434 
C 1562 325 1350 325 1261 325 
C 941 325 723 511 723 744 
C 723 1211 1722 1211 1920 1211 
L 1920 816 
z
" transform="scale(0.015625)"/>
       <path id="CMSS17-69" d="M 979 4183 
L 442 4183 
L 442 3648 
L 979 3648 
L 979 4183 
z
M 947 2739 
L 474 2739 
L 474 0 
L 947 0 
L 947 2739 
z
" transform="scale(0.015625)"/>
       <path id="CMSS17-6c" d="M 947 4416 
L 474 4416 
L 474 0 
L 947 0 
L 947 4416 
z
" transform="scale(0.015625)"/>
       <path id="CMSS17-73" d="M 2061 2627 
C 1683 2807 1389 2807 1197 2807 
C 742 2807 198 2648 198 2003 
C 198 1359 902 1218 1094 1179 
C 1389 1122 1715 1058 1715 740 
C 1715 337 1254 337 1171 337 
C 915 337 563 407 243 638 
L 166 210 
C 531 0 883 -64 1178 -64 
C 1965 -64 2163 416 2163 781 
C 2163 1094 1984 1305 1862 1401 
C 1651 1568 1574 1587 1050 1696 
C 960 1709 646 1779 646 2066 
C 646 2432 1050 2432 1139 2432 
C 1555 2432 1811 2303 1984 2208 
L 2061 2627 
z
" transform="scale(0.015625)"/>
       <path id="CMSS17-6e" d="M 2618 1877 
C 2618 2283 2522 2816 1798 2816 
C 1389 2816 1120 2606 941 2389 
L 941 2758 
L 474 2758 
L 474 0 
L 960 0 
L 960 1559 
C 960 1964 1114 2428 1549 2428 
C 2112 2428 2131 2048 2131 1829 
L 2131 0 
L 2618 0 
L 2618 1877 
z
" transform="scale(0.015625)"/>
       <path id="CMSS17-74" d="M 1069 2368 
L 1901 2368 
L 1901 2737 
L 1069 2737 
L 1069 3520 
L 614 3520 
L 614 2737 
L 109 2737 
L 109 2368 
L 602 2368 
L 602 749 
C 602 384 685 -64 1107 -64 
C 1427 -64 1722 25 2003 172 
L 1901 548 
C 1747 414 1562 337 1363 337 
C 1082 337 1069 696 1069 856 
L 1069 2368 
z
" transform="scale(0.015625)"/>
       <path id="CMSS17-65" d="M 2502 1377 
C 2502 1590 2490 2003 2285 2345 
C 2061 2713 1696 2816 1421 2816 
C 755 2816 192 2188 192 1375 
C 192 582 774 -64 1510 -64 
C 1798 -64 2150 19 2470 248 
C 2470 274 2458 414 2451 420 
C 2451 433 2432 630 2432 656 
C 2125 407 1773 325 1517 325 
C 1107 325 666 667 646 1377 
L 2502 1377 
z
M 698 1728 
C 781 2084 1062 2421 1421 2421 
C 1517 2421 1965 2421 2080 1728 
L 698 1728 
z
" transform="scale(0.015625)"/>
       <path id="CMSS17-70" d="M 966 333 
C 1178 129 1466 -5 1773 -5 
C 2368 -5 2880 603 2880 1412 
C 2880 2159 2496 2816 1946 2816 
C 1626 2816 1242 2702 954 2472 
L 954 2765 
L 480 2765 
L 480 -1216 
L 966 -1216 
L 966 333 
z
M 966 2100 
C 1018 2176 1235 2415 1587 2415 
C 2035 2415 2394 1960 2394 1412 
C 2394 787 1958 384 1530 384 
C 1402 384 1267 415 1139 523 
C 966 674 966 768 966 857 
L 966 2100 
z
" transform="scale(0.015625)"/>
       <path id="CMSS17-6f" d="M 2829 1356 
C 2829 2176 2221 2816 1504 2816 
C 768 2816 173 2157 173 1356 
C 173 544 787 -64 1498 -64 
C 2227 -64 2829 563 2829 1356 
z
M 1504 337 
C 1050 337 659 709 659 1408 
C 659 2151 1114 2427 1498 2427 
C 1914 2427 2342 2126 2342 1408 
C 2342 683 1926 337 1504 337 
z
" transform="scale(0.015625)"/>
       <path id="CMSS17-72" d="M 954 1363 
C 954 1965 1395 2368 1958 2368 
L 1958 2789 
C 1549 2789 1165 2585 934 2253 
L 934 2758 
L 480 2758 
L 480 0 
L 954 0 
L 954 1363 
z
" transform="scale(0.015625)"/>
       <path id="CMSS17-67" d="M 2848 2808 
C 2483 2808 2170 2738 1914 2617 
C 1702 2777 1485 2808 1338 2808 
C 781 2808 358 2349 358 1814 
C 358 1468 550 1207 563 1195 
C 448 1035 384 863 384 672 
C 384 448 474 289 544 200 
C 211 -3 166 -314 166 -435 
C 166 -898 749 -1280 1498 -1280 
C 2253 -1280 2835 -898 2835 -428 
C 2835 448 1856 448 1587 448 
L 1069 448 
C 973 448 717 448 717 791 
C 717 921 774 1004 781 1010 
C 877 940 1075 832 1338 832 
C 1869 832 2310 1278 2310 1827 
C 2310 2132 2170 2355 2112 2432 
L 2131 2432 
C 2150 2432 2419 2432 2515 2432 
C 2720 2432 2739 2429 2918 2419 
L 2848 2808 
z
M 1338 1182 
C 1120 1182 813 1315 813 1823 
C 813 2375 1165 2464 1331 2464 
C 1549 2464 1856 2331 1856 1823 
C 1856 1271 1504 1182 1338 1182 
z
M 1581 -10 
C 1734 -10 2381 -10 2381 -442 
C 2381 -714 1984 -929 1504 -929 
C 1018 -929 621 -720 621 -435 
C 621 -403 621 -10 1062 -10 
L 1581 -10 
z
" transform="scale(0.015625)"/>
       <path id="CMSS17-64" d="M 2611 4416 
L 2138 4416 
L 2138 2438 
C 1939 2603 1613 2756 1254 2756 
C 672 2756 211 2131 211 1347 
C 211 562 666 -64 1235 -64 
C 1677 -64 1971 172 2125 306 
L 2125 -13 
L 2611 -13 
L 2611 4416 
z
M 2125 836 
C 2125 747 2125 653 1926 482 
C 1798 375 1645 325 1498 325 
C 1152 325 698 576 698 1340 
C 698 2134 1210 2368 1562 2368 
C 1798 2368 1990 2254 2125 2065 
L 2125 836 
z
" transform="scale(0.015625)"/>
       <path id="CMSS17-28" d="M 1613 4768 
C 1267 4417 474 3601 474 1588 
C 474 -433 1267 -1243 1613 -1600 
L 2003 -1600 
C 1216 -784 960 357 960 1581 
C 960 2798 1203 3946 2003 4768 
L 1613 4768 
z
" transform="scale(0.015625)"/>
       <path id="CMSS17-c" d="M 2752 4416 
L 2240 4416 
L 2240 3906 
L 2752 3906 
L 2752 4416 
z
M 2733 2737 
L 2259 2737 
L 2259 0 
L 2733 0 
L 2733 2737 
z
M 1075 2368 
L 1773 2368 
L 1773 2737 
L 1062 2737 
L 1062 3578 
C 1062 3919 1216 4092 1421 4092 
C 1542 4092 1664 4056 1773 3992 
L 1773 4410 
C 1722 4428 1574 4480 1421 4480 
C 941 4480 602 3993 602 3372 
L 602 2737 
L 160 2737 
L 160 2368 
L 602 2368 
L 602 0 
L 1075 0 
L 1075 2368 
z
" transform="scale(0.015625)"/>
       <path id="CMSS17-75" d="M 2618 2739 
L 2131 2739 
L 2131 972 
C 2131 498 1786 306 1421 306 
C 998 306 960 447 960 709 
L 960 2739 
L 474 2739 
L 474 678 
C 474 179 646 -64 1088 -64 
C 1306 -64 1798 -13 2144 306 
L 2144 0 
L 2618 0 
L 2618 2739 
z
" transform="scale(0.015625)"/>
       <path id="CMSS17-79" d="M 2675 2752 
L 2176 2752 
C 1632 1294 1446 702 1434 383 
L 1427 383 
C 1408 696 1126 1460 902 2007 
L 602 2752 
L 83 2752 
L 1216 13 
C 1146 -178 1043 -465 1011 -529 
C 870 -885 774 -885 672 -885 
C 646 -885 442 -885 211 -809 
L 250 -1229 
C 410 -1261 570 -1280 685 -1280 
C 845 -1280 1165 -1280 1459 -497 
L 2675 2752 
z
" transform="scale(0.015625)"/>
       <path id="CMSS17-29" d="M 723 -1600 
C 1069 -1249 1862 -433 1862 1581 
C 1862 3601 1069 4411 723 4768 
L 333 4768 
C 1120 3952 1376 2811 1376 1588 
C 1376 370 1133 -778 333 -1600 
L 723 -1600 
z
" transform="scale(0.015625)"/>
      </defs>
      <use xlink:href="#CMSS17-45" transform="scale(0.996264)"/>
      <use xlink:href="#CMSS17-2d" transform="translate(55.892013 0)scale(0.996264)"/>
      <use xlink:href="#CMSS17-6d" transform="translate(87.121126 0)scale(0.996264)"/>
      <use xlink:href="#CMSS17-61" transform="translate(161.35038 0)scale(0.996264)"/>
      <use xlink:href="#CMSS17-69" transform="translate(206.272301 0)scale(0.996264)"/>
      <use xlink:href="#CMSS17-6c" transform="translate(228.453024 0)scale(0.996264)"/>
      <use xlink:href="#CMSS17-73" transform="translate(250.633747 0)scale(0.996264)"/>
      <use xlink:href="#CMSS17-69" transform="translate(317.776402 0)scale(0.996264)"/>
      <use xlink:href="#CMSS17-6e" transform="translate(339.957125 0)scale(0.996264)"/>
      <use xlink:href="#CMSS17-74" transform="translate(419.391181 0)scale(0.996264)"/>
      <use xlink:href="#CMSS17-65" transform="translate(453.222747 0)scale(0.996264)"/>
      <use xlink:href="#CMSS17-6d" transform="translate(494.86157 0)scale(0.996264)"/>
      <use xlink:href="#CMSS17-70" transform="translate(569.090824 0)scale(0.996264)"/>
      <use xlink:href="#CMSS17-6f" transform="translate(619.898206 0)scale(0.996264)"/>
      <use xlink:href="#CMSS17-72" transform="translate(664.139375 0)scale(0.996264)"/>
      <use xlink:href="#CMSS17-61" transform="translate(696.049148 0)scale(0.996264)"/>
      <use xlink:href="#CMSS17-6c" transform="translate(740.971069 0)scale(0.996264)"/>
      <use xlink:href="#CMSS17-72" transform="translate(794.380904 0)scale(0.996264)"/>
      <use xlink:href="#CMSS17-61" transform="translate(826.290677 0)scale(0.996264)"/>
      <use xlink:href="#CMSS17-74" transform="translate(871.212598 0)scale(0.996264)"/>
      <use xlink:href="#CMSS17-69" transform="translate(905.044164 0)scale(0.996264)"/>
      <use xlink:href="#CMSS17-6e" transform="translate(927.224887 0)scale(0.996264)"/>
      <use xlink:href="#CMSS17-67" transform="translate(975.42983 0)scale(0.996264)"/>
      <use xlink:href="#CMSS17-6f" transform="translate(1053.502567 0)scale(0.996264)"/>
      <use xlink:href="#CMSS17-72" transform="translate(1097.743736 0)scale(0.996264)"/>
      <use xlink:href="#CMSS17-64" transform="translate(1129.653509 0)scale(0.996264)"/>
      <use xlink:href="#CMSS17-65" transform="translate(1177.858452 0)scale(0.996264)"/>
      <use xlink:href="#CMSS17-72" transform="translate(1219.497274 0)scale(0.996264)"/>
      <use xlink:href="#CMSS17-28" transform="translate(1282.636159 0)scale(0.996264)"/>
      <use xlink:href="#CMSS17-c" transform="translate(1319.070074 0)scale(0.996264)"/>
      <use xlink:href="#CMSS17-72" transform="translate(1369.196811 0)scale(0.996264)"/>
      <use xlink:href="#CMSS17-73" transform="translate(1401.106583 0)scale(0.996264)"/>
      <use xlink:href="#CMSS17-74" transform="translate(1437.020125 0)scale(0.996264)"/>
      <use xlink:href="#CMSS17-70" transform="translate(1502.080805 0)scale(0.996264)"/>
      <use xlink:href="#CMSS17-72" transform="translate(1547.683294 0)scale(0.996264)"/>
      <use xlink:href="#CMSS17-65" transform="translate(1579.593067 0)scale(0.996264)"/>
      <use xlink:href="#CMSS17-73" transform="translate(1621.231889 0)scale(0.996264)"/>
      <use xlink:href="#CMSS17-74" transform="translate(1657.145431 0)scale(0.996264)"/>
      <use xlink:href="#CMSS17-75" transform="translate(1690.976997 0)scale(0.996264)"/>
      <use xlink:href="#CMSS17-64" transform="translate(1739.18194 0)scale(0.996264)"/>
      <use xlink:href="#CMSS17-79" transform="translate(1787.386884 0)scale(0.996264)"/>
      <use xlink:href="#CMSS17-29" transform="translate(1830.387025 0)scale(0.996264)"/>
     </g>
    </g>
   </g>
   <g id="matplotlib.axis_2">
    <g id="ytick_1">
     <g id="line2d_9">
      <defs>
       <path id="md2c5866514" d="M 0 0 
L -3.5 0 
" style="stroke: #000000; stroke-width: 0.8"/>
      </defs>
      <g>
       <use xlink:href="#md2c5866514" x="180" y="615.6" style="stroke: #000000; stroke-width: 0.8"/>
      </g>
     </g>
     <g id="text_10">
      <!-- $\mathdefault{0.0}$ -->
      <g transform="translate(160.269921 619.059249)scale(0.1 -0.1)">
       <defs>
        <path id="CMMI12-3a" d="M 1178 307 
C 1178 492 1024 619 870 619 
C 685 619 557 466 557 313 
C 557 128 710 0 864 0 
C 1050 0 1178 153 1178 307 
z
" transform="scale(0.015625)"/>
       </defs>
       <use xlink:href="#CMR17-30" transform="scale(0.996264)"/>
       <use xlink:href="#CMMI12-3a" transform="translate(45.690477 0)scale(0.996264)"/>
       <use xlink:href="#CMR17-30" transform="translate(72.787654 0)scale(0.996264)"/>
      </g>
     </g>
    </g>
    <g id="ytick_2">
     <g id="line2d_10">
      <g>
       <use xlink:href="#md2c5866514" x="180" y="514.8" style="stroke: #000000; stroke-width: 0.8"/>
      </g>
     </g>
     <g id="text_11">
      <!-- $\mathdefault{0.2}$ -->
      <g transform="translate(160.269921 518.259249)scale(0.1 -0.1)">
       <use xlink:href="#CMR17-30" transform="scale(0.996264)"/>
       <use xlink:href="#CMMI12-3a" transform="translate(45.690477 0)scale(0.996264)"/>
       <use xlink:href="#CMR17-32" transform="translate(72.787654 0)scale(0.996264)"/>
      </g>
     </g>
    </g>
    <g id="ytick_3">
     <g id="line2d_11">
      <g>
       <use xlink:href="#md2c5866514" x="180" y="414" style="stroke: #000000; stroke-width: 0.8"/>
      </g>
     </g>
     <g id="text_12">
      <!-- $\mathdefault{0.4}$ -->
      <g transform="translate(160.269921 417.459249)scale(0.1 -0.1)">
       <defs>
        <path id="CMR17-34" d="M 2150 4122 
C 2150 4256 2144 4256 2029 4256 
L 128 1254 
L 128 1088 
L 1779 1088 
L 1779 457 
C 1779 224 1766 160 1318 160 
L 1197 160 
L 1197 0 
C 1402 0 1747 0 1965 0 
C 2182 0 2528 0 2733 0 
L 2733 160 
L 2611 160 
C 2163 160 2150 224 2150 457 
L 2150 1088 
L 2803 1088 
L 2803 1254 
L 2150 1254 
L 2150 4122 
z
M 1798 3703 
L 1798 1254 
L 256 1254 
L 1798 3703 
z
" transform="scale(0.015625)"/>
       </defs>
       <use xlink:href="#CMR17-30" transform="scale(0.996264)"/>
       <use xlink:href="#CMMI12-3a" transform="translate(45.690477 0)scale(0.996264)"/>
       <use xlink:href="#CMR17-34" transform="translate(72.787654 0)scale(0.996264)"/>
      </g>
     </g>
    </g>
    <g id="ytick_4">
     <g id="line2d_12">
      <g>
       <use xlink:href="#md2c5866514" x="180" y="313.2" style="stroke: #000000; stroke-width: 0.8"/>
      </g>
     </g>
     <g id="text_13">
      <!-- $\mathdefault{0.6}$ -->
      <g transform="translate(160.269921 316.659249)scale(0.1 -0.1)">
       <defs>
        <path id="CMR17-36" d="M 678 2176 
C 678 3690 1395 4032 1811 4032 
C 1946 4032 2272 4009 2400 3776 
C 2298 3776 2106 3776 2106 3553 
C 2106 3381 2246 3323 2336 3323 
C 2394 3323 2566 3348 2566 3560 
C 2566 3954 2246 4179 1805 4179 
C 1043 4179 243 3390 243 1984 
C 243 253 966 -128 1478 -128 
C 2099 -128 2688 427 2688 1283 
C 2688 2081 2170 2662 1517 2662 
C 1126 2662 838 2407 678 1960 
L 678 2176 
z
M 1478 25 
C 691 25 691 1200 691 1436 
C 691 1896 909 2560 1504 2560 
C 1613 2560 1926 2560 2138 2120 
C 2253 1870 2253 1609 2253 1289 
C 2253 944 2253 690 2118 434 
C 1978 171 1773 25 1478 25 
z
" transform="scale(0.015625)"/>
       </defs>
       <use xlink:href="#CMR17-30" transform="scale(0.996264)"/>
       <use xlink:href="#CMMI12-3a" transform="translate(45.690477 0)scale(0.996264)"/>
       <use xlink:href="#CMR17-36" transform="translate(72.787654 0)scale(0.996264)"/>
      </g>
     </g>
    </g>
    <g id="ytick_5">
     <g id="line2d_13">
      <g>
       <use xlink:href="#md2c5866514" x="180" y="212.4" style="stroke: #000000; stroke-width: 0.8"/>
      </g>
     </g>
     <g id="text_14">
      <!-- $\mathdefault{0.8}$ -->
      <g transform="translate(160.269921 215.859249)scale(0.1 -0.1)">
       <defs>
        <path id="CMR17-38" d="M 1741 2264 
C 2144 2467 2554 2773 2554 3263 
C 2554 3841 1990 4179 1472 4179 
C 890 4179 378 3759 378 3180 
C 378 3021 416 2747 666 2505 
C 730 2442 998 2251 1171 2130 
C 883 1983 211 1634 211 934 
C 211 279 838 -128 1459 -128 
C 2144 -128 2720 362 2720 1010 
C 2720 1590 2330 1857 2074 2029 
L 1741 2264 
z
M 902 2822 
C 851 2854 595 3051 595 3351 
C 595 3739 998 4032 1459 4032 
C 1965 4032 2336 3676 2336 3262 
C 2336 2669 1670 2331 1638 2331 
C 1632 2331 1626 2331 1574 2370 
L 902 2822 
z
M 2080 1519 
C 2176 1449 2483 1240 2483 851 
C 2483 381 2010 25 1472 25 
C 890 25 448 438 448 940 
C 448 1443 838 1862 1280 2060 
L 2080 1519 
z
" transform="scale(0.015625)"/>
       </defs>
       <use xlink:href="#CMR17-30" transform="scale(0.996264)"/>
       <use xlink:href="#CMMI12-3a" transform="translate(45.690477 0)scale(0.996264)"/>
       <use xlink:href="#CMR17-38" transform="translate(72.787654 0)scale(0.996264)"/>
      </g>
     </g>
    </g>
    <g id="ytick_6">
     <g id="line2d_14">
      <g>
       <use xlink:href="#md2c5866514" x="180" y="111.6" style="stroke: #000000; stroke-width: 0.8"/>
      </g>
     </g>
     <g id="text_15">
      <!-- $\mathdefault{1.0}$ -->
      <g transform="translate(160.269921 115.059249)scale(0.1 -0.1)">
       <use xlink:href="#CMR17-31" transform="scale(0.996264)"/>
       <use xlink:href="#CMMI12-3a" transform="translate(45.690477 0)scale(0.996264)"/>
       <use xlink:href="#CMR17-30" transform="translate(72.787654 0)scale(0.996264)"/>
      </g>
     </g>
    </g>
    <g id="text_16">
     <!-- $\frac{\#~target~none}{\#~total~ratings}$ -->
     <g transform="translate(116.817482 358.808474)scale(0.1 -0.1)">
      <defs>
       <path id="CMR17-23" d="M 3104 896 
L 4422 896 
C 4531 896 4640 896 4640 1011 
C 4640 1119 4544 1119 4448 1119 
L 3168 1119 
L 3386 2017 
L 4448 2017 
C 4544 2017 4640 2017 4640 2125 
C 4640 2240 4531 2240 4422 2240 
L 3450 2240 
L 3942 4184 
C 3962 4248 3968 4280 3968 4300 
C 3968 4364 3917 4416 3853 4416 
C 3763 4416 3744 4326 3731 4275 
L 3219 2240 
L 2061 2240 
L 2554 4184 
C 2573 4248 2579 4280 2579 4300 
C 2579 4364 2528 4416 2464 4416 
C 2374 4416 2355 4326 2342 4275 
L 1830 2240 
L 512 2240 
C 403 2240 294 2240 294 2125 
C 294 2017 390 2017 486 2017 
L 1766 2017 
L 1549 1119 
L 486 1119 
C 390 1119 294 1119 294 1011 
C 294 896 403 896 512 896 
L 1485 896 
L 992 -1020 
C 973 -1083 966 -1114 966 -1134 
C 966 -1197 1018 -1248 1082 -1248 
C 1171 -1248 1190 -1159 1203 -1109 
L 1715 896 
L 2874 896 
L 2381 -1020 
C 2362 -1083 2355 -1114 2355 -1134 
C 2355 -1197 2406 -1248 2470 -1248 
C 2560 -1248 2579 -1159 2592 -1109 
L 3104 896 
z
M 1779 1119 
L 1997 2017 
L 3155 2017 
L 2938 1119 
L 1779 1119 
z
" transform="scale(0.015625)"/>
       <path id="CMMI12-74" d="M 1286 2566 
L 1875 2566 
C 1997 2566 2061 2566 2061 2681 
C 2061 2752 2022 2752 1894 2752 
L 1331 2752 
L 1568 3692 
C 1594 3781 1594 3794 1594 3840 
C 1594 3943 1510 4000 1427 4000 
C 1376 4000 1229 3981 1178 3775 
L 928 2752 
L 326 2752 
C 198 2752 141 2752 141 2630 
C 141 2566 186 2566 307 2566 
L 877 2566 
L 454 881 
C 403 658 384 594 384 511 
C 384 211 595 -64 954 -64 
C 1600 -64 1946 868 1946 912 
C 1946 951 1920 970 1882 970 
C 1869 970 1843 970 1830 944 
C 1824 938 1818 931 1773 829 
C 1638 511 1344 64 973 64 
C 781 64 768 224 768 364 
C 768 370 768 492 787 568 
L 1286 2566 
z
" transform="scale(0.015625)"/>
       <path id="CMMI12-61" d="M 1926 760 
C 1894 651 1894 639 1805 517 
C 1664 338 1382 64 1082 64 
C 819 64 672 300 672 677 
C 672 1028 870 1743 992 2012 
C 1210 2459 1510 2689 1760 2689 
C 2182 2689 2266 2165 2266 2114 
C 2266 2108 2246 2024 2240 2012 
L 1926 760 
z
M 2336 2395 
C 2266 2561 2093 2816 1760 2816 
C 1037 2816 256 1884 256 939 
C 256 307 627 -64 1062 -64 
C 1414 -64 1715 211 1894 422 
C 1958 45 2259 -64 2451 -64 
C 2643 -64 2797 51 2912 281 
C 3014 498 3104 888 3104 913 
C 3104 945 3078 971 3040 971 
C 2982 971 2976 939 2950 843 
C 2854 466 2733 64 2470 64 
C 2285 64 2272 230 2272 358 
C 2272 505 2291 575 2349 824 
C 2394 984 2426 1124 2477 1309 
C 2714 2267 2771 2497 2771 2535 
C 2771 2625 2701 2695 2605 2695 
C 2400 2695 2349 2472 2336 2395 
z
" transform="scale(0.015625)"/>
       <path id="CMMI12-72" d="M 2490 2612 
C 2291 2574 2189 2433 2189 2293 
C 2189 2139 2310 2088 2400 2088 
C 2579 2088 2726 2242 2726 2433 
C 2726 2638 2528 2816 2208 2816 
C 1952 2816 1658 2701 1389 2312 
C 1344 2650 1088 2816 832 2816 
C 582 2816 454 2625 378 2484 
C 269 2254 173 1871 173 1839 
C 173 1814 198 1782 243 1782 
C 294 1782 301 1788 339 1935 
C 435 2318 557 2689 813 2689 
C 966 2689 1011 2580 1011 2395 
C 1011 2254 947 2005 902 1807 
L 723 1118 
C 698 996 627 709 595 594 
C 550 428 480 128 480 96 
C 480 6 550 -64 646 -64 
C 717 -64 838 -19 877 109 
C 896 160 1133 1124 1171 1271 
C 1203 1411 1242 1546 1274 1686 
C 1299 1775 1325 1878 1344 1961 
C 1363 2018 1536 2331 1696 2472 
C 1773 2542 1939 2689 2202 2689 
C 2304 2689 2406 2670 2490 2612 
z
" transform="scale(0.015625)"/>
       <path id="CMMI12-67" d="M 2163 811 
C 2138 709 2125 683 2042 588 
C 1779 249 1510 128 1312 128 
C 1101 128 902 294 902 734 
C 902 1073 1094 1788 1235 2076 
C 1421 2433 1709 2689 1978 2689 
C 2400 2689 2483 2165 2483 2127 
L 2464 2037 
L 2163 811 
z
M 2560 2395 
C 2477 2580 2298 2816 1978 2816 
C 1280 2816 486 1941 486 990 
C 486 326 890 0 1299 0 
C 1638 0 1939 268 2054 396 
L 1914 -171 
C 1824 -516 1786 -674 1555 -894 
C 1293 -1152 1050 -1152 909 -1152 
C 717 -1152 557 -1139 397 -1089 
C 602 -1033 653 -858 653 -789 
C 653 -689 576 -588 435 -588 
C 282 -588 115 -714 115 -922 
C 115 -1180 378 -1280 922 -1280 
C 1747 -1280 2176 -753 2259 -410 
L 2970 2435 
C 2989 2511 2989 2524 2989 2536 
C 2989 2625 2918 2695 2822 2695 
C 2669 2695 2579 2567 2560 2395 
z
" transform="scale(0.015625)"/>
       <path id="CMMI12-65" d="M 1146 1479 
C 1318 1479 1754 1479 2061 1595 
C 2547 1783 2592 2158 2592 2274 
C 2592 2558 2349 2816 1926 2816 
C 1254 2816 288 2210 288 1073 
C 288 402 672 -64 1254 -64 
C 2125 -64 2675 609 2675 692 
C 2675 730 2637 762 2611 762 
C 2592 762 2586 756 2528 699 
C 2118 159 1510 64 1267 64 
C 902 64 710 350 710 822 
C 710 911 710 1071 806 1479 
L 1146 1479 
z
M 838 1600 
C 1114 2592 1722 2689 1926 2689 
C 2208 2689 2400 2522 2400 2277 
C 2400 1600 1376 1600 1107 1600 
L 838 1600 
z
" transform="scale(0.015625)"/>
       <path id="CMMI12-6e" d="M 1318 1871 
C 1331 1910 1491 2229 1728 2433 
C 1894 2586 2112 2689 2362 2689 
C 2618 2689 2707 2497 2707 2242 
C 2707 1878 2445 1150 2317 805 
C 2259 651 2227 568 2227 453 
C 2227 166 2426 -64 2733 -64 
C 3328 -64 3552 875 3552 913 
C 3552 945 3526 971 3488 971 
C 3430 971 3424 952 3392 843 
C 3245 319 3002 64 2752 64 
C 2688 64 2586 64 2586 269 
C 2586 429 2656 621 2694 710 
C 2822 1063 3091 1780 3091 2145 
C 3091 2528 2867 2816 2381 2816 
C 1811 2816 1510 2415 1395 2255 
C 1376 2618 1114 2816 832 2816 
C 627 2816 486 2695 378 2478 
C 262 2248 173 1865 173 1839 
C 173 1814 198 1782 243 1782 
C 294 1782 301 1788 339 1935 
C 442 2325 557 2689 813 2689 
C 960 2689 1011 2586 1011 2395 
C 1011 2254 947 2005 902 1807 
L 723 1118 
C 698 996 627 709 595 594 
C 550 428 480 128 480 96 
C 480 6 550 -64 646 -64 
C 723 -64 813 -26 864 70 
C 877 102 934 326 966 453 
L 1107 1028 
L 1318 1871 
z
" transform="scale(0.015625)"/>
       <path id="CMMI12-6f" d="M 2918 1756 
C 2918 2363 2522 2816 1939 2816 
C 1094 2816 262 1897 262 996 
C 262 390 659 -64 1242 -64 
C 2093 -64 2918 856 2918 1756 
z
M 1248 64 
C 928 64 691 319 691 766 
C 691 1060 845 1712 1024 2031 
C 1312 2523 1670 2689 1933 2689 
C 2246 2689 2490 2433 2490 1986 
C 2490 1731 2355 1047 2112 658 
C 1850 230 1498 64 1248 64 
z
" transform="scale(0.015625)"/>
       <path id="CMMI12-6c" d="M 1626 4257 
C 1632 4282 1645 4320 1645 4352 
C 1645 4416 1581 4416 1568 4416 
C 1562 4416 1331 4393 1216 4377 
C 1107 4377 1011 4358 896 4358 
C 742 4345 698 4339 698 4224 
C 698 4160 762 4160 826 4160 
C 1152 4160 1152 4102 1152 4039 
C 1152 4014 1152 4001 1120 3887 
L 326 731 
C 307 661 294 610 294 509 
C 294 191 531 -64 858 -64 
C 1069 -64 1210 76 1312 274 
C 1421 483 1510 884 1510 909 
C 1510 941 1485 967 1446 967 
C 1389 967 1382 935 1357 840 
C 1242 401 1126 64 870 64 
C 678 64 678 267 678 357 
C 678 382 678 515 723 694 
L 1626 4257 
z
" transform="scale(0.015625)"/>
       <path id="CMMI12-69" d="M 1811 913 
C 1811 945 1786 971 1747 971 
C 1690 971 1683 952 1651 843 
C 1485 262 1222 64 1011 64 
C 934 64 845 83 845 275 
C 845 447 922 639 992 830 
L 1440 2018 
C 1459 2069 1504 2184 1504 2305 
C 1504 2574 1312 2816 998 2816 
C 410 2816 173 1890 173 1839 
C 173 1814 198 1782 243 1782 
C 301 1782 307 1807 333 1896 
C 486 2428 730 2682 979 2682 
C 1037 2682 1146 2682 1146 2478 
C 1146 2312 1062 2101 1011 1961 
L 563 773 
C 525 671 486 568 486 453 
C 486 166 685 -64 992 -64 
C 1581 -64 1811 869 1811 913 
z
M 1760 4013 
C 1760 4109 1683 4224 1542 4224 
C 1395 4224 1229 4083 1229 3917 
C 1229 3758 1363 3707 1440 3707 
C 1613 3707 1760 3873 1760 4013 
z
" transform="scale(0.015625)"/>
       <path id="CMMI12-73" d="M 1459 1280 
C 1568 1261 1741 1223 1779 1216 
C 1862 1192 2150 1090 2150 783 
C 2150 586 1971 70 1229 70 
C 1094 70 614 70 486 436 
C 742 404 870 603 870 745 
C 870 880 781 950 653 950 
C 512 950 326 841 326 552 
C 326 173 710 -64 1222 -64 
C 2195 -64 2483 651 2483 984 
C 2483 1079 2483 1258 2278 1462 
C 2118 1616 1965 1648 1619 1718 
C 1446 1756 1171 1814 1171 2101 
C 1171 2229 1286 2689 1894 2689 
C 2163 2689 2426 2589 2490 2368 
C 2208 2368 2195 2125 2195 2119 
C 2195 1984 2317 1946 2374 1946 
C 2464 1946 2643 2015 2643 2281 
C 2643 2545 2400 2816 1901 2816 
C 1062 2816 838 2160 838 1899 
C 838 1414 1312 1312 1459 1280 
z
" transform="scale(0.015625)"/>
      </defs>
      <use xlink:href="#CMR17-23" transform="translate(16.88994 44.448689)scale(0.697382)"/>
      <use xlink:href="#CMMI12-74" transform="translate(101.96252 44.448689)scale(0.697382)"/>
      <use xlink:href="#CMMI12-61" transform="translate(126.620829 44.448689)scale(0.697382)"/>
      <use xlink:href="#CMMI12-72" transform="translate(162.466176 44.448689)scale(0.697382)"/>
      <use xlink:href="#CMMI12-67" transform="translate(195.135445 44.448689)scale(0.697382)"/>
      <use xlink:href="#CMMI12-65" transform="translate(230.335126 44.448689)scale(0.697382)"/>
      <use xlink:href="#CMMI12-74" transform="translate(261.983383 44.448689)scale(0.697382)"/>
      <use xlink:href="#CMMI12-6e" transform="translate(317.870805 44.448689)scale(0.697382)"/>
      <use xlink:href="#CMMI12-6f" transform="translate(358.631648 44.448689)scale(0.697382)"/>
      <use xlink:href="#CMMI12-6e" transform="translate(391.45821 44.448689)scale(0.697382)"/>
      <use xlink:href="#CMMI12-65" transform="translate(432.219053 44.448689)scale(0.697382)"/>
      <use xlink:href="#CMR17-23" transform="translate(0 -34.355253)scale(0.697382)"/>
      <use xlink:href="#CMMI12-74" transform="translate(85.072579 -34.355253)scale(0.697382)"/>
      <use xlink:href="#CMMI12-6f" transform="translate(109.730889 -34.355253)scale(0.697382)"/>
      <use xlink:href="#CMMI12-74" transform="translate(142.557451 -34.355253)scale(0.697382)"/>
      <use xlink:href="#CMMI12-61" transform="translate(167.21576 -34.355253)scale(0.697382)"/>
      <use xlink:href="#CMMI12-6c" transform="translate(203.061107 -34.355253)scale(0.697382)"/>
      <use xlink:href="#CMMI12-72" transform="translate(256.164004 -34.355253)scale(0.697382)"/>
      <use xlink:href="#CMMI12-61" transform="translate(288.833272 -34.355253)scale(0.697382)"/>
      <use xlink:href="#CMMI12-74" transform="translate(324.678619 -34.355253)scale(0.697382)"/>
      <use xlink:href="#CMMI12-69" transform="translate(349.336929 -34.355253)scale(0.697382)"/>
      <use xlink:href="#CMMI12-6e" transform="translate(372.631836 -34.355253)scale(0.697382)"/>
      <use xlink:href="#CMMI12-67" transform="translate(413.392679 -34.355253)scale(0.697382)"/>
      <use xlink:href="#CMMI12-73" transform="translate(448.592361 -34.355253)scale(0.697382)"/>
      <path d="M 0 22.914133 
L 480.757249 22.914133 
L 480.757249 26.899083 
L 0 26.899083 
L 0 22.914133 
z
"/>
     </g>
    </g>
   </g>
   <g id="line2d_15">
    <defs>
     <path id="mc5efe06ef7" d="M 0 3 
C 0.795609 3 1.55874 2.683901 2.12132 2.12132 
C 2.683901 1.55874 3 0.795609 3 0 
C 3 -0.795609 2.683901 -1.55874 2.12132 -2.12132 
C 1.55874 -2.683901 0.795609 -3 0 -3 
C -0.795609 -3 -1.55874 -2.683901 -2.12132 -2.12132 
C -2.683901 -1.55874 -3 -0.795609 -3 0 
C -3 0.795609 -2.683901 1.55874 -2.12132 2.12132 
C -1.55874 2.683901 -0.795609 3 0 3 
z
" style="stroke: #1f77b4"/>
    </defs>
    <g clip-path="url(#p76692431db)">
     <use xlink:href="#mc5efe06ef7" x="230.727273" y="111.6" style="fill: #1f77b4; stroke: #1f77b4"/>
     <use xlink:href="#mc5efe06ef7" x="233.617716" y="111.6" style="fill: #1f77b4; stroke: #1f77b4"/>
     <use xlink:href="#mc5efe06ef7" x="236.508159" y="111.6" style="fill: #1f77b4; stroke: #1f77b4"/>
     <use xlink:href="#mc5efe06ef7" x="239.398601" y="167.6" style="fill: #1f77b4; stroke: #1f77b4"/>
     <use xlink:href="#mc5efe06ef7" x="242.289044" y="111.6" style="fill: #1f77b4; stroke: #1f77b4"/>
     <use xlink:href="#mc5efe06ef7" x="245.179487" y="111.6" style="fill: #1f77b4; stroke: #1f77b4"/>
     <use xlink:href="#mc5efe06ef7" x="248.06993" y="111.6" style="fill: #1f77b4; stroke: #1f77b4"/>
     <use xlink:href="#mc5efe06ef7" x="250.960373" y="111.6" style="fill: #1f77b4; stroke: #1f77b4"/>
     <use xlink:href="#mc5efe06ef7" x="253.850816" y="111.6" style="fill: #1f77b4; stroke: #1f77b4"/>
     <use xlink:href="#mc5efe06ef7" x="256.741259" y="111.6" style="fill: #1f77b4; stroke: #1f77b4"/>
     <use xlink:href="#mc5efe06ef7" x="259.631702" y="111.6" style="fill: #1f77b4; stroke: #1f77b4"/>
     <use xlink:href="#mc5efe06ef7" x="262.522145" y="111.6" style="fill: #1f77b4; stroke: #1f77b4"/>
     <use xlink:href="#mc5efe06ef7" x="265.412587" y="183.6" style="fill: #1f77b4; stroke: #1f77b4"/>
     <use xlink:href="#mc5efe06ef7" x="268.30303" y="183.6" style="fill: #1f77b4; stroke: #1f77b4"/>
     <use xlink:href="#mc5efe06ef7" x="271.193473" y="183.6" style="fill: #1f77b4; stroke: #1f77b4"/>
     <use xlink:href="#mc5efe06ef7" x="274.083916" y="111.6" style="fill: #1f77b4; stroke: #1f77b4"/>
     <use xlink:href="#mc5efe06ef7" x="276.974359" y="111.6" style="fill: #1f77b4; stroke: #1f77b4"/>
     <use xlink:href="#mc5efe06ef7" x="279.864802" y="111.6" style="fill: #1f77b4; stroke: #1f77b4"/>
     <use xlink:href="#mc5efe06ef7" x="282.755245" y="223.6" style="fill: #1f77b4; stroke: #1f77b4"/>
     <use xlink:href="#mc5efe06ef7" x="285.645688" y="335.6" style="fill: #1f77b4; stroke: #1f77b4"/>
     <use xlink:href="#mc5efe06ef7" x="288.536131" y="111.6" style="fill: #1f77b4; stroke: #1f77b4"/>
     <use xlink:href="#mc5efe06ef7" x="291.426573" y="111.6" style="fill: #1f77b4; stroke: #1f77b4"/>
     <use xlink:href="#mc5efe06ef7" x="294.317016" y="111.6" style="fill: #1f77b4; stroke: #1f77b4"/>
     <use xlink:href="#mc5efe06ef7" x="297.207459" y="111.6" style="fill: #1f77b4; stroke: #1f77b4"/>
     <use xlink:href="#mc5efe06ef7" x="300.097902" y="111.6" style="fill: #1f77b4; stroke: #1f77b4"/>
     <use xlink:href="#mc5efe06ef7" x="302.988345" y="111.6" style="fill: #1f77b4; stroke: #1f77b4"/>
     <use xlink:href="#mc5efe06ef7" x="305.878788" y="111.6" style="fill: #1f77b4; stroke: #1f77b4"/>
     <use xlink:href="#mc5efe06ef7" x="308.769231" y="335.6" style="fill: #1f77b4; stroke: #1f77b4"/>
     <use xlink:href="#mc5efe06ef7" x="311.659674" y="111.6" style="fill: #1f77b4; stroke: #1f77b4"/>
     <use xlink:href="#mc5efe06ef7" x="314.550117" y="255.6" style="fill: #1f77b4; stroke: #1f77b4"/>
     <use xlink:href="#mc5efe06ef7" x="317.440559" y="167.6" style="fill: #1f77b4; stroke: #1f77b4"/>
     <use xlink:href="#mc5efe06ef7" x="320.331002" y="111.6" style="fill: #1f77b4; stroke: #1f77b4"/>
     <use xlink:href="#mc5efe06ef7" x="323.221445" y="111.6" style="fill: #1f77b4; stroke: #1f77b4"/>
     <use xlink:href="#mc5efe06ef7" x="326.111888" y="111.6" style="fill: #1f77b4; stroke: #1f77b4"/>
     <use xlink:href="#mc5efe06ef7" x="329.002331" y="111.6" style="fill: #1f77b4; stroke: #1f77b4"/>
     <use xlink:href="#mc5efe06ef7" x="331.892774" y="111.6" style="fill: #1f77b4; stroke: #1f77b4"/>
     <use xlink:href="#mc5efe06ef7" x="334.783217" y="111.6" style="fill: #1f77b4; stroke: #1f77b4"/>
     <use xlink:href="#mc5efe06ef7" x="337.67366" y="111.6" style="fill: #1f77b4; stroke: #1f77b4"/>
     <use xlink:href="#mc5efe06ef7" x="340.564103" y="183.6" style="fill: #1f77b4; stroke: #1f77b4"/>
     <use xlink:href="#mc5efe06ef7" x="343.454545" y="335.6" style="fill: #1f77b4; stroke: #1f77b4"/>
     <use xlink:href="#mc5efe06ef7" x="346.344988" y="167.6" style="fill: #1f77b4; stroke: #1f77b4"/>
     <use xlink:href="#mc5efe06ef7" x="349.235431" y="111.6" style="fill: #1f77b4; stroke: #1f77b4"/>
     <use xlink:href="#mc5efe06ef7" x="352.125874" y="111.6" style="fill: #1f77b4; stroke: #1f77b4"/>
     <use xlink:href="#mc5efe06ef7" x="355.016317" y="111.6" style="fill: #1f77b4; stroke: #1f77b4"/>
     <use xlink:href="#mc5efe06ef7" x="357.90676" y="111.6" style="fill: #1f77b4; stroke: #1f77b4"/>
     <use xlink:href="#mc5efe06ef7" x="360.797203" y="111.6" style="fill: #1f77b4; stroke: #1f77b4"/>
     <use xlink:href="#mc5efe06ef7" x="363.687646" y="111.6" style="fill: #1f77b4; stroke: #1f77b4"/>
     <use xlink:href="#mc5efe06ef7" x="366.578089" y="111.6" style="fill: #1f77b4; stroke: #1f77b4"/>
     <use xlink:href="#mc5efe06ef7" x="369.468531" y="335.6" style="fill: #1f77b4; stroke: #1f77b4"/>
     <use xlink:href="#mc5efe06ef7" x="372.358974" y="111.6" style="fill: #1f77b4; stroke: #1f77b4"/>
     <use xlink:href="#mc5efe06ef7" x="375.249417" y="111.6" style="fill: #1f77b4; stroke: #1f77b4"/>
     <use xlink:href="#mc5efe06ef7" x="378.13986" y="111.6" style="fill: #1f77b4; stroke: #1f77b4"/>
     <use xlink:href="#mc5efe06ef7" x="381.030303" y="335.6" style="fill: #1f77b4; stroke: #1f77b4"/>
     <use xlink:href="#mc5efe06ef7" x="383.920746" y="111.6" style="fill: #1f77b4; stroke: #1f77b4"/>
     <use xlink:href="#mc5efe06ef7" x="386.811189" y="183.6" style="fill: #1f77b4; stroke: #1f77b4"/>
     <use xlink:href="#mc5efe06ef7" x="389.701632" y="111.6" style="fill: #1f77b4; stroke: #1f77b4"/>
     <use xlink:href="#mc5efe06ef7" x="392.592075" y="471.6" style="fill: #1f77b4; stroke: #1f77b4"/>
     <use xlink:href="#mc5efe06ef7" x="395.482517" y="111.6" style="fill: #1f77b4; stroke: #1f77b4"/>
     <use xlink:href="#mc5efe06ef7" x="398.37296" y="559.6" style="fill: #1f77b4; stroke: #1f77b4"/>
     <use xlink:href="#mc5efe06ef7" x="401.263403" y="111.6" style="fill: #1f77b4; stroke: #1f77b4"/>
     <use xlink:href="#mc5efe06ef7" x="404.153846" y="111.6" style="fill: #1f77b4; stroke: #1f77b4"/>
     <use xlink:href="#mc5efe06ef7" x="407.044289" y="111.6" style="fill: #1f77b4; stroke: #1f77b4"/>
     <use xlink:href="#mc5efe06ef7" x="409.934732" y="615.6" style="fill: #1f77b4; stroke: #1f77b4"/>
     <use xlink:href="#mc5efe06ef7" x="412.825175" y="111.6" style="fill: #1f77b4; stroke: #1f77b4"/>
     <use xlink:href="#mc5efe06ef7" x="415.715618" y="503.6" style="fill: #1f77b4; stroke: #1f77b4"/>
     <use xlink:href="#mc5efe06ef7" x="418.606061" y="111.6" style="fill: #1f77b4; stroke: #1f77b4"/>
     <use xlink:href="#mc5efe06ef7" x="421.496503" y="111.6" style="fill: #1f77b4; stroke: #1f77b4"/>
     <use xlink:href="#mc5efe06ef7" x="424.386946" y="111.6" style="fill: #1f77b4; stroke: #1f77b4"/>
     <use xlink:href="#mc5efe06ef7" x="427.277389" y="111.6" style="fill: #1f77b4; stroke: #1f77b4"/>
     <use xlink:href="#mc5efe06ef7" x="430.167832" y="111.6" style="fill: #1f77b4; stroke: #1f77b4"/>
     <use xlink:href="#mc5efe06ef7" x="433.058275" y="111.6" style="fill: #1f77b4; stroke: #1f77b4"/>
     <use xlink:href="#mc5efe06ef7" x="435.948718" y="111.6" style="fill: #1f77b4; stroke: #1f77b4"/>
     <use xlink:href="#mc5efe06ef7" x="438.839161" y="111.6" style="fill: #1f77b4; stroke: #1f77b4"/>
     <use xlink:href="#mc5efe06ef7" x="441.729604" y="183.6" style="fill: #1f77b4; stroke: #1f77b4"/>
     <use xlink:href="#mc5efe06ef7" x="444.620047" y="111.6" style="fill: #1f77b4; stroke: #1f77b4"/>
     <use xlink:href="#mc5efe06ef7" x="447.51049" y="111.6" style="fill: #1f77b4; stroke: #1f77b4"/>
     <use xlink:href="#mc5efe06ef7" x="450.400932" y="111.6" style="fill: #1f77b4; stroke: #1f77b4"/>
     <use xlink:href="#mc5efe06ef7" x="453.291375" y="255.6" style="fill: #1f77b4; stroke: #1f77b4"/>
     <use xlink:href="#mc5efe06ef7" x="456.181818" y="111.6" style="fill: #1f77b4; stroke: #1f77b4"/>
     <use xlink:href="#mc5efe06ef7" x="459.072261" y="503.6" style="fill: #1f77b4; stroke: #1f77b4"/>
     <use xlink:href="#mc5efe06ef7" x="461.962704" y="111.6" style="fill: #1f77b4; stroke: #1f77b4"/>
     <use xlink:href="#mc5efe06ef7" x="464.853147" y="111.6" style="fill: #1f77b4; stroke: #1f77b4"/>
     <use xlink:href="#mc5efe06ef7" x="467.74359" y="111.6" style="fill: #1f77b4; stroke: #1f77b4"/>
     <use xlink:href="#mc5efe06ef7" x="470.634033" y="111.6" style="fill: #1f77b4; stroke: #1f77b4"/>
     <use xlink:href="#mc5efe06ef7" x="473.524476" y="111.6" style="fill: #1f77b4; stroke: #1f77b4"/>
     <use xlink:href="#mc5efe06ef7" x="476.414918" y="111.6" style="fill: #1f77b4; stroke: #1f77b4"/>
     <use xlink:href="#mc5efe06ef7" x="479.305361" y="111.6" style="fill: #1f77b4; stroke: #1f77b4"/>
     <use xlink:href="#mc5efe06ef7" x="482.195804" y="111.6" style="fill: #1f77b4; stroke: #1f77b4"/>
     <use xlink:href="#mc5efe06ef7" x="485.086247" y="327.6" style="fill: #1f77b4; stroke: #1f77b4"/>
     <use xlink:href="#mc5efe06ef7" x="487.97669" y="111.6" style="fill: #1f77b4; stroke: #1f77b4"/>
     <use xlink:href="#mc5efe06ef7" x="490.867133" y="111.6" style="fill: #1f77b4; stroke: #1f77b4"/>
     <use xlink:href="#mc5efe06ef7" x="493.757576" y="111.6" style="fill: #1f77b4; stroke: #1f77b4"/>
     <use xlink:href="#mc5efe06ef7" x="496.648019" y="223.6" style="fill: #1f77b4; stroke: #1f77b4"/>
     <use xlink:href="#mc5efe06ef7" x="499.538462" y="111.6" style="fill: #1f77b4; stroke: #1f77b4"/>
     <use xlink:href="#mc5efe06ef7" x="502.428904" y="111.6" style="fill: #1f77b4; stroke: #1f77b4"/>
     <use xlink:href="#mc5efe06ef7" x="505.319347" y="167.6" style="fill: #1f77b4; stroke: #1f77b4"/>
     <use xlink:href="#mc5efe06ef7" x="508.20979" y="111.6" style="fill: #1f77b4; stroke: #1f77b4"/>
     <use xlink:href="#mc5efe06ef7" x="511.100233" y="111.6" style="fill: #1f77b4; stroke: #1f77b4"/>
     <use xlink:href="#mc5efe06ef7" x="513.990676" y="543.6" style="fill: #1f77b4; stroke: #1f77b4"/>
     <use xlink:href="#mc5efe06ef7" x="516.881119" y="111.6" style="fill: #1f77b4; stroke: #1f77b4"/>
     <use xlink:href="#mc5efe06ef7" x="519.771562" y="111.6" style="fill: #1f77b4; stroke: #1f77b4"/>
     <use xlink:href="#mc5efe06ef7" x="522.662005" y="111.6" style="fill: #1f77b4; stroke: #1f77b4"/>
     <use xlink:href="#mc5efe06ef7" x="525.552448" y="111.6" style="fill: #1f77b4; stroke: #1f77b4"/>
     <use xlink:href="#mc5efe06ef7" x="528.44289" y="111.6" style="fill: #1f77b4; stroke: #1f77b4"/>
     <use xlink:href="#mc5efe06ef7" x="531.333333" y="111.6" style="fill: #1f77b4; stroke: #1f77b4"/>
     <use xlink:href="#mc5efe06ef7" x="534.223776" y="111.6" style="fill: #1f77b4; stroke: #1f77b4"/>
     <use xlink:href="#mc5efe06ef7" x="537.114219" y="111.6" style="fill: #1f77b4; stroke: #1f77b4"/>
     <use xlink:href="#mc5efe06ef7" x="540.004662" y="111.6" style="fill: #1f77b4; stroke: #1f77b4"/>
     <use xlink:href="#mc5efe06ef7" x="542.895105" y="183.6" style="fill: #1f77b4; stroke: #1f77b4"/>
     <use xlink:href="#mc5efe06ef7" x="545.785548" y="183.6" style="fill: #1f77b4; stroke: #1f77b4"/>
     <use xlink:href="#mc5efe06ef7" x="548.675991" y="111.6" style="fill: #1f77b4; stroke: #1f77b4"/>
     <use xlink:href="#mc5efe06ef7" x="551.566434" y="111.6" style="fill: #1f77b4; stroke: #1f77b4"/>
     <use xlink:href="#mc5efe06ef7" x="554.456876" y="111.6" style="fill: #1f77b4; stroke: #1f77b4"/>
     <use xlink:href="#mc5efe06ef7" x="557.347319" y="111.6" style="fill: #1f77b4; stroke: #1f77b4"/>
     <use xlink:href="#mc5efe06ef7" x="560.237762" y="111.6" style="fill: #1f77b4; stroke: #1f77b4"/>
     <use xlink:href="#mc5efe06ef7" x="563.128205" y="183.6" style="fill: #1f77b4; stroke: #1f77b4"/>
     <use xlink:href="#mc5efe06ef7" x="566.018648" y="615.6" style="fill: #1f77b4; stroke: #1f77b4"/>
     <use xlink:href="#mc5efe06ef7" x="568.909091" y="255.6" style="fill: #1f77b4; stroke: #1f77b4"/>
     <use xlink:href="#mc5efe06ef7" x="571.799534" y="111.6" style="fill: #1f77b4; stroke: #1f77b4"/>
     <use xlink:href="#mc5efe06ef7" x="574.689977" y="111.6" style="fill: #1f77b4; stroke: #1f77b4"/>
     <use xlink:href="#mc5efe06ef7" x="577.58042" y="111.6" style="fill: #1f77b4; stroke: #1f77b4"/>
     <use xlink:href="#mc5efe06ef7" x="580.470862" y="111.6" style="fill: #1f77b4; stroke: #1f77b4"/>
     <use xlink:href="#mc5efe06ef7" x="583.361305" y="111.6" style="fill: #1f77b4; stroke: #1f77b4"/>
     <use xlink:href="#mc5efe06ef7" x="586.251748" y="111.6" style="fill: #1f77b4; stroke: #1f77b4"/>
     <use xlink:href="#mc5efe06ef7" x="589.142191" y="183.6" style="fill: #1f77b4; stroke: #1f77b4"/>
     <use xlink:href="#mc5efe06ef7" x="592.032634" y="111.6" style="fill: #1f77b4; stroke: #1f77b4"/>
     <use xlink:href="#mc5efe06ef7" x="594.923077" y="111.6" style="fill: #1f77b4; stroke: #1f77b4"/>
     <use xlink:href="#mc5efe06ef7" x="597.81352" y="167.6" style="fill: #1f77b4; stroke: #1f77b4"/>
     <use xlink:href="#mc5efe06ef7" x="600.703963" y="111.6" style="fill: #1f77b4; stroke: #1f77b4"/>
     <use xlink:href="#mc5efe06ef7" x="603.594406" y="111.6" style="fill: #1f77b4; stroke: #1f77b4"/>
     <use xlink:href="#mc5efe06ef7" x="606.484848" y="223.6" style="fill: #1f77b4; stroke: #1f77b4"/>
     <use xlink:href="#mc5efe06ef7" x="609.375291" y="399.6" style="fill: #1f77b4; stroke: #1f77b4"/>
     <use xlink:href="#mc5efe06ef7" x="612.265734" y="335.6" style="fill: #1f77b4; stroke: #1f77b4"/>
     <use xlink:href="#mc5efe06ef7" x="615.156177" y="111.6" style="fill: #1f77b4; stroke: #1f77b4"/>
     <use xlink:href="#mc5efe06ef7" x="618.04662" y="111.6" style="fill: #1f77b4; stroke: #1f77b4"/>
     <use xlink:href="#mc5efe06ef7" x="620.937063" y="447.6" style="fill: #1f77b4; stroke: #1f77b4"/>
     <use xlink:href="#mc5efe06ef7" x="623.827506" y="167.6" style="fill: #1f77b4; stroke: #1f77b4"/>
     <use xlink:href="#mc5efe06ef7" x="626.717949" y="111.6" style="fill: #1f77b4; stroke: #1f77b4"/>
     <use xlink:href="#mc5efe06ef7" x="629.608392" y="111.6" style="fill: #1f77b4; stroke: #1f77b4"/>
     <use xlink:href="#mc5efe06ef7" x="632.498834" y="111.6" style="fill: #1f77b4; stroke: #1f77b4"/>
     <use xlink:href="#mc5efe06ef7" x="635.389277" y="111.6" style="fill: #1f77b4; stroke: #1f77b4"/>
     <use xlink:href="#mc5efe06ef7" x="638.27972" y="237.6" style="fill: #1f77b4; stroke: #1f77b4"/>
     <use xlink:href="#mc5efe06ef7" x="641.170163" y="111.6" style="fill: #1f77b4; stroke: #1f77b4"/>
     <use xlink:href="#mc5efe06ef7" x="644.060606" y="111.6" style="fill: #1f77b4; stroke: #1f77b4"/>
     <use xlink:href="#mc5efe06ef7" x="646.951049" y="111.6" style="fill: #1f77b4; stroke: #1f77b4"/>
     <use xlink:href="#mc5efe06ef7" x="649.841492" y="111.6" style="fill: #1f77b4; stroke: #1f77b4"/>
     <use xlink:href="#mc5efe06ef7" x="652.731935" y="111.6" style="fill: #1f77b4; stroke: #1f77b4"/>
     <use xlink:href="#mc5efe06ef7" x="655.622378" y="255.6" style="fill: #1f77b4; stroke: #1f77b4"/>
     <use xlink:href="#mc5efe06ef7" x="658.512821" y="111.6" style="fill: #1f77b4; stroke: #1f77b4"/>
     <use xlink:href="#mc5efe06ef7" x="661.403263" y="111.6" style="fill: #1f77b4; stroke: #1f77b4"/>
     <use xlink:href="#mc5efe06ef7" x="664.293706" y="111.6" style="fill: #1f77b4; stroke: #1f77b4"/>
     <use xlink:href="#mc5efe06ef7" x="667.184149" y="543.6" style="fill: #1f77b4; stroke: #1f77b4"/>
     <use xlink:href="#mc5efe06ef7" x="670.074592" y="183.6" style="fill: #1f77b4; stroke: #1f77b4"/>
     <use xlink:href="#mc5efe06ef7" x="672.965035" y="559.6" style="fill: #1f77b4; stroke: #1f77b4"/>
     <use xlink:href="#mc5efe06ef7" x="675.855478" y="335.6" style="fill: #1f77b4; stroke: #1f77b4"/>
     <use xlink:href="#mc5efe06ef7" x="678.745921" y="615.6" style="fill: #1f77b4; stroke: #1f77b4"/>
     <use xlink:href="#mc5efe06ef7" x="681.636364" y="279.6" style="fill: #1f77b4; stroke: #1f77b4"/>
     <use xlink:href="#mc5efe06ef7" x="684.526807" y="237.6" style="fill: #1f77b4; stroke: #1f77b4"/>
     <use xlink:href="#mc5efe06ef7" x="687.417249" y="399.6" style="fill: #1f77b4; stroke: #1f77b4"/>
     <use xlink:href="#mc5efe06ef7" x="690.307692" y="471.6" style="fill: #1f77b4; stroke: #1f77b4"/>
     <use xlink:href="#mc5efe06ef7" x="693.198135" y="111.6" style="fill: #1f77b4; stroke: #1f77b4"/>
     <use xlink:href="#mc5efe06ef7" x="696.088578" y="111.6" style="fill: #1f77b4; stroke: #1f77b4"/>
     <use xlink:href="#mc5efe06ef7" x="698.979021" y="111.6" style="fill: #1f77b4; stroke: #1f77b4"/>
     <use xlink:href="#mc5efe06ef7" x="701.869464" y="111.6" style="fill: #1f77b4; stroke: #1f77b4"/>
     <use xlink:href="#mc5efe06ef7" x="704.759907" y="183.6" style="fill: #1f77b4; stroke: #1f77b4"/>
     <use xlink:href="#mc5efe06ef7" x="707.65035" y="111.6" style="fill: #1f77b4; stroke: #1f77b4"/>
     <use xlink:href="#mc5efe06ef7" x="710.540793" y="111.6" style="fill: #1f77b4; stroke: #1f77b4"/>
     <use xlink:href="#mc5efe06ef7" x="713.431235" y="111.6" style="fill: #1f77b4; stroke: #1f77b4"/>
     <use xlink:href="#mc5efe06ef7" x="716.321678" y="111.6" style="fill: #1f77b4; stroke: #1f77b4"/>
     <use xlink:href="#mc5efe06ef7" x="719.212121" y="111.6" style="fill: #1f77b4; stroke: #1f77b4"/>
     <use xlink:href="#mc5efe06ef7" x="722.102564" y="111.6" style="fill: #1f77b4; stroke: #1f77b4"/>
     <use xlink:href="#mc5efe06ef7" x="724.993007" y="111.6" style="fill: #1f77b4; stroke: #1f77b4"/>
     <use xlink:href="#mc5efe06ef7" x="727.88345" y="111.6" style="fill: #1f77b4; stroke: #1f77b4"/>
     <use xlink:href="#mc5efe06ef7" x="730.773893" y="111.6" style="fill: #1f77b4; stroke: #1f77b4"/>
     <use xlink:href="#mc5efe06ef7" x="733.664336" y="111.6" style="fill: #1f77b4; stroke: #1f77b4"/>
     <use xlink:href="#mc5efe06ef7" x="736.554779" y="543.6" style="fill: #1f77b4; stroke: #1f77b4"/>
     <use xlink:href="#mc5efe06ef7" x="739.445221" y="615.6" style="fill: #1f77b4; stroke: #1f77b4"/>
     <use xlink:href="#mc5efe06ef7" x="742.335664" y="167.6" style="fill: #1f77b4; stroke: #1f77b4"/>
     <use xlink:href="#mc5efe06ef7" x="745.226107" y="111.6" style="fill: #1f77b4; stroke: #1f77b4"/>
     <use xlink:href="#mc5efe06ef7" x="748.11655" y="111.6" style="fill: #1f77b4; stroke: #1f77b4"/>
     <use xlink:href="#mc5efe06ef7" x="751.006993" y="111.6" style="fill: #1f77b4; stroke: #1f77b4"/>
     <use xlink:href="#mc5efe06ef7" x="753.897436" y="111.6" style="fill: #1f77b4; stroke: #1f77b4"/>
     <use xlink:href="#mc5efe06ef7" x="756.787879" y="327.6" style="fill: #1f77b4; stroke: #1f77b4"/>
     <use xlink:href="#mc5efe06ef7" x="759.678322" y="111.6" style="fill: #1f77b4; stroke: #1f77b4"/>
     <use xlink:href="#mc5efe06ef7" x="762.568765" y="111.6" style="fill: #1f77b4; stroke: #1f77b4"/>
     <use xlink:href="#mc5efe06ef7" x="765.459207" y="111.6" style="fill: #1f77b4; stroke: #1f77b4"/>
     <use xlink:href="#mc5efe06ef7" x="768.34965" y="111.6" style="fill: #1f77b4; stroke: #1f77b4"/>
     <use xlink:href="#mc5efe06ef7" x="771.240093" y="111.6" style="fill: #1f77b4; stroke: #1f77b4"/>
     <use xlink:href="#mc5efe06ef7" x="774.130536" y="279.6" style="fill: #1f77b4; stroke: #1f77b4"/>
     <use xlink:href="#mc5efe06ef7" x="777.020979" y="111.6" style="fill: #1f77b4; stroke: #1f77b4"/>
     <use xlink:href="#mc5efe06ef7" x="779.911422" y="111.6" style="fill: #1f77b4; stroke: #1f77b4"/>
     <use xlink:href="#mc5efe06ef7" x="782.801865" y="111.6" style="fill: #1f77b4; stroke: #1f77b4"/>
     <use xlink:href="#mc5efe06ef7" x="785.692308" y="111.6" style="fill: #1f77b4; stroke: #1f77b4"/>
     <use xlink:href="#mc5efe06ef7" x="788.582751" y="111.6" style="fill: #1f77b4; stroke: #1f77b4"/>
     <use xlink:href="#mc5efe06ef7" x="791.473193" y="111.6" style="fill: #1f77b4; stroke: #1f77b4"/>
     <use xlink:href="#mc5efe06ef7" x="794.363636" y="111.6" style="fill: #1f77b4; stroke: #1f77b4"/>
     <use xlink:href="#mc5efe06ef7" x="797.254079" y="111.6" style="fill: #1f77b4; stroke: #1f77b4"/>
     <use xlink:href="#mc5efe06ef7" x="800.144522" y="111.6" style="fill: #1f77b4; stroke: #1f77b4"/>
     <use xlink:href="#mc5efe06ef7" x="803.034965" y="111.6" style="fill: #1f77b4; stroke: #1f77b4"/>
     <use xlink:href="#mc5efe06ef7" x="805.925408" y="111.6" style="fill: #1f77b4; stroke: #1f77b4"/>
     <use xlink:href="#mc5efe06ef7" x="808.815851" y="111.6" style="fill: #1f77b4; stroke: #1f77b4"/>
     <use xlink:href="#mc5efe06ef7" x="811.706294" y="111.6" style="fill: #1f77b4; stroke: #1f77b4"/>
     <use xlink:href="#mc5efe06ef7" x="814.596737" y="471.6" style="fill: #1f77b4; stroke: #1f77b4"/>
     <use xlink:href="#mc5efe06ef7" x="817.487179" y="111.6" style="fill: #1f77b4; stroke: #1f77b4"/>
     <use xlink:href="#mc5efe06ef7" x="820.377622" y="111.6" style="fill: #1f77b4; stroke: #1f77b4"/>
     <use xlink:href="#mc5efe06ef7" x="823.268065" y="255.6" style="fill: #1f77b4; stroke: #1f77b4"/>
     <use xlink:href="#mc5efe06ef7" x="826.158508" y="111.6" style="fill: #1f77b4; stroke: #1f77b4"/>
     <use xlink:href="#mc5efe06ef7" x="829.048951" y="111.6" style="fill: #1f77b4; stroke: #1f77b4"/>
     <use xlink:href="#mc5efe06ef7" x="831.939394" y="111.6" style="fill: #1f77b4; stroke: #1f77b4"/>
     <use xlink:href="#mc5efe06ef7" x="834.829837" y="111.6" style="fill: #1f77b4; stroke: #1f77b4"/>
     <use xlink:href="#mc5efe06ef7" x="837.72028" y="111.6" style="fill: #1f77b4; stroke: #1f77b4"/>
     <use xlink:href="#mc5efe06ef7" x="840.610723" y="327.6" style="fill: #1f77b4; stroke: #1f77b4"/>
     <use xlink:href="#mc5efe06ef7" x="843.501166" y="223.6" style="fill: #1f77b4; stroke: #1f77b4"/>
     <use xlink:href="#mc5efe06ef7" x="846.391608" y="111.6" style="fill: #1f77b4; stroke: #1f77b4"/>
     <use xlink:href="#mc5efe06ef7" x="849.282051" y="111.6" style="fill: #1f77b4; stroke: #1f77b4"/>
     <use xlink:href="#mc5efe06ef7" x="852.172494" y="111.6" style="fill: #1f77b4; stroke: #1f77b4"/>
     <use xlink:href="#mc5efe06ef7" x="855.062937" y="183.6" style="fill: #1f77b4; stroke: #1f77b4"/>
     <use xlink:href="#mc5efe06ef7" x="857.95338" y="111.6" style="fill: #1f77b4; stroke: #1f77b4"/>
     <use xlink:href="#mc5efe06ef7" x="860.843823" y="111.6" style="fill: #1f77b4; stroke: #1f77b4"/>
     <use xlink:href="#mc5efe06ef7" x="863.734266" y="327.6" style="fill: #1f77b4; stroke: #1f77b4"/>
     <use xlink:href="#mc5efe06ef7" x="866.624709" y="391.6" style="fill: #1f77b4; stroke: #1f77b4"/>
     <use xlink:href="#mc5efe06ef7" x="869.515152" y="183.6" style="fill: #1f77b4; stroke: #1f77b4"/>
     <use xlink:href="#mc5efe06ef7" x="872.405594" y="167.6" style="fill: #1f77b4; stroke: #1f77b4"/>
     <use xlink:href="#mc5efe06ef7" x="875.296037" y="255.6" style="fill: #1f77b4; stroke: #1f77b4"/>
     <use xlink:href="#mc5efe06ef7" x="878.18648" y="111.6" style="fill: #1f77b4; stroke: #1f77b4"/>
     <use xlink:href="#mc5efe06ef7" x="881.076923" y="183.6" style="fill: #1f77b4; stroke: #1f77b4"/>
     <use xlink:href="#mc5efe06ef7" x="883.967366" y="111.6" style="fill: #1f77b4; stroke: #1f77b4"/>
     <use xlink:href="#mc5efe06ef7" x="886.857809" y="279.6" style="fill: #1f77b4; stroke: #1f77b4"/>
     <use xlink:href="#mc5efe06ef7" x="889.748252" y="111.6" style="fill: #1f77b4; stroke: #1f77b4"/>
     <use xlink:href="#mc5efe06ef7" x="892.638695" y="111.6" style="fill: #1f77b4; stroke: #1f77b4"/>
     <use xlink:href="#mc5efe06ef7" x="895.529138" y="255.6" style="fill: #1f77b4; stroke: #1f77b4"/>
     <use xlink:href="#mc5efe06ef7" x="898.41958" y="111.6" style="fill: #1f77b4; stroke: #1f77b4"/>
     <use xlink:href="#mc5efe06ef7" x="901.310023" y="111.6" style="fill: #1f77b4; stroke: #1f77b4"/>
     <use xlink:href="#mc5efe06ef7" x="904.200466" y="111.6" style="fill: #1f77b4; stroke: #1f77b4"/>
     <use xlink:href="#mc5efe06ef7" x="907.090909" y="111.6" style="fill: #1f77b4; stroke: #1f77b4"/>
     <use xlink:href="#mc5efe06ef7" x="909.981352" y="223.6" style="fill: #1f77b4; stroke: #1f77b4"/>
     <use xlink:href="#mc5efe06ef7" x="912.871795" y="111.6" style="fill: #1f77b4; stroke: #1f77b4"/>
     <use xlink:href="#mc5efe06ef7" x="915.762238" y="111.6" style="fill: #1f77b4; stroke: #1f77b4"/>
     <use xlink:href="#mc5efe06ef7" x="918.652681" y="111.6" style="fill: #1f77b4; stroke: #1f77b4"/>
     <use xlink:href="#mc5efe06ef7" x="921.543124" y="615.6" style="fill: #1f77b4; stroke: #1f77b4"/>
     <use xlink:href="#mc5efe06ef7" x="924.433566" y="111.6" style="fill: #1f77b4; stroke: #1f77b4"/>
     <use xlink:href="#mc5efe06ef7" x="927.324009" y="327.6" style="fill: #1f77b4; stroke: #1f77b4"/>
     <use xlink:href="#mc5efe06ef7" x="930.214452" y="111.6" style="fill: #1f77b4; stroke: #1f77b4"/>
     <use xlink:href="#mc5efe06ef7" x="933.104895" y="255.6" style="fill: #1f77b4; stroke: #1f77b4"/>
     <use xlink:href="#mc5efe06ef7" x="935.995338" y="111.6" style="fill: #1f77b4; stroke: #1f77b4"/>
     <use xlink:href="#mc5efe06ef7" x="938.885781" y="111.6" style="fill: #1f77b4; stroke: #1f77b4"/>
     <use xlink:href="#mc5efe06ef7" x="941.776224" y="255.6" style="fill: #1f77b4; stroke: #1f77b4"/>
     <use xlink:href="#mc5efe06ef7" x="944.666667" y="111.6" style="fill: #1f77b4; stroke: #1f77b4"/>
     <use xlink:href="#mc5efe06ef7" x="947.55711" y="183.6" style="fill: #1f77b4; stroke: #1f77b4"/>
     <use xlink:href="#mc5efe06ef7" x="950.447552" y="111.6" style="fill: #1f77b4; stroke: #1f77b4"/>
     <use xlink:href="#mc5efe06ef7" x="953.337995" y="543.6" style="fill: #1f77b4; stroke: #1f77b4"/>
     <use xlink:href="#mc5efe06ef7" x="956.228438" y="615.6" style="fill: #1f77b4; stroke: #1f77b4"/>
     <use xlink:href="#mc5efe06ef7" x="959.118881" y="111.6" style="fill: #1f77b4; stroke: #1f77b4"/>
     <use xlink:href="#mc5efe06ef7" x="962.009324" y="447.6" style="fill: #1f77b4; stroke: #1f77b4"/>
     <use xlink:href="#mc5efe06ef7" x="964.899767" y="503.6" style="fill: #1f77b4; stroke: #1f77b4"/>
     <use xlink:href="#mc5efe06ef7" x="967.79021" y="167.6" style="fill: #1f77b4; stroke: #1f77b4"/>
     <use xlink:href="#mc5efe06ef7" x="970.680653" y="111.6" style="fill: #1f77b4; stroke: #1f77b4"/>
     <use xlink:href="#mc5efe06ef7" x="973.571096" y="111.6" style="fill: #1f77b4; stroke: #1f77b4"/>
     <use xlink:href="#mc5efe06ef7" x="976.461538" y="489.6" style="fill: #1f77b4; stroke: #1f77b4"/>
     <use xlink:href="#mc5efe06ef7" x="979.351981" y="279.6" style="fill: #1f77b4; stroke: #1f77b4"/>
     <use xlink:href="#mc5efe06ef7" x="982.242424" y="111.6" style="fill: #1f77b4; stroke: #1f77b4"/>
     <use xlink:href="#mc5efe06ef7" x="985.132867" y="399.6" style="fill: #1f77b4; stroke: #1f77b4"/>
     <use xlink:href="#mc5efe06ef7" x="988.02331" y="615.6" style="fill: #1f77b4; stroke: #1f77b4"/>
     <use xlink:href="#mc5efe06ef7" x="990.913753" y="183.6" style="fill: #1f77b4; stroke: #1f77b4"/>
     <use xlink:href="#mc5efe06ef7" x="993.804196" y="255.6" style="fill: #1f77b4; stroke: #1f77b4"/>
     <use xlink:href="#mc5efe06ef7" x="996.694639" y="399.6" style="fill: #1f77b4; stroke: #1f77b4"/>
     <use xlink:href="#mc5efe06ef7" x="999.585082" y="111.6" style="fill: #1f77b4; stroke: #1f77b4"/>
     <use xlink:href="#mc5efe06ef7" x="1002.475524" y="111.6" style="fill: #1f77b4; stroke: #1f77b4"/>
     <use xlink:href="#mc5efe06ef7" x="1005.365967" y="471.6" style="fill: #1f77b4; stroke: #1f77b4"/>
     <use xlink:href="#mc5efe06ef7" x="1008.25641" y="223.6" style="fill: #1f77b4; stroke: #1f77b4"/>
     <use xlink:href="#mc5efe06ef7" x="1011.146853" y="167.6" style="fill: #1f77b4; stroke: #1f77b4"/>
     <use xlink:href="#mc5efe06ef7" x="1014.037296" y="615.6" style="fill: #1f77b4; stroke: #1f77b4"/>
     <use xlink:href="#mc5efe06ef7" x="1016.927739" y="183.6" style="fill: #1f77b4; stroke: #1f77b4"/>
     <use xlink:href="#mc5efe06ef7" x="1019.818182" y="615.6" style="fill: #1f77b4; stroke: #1f77b4"/>
     <use xlink:href="#mc5efe06ef7" x="1022.708625" y="167.6" style="fill: #1f77b4; stroke: #1f77b4"/>
     <use xlink:href="#mc5efe06ef7" x="1025.599068" y="471.6" style="fill: #1f77b4; stroke: #1f77b4"/>
     <use xlink:href="#mc5efe06ef7" x="1028.48951" y="167.6" style="fill: #1f77b4; stroke: #1f77b4"/>
     <use xlink:href="#mc5efe06ef7" x="1031.379953" y="183.6" style="fill: #1f77b4; stroke: #1f77b4"/>
     <use xlink:href="#mc5efe06ef7" x="1034.270396" y="183.6" style="fill: #1f77b4; stroke: #1f77b4"/>
     <use xlink:href="#mc5efe06ef7" x="1037.160839" y="327.6" style="fill: #1f77b4; stroke: #1f77b4"/>
     <use xlink:href="#mc5efe06ef7" x="1040.051282" y="167.6" style="fill: #1f77b4; stroke: #1f77b4"/>
     <use xlink:href="#mc5efe06ef7" x="1042.941725" y="111.6" style="fill: #1f77b4; stroke: #1f77b4"/>
     <use xlink:href="#mc5efe06ef7" x="1045.832168" y="111.6" style="fill: #1f77b4; stroke: #1f77b4"/>
     <use xlink:href="#mc5efe06ef7" x="1048.722611" y="111.6" style="fill: #1f77b4; stroke: #1f77b4"/>
     <use xlink:href="#mc5efe06ef7" x="1051.613054" y="111.6" style="fill: #1f77b4; stroke: #1f77b4"/>
     <use xlink:href="#mc5efe06ef7" x="1054.503497" y="183.6" style="fill: #1f77b4; stroke: #1f77b4"/>
     <use xlink:href="#mc5efe06ef7" x="1057.393939" y="111.6" style="fill: #1f77b4; stroke: #1f77b4"/>
     <use xlink:href="#mc5efe06ef7" x="1060.284382" y="111.6" style="fill: #1f77b4; stroke: #1f77b4"/>
     <use xlink:href="#mc5efe06ef7" x="1063.174825" y="111.6" style="fill: #1f77b4; stroke: #1f77b4"/>
     <use xlink:href="#mc5efe06ef7" x="1066.065268" y="111.6" style="fill: #1f77b4; stroke: #1f77b4"/>
     <use xlink:href="#mc5efe06ef7" x="1068.955711" y="111.6" style="fill: #1f77b4; stroke: #1f77b4"/>
     <use xlink:href="#mc5efe06ef7" x="1071.846154" y="111.6" style="fill: #1f77b4; stroke: #1f77b4"/>
     <use xlink:href="#mc5efe06ef7" x="1074.736597" y="255.6" style="fill: #1f77b4; stroke: #1f77b4"/>
     <use xlink:href="#mc5efe06ef7" x="1077.62704" y="223.6" style="fill: #1f77b4; stroke: #1f77b4"/>
     <use xlink:href="#mc5efe06ef7" x="1080.517483" y="111.6" style="fill: #1f77b4; stroke: #1f77b4"/>
     <use xlink:href="#mc5efe06ef7" x="1083.407925" y="111.6" style="fill: #1f77b4; stroke: #1f77b4"/>
     <use xlink:href="#mc5efe06ef7" x="1086.298368" y="111.6" style="fill: #1f77b4; stroke: #1f77b4"/>
     <use xlink:href="#mc5efe06ef7" x="1089.188811" y="111.6" style="fill: #1f77b4; stroke: #1f77b4"/>
     <use xlink:href="#mc5efe06ef7" x="1092.079254" y="111.6" style="fill: #1f77b4; stroke: #1f77b4"/>
     <use xlink:href="#mc5efe06ef7" x="1094.969697" y="111.6" style="fill: #1f77b4; stroke: #1f77b4"/>
     <use xlink:href="#mc5efe06ef7" x="1097.86014" y="111.6" style="fill: #1f77b4; stroke: #1f77b4"/>
     <use xlink:href="#mc5efe06ef7" x="1100.750583" y="111.6" style="fill: #1f77b4; stroke: #1f77b4"/>
     <use xlink:href="#mc5efe06ef7" x="1103.641026" y="111.6" style="fill: #1f77b4; stroke: #1f77b4"/>
     <use xlink:href="#mc5efe06ef7" x="1106.531469" y="167.6" style="fill: #1f77b4; stroke: #1f77b4"/>
     <use xlink:href="#mc5efe06ef7" x="1109.421911" y="327.6" style="fill: #1f77b4; stroke: #1f77b4"/>
     <use xlink:href="#mc5efe06ef7" x="1112.312354" y="255.6" style="fill: #1f77b4; stroke: #1f77b4"/>
     <use xlink:href="#mc5efe06ef7" x="1115.202797" y="167.6" style="fill: #1f77b4; stroke: #1f77b4"/>
     <use xlink:href="#mc5efe06ef7" x="1118.09324" y="399.6" style="fill: #1f77b4; stroke: #1f77b4"/>
     <use xlink:href="#mc5efe06ef7" x="1120.983683" y="111.6" style="fill: #1f77b4; stroke: #1f77b4"/>
     <use xlink:href="#mc5efe06ef7" x="1123.874126" y="615.6" style="fill: #1f77b4; stroke: #1f77b4"/>
     <use xlink:href="#mc5efe06ef7" x="1126.764569" y="111.6" style="fill: #1f77b4; stroke: #1f77b4"/>
     <use xlink:href="#mc5efe06ef7" x="1129.655012" y="335.6" style="fill: #1f77b4; stroke: #1f77b4"/>
     <use xlink:href="#mc5efe06ef7" x="1132.545455" y="399.6" style="fill: #1f77b4; stroke: #1f77b4"/>
     <use xlink:href="#mc5efe06ef7" x="1135.435897" y="111.6" style="fill: #1f77b4; stroke: #1f77b4"/>
     <use xlink:href="#mc5efe06ef7" x="1138.32634" y="111.6" style="fill: #1f77b4; stroke: #1f77b4"/>
     <use xlink:href="#mc5efe06ef7" x="1141.216783" y="167.6" style="fill: #1f77b4; stroke: #1f77b4"/>
     <use xlink:href="#mc5efe06ef7" x="1144.107226" y="111.6" style="fill: #1f77b4; stroke: #1f77b4"/>
     <use xlink:href="#mc5efe06ef7" x="1146.997669" y="391.6" style="fill: #1f77b4; stroke: #1f77b4"/>
     <use xlink:href="#mc5efe06ef7" x="1149.888112" y="255.6" style="fill: #1f77b4; stroke: #1f77b4"/>
     <use xlink:href="#mc5efe06ef7" x="1152.778555" y="447.6" style="fill: #1f77b4; stroke: #1f77b4"/>
     <use xlink:href="#mc5efe06ef7" x="1155.668998" y="543.6" style="fill: #1f77b4; stroke: #1f77b4"/>
     <use xlink:href="#mc5efe06ef7" x="1158.559441" y="279.6" style="fill: #1f77b4; stroke: #1f77b4"/>
     <use xlink:href="#mc5efe06ef7" x="1161.449883" y="111.6" style="fill: #1f77b4; stroke: #1f77b4"/>
     <use xlink:href="#mc5efe06ef7" x="1164.340326" y="183.6" style="fill: #1f77b4; stroke: #1f77b4"/>
     <use xlink:href="#mc5efe06ef7" x="1167.230769" y="183.6" style="fill: #1f77b4; stroke: #1f77b4"/>
     <use xlink:href="#mc5efe06ef7" x="1170.121212" y="111.6" style="fill: #1f77b4; stroke: #1f77b4"/>
     <use xlink:href="#mc5efe06ef7" x="1173.011655" y="471.6" style="fill: #1f77b4; stroke: #1f77b4"/>
     <use xlink:href="#mc5efe06ef7" x="1175.902098" y="447.6" style="fill: #1f77b4; stroke: #1f77b4"/>
     <use xlink:href="#mc5efe06ef7" x="1178.792541" y="111.6" style="fill: #1f77b4; stroke: #1f77b4"/>
     <use xlink:href="#mc5efe06ef7" x="1181.682984" y="183.6" style="fill: #1f77b4; stroke: #1f77b4"/>
     <use xlink:href="#mc5efe06ef7" x="1184.573427" y="391.6" style="fill: #1f77b4; stroke: #1f77b4"/>
     <use xlink:href="#mc5efe06ef7" x="1187.463869" y="111.6" style="fill: #1f77b4; stroke: #1f77b4"/>
     <use xlink:href="#mc5efe06ef7" x="1190.354312" y="111.6" style="fill: #1f77b4; stroke: #1f77b4"/>
     <use xlink:href="#mc5efe06ef7" x="1193.244755" y="399.6" style="fill: #1f77b4; stroke: #1f77b4"/>
     <use xlink:href="#mc5efe06ef7" x="1196.135198" y="111.6" style="fill: #1f77b4; stroke: #1f77b4"/>
     <use xlink:href="#mc5efe06ef7" x="1199.025641" y="615.6" style="fill: #1f77b4; stroke: #1f77b4"/>
     <use xlink:href="#mc5efe06ef7" x="1201.916084" y="111.6" style="fill: #1f77b4; stroke: #1f77b4"/>
     <use xlink:href="#mc5efe06ef7" x="1204.806527" y="447.6" style="fill: #1f77b4; stroke: #1f77b4"/>
     <use xlink:href="#mc5efe06ef7" x="1207.69697" y="111.6" style="fill: #1f77b4; stroke: #1f77b4"/>
     <use xlink:href="#mc5efe06ef7" x="1210.587413" y="615.6" style="fill: #1f77b4; stroke: #1f77b4"/>
     <use xlink:href="#mc5efe06ef7" x="1213.477855" y="111.6" style="fill: #1f77b4; stroke: #1f77b4"/>
     <use xlink:href="#mc5efe06ef7" x="1216.368298" y="183.6" style="fill: #1f77b4; stroke: #1f77b4"/>
     <use xlink:href="#mc5efe06ef7" x="1219.258741" y="183.6" style="fill: #1f77b4; stroke: #1f77b4"/>
     <use xlink:href="#mc5efe06ef7" x="1222.149184" y="327.6" style="fill: #1f77b4; stroke: #1f77b4"/>
     <use xlink:href="#mc5efe06ef7" x="1225.039627" y="183.6" style="fill: #1f77b4; stroke: #1f77b4"/>
     <use xlink:href="#mc5efe06ef7" x="1227.93007" y="335.6" style="fill: #1f77b4; stroke: #1f77b4"/>
     <use xlink:href="#mc5efe06ef7" x="1230.820513" y="111.6" style="fill: #1f77b4; stroke: #1f77b4"/>
     <use xlink:href="#mc5efe06ef7" x="1233.710956" y="167.6" style="fill: #1f77b4; stroke: #1f77b4"/>
     <use xlink:href="#mc5efe06ef7" x="1236.601399" y="183.6" style="fill: #1f77b4; stroke: #1f77b4"/>
     <use xlink:href="#mc5efe06ef7" x="1239.491841" y="111.6" style="fill: #1f77b4; stroke: #1f77b4"/>
     <use xlink:href="#mc5efe06ef7" x="1242.382284" y="111.6" style="fill: #1f77b4; stroke: #1f77b4"/>
     <use xlink:href="#mc5efe06ef7" x="1245.272727" y="111.6" style="fill: #1f77b4; stroke: #1f77b4"/>
    </g>
   </g>
   <g id="line2d_16">
    <defs>
     <path id="m186b32b370" d="M -0 4.949747 
L 4.949747 0 
L 0 -4.949747 
L -4.949747 -0 
z
" style="stroke: #ff7f0e; stroke-linejoin: miter"/>
    </defs>
    <g clip-path="url(#p76692431db)">
     <use xlink:href="#m186b32b370" x="308.769231" y="335.6" style="fill: #ff7f0e; stroke: #ff7f0e; stroke-linejoin: miter"/>
     <use xlink:href="#m186b32b370" x="343.454545" y="335.6" style="fill: #ff7f0e; stroke: #ff7f0e; stroke-linejoin: miter"/>
     <use xlink:href="#m186b32b370" x="369.468531" y="335.6" style="fill: #ff7f0e; stroke: #ff7f0e; stroke-linejoin: miter"/>
     <use xlink:href="#m186b32b370" x="392.592075" y="471.6" style="fill: #ff7f0e; stroke: #ff7f0e; stroke-linejoin: miter"/>
     <use xlink:href="#m186b32b370" x="415.715618" y="503.6" style="fill: #ff7f0e; stroke: #ff7f0e; stroke-linejoin: miter"/>
     <use xlink:href="#m186b32b370" x="459.072261" y="503.6" style="fill: #ff7f0e; stroke: #ff7f0e; stroke-linejoin: miter"/>
     <use xlink:href="#m186b32b370" x="513.990676" y="543.6" style="fill: #ff7f0e; stroke: #ff7f0e; stroke-linejoin: miter"/>
     <use xlink:href="#m186b32b370" x="606.484848" y="223.6" style="fill: #ff7f0e; stroke: #ff7f0e; stroke-linejoin: miter"/>
     <use xlink:href="#m186b32b370" x="612.265734" y="335.6" style="fill: #ff7f0e; stroke: #ff7f0e; stroke-linejoin: miter"/>
     <use xlink:href="#m186b32b370" x="620.937063" y="447.6" style="fill: #ff7f0e; stroke: #ff7f0e; stroke-linejoin: miter"/>
     <use xlink:href="#m186b32b370" x="672.965035" y="559.6" style="fill: #ff7f0e; stroke: #ff7f0e; stroke-linejoin: miter"/>
     <use xlink:href="#m186b32b370" x="675.855478" y="335.6" style="fill: #ff7f0e; stroke: #ff7f0e; stroke-linejoin: miter"/>
     <use xlink:href="#m186b32b370" x="678.745921" y="615.6" style="fill: #ff7f0e; stroke: #ff7f0e; stroke-linejoin: miter"/>
     <use xlink:href="#m186b32b370" x="687.417249" y="399.6" style="fill: #ff7f0e; stroke: #ff7f0e; stroke-linejoin: miter"/>
     <use xlink:href="#m186b32b370" x="690.307692" y="471.6" style="fill: #ff7f0e; stroke: #ff7f0e; stroke-linejoin: miter"/>
     <use xlink:href="#m186b32b370" x="774.130536" y="279.6" style="fill: #ff7f0e; stroke: #ff7f0e; stroke-linejoin: miter"/>
     <use xlink:href="#m186b32b370" x="814.596737" y="471.6" style="fill: #ff7f0e; stroke: #ff7f0e; stroke-linejoin: miter"/>
     <use xlink:href="#m186b32b370" x="823.268065" y="255.6" style="fill: #ff7f0e; stroke: #ff7f0e; stroke-linejoin: miter"/>
     <use xlink:href="#m186b32b370" x="866.624709" y="391.6" style="fill: #ff7f0e; stroke: #ff7f0e; stroke-linejoin: miter"/>
     <use xlink:href="#m186b32b370" x="927.324009" y="327.6" style="fill: #ff7f0e; stroke: #ff7f0e; stroke-linejoin: miter"/>
     <use xlink:href="#m186b32b370" x="962.009324" y="447.6" style="fill: #ff7f0e; stroke: #ff7f0e; stroke-linejoin: miter"/>
     <use xlink:href="#m186b32b370" x="964.899767" y="503.6" style="fill: #ff7f0e; stroke: #ff7f0e; stroke-linejoin: miter"/>
     <use xlink:href="#m186b32b370" x="976.461538" y="489.6" style="fill: #ff7f0e; stroke: #ff7f0e; stroke-linejoin: miter"/>
     <use xlink:href="#m186b32b370" x="979.351981" y="279.6" style="fill: #ff7f0e; stroke: #ff7f0e; stroke-linejoin: miter"/>
     <use xlink:href="#m186b32b370" x="988.02331" y="615.6" style="fill: #ff7f0e; stroke: #ff7f0e; stroke-linejoin: miter"/>
     <use xlink:href="#m186b32b370" x="993.804196" y="255.6" style="fill: #ff7f0e; stroke: #ff7f0e; stroke-linejoin: miter"/>
     <use xlink:href="#m186b32b370" x="1005.365967" y="471.6" style="fill: #ff7f0e; stroke: #ff7f0e; stroke-linejoin: miter"/>
     <use xlink:href="#m186b32b370" x="1025.599068" y="471.6" style="fill: #ff7f0e; stroke: #ff7f0e; stroke-linejoin: miter"/>
     <use xlink:href="#m186b32b370" x="1109.421911" y="327.6" style="fill: #ff7f0e; stroke: #ff7f0e; stroke-linejoin: miter"/>
     <use xlink:href="#m186b32b370" x="1118.09324" y="399.6" style="fill: #ff7f0e; stroke: #ff7f0e; stroke-linejoin: miter"/>
     <use xlink:href="#m186b32b370" x="1123.874126" y="615.6" style="fill: #ff7f0e; stroke: #ff7f0e; stroke-linejoin: miter"/>
     <use xlink:href="#m186b32b370" x="1173.011655" y="471.6" style="fill: #ff7f0e; stroke: #ff7f0e; stroke-linejoin: miter"/>
     <use xlink:href="#m186b32b370" x="1175.902098" y="447.6" style="fill: #ff7f0e; stroke: #ff7f0e; stroke-linejoin: miter"/>
     <use xlink:href="#m186b32b370" x="1184.573427" y="391.6" style="fill: #ff7f0e; stroke: #ff7f0e; stroke-linejoin: miter"/>
     <use xlink:href="#m186b32b370" x="1193.244755" y="399.6" style="fill: #ff7f0e; stroke: #ff7f0e; stroke-linejoin: miter"/>
     <use xlink:href="#m186b32b370" x="1204.806527" y="447.6" style="fill: #ff7f0e; stroke: #ff7f0e; stroke-linejoin: miter"/>
     <use xlink:href="#m186b32b370" x="1222.149184" y="327.6" style="fill: #ff7f0e; stroke: #ff7f0e; stroke-linejoin: miter"/>
     <use xlink:href="#m186b32b370" x="1227.93007" y="335.6" style="fill: #ff7f0e; stroke: #ff7f0e; stroke-linejoin: miter"/>
    </g>
   </g>
   <g id="line2d_17">
    <defs>
     <path id="m589d47640a" d="M -3.5 3.5 
L 3.5 3.5 
L 3.5 -3.5 
L -3.5 -3.5 
z
" style="stroke: #2ca02c; stroke-linejoin: miter"/>
    </defs>
    <g clip-path="url(#p76692431db)">
     <use xlink:href="#m589d47640a" x="496.648019" y="223.6" style="fill: #2ca02c; stroke: #2ca02c; stroke-linejoin: miter"/>
     <use xlink:href="#m589d47640a" x="568.909091" y="255.6" style="fill: #2ca02c; stroke: #2ca02c; stroke-linejoin: miter"/>
     <use xlink:href="#m589d47640a" x="1037.160839" y="327.6" style="fill: #2ca02c; stroke: #2ca02c; stroke-linejoin: miter"/>
     <use xlink:href="#m589d47640a" x="1115.202797" y="167.6" style="fill: #2ca02c; stroke: #2ca02c; stroke-linejoin: miter"/>
     <use xlink:href="#m589d47640a" x="1129.655012" y="335.6" style="fill: #2ca02c; stroke: #2ca02c; stroke-linejoin: miter"/>
     <use xlink:href="#m589d47640a" x="1146.997669" y="391.6" style="fill: #2ca02c; stroke: #2ca02c; stroke-linejoin: miter"/>
     <use xlink:href="#m589d47640a" x="1152.778555" y="447.6" style="fill: #2ca02c; stroke: #2ca02c; stroke-linejoin: miter"/>
    </g>
   </g>
   <g id="patch_3">
    <path d="M 180 640.8 
L 180 86.4 
" style="fill: none; stroke: #000000; stroke-width: 0.8; stroke-linejoin: miter; stroke-linecap: square"/>
   </g>
   <g id="patch_4">
    <path d="M 1296 640.8 
L 1296 86.4 
" style="fill: none; stroke: #000000; stroke-width: 0.8; stroke-linejoin: miter; stroke-linecap: square"/>
   </g>
   <g id="patch_5">
    <path d="M 180 640.8 
L 1296 640.8 
" style="fill: none; stroke: #000000; stroke-width: 0.8; stroke-linejoin: miter; stroke-linecap: square"/>
   </g>
   <g id="patch_6">
    <path d="M 180 86.4 
L 1296 86.4 
" style="fill: none; stroke: #000000; stroke-width: 0.8; stroke-linejoin: miter; stroke-linecap: square"/>
   </g>
   <g id="text_17">
    <!-- Relative Number of 'none' Target Votings to All Ratings per E-mail (First Prestudy) -->
    <g transform="translate(531.99237 80.4)scale(0.12 -0.12)">
     <defs>
      <path id="CMSS17-52" d="M 2522 2109 
L 2534 2115 
C 3533 2459 3539 3147 3539 3268 
C 3539 3873 2925 4453 2003 4453 
L 570 4453 
L 570 32 
L 1094 32 
L 1094 2048 
L 2035 2048 
L 3168 32 
L 3706 32 
L 2522 2109 
z
M 1094 2437 
L 1094 4096 
L 1933 4096 
C 2746 4096 3034 3637 3034 3267 
C 3034 2922 2778 2437 1933 2437 
L 1094 2437 
z
" transform="scale(0.015625)"/>
      <path id="CMSS17-76" d="M 2675 2752 
L 2176 2752 
L 1747 1556 
C 1613 1165 1421 627 1389 352 
L 1382 352 
C 1370 468 1318 634 1286 749 
C 1248 890 1197 1056 1158 1172 
L 595 2752 
L 83 2752 
L 1094 0 
L 1664 0 
L 2675 2752 
z
" transform="scale(0.015625)"/>
      <path id="CMSS17-4e" d="M 1466 4180 
L 1350 4416 
L 563 4416 
L 563 0 
L 1062 0 
L 1062 3926 
L 1069 3932 
C 1114 3817 1139 3760 1402 3194 
L 2771 236 
L 2886 0 
L 3674 0 
L 3674 4416 
L 3174 4416 
L 3174 490 
L 3168 483 
C 3123 598 3098 655 2835 1221 
L 1466 4180 
z
" transform="scale(0.015625)"/>
      <path id="CMSS17-62" d="M 954 4416 
L 480 4416 
L 480 -13 
L 966 -13 
L 966 274 
C 1210 38 1504 -64 1766 -64 
C 2381 -64 2880 549 2880 1352 
C 2880 2086 2496 2756 1926 2756 
C 1523 2756 1165 2591 954 2419 
L 954 4416 
z
M 966 2046 
C 1107 2222 1306 2368 1587 2368 
C 1965 2368 2394 2097 2394 1352 
C 2394 558 1882 325 1530 325 
C 1402 325 1267 356 1139 464 
C 966 615 966 709 966 797 
L 966 2046 
z
" transform="scale(0.015625)"/>
      <path id="CMSS17-66" d="M 1075 2368 
L 1722 2368 
L 1722 2737 
L 1062 2737 
L 1062 3559 
C 1062 4014 1408 4092 1606 4092 
C 1670 4092 1850 4092 2080 4009 
L 2080 4429 
C 1933 4461 1754 4480 1613 4480 
C 1018 4480 602 3993 602 3359 
L 602 2737 
L 160 2737 
L 160 2368 
L 602 2368 
L 602 0 
L 1075 0 
L 1075 2368 
z
" transform="scale(0.015625)"/>
      <path id="CMSS17-27" d="M 1088 3910 
L 1088 4413 
L 576 4413 
L 576 3904 
L 736 3904 
L 570 3104 
L 826 3104 
L 1088 3910 
z
" transform="scale(0.015625)"/>
      <path id="CMSS17-54" d="M 2317 3968 
L 2848 3968 
C 2925 3968 3002 3968 3078 3968 
L 3878 3968 
L 3878 4376 
L 218 4376 
L 218 3968 
L 1018 3968 
C 1094 3968 1171 3968 1248 3968 
L 1779 3968 
L 1779 -32 
L 2317 -32 
L 2317 3968 
z
" transform="scale(0.015625)"/>
      <path id="CMSS17-56" d="M 3910 4416 
L 3411 4416 
L 2304 1362 
C 2272 1273 2074 688 2035 484 
L 2029 484 
C 1978 726 1773 1292 1664 1604 
L 922 3672 
L 646 4416 
L 83 4416 
L 1715 0 
L 2278 0 
L 3910 4416 
z
" transform="scale(0.015625)"/>
      <path id="CMSS17-41" d="M 2272 4416 
L 1722 4416 
L 166 0 
L 653 0 
L 1101 1280 
L 2816 1280 
L 3270 0 
L 3827 0 
L 2272 4416 
z
M 2694 1637 
L 1222 1637 
C 1530 2528 1914 3638 1958 3925 
L 1965 3925 
C 2010 3663 2138 3281 2246 2956 
L 2694 1637 
z
" transform="scale(0.015625)"/>
      <path id="CMSS17-46" d="M 2918 1984 
L 2918 2373 
L 1101 2373 
L 1101 3968 
L 1882 3968 
C 1958 3968 2035 3968 2112 3968 
L 3168 3968 
L 3168 4375 
L 563 4375 
L 563 -32 
L 1101 -32 
L 1101 1984 
L 2918 1984 
z
" transform="scale(0.015625)"/>
      <path id="CMSS17-50" d="M 2106 1856 
C 2874 1856 3501 2453 3501 3158 
C 3501 3850 2899 4453 2067 4453 
L 570 4453 
L 570 0 
L 1107 0 
L 1107 1856 
L 2106 1856 
z
M 1926 4096 
C 2669 4096 2995 3627 2995 3157 
C 2995 2720 2694 2226 1926 2226 
L 1094 2226 
L 1094 4096 
L 1926 4096 
z
" transform="scale(0.015625)"/>
     </defs>
     <use xlink:href="#CMSS17-52" transform="scale(0.996264)"/>
     <use xlink:href="#CMSS17-65" transform="translate(60.416155 0)scale(0.996264)"/>
     <use xlink:href="#CMSS17-6c" transform="translate(102.054977 0)scale(0.996264)"/>
     <use xlink:href="#CMSS17-61" transform="translate(124.2357 0)scale(0.996264)"/>
     <use xlink:href="#CMSS17-74" transform="translate(169.157621 0)scale(0.996264)"/>
     <use xlink:href="#CMSS17-69" transform="translate(202.989187 0)scale(0.996264)"/>
     <use xlink:href="#CMSS17-76" transform="translate(225.16991 0)scale(0.996264)"/>
     <use xlink:href="#CMSS17-65" transform="translate(268.170052 0)scale(0.996264)"/>
     <use xlink:href="#CMSS17-4e" transform="translate(341.037987 0)scale(0.996264)"/>
     <use xlink:href="#CMSS17-75" transform="translate(407.099506 0)scale(0.996264)"/>
     <use xlink:href="#CMSS17-6d" transform="translate(455.304449 0)scale(0.996264)"/>
     <use xlink:href="#CMSS17-62" transform="translate(529.533704 0)scale(0.996264)"/>
     <use xlink:href="#CMSS17-65" transform="translate(580.341085 0)scale(0.996264)"/>
     <use xlink:href="#CMSS17-72" transform="translate(621.979908 0)scale(0.996264)"/>
     <use xlink:href="#CMSS17-6f" transform="translate(685.118793 0)scale(0.996264)"/>
     <use xlink:href="#CMSS17-66" transform="translate(731.962416 0)scale(0.996264)"/>
     <use xlink:href="#CMSS17-27" transform="translate(791.818188 0)scale(0.996264)"/>
     <use xlink:href="#CMSS17-6e" transform="translate(817.842393 0)scale(0.996264)"/>
     <use xlink:href="#CMSS17-6f" transform="translate(866.047336 0)scale(0.996264)"/>
     <use xlink:href="#CMSS17-6e" transform="translate(912.890959 0)scale(0.996264)"/>
     <use xlink:href="#CMSS17-65" transform="translate(961.095903 0)scale(0.996264)"/>
     <use xlink:href="#CMSS17-27" transform="translate(1002.734725 0)scale(0.996264)"/>
     <use xlink:href="#CMSS17-54" transform="translate(1059.988042 0)scale(0.996264)"/>
     <use xlink:href="#CMSS17-61" transform="translate(1116.000241 0)scale(0.996264)"/>
     <use xlink:href="#CMSS17-72" transform="translate(1158.319707 0)scale(0.996264)"/>
     <use xlink:href="#CMSS17-67" transform="translate(1190.22948 0)scale(0.996264)"/>
     <use xlink:href="#CMSS17-65" transform="translate(1237.073104 0)scale(0.996264)"/>
     <use xlink:href="#CMSS17-74" transform="translate(1278.711926 0)scale(0.996264)"/>
     <use xlink:href="#CMSS17-56" transform="translate(1343.772605 0)scale(0.996264)"/>
     <use xlink:href="#CMSS17-6f" transform="translate(1403.388006 0)scale(0.996264)"/>
     <use xlink:href="#CMSS17-74" transform="translate(1450.23163 0)scale(0.996264)"/>
     <use xlink:href="#CMSS17-69" transform="translate(1484.063196 0)scale(0.996264)"/>
     <use xlink:href="#CMSS17-6e" transform="translate(1506.243919 0)scale(0.996264)"/>
     <use xlink:href="#CMSS17-67" transform="translate(1554.448862 0)scale(0.996264)"/>
     <use xlink:href="#CMSS17-73" transform="translate(1601.292486 0)scale(0.996264)"/>
     <use xlink:href="#CMSS17-74" transform="translate(1668.435141 0)scale(0.996264)"/>
     <use xlink:href="#CMSS17-6f" transform="translate(1702.266707 0)scale(0.996264)"/>
     <use xlink:href="#CMSS17-41" transform="translate(1780.339444 0)scale(0.996264)"/>
     <use xlink:href="#CMSS17-6c" transform="translate(1842.557299 0)scale(0.996264)"/>
     <use xlink:href="#CMSS17-6c" transform="translate(1864.738022 0)scale(0.996264)"/>
     <use xlink:href="#CMSS17-52" transform="translate(1918.147857 0)scale(0.996264)"/>
     <use xlink:href="#CMSS17-61" transform="translate(1978.564012 0)scale(0.996264)"/>
     <use xlink:href="#CMSS17-74" transform="translate(2023.485933 0)scale(0.996264)"/>
     <use xlink:href="#CMSS17-69" transform="translate(2057.3175 0)scale(0.996264)"/>
     <use xlink:href="#CMSS17-6e" transform="translate(2079.498223 0)scale(0.996264)"/>
     <use xlink:href="#CMSS17-67" transform="translate(2127.703166 0)scale(0.996264)"/>
     <use xlink:href="#CMSS17-73" transform="translate(2174.546789 0)scale(0.996264)"/>
     <use xlink:href="#CMSS17-70" transform="translate(2241.689444 0)scale(0.996264)"/>
     <use xlink:href="#CMSS17-65" transform="translate(2292.496826 0)scale(0.996264)"/>
     <use xlink:href="#CMSS17-72" transform="translate(2334.135648 0)scale(0.996264)"/>
     <use xlink:href="#CMSS17-45" transform="translate(2397.274533 0)scale(0.996264)"/>
     <use xlink:href="#CMSS17-2d" transform="translate(2453.166546 0)scale(0.996264)"/>
     <use xlink:href="#CMSS17-6d" transform="translate(2484.395659 0)scale(0.996264)"/>
     <use xlink:href="#CMSS17-61" transform="translate(2558.624914 0)scale(0.996264)"/>
     <use xlink:href="#CMSS17-69" transform="translate(2603.546834 0)scale(0.996264)"/>
     <use xlink:href="#CMSS17-6c" transform="translate(2625.727557 0)scale(0.996264)"/>
     <use xlink:href="#CMSS17-28" transform="translate(2679.137393 0)scale(0.996264)"/>
     <use xlink:href="#CMSS17-46" transform="translate(2715.571307 0)scale(0.996264)"/>
     <use xlink:href="#CMSS17-69" transform="translate(2768.860867 0)scale(0.996264)"/>
     <use xlink:href="#CMSS17-72" transform="translate(2791.04159 0)scale(0.996264)"/>
     <use xlink:href="#CMSS17-73" transform="translate(2822.951362 0)scale(0.996264)"/>
     <use xlink:href="#CMSS17-74" transform="translate(2858.864904 0)scale(0.996264)"/>
     <use xlink:href="#CMSS17-50" transform="translate(2923.925584 0)scale(0.996264)"/>
     <use xlink:href="#CMSS17-72" transform="translate(2983.66117 0)scale(0.996264)"/>
     <use xlink:href="#CMSS17-65" transform="translate(3015.570942 0)scale(0.996264)"/>
     <use xlink:href="#CMSS17-73" transform="translate(3057.209765 0)scale(0.996264)"/>
     <use xlink:href="#CMSS17-74" transform="translate(3093.123307 0)scale(0.996264)"/>
     <use xlink:href="#CMSS17-75" transform="translate(3126.954873 0)scale(0.996264)"/>
     <use xlink:href="#CMSS17-64" transform="translate(3175.159816 0)scale(0.996264)"/>
     <use xlink:href="#CMSS17-79" transform="translate(3223.364759 0)scale(0.996264)"/>
     <use xlink:href="#CMSS17-29" transform="translate(3266.364901 0)scale(0.996264)"/>
    </g>
   </g>
   <g id="legend_1">
    <g id="patch_7">
     <path d="M 187 635.8 
L 410.476604 635.8 
Q 412.476604 635.8 412.476604 633.8 
L 412.476604 592.988465 
Q 412.476604 590.988465 410.476604 590.988465 
L 187 590.988465 
Q 185 590.988465 185 592.988465 
L 185 633.8 
Q 185 635.8 187 635.8 
z
" style="fill: #ffffff; opacity: 0.8; stroke: #cccccc; stroke-linejoin: miter"/>
    </g>
    <g id="line2d_18">
     <g>
      <use xlink:href="#mc5efe06ef7" x="199" y="598.488465" style="fill: #1f77b4; stroke: #1f77b4"/>
     </g>
    </g>
    <g id="text_18">
     <!-- E-mails where raters agreed -->
     <g transform="translate(217 601.988465)scale(0.1 -0.1)">
      <defs>
       <path id="CMSS17-77" d="M 4013 2752 
L 3526 2752 
L 3187 1601 
C 3117 1358 2918 685 2893 371 
L 2886 371 
C 2874 564 2765 1024 2586 1633 
L 2259 2752 
L 1818 2752 
L 1498 1658 
C 1338 1101 1216 627 1203 371 
L 1197 371 
C 1171 749 909 1633 870 1773 
L 582 2752 
L 83 2752 
L 915 0 
L 1402 0 
C 1734 1096 1990 1943 2010 2370 
C 2022 2160 2131 1707 2195 1484 
L 2618 0 
L 3181 0 
L 4013 2752 
z
" transform="scale(0.015625)"/>
       <path id="CMSS17-68" d="M 2618 1891 
C 2618 2292 2522 2820 1798 2820 
C 1395 2820 1133 2623 947 2407 
L 947 4448 
L 474 4448 
L 474 32 
L 960 32 
L 960 1573 
C 960 1973 1114 2432 1549 2432 
C 2112 2432 2131 2056 2131 1839 
L 2131 32 
L 2618 32 
L 2618 1891 
z
" transform="scale(0.015625)"/>
      </defs>
      <use xlink:href="#CMSS17-45" transform="scale(0.996264)"/>
      <use xlink:href="#CMSS17-2d" transform="translate(55.892013 0)scale(0.996264)"/>
      <use xlink:href="#CMSS17-6d" transform="translate(87.121126 0)scale(0.996264)"/>
      <use xlink:href="#CMSS17-61" transform="translate(161.35038 0)scale(0.996264)"/>
      <use xlink:href="#CMSS17-69" transform="translate(206.272301 0)scale(0.996264)"/>
      <use xlink:href="#CMSS17-6c" transform="translate(228.453024 0)scale(0.996264)"/>
      <use xlink:href="#CMSS17-73" transform="translate(250.633747 0)scale(0.996264)"/>
      <use xlink:href="#CMSS17-77" transform="translate(317.776402 0)scale(0.996264)"/>
      <use xlink:href="#CMSS17-68" transform="translate(381.595947 0)scale(0.996264)"/>
      <use xlink:href="#CMSS17-65" transform="translate(429.80089 0)scale(0.996264)"/>
      <use xlink:href="#CMSS17-72" transform="translate(471.439712 0)scale(0.996264)"/>
      <use xlink:href="#CMSS17-65" transform="translate(503.349485 0)scale(0.996264)"/>
      <use xlink:href="#CMSS17-72" transform="translate(576.21742 0)scale(0.996264)"/>
      <use xlink:href="#CMSS17-61" transform="translate(608.127192 0)scale(0.996264)"/>
      <use xlink:href="#CMSS17-74" transform="translate(653.049113 0)scale(0.996264)"/>
      <use xlink:href="#CMSS17-65" transform="translate(686.880679 0)scale(0.996264)"/>
      <use xlink:href="#CMSS17-72" transform="translate(728.519501 0)scale(0.996264)"/>
      <use xlink:href="#CMSS17-73" transform="translate(760.429274 0)scale(0.996264)"/>
      <use xlink:href="#CMSS17-61" transform="translate(827.571929 0)scale(0.996264)"/>
      <use xlink:href="#CMSS17-67" transform="translate(872.493849 0)scale(0.996264)"/>
      <use xlink:href="#CMSS17-72" transform="translate(919.337473 0)scale(0.996264)"/>
      <use xlink:href="#CMSS17-65" transform="translate(951.247245 0)scale(0.996264)"/>
      <use xlink:href="#CMSS17-65" transform="translate(992.886068 0)scale(0.996264)"/>
      <use xlink:href="#CMSS17-64" transform="translate(1034.52489 0)scale(0.996264)"/>
     </g>
    </g>
    <g id="line2d_19">
     <g>
      <use xlink:href="#m186b32b370" x="199" y="612.425643" style="fill: #ff7f0e; stroke: #ff7f0e; stroke-linejoin: miter"/>
     </g>
    </g>
    <g id="text_19">
     <!-- Ambiguous e-mails -->
     <g transform="translate(217 615.925643)scale(0.1 -0.1)">
      <use xlink:href="#CMSS17-41" transform="scale(0.996264)"/>
      <use xlink:href="#CMSS17-6d" transform="translate(62.217855 0)scale(0.996264)"/>
      <use xlink:href="#CMSS17-62" transform="translate(136.447109 0)scale(0.996264)"/>
      <use xlink:href="#CMSS17-69" transform="translate(184.652052 0)scale(0.996264)"/>
      <use xlink:href="#CMSS17-67" transform="translate(206.832776 0)scale(0.996264)"/>
      <use xlink:href="#CMSS17-75" transform="translate(253.676399 0)scale(0.996264)"/>
      <use xlink:href="#CMSS17-6f" transform="translate(301.881342 0)scale(0.996264)"/>
      <use xlink:href="#CMSS17-75" transform="translate(348.724966 0)scale(0.996264)"/>
      <use xlink:href="#CMSS17-73" transform="translate(396.929909 0)scale(0.996264)"/>
      <use xlink:href="#CMSS17-65" transform="translate(464.072564 0)scale(0.996264)"/>
      <use xlink:href="#CMSS17-2d" transform="translate(505.711386 0)scale(0.996264)"/>
      <use xlink:href="#CMSS17-6d" transform="translate(536.940498 0)scale(0.996264)"/>
      <use xlink:href="#CMSS17-61" transform="translate(611.169753 0)scale(0.996264)"/>
      <use xlink:href="#CMSS17-69" transform="translate(656.091673 0)scale(0.996264)"/>
      <use xlink:href="#CMSS17-6c" transform="translate(678.272396 0)scale(0.996264)"/>
      <use xlink:href="#CMSS17-73" transform="translate(700.45312 0)scale(0.996264)"/>
     </g>
    </g>
    <g id="line2d_20">
     <g>
      <use xlink:href="#m589d47640a" x="199" y="626.362822" style="fill: #2ca02c; stroke: #2ca02c; stroke-linejoin: miter"/>
     </g>
    </g>
    <g id="text_20">
     <!-- E-mails with disagreement but not ambiguous -->
     <g transform="translate(217 629.862822)scale(0.1 -0.1)">
      <use xlink:href="#CMSS17-45" transform="scale(0.996264)"/>
      <use xlink:href="#CMSS17-2d" transform="translate(55.892013 0)scale(0.996264)"/>
      <use xlink:href="#CMSS17-6d" transform="translate(87.121126 0)scale(0.996264)"/>
      <use xlink:href="#CMSS17-61" transform="translate(161.35038 0)scale(0.996264)"/>
      <use xlink:href="#CMSS17-69" transform="translate(206.272301 0)scale(0.996264)"/>
      <use xlink:href="#CMSS17-6c" transform="translate(228.453024 0)scale(0.996264)"/>
      <use xlink:href="#CMSS17-73" transform="translate(250.633747 0)scale(0.996264)"/>
      <use xlink:href="#CMSS17-77" transform="translate(317.776402 0)scale(0.996264)"/>
      <use xlink:href="#CMSS17-69" transform="translate(381.595947 0)scale(0.996264)"/>
      <use xlink:href="#CMSS17-74" transform="translate(403.77667 0)scale(0.996264)"/>
      <use xlink:href="#CMSS17-68" transform="translate(437.608237 0)scale(0.996264)"/>
      <use xlink:href="#CMSS17-64" transform="translate(517.042293 0)scale(0.996264)"/>
      <use xlink:href="#CMSS17-69" transform="translate(565.247236 0)scale(0.996264)"/>
      <use xlink:href="#CMSS17-73" transform="translate(587.427959 0)scale(0.996264)"/>
      <use xlink:href="#CMSS17-61" transform="translate(623.341501 0)scale(0.996264)"/>
      <use xlink:href="#CMSS17-67" transform="translate(668.263421 0)scale(0.996264)"/>
      <use xlink:href="#CMSS17-72" transform="translate(715.107045 0)scale(0.996264)"/>
      <use xlink:href="#CMSS17-65" transform="translate(747.016817 0)scale(0.996264)"/>
      <use xlink:href="#CMSS17-65" transform="translate(788.655639 0)scale(0.996264)"/>
      <use xlink:href="#CMSS17-6d" transform="translate(830.294462 0)scale(0.996264)"/>
      <use xlink:href="#CMSS17-65" transform="translate(904.523716 0)scale(0.996264)"/>
      <use xlink:href="#CMSS17-6e" transform="translate(946.162538 0)scale(0.996264)"/>
      <use xlink:href="#CMSS17-74" transform="translate(994.367481 0)scale(0.996264)"/>
      <use xlink:href="#CMSS17-62" transform="translate(1059.428161 0)scale(0.996264)"/>
      <use xlink:href="#CMSS17-75" transform="translate(1107.633104 0)scale(0.996264)"/>
      <use xlink:href="#CMSS17-74" transform="translate(1155.838047 0)scale(0.996264)"/>
      <use xlink:href="#CMSS17-6e" transform="translate(1220.898726 0)scale(0.996264)"/>
      <use xlink:href="#CMSS17-6f" transform="translate(1269.103669 0)scale(0.996264)"/>
      <use xlink:href="#CMSS17-74" transform="translate(1315.947293 0)scale(0.996264)"/>
      <use xlink:href="#CMSS17-61" transform="translate(1381.007972 0)scale(0.996264)"/>
      <use xlink:href="#CMSS17-6d" transform="translate(1425.929893 0)scale(0.996264)"/>
      <use xlink:href="#CMSS17-62" transform="translate(1500.159147 0)scale(0.996264)"/>
      <use xlink:href="#CMSS17-69" transform="translate(1548.364091 0)scale(0.996264)"/>
      <use xlink:href="#CMSS17-67" transform="translate(1570.544814 0)scale(0.996264)"/>
      <use xlink:href="#CMSS17-75" transform="translate(1617.388437 0)scale(0.996264)"/>
      <use xlink:href="#CMSS17-6f" transform="translate(1665.59338 0)scale(0.996264)"/>
      <use xlink:href="#CMSS17-75" transform="translate(1712.437004 0)scale(0.996264)"/>
      <use xlink:href="#CMSS17-73" transform="translate(1760.641947 0)scale(0.996264)"/>
     </g>
    </g>
   </g>
  </g>
 </g>
 <defs>
  <clipPath id="p76692431db">
   <rect x="180" y="86.4" width="1116" height="554.4"/>
  </clipPath>
 </defs>
</svg>
