<?xml version="1.0" encoding="utf-8" standalone="no"?>
<!DOCTYPE svg PUBLIC "-//W3C//DTD SVG 1.1//EN"
  "http://www.w3.org/Graphics/SVG/1.1/DTD/svg11.dtd">
<svg xmlns:xlink="http://www.w3.org/1999/xlink" width="1080pt" height="720pt" viewBox="0 0 1080 720" xmlns="http://www.w3.org/2000/svg" version="1.1">
 <metadata>
  <rdf:RDF xmlns:dc="http://purl.org/dc/elements/1.1/" xmlns:cc="http://creativecommons.org/ns#" xmlns:rdf="http://www.w3.org/1999/02/22-rdf-syntax-ns#">
   <cc:Work>
    <dc:type rdf:resource="http://purl.org/dc/dcmitype/StillImage"/>
    <dc:date>2022-08-29T17:29:38.732889</dc:date>
    <dc:format>image/svg+xml</dc:format>
    <dc:creator>
     <cc:Agent>
      <dc:title>Matplotlib v3.5.3, https://matplotlib.org/</dc:title>
     </cc:Agent>
    </dc:creator>
   </cc:Work>
  </rdf:RDF>
 </metadata>
 <defs>
  <style type="text/css">*{stroke-linejoin: round; stroke-linecap: butt}</style>
 </defs>
 <g id="figure_1">
  <g id="patch_1">
   <path d="M 0 720 
L 1080 720 
L 1080 0 
L 0 0 
z
" style="fill: #ffffff"/>
  </g>
  <g id="axes_1">
   <g id="patch_2">
    <path d="M 135 640.8 
L 972 640.8 
L 972 86.4 
L 135 86.4 
z
" style="fill: #ffffff"/>
   </g>
   <g id="patch_3">
    <path d="M 173.045455 640.8 
L 179.676471 640.8 
L 179.676471 464.8 
L 173.045455 464.8 
z
" clip-path="url(#pd7bac833f9)" style="fill: #006ba4"/>
   </g>
   <g id="patch_4">
    <path d="M 181.334225 640.8 
L 187.965241 640.8 
L 187.965241 523.466667 
L 181.334225 523.466667 
z
" clip-path="url(#pd7bac833f9)" style="fill: #006ba4"/>
   </g>
   <g id="patch_5">
    <path d="M 189.622995 640.8 
L 196.254011 640.8 
L 196.254011 288.8 
L 189.622995 288.8 
z
" clip-path="url(#pd7bac833f9)" style="fill: #006ba4"/>
   </g>
   <g id="patch_6">
    <path d="M 197.911765 640.8 
L 204.542781 640.8 
L 204.542781 464.8 
L 197.911765 464.8 
z
" clip-path="url(#pd7bac833f9)" style="fill: #006ba4"/>
   </g>
   <g id="patch_7">
    <path d="M 206.200535 640.8 
L 212.831551 640.8 
L 212.831551 523.466667 
L 206.200535 523.466667 
z
" clip-path="url(#pd7bac833f9)" style="fill: #006ba4"/>
   </g>
   <g id="patch_8">
    <path d="M 214.489305 640.8 
L 221.120321 640.8 
L 221.120321 582.133333 
L 214.489305 582.133333 
z
" clip-path="url(#pd7bac833f9)" style="fill: #006ba4"/>
   </g>
   <g id="patch_9">
    <path d="M 222.778075 640.8 
L 229.409091 640.8 
L 229.409091 523.466667 
L 222.778075 523.466667 
z
" clip-path="url(#pd7bac833f9)" style="fill: #006ba4"/>
   </g>
   <g id="patch_10">
    <path d="M 231.066845 640.8 
L 237.697861 640.8 
L 237.697861 582.133333 
L 231.066845 582.133333 
z
" clip-path="url(#pd7bac833f9)" style="fill: #006ba4"/>
   </g>
   <g id="patch_11">
    <path d="M 239.355615 640.8 
L 245.986631 640.8 
L 245.986631 406.133333 
L 239.355615 406.133333 
z
" clip-path="url(#pd7bac833f9)" style="fill: #006ba4"/>
   </g>
   <g id="patch_12">
    <path d="M 247.644385 640.8 
L 254.275401 640.8 
L 254.275401 288.8 
L 247.644385 288.8 
z
" clip-path="url(#pd7bac833f9)" style="fill: #006ba4"/>
   </g>
   <g id="patch_13">
    <path d="M 255.933155 640.8 
L 262.564171 640.8 
L 262.564171 406.133333 
L 255.933155 406.133333 
z
" clip-path="url(#pd7bac833f9)" style="fill: #006ba4"/>
   </g>
   <g id="patch_14">
    <path d="M 264.221925 640.8 
L 270.852941 640.8 
L 270.852941 464.8 
L 264.221925 464.8 
z
" clip-path="url(#pd7bac833f9)" style="fill: #006ba4"/>
   </g>
   <g id="patch_15">
    <path d="M 272.510695 640.8 
L 279.141711 640.8 
L 279.141711 523.466667 
L 272.510695 523.466667 
z
" clip-path="url(#pd7bac833f9)" style="fill: #006ba4"/>
   </g>
   <g id="patch_16">
    <path d="M 280.799465 640.8 
L 287.430481 640.8 
L 287.430481 288.8 
L 280.799465 288.8 
z
" clip-path="url(#pd7bac833f9)" style="fill: #006ba4"/>
   </g>
   <g id="patch_17">
    <path d="M 289.088235 640.8 
L 295.719251 640.8 
L 295.719251 406.133333 
L 289.088235 406.133333 
z
" clip-path="url(#pd7bac833f9)" style="fill: #006ba4"/>
   </g>
   <g id="patch_18">
    <path d="M 297.377005 640.8 
L 304.008021 640.8 
L 304.008021 406.133333 
L 297.377005 406.133333 
z
" clip-path="url(#pd7bac833f9)" style="fill: #006ba4"/>
   </g>
   <g id="patch_19">
    <path d="M 305.665775 640.8 
L 312.296791 640.8 
L 312.296791 464.8 
L 305.665775 464.8 
z
" clip-path="url(#pd7bac833f9)" style="fill: #006ba4"/>
   </g>
   <g id="patch_20">
    <path d="M 313.954545 640.8 
L 320.585561 640.8 
L 320.585561 347.466667 
L 313.954545 347.466667 
z
" clip-path="url(#pd7bac833f9)" style="fill: #006ba4"/>
   </g>
   <g id="patch_21">
    <path d="M 322.243316 640.8 
L 328.874332 640.8 
L 328.874332 523.466667 
L 322.243316 523.466667 
z
" clip-path="url(#pd7bac833f9)" style="fill: #006ba4"/>
   </g>
   <g id="patch_22">
    <path d="M 330.532086 640.8 
L 337.163102 640.8 
L 337.163102 464.8 
L 330.532086 464.8 
z
" clip-path="url(#pd7bac833f9)" style="fill: #006ba4"/>
   </g>
   <g id="patch_23">
    <path d="M 338.820856 640.8 
L 345.451872 640.8 
L 345.451872 406.133333 
L 338.820856 406.133333 
z
" clip-path="url(#pd7bac833f9)" style="fill: #006ba4"/>
   </g>
   <g id="patch_24">
    <path d="M 347.109626 640.8 
L 353.740642 640.8 
L 353.740642 582.133333 
L 347.109626 582.133333 
z
" clip-path="url(#pd7bac833f9)" style="fill: #006ba4"/>
   </g>
   <g id="patch_25">
    <path d="M 355.398396 640.8 
L 362.029412 640.8 
L 362.029412 464.8 
L 355.398396 464.8 
z
" clip-path="url(#pd7bac833f9)" style="fill: #006ba4"/>
   </g>
   <g id="patch_26">
    <path d="M 363.687166 640.8 
L 370.318182 640.8 
L 370.318182 523.466667 
L 363.687166 523.466667 
z
" clip-path="url(#pd7bac833f9)" style="fill: #006ba4"/>
   </g>
   <g id="patch_27">
    <path d="M 371.975936 640.8 
L 378.606952 640.8 
L 378.606952 582.133333 
L 371.975936 582.133333 
z
" clip-path="url(#pd7bac833f9)" style="fill: #006ba4"/>
   </g>
   <g id="patch_28">
    <path d="M 380.264706 640.8 
L 386.895722 640.8 
L 386.895722 523.466667 
L 380.264706 523.466667 
z
" clip-path="url(#pd7bac833f9)" style="fill: #006ba4"/>
   </g>
   <g id="patch_29">
    <path d="M 388.553476 640.8 
L 395.184492 640.8 
L 395.184492 582.133333 
L 388.553476 582.133333 
z
" clip-path="url(#pd7bac833f9)" style="fill: #006ba4"/>
   </g>
   <g id="patch_30">
    <path d="M 396.842246 640.8 
L 403.473262 640.8 
L 403.473262 640.8 
L 396.842246 640.8 
z
" clip-path="url(#pd7bac833f9)" style="fill: #006ba4"/>
   </g>
   <g id="patch_31">
    <path d="M 405.131016 640.8 
L 411.762032 640.8 
L 411.762032 582.133333 
L 405.131016 582.133333 
z
" clip-path="url(#pd7bac833f9)" style="fill: #006ba4"/>
   </g>
   <g id="patch_32">
    <path d="M 413.419786 640.8 
L 420.050802 640.8 
L 420.050802 347.466667 
L 413.419786 347.466667 
z
" clip-path="url(#pd7bac833f9)" style="fill: #006ba4"/>
   </g>
   <g id="patch_33">
    <path d="M 421.708556 640.8 
L 428.339572 640.8 
L 428.339572 640.8 
L 421.708556 640.8 
z
" clip-path="url(#pd7bac833f9)" style="fill: #006ba4"/>
   </g>
   <g id="patch_34">
    <path d="M 429.997326 640.8 
L 436.628342 640.8 
L 436.628342 640.8 
L 429.997326 640.8 
z
" clip-path="url(#pd7bac833f9)" style="fill: #006ba4"/>
   </g>
   <g id="patch_35">
    <path d="M 438.286096 640.8 
L 444.917112 640.8 
L 444.917112 640.8 
L 438.286096 640.8 
z
" clip-path="url(#pd7bac833f9)" style="fill: #006ba4"/>
   </g>
   <g id="patch_36">
    <path d="M 446.574866 640.8 
L 453.205882 640.8 
L 453.205882 523.466667 
L 446.574866 523.466667 
z
" clip-path="url(#pd7bac833f9)" style="fill: #006ba4"/>
   </g>
   <g id="patch_37">
    <path d="M 454.863636 640.8 
L 461.494652 640.8 
L 461.494652 347.466667 
L 454.863636 347.466667 
z
" clip-path="url(#pd7bac833f9)" style="fill: #006ba4"/>
   </g>
   <g id="patch_38">
    <path d="M 463.152406 640.8 
L 469.783422 640.8 
L 469.783422 347.466667 
L 463.152406 347.466667 
z
" clip-path="url(#pd7bac833f9)" style="fill: #006ba4"/>
   </g>
   <g id="patch_39">
    <path d="M 471.441176 640.8 
L 478.072193 640.8 
L 478.072193 523.466667 
L 471.441176 523.466667 
z
" clip-path="url(#pd7bac833f9)" style="fill: #006ba4"/>
   </g>
   <g id="patch_40">
    <path d="M 479.729947 640.8 
L 486.360963 640.8 
L 486.360963 288.8 
L 479.729947 288.8 
z
" clip-path="url(#pd7bac833f9)" style="fill: #006ba4"/>
   </g>
   <g id="patch_41">
    <path d="M 488.018717 640.8 
L 494.649733 640.8 
L 494.649733 464.8 
L 488.018717 464.8 
z
" clip-path="url(#pd7bac833f9)" style="fill: #006ba4"/>
   </g>
   <g id="patch_42">
    <path d="M 496.307487 640.8 
L 502.938503 640.8 
L 502.938503 464.8 
L 496.307487 464.8 
z
" clip-path="url(#pd7bac833f9)" style="fill: #006ba4"/>
   </g>
   <g id="patch_43">
    <path d="M 504.596257 640.8 
L 511.227273 640.8 
L 511.227273 523.466667 
L 504.596257 523.466667 
z
" clip-path="url(#pd7bac833f9)" style="fill: #006ba4"/>
   </g>
   <g id="patch_44">
    <path d="M 512.885027 640.8 
L 519.516043 640.8 
L 519.516043 640.8 
L 512.885027 640.8 
z
" clip-path="url(#pd7bac833f9)" style="fill: #006ba4"/>
   </g>
   <g id="patch_45">
    <path d="M 521.173797 640.8 
L 527.804813 640.8 
L 527.804813 582.133333 
L 521.173797 582.133333 
z
" clip-path="url(#pd7bac833f9)" style="fill: #006ba4"/>
   </g>
   <g id="patch_46">
    <path d="M 529.462567 640.8 
L 536.093583 640.8 
L 536.093583 640.8 
L 529.462567 640.8 
z
" clip-path="url(#pd7bac833f9)" style="fill: #006ba4"/>
   </g>
   <g id="patch_47">
    <path d="M 537.751337 640.8 
L 544.382353 640.8 
L 544.382353 523.466667 
L 537.751337 523.466667 
z
" clip-path="url(#pd7bac833f9)" style="fill: #006ba4"/>
   </g>
   <g id="patch_48">
    <path d="M 546.040107 640.8 
L 552.671123 640.8 
L 552.671123 582.133333 
L 546.040107 582.133333 
z
" clip-path="url(#pd7bac833f9)" style="fill: #006ba4"/>
   </g>
   <g id="patch_49">
    <path d="M 554.328877 640.8 
L 560.959893 640.8 
L 560.959893 464.8 
L 554.328877 464.8 
z
" clip-path="url(#pd7bac833f9)" style="fill: #006ba4"/>
   </g>
   <g id="patch_50">
    <path d="M 562.617647 640.8 
L 569.248663 640.8 
L 569.248663 640.8 
L 562.617647 640.8 
z
" clip-path="url(#pd7bac833f9)" style="fill: #006ba4"/>
   </g>
   <g id="patch_51">
    <path d="M 570.906417 640.8 
L 577.537433 640.8 
L 577.537433 640.8 
L 570.906417 640.8 
z
" clip-path="url(#pd7bac833f9)" style="fill: #006ba4"/>
   </g>
   <g id="patch_52">
    <path d="M 579.195187 640.8 
L 585.826203 640.8 
L 585.826203 464.8 
L 579.195187 464.8 
z
" clip-path="url(#pd7bac833f9)" style="fill: #006ba4"/>
   </g>
   <g id="patch_53">
    <path d="M 587.483957 640.8 
L 594.114973 640.8 
L 594.114973 582.133333 
L 587.483957 582.133333 
z
" clip-path="url(#pd7bac833f9)" style="fill: #006ba4"/>
   </g>
   <g id="patch_54">
    <path d="M 595.772727 640.8 
L 602.403743 640.8 
L 602.403743 406.133333 
L 595.772727 406.133333 
z
" clip-path="url(#pd7bac833f9)" style="fill: #006ba4"/>
   </g>
   <g id="patch_55">
    <path d="M 604.061497 640.8 
L 610.692513 640.8 
L 610.692513 406.133333 
L 604.061497 406.133333 
z
" clip-path="url(#pd7bac833f9)" style="fill: #006ba4"/>
   </g>
   <g id="patch_56">
    <path d="M 612.350267 640.8 
L 618.981283 640.8 
L 618.981283 406.133333 
L 612.350267 406.133333 
z
" clip-path="url(#pd7bac833f9)" style="fill: #006ba4"/>
   </g>
   <g id="patch_57">
    <path d="M 620.639037 640.8 
L 627.270053 640.8 
L 627.270053 406.133333 
L 620.639037 406.133333 
z
" clip-path="url(#pd7bac833f9)" style="fill: #006ba4"/>
   </g>
   <g id="patch_58">
    <path d="M 628.927807 640.8 
L 635.558824 640.8 
L 635.558824 582.133333 
L 628.927807 582.133333 
z
" clip-path="url(#pd7bac833f9)" style="fill: #006ba4"/>
   </g>
   <g id="patch_59">
    <path d="M 637.216578 640.8 
L 643.847594 640.8 
L 643.847594 347.466667 
L 637.216578 347.466667 
z
" clip-path="url(#pd7bac833f9)" style="fill: #006ba4"/>
   </g>
   <g id="patch_60">
    <path d="M 645.505348 640.8 
L 652.136364 640.8 
L 652.136364 347.466667 
L 645.505348 347.466667 
z
" clip-path="url(#pd7bac833f9)" style="fill: #006ba4"/>
   </g>
   <g id="patch_61">
    <path d="M 653.794118 640.8 
L 660.425134 640.8 
L 660.425134 288.8 
L 653.794118 288.8 
z
" clip-path="url(#pd7bac833f9)" style="fill: #006ba4"/>
   </g>
   <g id="patch_62">
    <path d="M 662.082888 640.8 
L 668.713904 640.8 
L 668.713904 171.466667 
L 662.082888 171.466667 
z
" clip-path="url(#pd7bac833f9)" style="fill: #006ba4"/>
   </g>
   <g id="patch_63">
    <path d="M 670.371658 640.8 
L 677.002674 640.8 
L 677.002674 347.466667 
L 670.371658 347.466667 
z
" clip-path="url(#pd7bac833f9)" style="fill: #006ba4"/>
   </g>
   <g id="patch_64">
    <path d="M 678.660428 640.8 
L 685.291444 640.8 
L 685.291444 582.133333 
L 678.660428 582.133333 
z
" clip-path="url(#pd7bac833f9)" style="fill: #006ba4"/>
   </g>
   <g id="patch_65">
    <path d="M 686.949198 640.8 
L 693.580214 640.8 
L 693.580214 464.8 
L 686.949198 464.8 
z
" clip-path="url(#pd7bac833f9)" style="fill: #006ba4"/>
   </g>
   <g id="patch_66">
    <path d="M 695.237968 640.8 
L 701.868984 640.8 
L 701.868984 640.8 
L 695.237968 640.8 
z
" clip-path="url(#pd7bac833f9)" style="fill: #006ba4"/>
   </g>
   <g id="patch_67">
    <path d="M 703.526738 640.8 
L 710.157754 640.8 
L 710.157754 523.466667 
L 703.526738 523.466667 
z
" clip-path="url(#pd7bac833f9)" style="fill: #006ba4"/>
   </g>
   <g id="patch_68">
    <path d="M 711.815508 640.8 
L 718.446524 640.8 
L 718.446524 640.8 
L 711.815508 640.8 
z
" clip-path="url(#pd7bac833f9)" style="fill: #006ba4"/>
   </g>
   <g id="patch_69">
    <path d="M 720.104278 640.8 
L 726.735294 640.8 
L 726.735294 347.466667 
L 720.104278 347.466667 
z
" clip-path="url(#pd7bac833f9)" style="fill: #006ba4"/>
   </g>
   <g id="patch_70">
    <path d="M 728.393048 640.8 
L 735.024064 640.8 
L 735.024064 582.133333 
L 728.393048 582.133333 
z
" clip-path="url(#pd7bac833f9)" style="fill: #006ba4"/>
   </g>
   <g id="patch_71">
    <path d="M 736.681818 640.8 
L 743.312834 640.8 
L 743.312834 406.133333 
L 736.681818 406.133333 
z
" clip-path="url(#pd7bac833f9)" style="fill: #006ba4"/>
   </g>
   <g id="patch_72">
    <path d="M 744.970588 640.8 
L 751.601604 640.8 
L 751.601604 582.133333 
L 744.970588 582.133333 
z
" clip-path="url(#pd7bac833f9)" style="fill: #006ba4"/>
   </g>
   <g id="patch_73">
    <path d="M 753.259358 640.8 
L 759.890374 640.8 
L 759.890374 464.8 
L 753.259358 464.8 
z
" clip-path="url(#pd7bac833f9)" style="fill: #006ba4"/>
   </g>
   <g id="patch_74">
    <path d="M 761.548128 640.8 
L 768.179144 640.8 
L 768.179144 523.466667 
L 761.548128 523.466667 
z
" clip-path="url(#pd7bac833f9)" style="fill: #006ba4"/>
   </g>
   <g id="patch_75">
    <path d="M 769.836898 640.8 
L 776.467914 640.8 
L 776.467914 523.466667 
L 769.836898 523.466667 
z
" clip-path="url(#pd7bac833f9)" style="fill: #006ba4"/>
   </g>
   <g id="patch_76">
    <path d="M 778.125668 640.8 
L 784.756684 640.8 
L 784.756684 582.133333 
L 778.125668 582.133333 
z
" clip-path="url(#pd7bac833f9)" style="fill: #006ba4"/>
   </g>
   <g id="patch_77">
    <path d="M 786.414439 640.8 
L 793.045455 640.8 
L 793.045455 640.8 
L 786.414439 640.8 
z
" clip-path="url(#pd7bac833f9)" style="fill: #006ba4"/>
   </g>
   <g id="patch_78">
    <path d="M 794.703209 640.8 
L 801.334225 640.8 
L 801.334225 406.133333 
L 794.703209 406.133333 
z
" clip-path="url(#pd7bac833f9)" style="fill: #006ba4"/>
   </g>
   <g id="patch_79">
    <path d="M 802.991979 640.8 
L 809.622995 640.8 
L 809.622995 112.8 
L 802.991979 112.8 
z
" clip-path="url(#pd7bac833f9)" style="fill: #006ba4"/>
   </g>
   <g id="patch_80">
    <path d="M 811.280749 640.8 
L 817.911765 640.8 
L 817.911765 523.466667 
L 811.280749 523.466667 
z
" clip-path="url(#pd7bac833f9)" style="fill: #006ba4"/>
   </g>
   <g id="patch_81">
    <path d="M 819.569519 640.8 
L 826.200535 640.8 
L 826.200535 464.8 
L 819.569519 464.8 
z
" clip-path="url(#pd7bac833f9)" style="fill: #006ba4"/>
   </g>
   <g id="patch_82">
    <path d="M 827.858289 640.8 
L 834.489305 640.8 
L 834.489305 582.133333 
L 827.858289 582.133333 
z
" clip-path="url(#pd7bac833f9)" style="fill: #006ba4"/>
   </g>
   <g id="patch_83">
    <path d="M 836.147059 640.8 
L 842.778075 640.8 
L 842.778075 347.466667 
L 836.147059 347.466667 
z
" clip-path="url(#pd7bac833f9)" style="fill: #006ba4"/>
   </g>
   <g id="patch_84">
    <path d="M 844.435829 640.8 
L 851.066845 640.8 
L 851.066845 523.466667 
L 844.435829 523.466667 
z
" clip-path="url(#pd7bac833f9)" style="fill: #006ba4"/>
   </g>
   <g id="patch_85">
    <path d="M 852.724599 640.8 
L 859.355615 640.8 
L 859.355615 112.8 
L 852.724599 112.8 
z
" clip-path="url(#pd7bac833f9)" style="fill: #006ba4"/>
   </g>
   <g id="patch_86">
    <path d="M 861.013369 640.8 
L 867.644385 640.8 
L 867.644385 406.133333 
L 861.013369 406.133333 
z
" clip-path="url(#pd7bac833f9)" style="fill: #006ba4"/>
   </g>
   <g id="patch_87">
    <path d="M 869.302139 640.8 
L 875.933155 640.8 
L 875.933155 523.466667 
L 869.302139 523.466667 
z
" clip-path="url(#pd7bac833f9)" style="fill: #006ba4"/>
   </g>
   <g id="patch_88">
    <path d="M 877.590909 640.8 
L 884.221925 640.8 
L 884.221925 347.466667 
L 877.590909 347.466667 
z
" clip-path="url(#pd7bac833f9)" style="fill: #006ba4"/>
   </g>
   <g id="patch_89">
    <path d="M 885.879679 640.8 
L 892.510695 640.8 
L 892.510695 288.8 
L 885.879679 288.8 
z
" clip-path="url(#pd7bac833f9)" style="fill: #006ba4"/>
   </g>
   <g id="patch_90">
    <path d="M 894.168449 640.8 
L 900.799465 640.8 
L 900.799465 582.133333 
L 894.168449 582.133333 
z
" clip-path="url(#pd7bac833f9)" style="fill: #006ba4"/>
   </g>
   <g id="patch_91">
    <path d="M 902.457219 640.8 
L 909.088235 640.8 
L 909.088235 406.133333 
L 902.457219 406.133333 
z
" clip-path="url(#pd7bac833f9)" style="fill: #006ba4"/>
   </g>
   <g id="patch_92">
    <path d="M 910.745989 640.8 
L 917.377005 640.8 
L 917.377005 582.133333 
L 910.745989 582.133333 
z
" clip-path="url(#pd7bac833f9)" style="fill: #006ba4"/>
   </g>
   <g id="patch_93">
    <path d="M 919.034759 640.8 
L 925.665775 640.8 
L 925.665775 582.133333 
L 919.034759 582.133333 
z
" clip-path="url(#pd7bac833f9)" style="fill: #006ba4"/>
   </g>
   <g id="patch_94">
    <path d="M 927.323529 640.8 
L 933.954545 640.8 
L 933.954545 523.466667 
L 927.323529 523.466667 
z
" clip-path="url(#pd7bac833f9)" style="fill: #006ba4"/>
   </g>
   <g id="patch_95">
    <path d="M 173.045455 640.8 
L 179.676471 640.8 
L 179.676471 640.8 
L 173.045455 640.8 
z
" clip-path="url(#pd7bac833f9)" style="fill: #ff800e"/>
   </g>
   <g id="patch_96">
    <path d="M 181.334225 640.8 
L 187.965241 640.8 
L 187.965241 640.8 
L 181.334225 640.8 
z
" clip-path="url(#pd7bac833f9)" style="fill: #ff800e"/>
   </g>
   <g id="patch_97">
    <path d="M 189.622995 640.8 
L 196.254011 640.8 
L 196.254011 640.8 
L 189.622995 640.8 
z
" clip-path="url(#pd7bac833f9)" style="fill: #ff800e"/>
   </g>
   <g id="patch_98">
    <path d="M 197.911765 640.8 
L 204.542781 640.8 
L 204.542781 640.8 
L 197.911765 640.8 
z
" clip-path="url(#pd7bac833f9)" style="fill: #ff800e"/>
   </g>
   <g id="patch_99">
    <path d="M 206.200535 640.8 
L 212.831551 640.8 
L 212.831551 640.8 
L 206.200535 640.8 
z
" clip-path="url(#pd7bac833f9)" style="fill: #ff800e"/>
   </g>
   <g id="patch_100">
    <path d="M 214.489305 640.8 
L 221.120321 640.8 
L 221.120321 582.133333 
L 214.489305 582.133333 
z
" clip-path="url(#pd7bac833f9)" style="fill: #ff800e"/>
   </g>
   <g id="patch_101">
    <path d="M 222.778075 640.8 
L 229.409091 640.8 
L 229.409091 640.8 
L 222.778075 640.8 
z
" clip-path="url(#pd7bac833f9)" style="fill: #ff800e"/>
   </g>
   <g id="patch_102">
    <path d="M 231.066845 640.8 
L 237.697861 640.8 
L 237.697861 640.8 
L 231.066845 640.8 
z
" clip-path="url(#pd7bac833f9)" style="fill: #ff800e"/>
   </g>
   <g id="patch_103">
    <path d="M 239.355615 640.8 
L 245.986631 640.8 
L 245.986631 523.466667 
L 239.355615 523.466667 
z
" clip-path="url(#pd7bac833f9)" style="fill: #ff800e"/>
   </g>
   <g id="patch_104">
    <path d="M 247.644385 640.8 
L 254.275401 640.8 
L 254.275401 640.8 
L 247.644385 640.8 
z
" clip-path="url(#pd7bac833f9)" style="fill: #ff800e"/>
   </g>
   <g id="patch_105">
    <path d="M 255.933155 640.8 
L 262.564171 640.8 
L 262.564171 640.8 
L 255.933155 640.8 
z
" clip-path="url(#pd7bac833f9)" style="fill: #ff800e"/>
   </g>
   <g id="patch_106">
    <path d="M 264.221925 640.8 
L 270.852941 640.8 
L 270.852941 640.8 
L 264.221925 640.8 
z
" clip-path="url(#pd7bac833f9)" style="fill: #ff800e"/>
   </g>
   <g id="patch_107">
    <path d="M 272.510695 640.8 
L 279.141711 640.8 
L 279.141711 640.8 
L 272.510695 640.8 
z
" clip-path="url(#pd7bac833f9)" style="fill: #ff800e"/>
   </g>
   <g id="patch_108">
    <path d="M 280.799465 640.8 
L 287.430481 640.8 
L 287.430481 640.8 
L 280.799465 640.8 
z
" clip-path="url(#pd7bac833f9)" style="fill: #ff800e"/>
   </g>
   <g id="patch_109">
    <path d="M 289.088235 640.8 
L 295.719251 640.8 
L 295.719251 582.133333 
L 289.088235 582.133333 
z
" clip-path="url(#pd7bac833f9)" style="fill: #ff800e"/>
   </g>
   <g id="patch_110">
    <path d="M 297.377005 640.8 
L 304.008021 640.8 
L 304.008021 640.8 
L 297.377005 640.8 
z
" clip-path="url(#pd7bac833f9)" style="fill: #ff800e"/>
   </g>
   <g id="patch_111">
    <path d="M 305.665775 640.8 
L 312.296791 640.8 
L 312.296791 640.8 
L 305.665775 640.8 
z
" clip-path="url(#pd7bac833f9)" style="fill: #ff800e"/>
   </g>
   <g id="patch_112">
    <path d="M 313.954545 640.8 
L 320.585561 640.8 
L 320.585561 640.8 
L 313.954545 640.8 
z
" clip-path="url(#pd7bac833f9)" style="fill: #ff800e"/>
   </g>
   <g id="patch_113">
    <path d="M 322.243316 640.8 
L 328.874332 640.8 
L 328.874332 640.8 
L 322.243316 640.8 
z
" clip-path="url(#pd7bac833f9)" style="fill: #ff800e"/>
   </g>
   <g id="patch_114">
    <path d="M 330.532086 640.8 
L 337.163102 640.8 
L 337.163102 640.8 
L 330.532086 640.8 
z
" clip-path="url(#pd7bac833f9)" style="fill: #ff800e"/>
   </g>
   <g id="patch_115">
    <path d="M 338.820856 640.8 
L 345.451872 640.8 
L 345.451872 640.8 
L 338.820856 640.8 
z
" clip-path="url(#pd7bac833f9)" style="fill: #ff800e"/>
   </g>
   <g id="patch_116">
    <path d="M 347.109626 640.8 
L 353.740642 640.8 
L 353.740642 464.8 
L 347.109626 464.8 
z
" clip-path="url(#pd7bac833f9)" style="fill: #ff800e"/>
   </g>
   <g id="patch_117">
    <path d="M 355.398396 640.8 
L 362.029412 640.8 
L 362.029412 523.466667 
L 355.398396 523.466667 
z
" clip-path="url(#pd7bac833f9)" style="fill: #ff800e"/>
   </g>
   <g id="patch_118">
    <path d="M 363.687166 640.8 
L 370.318182 640.8 
L 370.318182 523.466667 
L 363.687166 523.466667 
z
" clip-path="url(#pd7bac833f9)" style="fill: #ff800e"/>
   </g>
   <g id="patch_119">
    <path d="M 371.975936 640.8 
L 378.606952 640.8 
L 378.606952 582.133333 
L 371.975936 582.133333 
z
" clip-path="url(#pd7bac833f9)" style="fill: #ff800e"/>
   </g>
   <g id="patch_120">
    <path d="M 380.264706 640.8 
L 386.895722 640.8 
L 386.895722 582.133333 
L 380.264706 582.133333 
z
" clip-path="url(#pd7bac833f9)" style="fill: #ff800e"/>
   </g>
   <g id="patch_121">
    <path d="M 388.553476 640.8 
L 395.184492 640.8 
L 395.184492 640.8 
L 388.553476 640.8 
z
" clip-path="url(#pd7bac833f9)" style="fill: #ff800e"/>
   </g>
   <g id="patch_122">
    <path d="M 396.842246 640.8 
L 403.473262 640.8 
L 403.473262 288.8 
L 396.842246 288.8 
z
" clip-path="url(#pd7bac833f9)" style="fill: #ff800e"/>
   </g>
   <g id="patch_123">
    <path d="M 405.131016 640.8 
L 411.762032 640.8 
L 411.762032 640.8 
L 405.131016 640.8 
z
" clip-path="url(#pd7bac833f9)" style="fill: #ff800e"/>
   </g>
   <g id="patch_124">
    <path d="M 413.419786 640.8 
L 420.050802 640.8 
L 420.050802 640.8 
L 413.419786 640.8 
z
" clip-path="url(#pd7bac833f9)" style="fill: #ff800e"/>
   </g>
   <g id="patch_125">
    <path d="M 421.708556 640.8 
L 428.339572 640.8 
L 428.339572 582.133333 
L 421.708556 582.133333 
z
" clip-path="url(#pd7bac833f9)" style="fill: #ff800e"/>
   </g>
   <g id="patch_126">
    <path d="M 429.997326 640.8 
L 436.628342 640.8 
L 436.628342 523.466667 
L 429.997326 523.466667 
z
" clip-path="url(#pd7bac833f9)" style="fill: #ff800e"/>
   </g>
   <g id="patch_127">
    <path d="M 438.286096 640.8 
L 444.917112 640.8 
L 444.917112 464.8 
L 438.286096 464.8 
z
" clip-path="url(#pd7bac833f9)" style="fill: #ff800e"/>
   </g>
   <g id="patch_128">
    <path d="M 446.574866 640.8 
L 453.205882 640.8 
L 453.205882 406.133333 
L 446.574866 406.133333 
z
" clip-path="url(#pd7bac833f9)" style="fill: #ff800e"/>
   </g>
   <g id="patch_129">
    <path d="M 454.863636 640.8 
L 461.494652 640.8 
L 461.494652 640.8 
L 454.863636 640.8 
z
" clip-path="url(#pd7bac833f9)" style="fill: #ff800e"/>
   </g>
   <g id="patch_130">
    <path d="M 463.152406 640.8 
L 469.783422 640.8 
L 469.783422 640.8 
L 463.152406 640.8 
z
" clip-path="url(#pd7bac833f9)" style="fill: #ff800e"/>
   </g>
   <g id="patch_131">
    <path d="M 471.441176 640.8 
L 478.072193 640.8 
L 478.072193 640.8 
L 471.441176 640.8 
z
" clip-path="url(#pd7bac833f9)" style="fill: #ff800e"/>
   </g>
   <g id="patch_132">
    <path d="M 479.729947 640.8 
L 486.360963 640.8 
L 486.360963 640.8 
L 479.729947 640.8 
z
" clip-path="url(#pd7bac833f9)" style="fill: #ff800e"/>
   </g>
   <g id="patch_133">
    <path d="M 488.018717 640.8 
L 494.649733 640.8 
L 494.649733 640.8 
L 488.018717 640.8 
z
" clip-path="url(#pd7bac833f9)" style="fill: #ff800e"/>
   </g>
   <g id="patch_134">
    <path d="M 496.307487 640.8 
L 502.938503 640.8 
L 502.938503 640.8 
L 496.307487 640.8 
z
" clip-path="url(#pd7bac833f9)" style="fill: #ff800e"/>
   </g>
   <g id="patch_135">
    <path d="M 504.596257 640.8 
L 511.227273 640.8 
L 511.227273 582.133333 
L 504.596257 582.133333 
z
" clip-path="url(#pd7bac833f9)" style="fill: #ff800e"/>
   </g>
   <g id="patch_136">
    <path d="M 512.885027 640.8 
L 519.516043 640.8 
L 519.516043 582.133333 
L 512.885027 582.133333 
z
" clip-path="url(#pd7bac833f9)" style="fill: #ff800e"/>
   </g>
   <g id="patch_137">
    <path d="M 521.173797 640.8 
L 527.804813 640.8 
L 527.804813 406.133333 
L 521.173797 406.133333 
z
" clip-path="url(#pd7bac833f9)" style="fill: #ff800e"/>
   </g>
   <g id="patch_138">
    <path d="M 529.462567 640.8 
L 536.093583 640.8 
L 536.093583 464.8 
L 529.462567 464.8 
z
" clip-path="url(#pd7bac833f9)" style="fill: #ff800e"/>
   </g>
   <g id="patch_139">
    <path d="M 537.751337 640.8 
L 544.382353 640.8 
L 544.382353 464.8 
L 537.751337 464.8 
z
" clip-path="url(#pd7bac833f9)" style="fill: #ff800e"/>
   </g>
   <g id="patch_140">
    <path d="M 546.040107 640.8 
L 552.671123 640.8 
L 552.671123 582.133333 
L 546.040107 582.133333 
z
" clip-path="url(#pd7bac833f9)" style="fill: #ff800e"/>
   </g>
   <g id="patch_141">
    <path d="M 554.328877 640.8 
L 560.959893 640.8 
L 560.959893 640.8 
L 554.328877 640.8 
z
" clip-path="url(#pd7bac833f9)" style="fill: #ff800e"/>
   </g>
   <g id="patch_142">
    <path d="M 562.617647 640.8 
L 569.248663 640.8 
L 569.248663 582.133333 
L 562.617647 582.133333 
z
" clip-path="url(#pd7bac833f9)" style="fill: #ff800e"/>
   </g>
   <g id="patch_143">
    <path d="M 570.906417 640.8 
L 577.537433 640.8 
L 577.537433 640.8 
L 570.906417 640.8 
z
" clip-path="url(#pd7bac833f9)" style="fill: #ff800e"/>
   </g>
   <g id="patch_144">
    <path d="M 579.195187 640.8 
L 585.826203 640.8 
L 585.826203 640.8 
L 579.195187 640.8 
z
" clip-path="url(#pd7bac833f9)" style="fill: #ff800e"/>
   </g>
   <g id="patch_145">
    <path d="M 587.483957 640.8 
L 594.114973 640.8 
L 594.114973 640.8 
L 587.483957 640.8 
z
" clip-path="url(#pd7bac833f9)" style="fill: #ff800e"/>
   </g>
   <g id="patch_146">
    <path d="M 595.772727 640.8 
L 602.403743 640.8 
L 602.403743 640.8 
L 595.772727 640.8 
z
" clip-path="url(#pd7bac833f9)" style="fill: #ff800e"/>
   </g>
   <g id="patch_147">
    <path d="M 604.061497 640.8 
L 610.692513 640.8 
L 610.692513 640.8 
L 604.061497 640.8 
z
" clip-path="url(#pd7bac833f9)" style="fill: #ff800e"/>
   </g>
   <g id="patch_148">
    <path d="M 612.350267 640.8 
L 618.981283 640.8 
L 618.981283 582.133333 
L 612.350267 582.133333 
z
" clip-path="url(#pd7bac833f9)" style="fill: #ff800e"/>
   </g>
   <g id="patch_149">
    <path d="M 620.639037 640.8 
L 627.270053 640.8 
L 627.270053 640.8 
L 620.639037 640.8 
z
" clip-path="url(#pd7bac833f9)" style="fill: #ff800e"/>
   </g>
   <g id="patch_150">
    <path d="M 628.927807 640.8 
L 635.558824 640.8 
L 635.558824 523.466667 
L 628.927807 523.466667 
z
" clip-path="url(#pd7bac833f9)" style="fill: #ff800e"/>
   </g>
   <g id="patch_151">
    <path d="M 637.216578 640.8 
L 643.847594 640.8 
L 643.847594 640.8 
L 637.216578 640.8 
z
" clip-path="url(#pd7bac833f9)" style="fill: #ff800e"/>
   </g>
   <g id="patch_152">
    <path d="M 645.505348 640.8 
L 652.136364 640.8 
L 652.136364 640.8 
L 645.505348 640.8 
z
" clip-path="url(#pd7bac833f9)" style="fill: #ff800e"/>
   </g>
   <g id="patch_153">
    <path d="M 653.794118 640.8 
L 660.425134 640.8 
L 660.425134 406.133333 
L 653.794118 406.133333 
z
" clip-path="url(#pd7bac833f9)" style="fill: #ff800e"/>
   </g>
   <g id="patch_154">
    <path d="M 662.082888 640.8 
L 668.713904 640.8 
L 668.713904 582.133333 
L 662.082888 582.133333 
z
" clip-path="url(#pd7bac833f9)" style="fill: #ff800e"/>
   </g>
   <g id="patch_155">
    <path d="M 670.371658 640.8 
L 677.002674 640.8 
L 677.002674 640.8 
L 670.371658 640.8 
z
" clip-path="url(#pd7bac833f9)" style="fill: #ff800e"/>
   </g>
   <g id="patch_156">
    <path d="M 678.660428 640.8 
L 685.291444 640.8 
L 685.291444 523.466667 
L 678.660428 523.466667 
z
" clip-path="url(#pd7bac833f9)" style="fill: #ff800e"/>
   </g>
   <g id="patch_157">
    <path d="M 686.949198 640.8 
L 693.580214 640.8 
L 693.580214 288.8 
L 686.949198 288.8 
z
" clip-path="url(#pd7bac833f9)" style="fill: #ff800e"/>
   </g>
   <g id="patch_158">
    <path d="M 695.237968 640.8 
L 701.868984 640.8 
L 701.868984 523.466667 
L 695.237968 523.466667 
z
" clip-path="url(#pd7bac833f9)" style="fill: #ff800e"/>
   </g>
   <g id="patch_159">
    <path d="M 703.526738 640.8 
L 710.157754 640.8 
L 710.157754 640.8 
L 703.526738 640.8 
z
" clip-path="url(#pd7bac833f9)" style="fill: #ff800e"/>
   </g>
   <g id="patch_160">
    <path d="M 711.815508 640.8 
L 718.446524 640.8 
L 718.446524 406.133333 
L 711.815508 406.133333 
z
" clip-path="url(#pd7bac833f9)" style="fill: #ff800e"/>
   </g>
   <g id="patch_161">
    <path d="M 720.104278 640.8 
L 726.735294 640.8 
L 726.735294 464.8 
L 720.104278 464.8 
z
" clip-path="url(#pd7bac833f9)" style="fill: #ff800e"/>
   </g>
   <g id="patch_162">
    <path d="M 728.393048 640.8 
L 735.024064 640.8 
L 735.024064 640.8 
L 728.393048 640.8 
z
" clip-path="url(#pd7bac833f9)" style="fill: #ff800e"/>
   </g>
   <g id="patch_163">
    <path d="M 736.681818 640.8 
L 743.312834 640.8 
L 743.312834 640.8 
L 736.681818 640.8 
z
" clip-path="url(#pd7bac833f9)" style="fill: #ff800e"/>
   </g>
   <g id="patch_164">
    <path d="M 744.970588 640.8 
L 751.601604 640.8 
L 751.601604 640.8 
L 744.970588 640.8 
z
" clip-path="url(#pd7bac833f9)" style="fill: #ff800e"/>
   </g>
   <g id="patch_165">
    <path d="M 753.259358 640.8 
L 759.890374 640.8 
L 759.890374 640.8 
L 753.259358 640.8 
z
" clip-path="url(#pd7bac833f9)" style="fill: #ff800e"/>
   </g>
   <g id="patch_166">
    <path d="M 761.548128 640.8 
L 768.179144 640.8 
L 768.179144 523.466667 
L 761.548128 523.466667 
z
" clip-path="url(#pd7bac833f9)" style="fill: #ff800e"/>
   </g>
   <g id="patch_167">
    <path d="M 769.836898 640.8 
L 776.467914 640.8 
L 776.467914 640.8 
L 769.836898 640.8 
z
" clip-path="url(#pd7bac833f9)" style="fill: #ff800e"/>
   </g>
   <g id="patch_168">
    <path d="M 778.125668 640.8 
L 784.756684 640.8 
L 784.756684 523.466667 
L 778.125668 523.466667 
z
" clip-path="url(#pd7bac833f9)" style="fill: #ff800e"/>
   </g>
   <g id="patch_169">
    <path d="M 786.414439 640.8 
L 793.045455 640.8 
L 793.045455 640.8 
L 786.414439 640.8 
z
" clip-path="url(#pd7bac833f9)" style="fill: #ff800e"/>
   </g>
   <g id="patch_170">
    <path d="M 794.703209 640.8 
L 801.334225 640.8 
L 801.334225 640.8 
L 794.703209 640.8 
z
" clip-path="url(#pd7bac833f9)" style="fill: #ff800e"/>
   </g>
   <g id="patch_171">
    <path d="M 802.991979 640.8 
L 809.622995 640.8 
L 809.622995 640.8 
L 802.991979 640.8 
z
" clip-path="url(#pd7bac833f9)" style="fill: #ff800e"/>
   </g>
   <g id="patch_172">
    <path d="M 811.280749 640.8 
L 817.911765 640.8 
L 817.911765 640.8 
L 811.280749 640.8 
z
" clip-path="url(#pd7bac833f9)" style="fill: #ff800e"/>
   </g>
   <g id="patch_173">
    <path d="M 819.569519 640.8 
L 826.200535 640.8 
L 826.200535 640.8 
L 819.569519 640.8 
z
" clip-path="url(#pd7bac833f9)" style="fill: #ff800e"/>
   </g>
   <g id="patch_174">
    <path d="M 827.858289 640.8 
L 834.489305 640.8 
L 834.489305 640.8 
L 827.858289 640.8 
z
" clip-path="url(#pd7bac833f9)" style="fill: #ff800e"/>
   </g>
   <g id="patch_175">
    <path d="M 836.147059 640.8 
L 842.778075 640.8 
L 842.778075 582.133333 
L 836.147059 582.133333 
z
" clip-path="url(#pd7bac833f9)" style="fill: #ff800e"/>
   </g>
   <g id="patch_176">
    <path d="M 844.435829 640.8 
L 851.066845 640.8 
L 851.066845 582.133333 
L 844.435829 582.133333 
z
" clip-path="url(#pd7bac833f9)" style="fill: #ff800e"/>
   </g>
   <g id="patch_177">
    <path d="M 852.724599 640.8 
L 859.355615 640.8 
L 859.355615 582.133333 
L 852.724599 582.133333 
z
" clip-path="url(#pd7bac833f9)" style="fill: #ff800e"/>
   </g>
   <g id="patch_178">
    <path d="M 861.013369 640.8 
L 867.644385 640.8 
L 867.644385 523.466667 
L 861.013369 523.466667 
z
" clip-path="url(#pd7bac833f9)" style="fill: #ff800e"/>
   </g>
   <g id="patch_179">
    <path d="M 869.302139 640.8 
L 875.933155 640.8 
L 875.933155 582.133333 
L 869.302139 582.133333 
z
" clip-path="url(#pd7bac833f9)" style="fill: #ff800e"/>
   </g>
   <g id="patch_180">
    <path d="M 877.590909 640.8 
L 884.221925 640.8 
L 884.221925 464.8 
L 877.590909 464.8 
z
" clip-path="url(#pd7bac833f9)" style="fill: #ff800e"/>
   </g>
   <g id="patch_181">
    <path d="M 885.879679 640.8 
L 892.510695 640.8 
L 892.510695 582.133333 
L 885.879679 582.133333 
z
" clip-path="url(#pd7bac833f9)" style="fill: #ff800e"/>
   </g>
   <g id="patch_182">
    <path d="M 894.168449 640.8 
L 900.799465 640.8 
L 900.799465 523.466667 
L 894.168449 523.466667 
z
" clip-path="url(#pd7bac833f9)" style="fill: #ff800e"/>
   </g>
   <g id="patch_183">
    <path d="M 902.457219 640.8 
L 909.088235 640.8 
L 909.088235 640.8 
L 902.457219 640.8 
z
" clip-path="url(#pd7bac833f9)" style="fill: #ff800e"/>
   </g>
   <g id="patch_184">
    <path d="M 910.745989 640.8 
L 917.377005 640.8 
L 917.377005 406.133333 
L 910.745989 406.133333 
z
" clip-path="url(#pd7bac833f9)" style="fill: #ff800e"/>
   </g>
   <g id="patch_185">
    <path d="M 919.034759 640.8 
L 925.665775 640.8 
L 925.665775 523.466667 
L 919.034759 523.466667 
z
" clip-path="url(#pd7bac833f9)" style="fill: #ff800e"/>
   </g>
   <g id="patch_186">
    <path d="M 927.323529 640.8 
L 933.954545 640.8 
L 933.954545 523.466667 
L 927.323529 523.466667 
z
" clip-path="url(#pd7bac833f9)" style="fill: #ff800e"/>
   </g>
   <g id="patch_187">
    <path d="M 173.045455 640.8 
L 179.676471 640.8 
L 179.676471 582.133333 
L 173.045455 582.133333 
z
" clip-path="url(#pd7bac833f9)" style="fill: #ababab"/>
   </g>
   <g id="patch_188">
    <path d="M 181.334225 640.8 
L 187.965241 640.8 
L 187.965241 523.466667 
L 181.334225 523.466667 
z
" clip-path="url(#pd7bac833f9)" style="fill: #ababab"/>
   </g>
   <g id="patch_189">
    <path d="M 189.622995 640.8 
L 196.254011 640.8 
L 196.254011 582.133333 
L 189.622995 582.133333 
z
" clip-path="url(#pd7bac833f9)" style="fill: #ababab"/>
   </g>
   <g id="patch_190">
    <path d="M 197.911765 640.8 
L 204.542781 640.8 
L 204.542781 640.8 
L 197.911765 640.8 
z
" clip-path="url(#pd7bac833f9)" style="fill: #ababab"/>
   </g>
   <g id="patch_191">
    <path d="M 206.200535 640.8 
L 212.831551 640.8 
L 212.831551 640.8 
L 206.200535 640.8 
z
" clip-path="url(#pd7bac833f9)" style="fill: #ababab"/>
   </g>
   <g id="patch_192">
    <path d="M 214.489305 640.8 
L 221.120321 640.8 
L 221.120321 640.8 
L 214.489305 640.8 
z
" clip-path="url(#pd7bac833f9)" style="fill: #ababab"/>
   </g>
   <g id="patch_193">
    <path d="M 222.778075 640.8 
L 229.409091 640.8 
L 229.409091 582.133333 
L 222.778075 582.133333 
z
" clip-path="url(#pd7bac833f9)" style="fill: #ababab"/>
   </g>
   <g id="patch_194">
    <path d="M 231.066845 640.8 
L 237.697861 640.8 
L 237.697861 582.133333 
L 231.066845 582.133333 
z
" clip-path="url(#pd7bac833f9)" style="fill: #ababab"/>
   </g>
   <g id="patch_195">
    <path d="M 239.355615 640.8 
L 245.986631 640.8 
L 245.986631 582.133333 
L 239.355615 582.133333 
z
" clip-path="url(#pd7bac833f9)" style="fill: #ababab"/>
   </g>
   <g id="patch_196">
    <path d="M 247.644385 640.8 
L 254.275401 640.8 
L 254.275401 582.133333 
L 247.644385 582.133333 
z
" clip-path="url(#pd7bac833f9)" style="fill: #ababab"/>
   </g>
   <g id="patch_197">
    <path d="M 255.933155 640.8 
L 262.564171 640.8 
L 262.564171 640.8 
L 255.933155 640.8 
z
" clip-path="url(#pd7bac833f9)" style="fill: #ababab"/>
   </g>
   <g id="patch_198">
    <path d="M 264.221925 640.8 
L 270.852941 640.8 
L 270.852941 640.8 
L 264.221925 640.8 
z
" clip-path="url(#pd7bac833f9)" style="fill: #ababab"/>
   </g>
   <g id="patch_199">
    <path d="M 272.510695 640.8 
L 279.141711 640.8 
L 279.141711 582.133333 
L 272.510695 582.133333 
z
" clip-path="url(#pd7bac833f9)" style="fill: #ababab"/>
   </g>
   <g id="patch_200">
    <path d="M 280.799465 640.8 
L 287.430481 640.8 
L 287.430481 464.8 
L 280.799465 464.8 
z
" clip-path="url(#pd7bac833f9)" style="fill: #ababab"/>
   </g>
   <g id="patch_201">
    <path d="M 289.088235 640.8 
L 295.719251 640.8 
L 295.719251 640.8 
L 289.088235 640.8 
z
" clip-path="url(#pd7bac833f9)" style="fill: #ababab"/>
   </g>
   <g id="patch_202">
    <path d="M 297.377005 640.8 
L 304.008021 640.8 
L 304.008021 582.133333 
L 297.377005 582.133333 
z
" clip-path="url(#pd7bac833f9)" style="fill: #ababab"/>
   </g>
   <g id="patch_203">
    <path d="M 305.665775 640.8 
L 312.296791 640.8 
L 312.296791 464.8 
L 305.665775 464.8 
z
" clip-path="url(#pd7bac833f9)" style="fill: #ababab"/>
   </g>
   <g id="patch_204">
    <path d="M 313.954545 640.8 
L 320.585561 640.8 
L 320.585561 640.8 
L 313.954545 640.8 
z
" clip-path="url(#pd7bac833f9)" style="fill: #ababab"/>
   </g>
   <g id="patch_205">
    <path d="M 322.243316 640.8 
L 328.874332 640.8 
L 328.874332 640.8 
L 322.243316 640.8 
z
" clip-path="url(#pd7bac833f9)" style="fill: #ababab"/>
   </g>
   <g id="patch_206">
    <path d="M 330.532086 640.8 
L 337.163102 640.8 
L 337.163102 640.8 
L 330.532086 640.8 
z
" clip-path="url(#pd7bac833f9)" style="fill: #ababab"/>
   </g>
   <g id="patch_207">
    <path d="M 338.820856 640.8 
L 345.451872 640.8 
L 345.451872 523.466667 
L 338.820856 523.466667 
z
" clip-path="url(#pd7bac833f9)" style="fill: #ababab"/>
   </g>
   <g id="patch_208">
    <path d="M 347.109626 640.8 
L 353.740642 640.8 
L 353.740642 582.133333 
L 347.109626 582.133333 
z
" clip-path="url(#pd7bac833f9)" style="fill: #ababab"/>
   </g>
   <g id="patch_209">
    <path d="M 355.398396 640.8 
L 362.029412 640.8 
L 362.029412 464.8 
L 355.398396 464.8 
z
" clip-path="url(#pd7bac833f9)" style="fill: #ababab"/>
   </g>
   <g id="patch_210">
    <path d="M 363.687166 640.8 
L 370.318182 640.8 
L 370.318182 640.8 
L 363.687166 640.8 
z
" clip-path="url(#pd7bac833f9)" style="fill: #ababab"/>
   </g>
   <g id="patch_211">
    <path d="M 371.975936 640.8 
L 378.606952 640.8 
L 378.606952 464.8 
L 371.975936 464.8 
z
" clip-path="url(#pd7bac833f9)" style="fill: #ababab"/>
   </g>
   <g id="patch_212">
    <path d="M 380.264706 640.8 
L 386.895722 640.8 
L 386.895722 640.8 
L 380.264706 640.8 
z
" clip-path="url(#pd7bac833f9)" style="fill: #ababab"/>
   </g>
   <g id="patch_213">
    <path d="M 388.553476 640.8 
L 395.184492 640.8 
L 395.184492 464.8 
L 388.553476 464.8 
z
" clip-path="url(#pd7bac833f9)" style="fill: #ababab"/>
   </g>
   <g id="patch_214">
    <path d="M 396.842246 640.8 
L 403.473262 640.8 
L 403.473262 582.133333 
L 396.842246 582.133333 
z
" clip-path="url(#pd7bac833f9)" style="fill: #ababab"/>
   </g>
   <g id="patch_215">
    <path d="M 405.131016 640.8 
L 411.762032 640.8 
L 411.762032 582.133333 
L 405.131016 582.133333 
z
" clip-path="url(#pd7bac833f9)" style="fill: #ababab"/>
   </g>
   <g id="patch_216">
    <path d="M 413.419786 640.8 
L 420.050802 640.8 
L 420.050802 464.8 
L 413.419786 464.8 
z
" clip-path="url(#pd7bac833f9)" style="fill: #ababab"/>
   </g>
   <g id="patch_217">
    <path d="M 421.708556 640.8 
L 428.339572 640.8 
L 428.339572 582.133333 
L 421.708556 582.133333 
z
" clip-path="url(#pd7bac833f9)" style="fill: #ababab"/>
   </g>
   <g id="patch_218">
    <path d="M 429.997326 640.8 
L 436.628342 640.8 
L 436.628342 640.8 
L 429.997326 640.8 
z
" clip-path="url(#pd7bac833f9)" style="fill: #ababab"/>
   </g>
   <g id="patch_219">
    <path d="M 438.286096 640.8 
L 444.917112 640.8 
L 444.917112 582.133333 
L 438.286096 582.133333 
z
" clip-path="url(#pd7bac833f9)" style="fill: #ababab"/>
   </g>
   <g id="patch_220">
    <path d="M 446.574866 640.8 
L 453.205882 640.8 
L 453.205882 640.8 
L 446.574866 640.8 
z
" clip-path="url(#pd7bac833f9)" style="fill: #ababab"/>
   </g>
   <g id="patch_221">
    <path d="M 454.863636 640.8 
L 461.494652 640.8 
L 461.494652 640.8 
L 454.863636 640.8 
z
" clip-path="url(#pd7bac833f9)" style="fill: #ababab"/>
   </g>
   <g id="patch_222">
    <path d="M 463.152406 640.8 
L 469.783422 640.8 
L 469.783422 464.8 
L 463.152406 464.8 
z
" clip-path="url(#pd7bac833f9)" style="fill: #ababab"/>
   </g>
   <g id="patch_223">
    <path d="M 471.441176 640.8 
L 478.072193 640.8 
L 478.072193 523.466667 
L 471.441176 523.466667 
z
" clip-path="url(#pd7bac833f9)" style="fill: #ababab"/>
   </g>
   <g id="patch_224">
    <path d="M 479.729947 640.8 
L 486.360963 640.8 
L 486.360963 230.133333 
L 479.729947 230.133333 
z
" clip-path="url(#pd7bac833f9)" style="fill: #ababab"/>
   </g>
   <g id="patch_225">
    <path d="M 488.018717 640.8 
L 494.649733 640.8 
L 494.649733 582.133333 
L 488.018717 582.133333 
z
" clip-path="url(#pd7bac833f9)" style="fill: #ababab"/>
   </g>
   <g id="patch_226">
    <path d="M 496.307487 640.8 
L 502.938503 640.8 
L 502.938503 464.8 
L 496.307487 464.8 
z
" clip-path="url(#pd7bac833f9)" style="fill: #ababab"/>
   </g>
   <g id="patch_227">
    <path d="M 504.596257 640.8 
L 511.227273 640.8 
L 511.227273 640.8 
L 504.596257 640.8 
z
" clip-path="url(#pd7bac833f9)" style="fill: #ababab"/>
   </g>
   <g id="patch_228">
    <path d="M 512.885027 640.8 
L 519.516043 640.8 
L 519.516043 523.466667 
L 512.885027 523.466667 
z
" clip-path="url(#pd7bac833f9)" style="fill: #ababab"/>
   </g>
   <g id="patch_229">
    <path d="M 521.173797 640.8 
L 527.804813 640.8 
L 527.804813 640.8 
L 521.173797 640.8 
z
" clip-path="url(#pd7bac833f9)" style="fill: #ababab"/>
   </g>
   <g id="patch_230">
    <path d="M 529.462567 640.8 
L 536.093583 640.8 
L 536.093583 640.8 
L 529.462567 640.8 
z
" clip-path="url(#pd7bac833f9)" style="fill: #ababab"/>
   </g>
   <g id="patch_231">
    <path d="M 537.751337 640.8 
L 544.382353 640.8 
L 544.382353 582.133333 
L 537.751337 582.133333 
z
" clip-path="url(#pd7bac833f9)" style="fill: #ababab"/>
   </g>
   <g id="patch_232">
    <path d="M 546.040107 640.8 
L 552.671123 640.8 
L 552.671123 582.133333 
L 546.040107 582.133333 
z
" clip-path="url(#pd7bac833f9)" style="fill: #ababab"/>
   </g>
   <g id="patch_233">
    <path d="M 554.328877 640.8 
L 560.959893 640.8 
L 560.959893 640.8 
L 554.328877 640.8 
z
" clip-path="url(#pd7bac833f9)" style="fill: #ababab"/>
   </g>
   <g id="patch_234">
    <path d="M 562.617647 640.8 
L 569.248663 640.8 
L 569.248663 582.133333 
L 562.617647 582.133333 
z
" clip-path="url(#pd7bac833f9)" style="fill: #ababab"/>
   </g>
   <g id="patch_235">
    <path d="M 570.906417 640.8 
L 577.537433 640.8 
L 577.537433 640.8 
L 570.906417 640.8 
z
" clip-path="url(#pd7bac833f9)" style="fill: #ababab"/>
   </g>
   <g id="patch_236">
    <path d="M 579.195187 640.8 
L 585.826203 640.8 
L 585.826203 640.8 
L 579.195187 640.8 
z
" clip-path="url(#pd7bac833f9)" style="fill: #ababab"/>
   </g>
   <g id="patch_237">
    <path d="M 587.483957 640.8 
L 594.114973 640.8 
L 594.114973 523.466667 
L 587.483957 523.466667 
z
" clip-path="url(#pd7bac833f9)" style="fill: #ababab"/>
   </g>
   <g id="patch_238">
    <path d="M 595.772727 640.8 
L 602.403743 640.8 
L 602.403743 640.8 
L 595.772727 640.8 
z
" clip-path="url(#pd7bac833f9)" style="fill: #ababab"/>
   </g>
   <g id="patch_239">
    <path d="M 604.061497 640.8 
L 610.692513 640.8 
L 610.692513 582.133333 
L 604.061497 582.133333 
z
" clip-path="url(#pd7bac833f9)" style="fill: #ababab"/>
   </g>
   <g id="patch_240">
    <path d="M 612.350267 640.8 
L 618.981283 640.8 
L 618.981283 582.133333 
L 612.350267 582.133333 
z
" clip-path="url(#pd7bac833f9)" style="fill: #ababab"/>
   </g>
   <g id="patch_241">
    <path d="M 620.639037 640.8 
L 627.270053 640.8 
L 627.270053 582.133333 
L 620.639037 582.133333 
z
" clip-path="url(#pd7bac833f9)" style="fill: #ababab"/>
   </g>
   <g id="patch_242">
    <path d="M 628.927807 640.8 
L 635.558824 640.8 
L 635.558824 640.8 
L 628.927807 640.8 
z
" clip-path="url(#pd7bac833f9)" style="fill: #ababab"/>
   </g>
   <g id="patch_243">
    <path d="M 637.216578 640.8 
L 643.847594 640.8 
L 643.847594 640.8 
L 637.216578 640.8 
z
" clip-path="url(#pd7bac833f9)" style="fill: #ababab"/>
   </g>
   <g id="patch_244">
    <path d="M 645.505348 640.8 
L 652.136364 640.8 
L 652.136364 582.133333 
L 645.505348 582.133333 
z
" clip-path="url(#pd7bac833f9)" style="fill: #ababab"/>
   </g>
   <g id="patch_245">
    <path d="M 653.794118 640.8 
L 660.425134 640.8 
L 660.425134 523.466667 
L 653.794118 523.466667 
z
" clip-path="url(#pd7bac833f9)" style="fill: #ababab"/>
   </g>
   <g id="patch_246">
    <path d="M 662.082888 640.8 
L 668.713904 640.8 
L 668.713904 523.466667 
L 662.082888 523.466667 
z
" clip-path="url(#pd7bac833f9)" style="fill: #ababab"/>
   </g>
   <g id="patch_247">
    <path d="M 670.371658 640.8 
L 677.002674 640.8 
L 677.002674 464.8 
L 670.371658 464.8 
z
" clip-path="url(#pd7bac833f9)" style="fill: #ababab"/>
   </g>
   <g id="patch_248">
    <path d="M 678.660428 640.8 
L 685.291444 640.8 
L 685.291444 640.8 
L 678.660428 640.8 
z
" clip-path="url(#pd7bac833f9)" style="fill: #ababab"/>
   </g>
   <g id="patch_249">
    <path d="M 686.949198 640.8 
L 693.580214 640.8 
L 693.580214 523.466667 
L 686.949198 523.466667 
z
" clip-path="url(#pd7bac833f9)" style="fill: #ababab"/>
   </g>
   <g id="patch_250">
    <path d="M 695.237968 640.8 
L 701.868984 640.8 
L 701.868984 640.8 
L 695.237968 640.8 
z
" clip-path="url(#pd7bac833f9)" style="fill: #ababab"/>
   </g>
   <g id="patch_251">
    <path d="M 703.526738 640.8 
L 710.157754 640.8 
L 710.157754 582.133333 
L 703.526738 582.133333 
z
" clip-path="url(#pd7bac833f9)" style="fill: #ababab"/>
   </g>
   <g id="patch_252">
    <path d="M 711.815508 640.8 
L 718.446524 640.8 
L 718.446524 582.133333 
L 711.815508 582.133333 
z
" clip-path="url(#pd7bac833f9)" style="fill: #ababab"/>
   </g>
   <g id="patch_253">
    <path d="M 720.104278 640.8 
L 726.735294 640.8 
L 726.735294 640.8 
L 720.104278 640.8 
z
" clip-path="url(#pd7bac833f9)" style="fill: #ababab"/>
   </g>
   <g id="patch_254">
    <path d="M 728.393048 640.8 
L 735.024064 640.8 
L 735.024064 582.133333 
L 728.393048 582.133333 
z
" clip-path="url(#pd7bac833f9)" style="fill: #ababab"/>
   </g>
   <g id="patch_255">
    <path d="M 736.681818 640.8 
L 743.312834 640.8 
L 743.312834 464.8 
L 736.681818 464.8 
z
" clip-path="url(#pd7bac833f9)" style="fill: #ababab"/>
   </g>
   <g id="patch_256">
    <path d="M 744.970588 640.8 
L 751.601604 640.8 
L 751.601604 582.133333 
L 744.970588 582.133333 
z
" clip-path="url(#pd7bac833f9)" style="fill: #ababab"/>
   </g>
   <g id="patch_257">
    <path d="M 753.259358 640.8 
L 759.890374 640.8 
L 759.890374 582.133333 
L 753.259358 582.133333 
z
" clip-path="url(#pd7bac833f9)" style="fill: #ababab"/>
   </g>
   <g id="patch_258">
    <path d="M 761.548128 640.8 
L 768.179144 640.8 
L 768.179144 523.466667 
L 761.548128 523.466667 
z
" clip-path="url(#pd7bac833f9)" style="fill: #ababab"/>
   </g>
   <g id="patch_259">
    <path d="M 769.836898 640.8 
L 776.467914 640.8 
L 776.467914 640.8 
L 769.836898 640.8 
z
" clip-path="url(#pd7bac833f9)" style="fill: #ababab"/>
   </g>
   <g id="patch_260">
    <path d="M 778.125668 640.8 
L 784.756684 640.8 
L 784.756684 640.8 
L 778.125668 640.8 
z
" clip-path="url(#pd7bac833f9)" style="fill: #ababab"/>
   </g>
   <g id="patch_261">
    <path d="M 786.414439 640.8 
L 793.045455 640.8 
L 793.045455 582.133333 
L 786.414439 582.133333 
z
" clip-path="url(#pd7bac833f9)" style="fill: #ababab"/>
   </g>
   <g id="patch_262">
    <path d="M 794.703209 640.8 
L 801.334225 640.8 
L 801.334225 523.466667 
L 794.703209 523.466667 
z
" clip-path="url(#pd7bac833f9)" style="fill: #ababab"/>
   </g>
   <g id="patch_263">
    <path d="M 802.991979 640.8 
L 809.622995 640.8 
L 809.622995 347.466667 
L 802.991979 347.466667 
z
" clip-path="url(#pd7bac833f9)" style="fill: #ababab"/>
   </g>
   <g id="patch_264">
    <path d="M 811.280749 640.8 
L 817.911765 640.8 
L 817.911765 582.133333 
L 811.280749 582.133333 
z
" clip-path="url(#pd7bac833f9)" style="fill: #ababab"/>
   </g>
   <g id="patch_265">
    <path d="M 819.569519 640.8 
L 826.200535 640.8 
L 826.200535 523.466667 
L 819.569519 523.466667 
z
" clip-path="url(#pd7bac833f9)" style="fill: #ababab"/>
   </g>
   <g id="patch_266">
    <path d="M 827.858289 640.8 
L 834.489305 640.8 
L 834.489305 406.133333 
L 827.858289 406.133333 
z
" clip-path="url(#pd7bac833f9)" style="fill: #ababab"/>
   </g>
   <g id="patch_267">
    <path d="M 836.147059 640.8 
L 842.778075 640.8 
L 842.778075 582.133333 
L 836.147059 582.133333 
z
" clip-path="url(#pd7bac833f9)" style="fill: #ababab"/>
   </g>
   <g id="patch_268">
    <path d="M 844.435829 640.8 
L 851.066845 640.8 
L 851.066845 582.133333 
L 844.435829 582.133333 
z
" clip-path="url(#pd7bac833f9)" style="fill: #ababab"/>
   </g>
   <g id="patch_269">
    <path d="M 852.724599 640.8 
L 859.355615 640.8 
L 859.355615 582.133333 
L 852.724599 582.133333 
z
" clip-path="url(#pd7bac833f9)" style="fill: #ababab"/>
   </g>
   <g id="patch_270">
    <path d="M 861.013369 640.8 
L 867.644385 640.8 
L 867.644385 640.8 
L 861.013369 640.8 
z
" clip-path="url(#pd7bac833f9)" style="fill: #ababab"/>
   </g>
   <g id="patch_271">
    <path d="M 869.302139 640.8 
L 875.933155 640.8 
L 875.933155 640.8 
L 869.302139 640.8 
z
" clip-path="url(#pd7bac833f9)" style="fill: #ababab"/>
   </g>
   <g id="patch_272">
    <path d="M 877.590909 640.8 
L 884.221925 640.8 
L 884.221925 640.8 
L 877.590909 640.8 
z
" clip-path="url(#pd7bac833f9)" style="fill: #ababab"/>
   </g>
   <g id="patch_273">
    <path d="M 885.879679 640.8 
L 892.510695 640.8 
L 892.510695 640.8 
L 885.879679 640.8 
z
" clip-path="url(#pd7bac833f9)" style="fill: #ababab"/>
   </g>
   <g id="patch_274">
    <path d="M 894.168449 640.8 
L 900.799465 640.8 
L 900.799465 582.133333 
L 894.168449 582.133333 
z
" clip-path="url(#pd7bac833f9)" style="fill: #ababab"/>
   </g>
   <g id="patch_275">
    <path d="M 902.457219 640.8 
L 909.088235 640.8 
L 909.088235 640.8 
L 902.457219 640.8 
z
" clip-path="url(#pd7bac833f9)" style="fill: #ababab"/>
   </g>
   <g id="patch_276">
    <path d="M 910.745989 640.8 
L 917.377005 640.8 
L 917.377005 582.133333 
L 910.745989 582.133333 
z
" clip-path="url(#pd7bac833f9)" style="fill: #ababab"/>
   </g>
   <g id="patch_277">
    <path d="M 919.034759 640.8 
L 925.665775 640.8 
L 925.665775 582.133333 
L 919.034759 582.133333 
z
" clip-path="url(#pd7bac833f9)" style="fill: #ababab"/>
   </g>
   <g id="patch_278">
    <path d="M 927.323529 640.8 
L 933.954545 640.8 
L 933.954545 523.466667 
L 927.323529 523.466667 
z
" clip-path="url(#pd7bac833f9)" style="fill: #ababab"/>
   </g>
   <g id="patch_279">
    <path d="M 173.045455 640.8 
L 179.676471 640.8 
L 179.676471 406.133333 
L 173.045455 406.133333 
z
" clip-path="url(#pd7bac833f9)" style="fill: #595959"/>
   </g>
   <g id="patch_280">
    <path d="M 181.334225 640.8 
L 187.965241 640.8 
L 187.965241 464.8 
L 181.334225 464.8 
z
" clip-path="url(#pd7bac833f9)" style="fill: #595959"/>
   </g>
   <g id="patch_281">
    <path d="M 189.622995 640.8 
L 196.254011 640.8 
L 196.254011 640.8 
L 189.622995 640.8 
z
" clip-path="url(#pd7bac833f9)" style="fill: #595959"/>
   </g>
   <g id="patch_282">
    <path d="M 197.911765 640.8 
L 204.542781 640.8 
L 204.542781 582.133333 
L 197.911765 582.133333 
z
" clip-path="url(#pd7bac833f9)" style="fill: #595959"/>
   </g>
   <g id="patch_283">
    <path d="M 206.200535 640.8 
L 212.831551 640.8 
L 212.831551 406.133333 
L 206.200535 406.133333 
z
" clip-path="url(#pd7bac833f9)" style="fill: #595959"/>
   </g>
   <g id="patch_284">
    <path d="M 214.489305 640.8 
L 221.120321 640.8 
L 221.120321 406.133333 
L 214.489305 406.133333 
z
" clip-path="url(#pd7bac833f9)" style="fill: #595959"/>
   </g>
   <g id="patch_285">
    <path d="M 222.778075 640.8 
L 229.409091 640.8 
L 229.409091 347.466667 
L 222.778075 347.466667 
z
" clip-path="url(#pd7bac833f9)" style="fill: #595959"/>
   </g>
   <g id="patch_286">
    <path d="M 231.066845 640.8 
L 237.697861 640.8 
L 237.697861 406.133333 
L 231.066845 406.133333 
z
" clip-path="url(#pd7bac833f9)" style="fill: #595959"/>
   </g>
   <g id="patch_287">
    <path d="M 239.355615 640.8 
L 245.986631 640.8 
L 245.986631 523.466667 
L 239.355615 523.466667 
z
" clip-path="url(#pd7bac833f9)" style="fill: #595959"/>
   </g>
   <g id="patch_288">
    <path d="M 247.644385 640.8 
L 254.275401 640.8 
L 254.275401 523.466667 
L 247.644385 523.466667 
z
" clip-path="url(#pd7bac833f9)" style="fill: #595959"/>
   </g>
   <g id="patch_289">
    <path d="M 255.933155 640.8 
L 262.564171 640.8 
L 262.564171 523.466667 
L 255.933155 523.466667 
z
" clip-path="url(#pd7bac833f9)" style="fill: #595959"/>
   </g>
   <g id="patch_290">
    <path d="M 264.221925 640.8 
L 270.852941 640.8 
L 270.852941 464.8 
L 264.221925 464.8 
z
" clip-path="url(#pd7bac833f9)" style="fill: #595959"/>
   </g>
   <g id="patch_291">
    <path d="M 272.510695 640.8 
L 279.141711 640.8 
L 279.141711 464.8 
L 272.510695 464.8 
z
" clip-path="url(#pd7bac833f9)" style="fill: #595959"/>
   </g>
   <g id="patch_292">
    <path d="M 280.799465 640.8 
L 287.430481 640.8 
L 287.430481 640.8 
L 280.799465 640.8 
z
" clip-path="url(#pd7bac833f9)" style="fill: #595959"/>
   </g>
   <g id="patch_293">
    <path d="M 289.088235 640.8 
L 295.719251 640.8 
L 295.719251 582.133333 
L 289.088235 582.133333 
z
" clip-path="url(#pd7bac833f9)" style="fill: #595959"/>
   </g>
   <g id="patch_294">
    <path d="M 297.377005 640.8 
L 304.008021 640.8 
L 304.008021 582.133333 
L 297.377005 582.133333 
z
" clip-path="url(#pd7bac833f9)" style="fill: #595959"/>
   </g>
   <g id="patch_295">
    <path d="M 305.665775 640.8 
L 312.296791 640.8 
L 312.296791 582.133333 
L 305.665775 582.133333 
z
" clip-path="url(#pd7bac833f9)" style="fill: #595959"/>
   </g>
   <g id="patch_296">
    <path d="M 313.954545 640.8 
L 320.585561 640.8 
L 320.585561 582.133333 
L 313.954545 582.133333 
z
" clip-path="url(#pd7bac833f9)" style="fill: #595959"/>
   </g>
   <g id="patch_297">
    <path d="M 322.243316 640.8 
L 328.874332 640.8 
L 328.874332 406.133333 
L 322.243316 406.133333 
z
" clip-path="url(#pd7bac833f9)" style="fill: #595959"/>
   </g>
   <g id="patch_298">
    <path d="M 330.532086 640.8 
L 337.163102 640.8 
L 337.163102 523.466667 
L 330.532086 523.466667 
z
" clip-path="url(#pd7bac833f9)" style="fill: #595959"/>
   </g>
   <g id="patch_299">
    <path d="M 338.820856 640.8 
L 345.451872 640.8 
L 345.451872 523.466667 
L 338.820856 523.466667 
z
" clip-path="url(#pd7bac833f9)" style="fill: #595959"/>
   </g>
   <g id="patch_300">
    <path d="M 347.109626 640.8 
L 353.740642 640.8 
L 353.740642 582.133333 
L 347.109626 582.133333 
z
" clip-path="url(#pd7bac833f9)" style="fill: #595959"/>
   </g>
   <g id="patch_301">
    <path d="M 355.398396 640.8 
L 362.029412 640.8 
L 362.029412 582.133333 
L 355.398396 582.133333 
z
" clip-path="url(#pd7bac833f9)" style="fill: #595959"/>
   </g>
   <g id="patch_302">
    <path d="M 363.687166 640.8 
L 370.318182 640.8 
L 370.318182 464.8 
L 363.687166 464.8 
z
" clip-path="url(#pd7bac833f9)" style="fill: #595959"/>
   </g>
   <g id="patch_303">
    <path d="M 371.975936 640.8 
L 378.606952 640.8 
L 378.606952 523.466667 
L 371.975936 523.466667 
z
" clip-path="url(#pd7bac833f9)" style="fill: #595959"/>
   </g>
   <g id="patch_304">
    <path d="M 380.264706 640.8 
L 386.895722 640.8 
L 386.895722 406.133333 
L 380.264706 406.133333 
z
" clip-path="url(#pd7bac833f9)" style="fill: #595959"/>
   </g>
   <g id="patch_305">
    <path d="M 388.553476 640.8 
L 395.184492 640.8 
L 395.184492 582.133333 
L 388.553476 582.133333 
z
" clip-path="url(#pd7bac833f9)" style="fill: #595959"/>
   </g>
   <g id="patch_306">
    <path d="M 396.842246 640.8 
L 403.473262 640.8 
L 403.473262 523.466667 
L 396.842246 523.466667 
z
" clip-path="url(#pd7bac833f9)" style="fill: #595959"/>
   </g>
   <g id="patch_307">
    <path d="M 405.131016 640.8 
L 411.762032 640.8 
L 411.762032 230.133333 
L 405.131016 230.133333 
z
" clip-path="url(#pd7bac833f9)" style="fill: #595959"/>
   </g>
   <g id="patch_308">
    <path d="M 413.419786 640.8 
L 420.050802 640.8 
L 420.050802 582.133333 
L 413.419786 582.133333 
z
" clip-path="url(#pd7bac833f9)" style="fill: #595959"/>
   </g>
   <g id="patch_309">
    <path d="M 421.708556 640.8 
L 428.339572 640.8 
L 428.339572 347.466667 
L 421.708556 347.466667 
z
" clip-path="url(#pd7bac833f9)" style="fill: #595959"/>
   </g>
   <g id="patch_310">
    <path d="M 429.997326 640.8 
L 436.628342 640.8 
L 436.628342 288.8 
L 429.997326 288.8 
z
" clip-path="url(#pd7bac833f9)" style="fill: #595959"/>
   </g>
   <g id="patch_311">
    <path d="M 438.286096 640.8 
L 444.917112 640.8 
L 444.917112 347.466667 
L 438.286096 347.466667 
z
" clip-path="url(#pd7bac833f9)" style="fill: #595959"/>
   </g>
   <g id="patch_312">
    <path d="M 446.574866 640.8 
L 453.205882 640.8 
L 453.205882 464.8 
L 446.574866 464.8 
z
" clip-path="url(#pd7bac833f9)" style="fill: #595959"/>
   </g>
   <g id="patch_313">
    <path d="M 454.863636 640.8 
L 461.494652 640.8 
L 461.494652 582.133333 
L 454.863636 582.133333 
z
" clip-path="url(#pd7bac833f9)" style="fill: #595959"/>
   </g>
   <g id="patch_314">
    <path d="M 463.152406 640.8 
L 469.783422 640.8 
L 469.783422 582.133333 
L 463.152406 582.133333 
z
" clip-path="url(#pd7bac833f9)" style="fill: #595959"/>
   </g>
   <g id="patch_315">
    <path d="M 471.441176 640.8 
L 478.072193 640.8 
L 478.072193 347.466667 
L 471.441176 347.466667 
z
" clip-path="url(#pd7bac833f9)" style="fill: #595959"/>
   </g>
   <g id="patch_316">
    <path d="M 479.729947 640.8 
L 486.360963 640.8 
L 486.360963 640.8 
L 479.729947 640.8 
z
" clip-path="url(#pd7bac833f9)" style="fill: #595959"/>
   </g>
   <g id="patch_317">
    <path d="M 488.018717 640.8 
L 494.649733 640.8 
L 494.649733 464.8 
L 488.018717 464.8 
z
" clip-path="url(#pd7bac833f9)" style="fill: #595959"/>
   </g>
   <g id="patch_318">
    <path d="M 496.307487 640.8 
L 502.938503 640.8 
L 502.938503 523.466667 
L 496.307487 523.466667 
z
" clip-path="url(#pd7bac833f9)" style="fill: #595959"/>
   </g>
   <g id="patch_319">
    <path d="M 504.596257 640.8 
L 511.227273 640.8 
L 511.227273 464.8 
L 504.596257 464.8 
z
" clip-path="url(#pd7bac833f9)" style="fill: #595959"/>
   </g>
   <g id="patch_320">
    <path d="M 512.885027 640.8 
L 519.516043 640.8 
L 519.516043 406.133333 
L 512.885027 406.133333 
z
" clip-path="url(#pd7bac833f9)" style="fill: #595959"/>
   </g>
   <g id="patch_321">
    <path d="M 521.173797 640.8 
L 527.804813 640.8 
L 527.804813 523.466667 
L 521.173797 523.466667 
z
" clip-path="url(#pd7bac833f9)" style="fill: #595959"/>
   </g>
   <g id="patch_322">
    <path d="M 529.462567 640.8 
L 536.093583 640.8 
L 536.093583 347.466667 
L 529.462567 347.466667 
z
" clip-path="url(#pd7bac833f9)" style="fill: #595959"/>
   </g>
   <g id="patch_323">
    <path d="M 537.751337 640.8 
L 544.382353 640.8 
L 544.382353 523.466667 
L 537.751337 523.466667 
z
" clip-path="url(#pd7bac833f9)" style="fill: #595959"/>
   </g>
   <g id="patch_324">
    <path d="M 546.040107 640.8 
L 552.671123 640.8 
L 552.671123 464.8 
L 546.040107 464.8 
z
" clip-path="url(#pd7bac833f9)" style="fill: #595959"/>
   </g>
   <g id="patch_325">
    <path d="M 554.328877 640.8 
L 560.959893 640.8 
L 560.959893 347.466667 
L 554.328877 347.466667 
z
" clip-path="url(#pd7bac833f9)" style="fill: #595959"/>
   </g>
   <g id="patch_326">
    <path d="M 562.617647 640.8 
L 569.248663 640.8 
L 569.248663 406.133333 
L 562.617647 406.133333 
z
" clip-path="url(#pd7bac833f9)" style="fill: #595959"/>
   </g>
   <g id="patch_327">
    <path d="M 570.906417 640.8 
L 577.537433 640.8 
L 577.537433 523.466667 
L 570.906417 523.466667 
z
" clip-path="url(#pd7bac833f9)" style="fill: #595959"/>
   </g>
   <g id="patch_328">
    <path d="M 579.195187 640.8 
L 585.826203 640.8 
L 585.826203 464.8 
L 579.195187 464.8 
z
" clip-path="url(#pd7bac833f9)" style="fill: #595959"/>
   </g>
   <g id="patch_329">
    <path d="M 587.483957 640.8 
L 594.114973 640.8 
L 594.114973 523.466667 
L 587.483957 523.466667 
z
" clip-path="url(#pd7bac833f9)" style="fill: #595959"/>
   </g>
   <g id="patch_330">
    <path d="M 595.772727 640.8 
L 602.403743 640.8 
L 602.403743 640.8 
L 595.772727 640.8 
z
" clip-path="url(#pd7bac833f9)" style="fill: #595959"/>
   </g>
   <g id="patch_331">
    <path d="M 604.061497 640.8 
L 610.692513 640.8 
L 610.692513 406.133333 
L 604.061497 406.133333 
z
" clip-path="url(#pd7bac833f9)" style="fill: #595959"/>
   </g>
   <g id="patch_332">
    <path d="M 612.350267 640.8 
L 618.981283 640.8 
L 618.981283 640.8 
L 612.350267 640.8 
z
" clip-path="url(#pd7bac833f9)" style="fill: #595959"/>
   </g>
   <g id="patch_333">
    <path d="M 620.639037 640.8 
L 627.270053 640.8 
L 627.270053 523.466667 
L 620.639037 523.466667 
z
" clip-path="url(#pd7bac833f9)" style="fill: #595959"/>
   </g>
   <g id="patch_334">
    <path d="M 628.927807 640.8 
L 635.558824 640.8 
L 635.558824 406.133333 
L 628.927807 406.133333 
z
" clip-path="url(#pd7bac833f9)" style="fill: #595959"/>
   </g>
   <g id="patch_335">
    <path d="M 637.216578 640.8 
L 643.847594 640.8 
L 643.847594 582.133333 
L 637.216578 582.133333 
z
" clip-path="url(#pd7bac833f9)" style="fill: #595959"/>
   </g>
   <g id="patch_336">
    <path d="M 645.505348 640.8 
L 652.136364 640.8 
L 652.136364 582.133333 
L 645.505348 582.133333 
z
" clip-path="url(#pd7bac833f9)" style="fill: #595959"/>
   </g>
   <g id="patch_337">
    <path d="M 653.794118 640.8 
L 660.425134 640.8 
L 660.425134 464.8 
L 653.794118 464.8 
z
" clip-path="url(#pd7bac833f9)" style="fill: #595959"/>
   </g>
   <g id="patch_338">
    <path d="M 662.082888 640.8 
L 668.713904 640.8 
L 668.713904 523.466667 
L 662.082888 523.466667 
z
" clip-path="url(#pd7bac833f9)" style="fill: #595959"/>
   </g>
   <g id="patch_339">
    <path d="M 670.371658 640.8 
L 677.002674 640.8 
L 677.002674 523.466667 
L 670.371658 523.466667 
z
" clip-path="url(#pd7bac833f9)" style="fill: #595959"/>
   </g>
   <g id="patch_340">
    <path d="M 678.660428 640.8 
L 685.291444 640.8 
L 685.291444 288.8 
L 678.660428 288.8 
z
" clip-path="url(#pd7bac833f9)" style="fill: #595959"/>
   </g>
   <g id="patch_341">
    <path d="M 686.949198 640.8 
L 693.580214 640.8 
L 693.580214 640.8 
L 686.949198 640.8 
z
" clip-path="url(#pd7bac833f9)" style="fill: #595959"/>
   </g>
   <g id="patch_342">
    <path d="M 695.237968 640.8 
L 701.868984 640.8 
L 701.868984 347.466667 
L 695.237968 347.466667 
z
" clip-path="url(#pd7bac833f9)" style="fill: #595959"/>
   </g>
   <g id="patch_343">
    <path d="M 703.526738 640.8 
L 710.157754 640.8 
L 710.157754 464.8 
L 703.526738 464.8 
z
" clip-path="url(#pd7bac833f9)" style="fill: #595959"/>
   </g>
   <g id="patch_344">
    <path d="M 711.815508 640.8 
L 718.446524 640.8 
L 718.446524 523.466667 
L 711.815508 523.466667 
z
" clip-path="url(#pd7bac833f9)" style="fill: #595959"/>
   </g>
   <g id="patch_345">
    <path d="M 720.104278 640.8 
L 726.735294 640.8 
L 726.735294 523.466667 
L 720.104278 523.466667 
z
" clip-path="url(#pd7bac833f9)" style="fill: #595959"/>
   </g>
   <g id="patch_346">
    <path d="M 728.393048 640.8 
L 735.024064 640.8 
L 735.024064 406.133333 
L 728.393048 406.133333 
z
" clip-path="url(#pd7bac833f9)" style="fill: #595959"/>
   </g>
   <g id="patch_347">
    <path d="M 736.681818 640.8 
L 743.312834 640.8 
L 743.312834 523.466667 
L 736.681818 523.466667 
z
" clip-path="url(#pd7bac833f9)" style="fill: #595959"/>
   </g>
   <g id="patch_348">
    <path d="M 744.970588 640.8 
L 751.601604 640.8 
L 751.601604 464.8 
L 744.970588 464.8 
z
" clip-path="url(#pd7bac833f9)" style="fill: #595959"/>
   </g>
   <g id="patch_349">
    <path d="M 753.259358 640.8 
L 759.890374 640.8 
L 759.890374 464.8 
L 753.259358 464.8 
z
" clip-path="url(#pd7bac833f9)" style="fill: #595959"/>
   </g>
   <g id="patch_350">
    <path d="M 761.548128 640.8 
L 768.179144 640.8 
L 768.179144 523.466667 
L 761.548128 523.466667 
z
" clip-path="url(#pd7bac833f9)" style="fill: #595959"/>
   </g>
   <g id="patch_351">
    <path d="M 769.836898 640.8 
L 776.467914 640.8 
L 776.467914 523.466667 
L 769.836898 523.466667 
z
" clip-path="url(#pd7bac833f9)" style="fill: #595959"/>
   </g>
   <g id="patch_352">
    <path d="M 778.125668 640.8 
L 784.756684 640.8 
L 784.756684 406.133333 
L 778.125668 406.133333 
z
" clip-path="url(#pd7bac833f9)" style="fill: #595959"/>
   </g>
   <g id="patch_353">
    <path d="M 786.414439 640.8 
L 793.045455 640.8 
L 793.045455 171.466667 
L 786.414439 171.466667 
z
" clip-path="url(#pd7bac833f9)" style="fill: #595959"/>
   </g>
   <g id="patch_354">
    <path d="M 794.703209 640.8 
L 801.334225 640.8 
L 801.334225 464.8 
L 794.703209 464.8 
z
" clip-path="url(#pd7bac833f9)" style="fill: #595959"/>
   </g>
   <g id="patch_355">
    <path d="M 802.991979 640.8 
L 809.622995 640.8 
L 809.622995 640.8 
L 802.991979 640.8 
z
" clip-path="url(#pd7bac833f9)" style="fill: #595959"/>
   </g>
   <g id="patch_356">
    <path d="M 811.280749 640.8 
L 817.911765 640.8 
L 817.911765 347.466667 
L 811.280749 347.466667 
z
" clip-path="url(#pd7bac833f9)" style="fill: #595959"/>
   </g>
   <g id="patch_357">
    <path d="M 819.569519 640.8 
L 826.200535 640.8 
L 826.200535 406.133333 
L 819.569519 406.133333 
z
" clip-path="url(#pd7bac833f9)" style="fill: #595959"/>
   </g>
   <g id="patch_358">
    <path d="M 827.858289 640.8 
L 834.489305 640.8 
L 834.489305 464.8 
L 827.858289 464.8 
z
" clip-path="url(#pd7bac833f9)" style="fill: #595959"/>
   </g>
   <g id="patch_359">
    <path d="M 836.147059 640.8 
L 842.778075 640.8 
L 842.778075 523.466667 
L 836.147059 523.466667 
z
" clip-path="url(#pd7bac833f9)" style="fill: #595959"/>
   </g>
   <g id="patch_360">
    <path d="M 844.435829 640.8 
L 851.066845 640.8 
L 851.066845 523.466667 
L 844.435829 523.466667 
z
" clip-path="url(#pd7bac833f9)" style="fill: #595959"/>
   </g>
   <g id="patch_361">
    <path d="M 852.724599 640.8 
L 859.355615 640.8 
L 859.355615 464.8 
L 852.724599 464.8 
z
" clip-path="url(#pd7bac833f9)" style="fill: #595959"/>
   </g>
   <g id="patch_362">
    <path d="M 861.013369 640.8 
L 867.644385 640.8 
L 867.644385 406.133333 
L 861.013369 406.133333 
z
" clip-path="url(#pd7bac833f9)" style="fill: #595959"/>
   </g>
   <g id="patch_363">
    <path d="M 869.302139 640.8 
L 875.933155 640.8 
L 875.933155 406.133333 
L 869.302139 406.133333 
z
" clip-path="url(#pd7bac833f9)" style="fill: #595959"/>
   </g>
   <g id="patch_364">
    <path d="M 877.590909 640.8 
L 884.221925 640.8 
L 884.221925 464.8 
L 877.590909 464.8 
z
" clip-path="url(#pd7bac833f9)" style="fill: #595959"/>
   </g>
   <g id="patch_365">
    <path d="M 885.879679 640.8 
L 892.510695 640.8 
L 892.510695 464.8 
L 885.879679 464.8 
z
" clip-path="url(#pd7bac833f9)" style="fill: #595959"/>
   </g>
   <g id="patch_366">
    <path d="M 894.168449 640.8 
L 900.799465 640.8 
L 900.799465 406.133333 
L 894.168449 406.133333 
z
" clip-path="url(#pd7bac833f9)" style="fill: #595959"/>
   </g>
   <g id="patch_367">
    <path d="M 902.457219 640.8 
L 909.088235 640.8 
L 909.088235 347.466667 
L 902.457219 347.466667 
z
" clip-path="url(#pd7bac833f9)" style="fill: #595959"/>
   </g>
   <g id="patch_368">
    <path d="M 910.745989 640.8 
L 917.377005 640.8 
L 917.377005 523.466667 
L 910.745989 523.466667 
z
" clip-path="url(#pd7bac833f9)" style="fill: #595959"/>
   </g>
   <g id="patch_369">
    <path d="M 919.034759 640.8 
L 925.665775 640.8 
L 925.665775 523.466667 
L 919.034759 523.466667 
z
" clip-path="url(#pd7bac833f9)" style="fill: #595959"/>
   </g>
   <g id="patch_370">
    <path d="M 927.323529 640.8 
L 933.954545 640.8 
L 933.954545 640.8 
L 927.323529 640.8 
z
" clip-path="url(#pd7bac833f9)" style="fill: #595959"/>
   </g>
   <g id="matplotlib.axis_1">
    <g id="xtick_1">
     <g id="line2d_1">
      <defs>
       <path id="m566c398806" d="M 0 0 
L 0 3.5 
" style="stroke: #000000; stroke-width: 0.8"/>
      </defs>
      <g>
       <use xlink:href="#m566c398806" x="168.072193" y="640.8" style="stroke: #000000; stroke-width: 0.8"/>
      </g>
     </g>
     <g id="text_1">
      <!-- 0 -->
      <g transform="translate(164.890943 655.398438)scale(0.1 -0.1)">
       <defs>
        <path id="DejaVuSans-30" d="M 2034 4250 
Q 1547 4250 1301 3770 
Q 1056 3291 1056 2328 
Q 1056 1369 1301 889 
Q 1547 409 2034 409 
Q 2525 409 2770 889 
Q 3016 1369 3016 2328 
Q 3016 3291 2770 3770 
Q 2525 4250 2034 4250 
z
M 2034 4750 
Q 2819 4750 3233 4129 
Q 3647 3509 3647 2328 
Q 3647 1150 3233 529 
Q 2819 -91 2034 -91 
Q 1250 -91 836 529 
Q 422 1150 422 2328 
Q 422 3509 836 4129 
Q 1250 4750 2034 4750 
z
" transform="scale(0.015625)"/>
       </defs>
       <use xlink:href="#DejaVuSans-30"/>
      </g>
     </g>
    </g>
    <g id="xtick_2">
     <g id="line2d_2">
      <g>
       <use xlink:href="#m566c398806" x="333.847594" y="640.8" style="stroke: #000000; stroke-width: 0.8"/>
      </g>
     </g>
     <g id="text_2">
      <!-- 20 -->
      <g transform="translate(327.485094 655.398438)scale(0.1 -0.1)">
       <defs>
        <path id="DejaVuSans-32" d="M 1228 531 
L 3431 531 
L 3431 0 
L 469 0 
L 469 531 
Q 828 903 1448 1529 
Q 2069 2156 2228 2338 
Q 2531 2678 2651 2914 
Q 2772 3150 2772 3378 
Q 2772 3750 2511 3984 
Q 2250 4219 1831 4219 
Q 1534 4219 1204 4116 
Q 875 4013 500 3803 
L 500 4441 
Q 881 4594 1212 4672 
Q 1544 4750 1819 4750 
Q 2544 4750 2975 4387 
Q 3406 4025 3406 3419 
Q 3406 3131 3298 2873 
Q 3191 2616 2906 2266 
Q 2828 2175 2409 1742 
Q 1991 1309 1228 531 
z
" transform="scale(0.015625)"/>
       </defs>
       <use xlink:href="#DejaVuSans-32"/>
       <use xlink:href="#DejaVuSans-30" x="63.623047"/>
      </g>
     </g>
    </g>
    <g id="xtick_3">
     <g id="line2d_3">
      <g>
       <use xlink:href="#m566c398806" x="499.622995" y="640.8" style="stroke: #000000; stroke-width: 0.8"/>
      </g>
     </g>
     <g id="text_3">
      <!-- 40 -->
      <g transform="translate(493.260495 655.398438)scale(0.1 -0.1)">
       <defs>
        <path id="DejaVuSans-34" d="M 2419 4116 
L 825 1625 
L 2419 1625 
L 2419 4116 
z
M 2253 4666 
L 3047 4666 
L 3047 1625 
L 3713 1625 
L 3713 1100 
L 3047 1100 
L 3047 0 
L 2419 0 
L 2419 1100 
L 313 1100 
L 313 1709 
L 2253 4666 
z
" transform="scale(0.015625)"/>
       </defs>
       <use xlink:href="#DejaVuSans-34"/>
       <use xlink:href="#DejaVuSans-30" x="63.623047"/>
      </g>
     </g>
    </g>
    <g id="xtick_4">
     <g id="line2d_4">
      <g>
       <use xlink:href="#m566c398806" x="665.398396" y="640.8" style="stroke: #000000; stroke-width: 0.8"/>
      </g>
     </g>
     <g id="text_4">
      <!-- 60 -->
      <g transform="translate(659.035896 655.398438)scale(0.1 -0.1)">
       <defs>
        <path id="DejaVuSans-36" d="M 2113 2584 
Q 1688 2584 1439 2293 
Q 1191 2003 1191 1497 
Q 1191 994 1439 701 
Q 1688 409 2113 409 
Q 2538 409 2786 701 
Q 3034 994 3034 1497 
Q 3034 2003 2786 2293 
Q 2538 2584 2113 2584 
z
M 3366 4563 
L 3366 3988 
Q 3128 4100 2886 4159 
Q 2644 4219 2406 4219 
Q 1781 4219 1451 3797 
Q 1122 3375 1075 2522 
Q 1259 2794 1537 2939 
Q 1816 3084 2150 3084 
Q 2853 3084 3261 2657 
Q 3669 2231 3669 1497 
Q 3669 778 3244 343 
Q 2819 -91 2113 -91 
Q 1303 -91 875 529 
Q 447 1150 447 2328 
Q 447 3434 972 4092 
Q 1497 4750 2381 4750 
Q 2619 4750 2861 4703 
Q 3103 4656 3366 4563 
z
" transform="scale(0.015625)"/>
       </defs>
       <use xlink:href="#DejaVuSans-36"/>
       <use xlink:href="#DejaVuSans-30" x="63.623047"/>
      </g>
     </g>
    </g>
    <g id="xtick_5">
     <g id="line2d_5">
      <g>
       <use xlink:href="#m566c398806" x="831.173797" y="640.8" style="stroke: #000000; stroke-width: 0.8"/>
      </g>
     </g>
     <g id="text_5">
      <!-- 80 -->
      <g transform="translate(824.811297 655.398438)scale(0.1 -0.1)">
       <defs>
        <path id="DejaVuSans-38" d="M 2034 2216 
Q 1584 2216 1326 1975 
Q 1069 1734 1069 1313 
Q 1069 891 1326 650 
Q 1584 409 2034 409 
Q 2484 409 2743 651 
Q 3003 894 3003 1313 
Q 3003 1734 2745 1975 
Q 2488 2216 2034 2216 
z
M 1403 2484 
Q 997 2584 770 2862 
Q 544 3141 544 3541 
Q 544 4100 942 4425 
Q 1341 4750 2034 4750 
Q 2731 4750 3128 4425 
Q 3525 4100 3525 3541 
Q 3525 3141 3298 2862 
Q 3072 2584 2669 2484 
Q 3125 2378 3379 2068 
Q 3634 1759 3634 1313 
Q 3634 634 3220 271 
Q 2806 -91 2034 -91 
Q 1263 -91 848 271 
Q 434 634 434 1313 
Q 434 1759 690 2068 
Q 947 2378 1403 2484 
z
M 1172 3481 
Q 1172 3119 1398 2916 
Q 1625 2713 2034 2713 
Q 2441 2713 2670 2916 
Q 2900 3119 2900 3481 
Q 2900 3844 2670 4047 
Q 2441 4250 2034 4250 
Q 1625 4250 1398 4047 
Q 1172 3844 1172 3481 
z
" transform="scale(0.015625)"/>
       </defs>
       <use xlink:href="#DejaVuSans-38"/>
       <use xlink:href="#DejaVuSans-30" x="63.623047"/>
      </g>
     </g>
    </g>
    <g id="text_6">
     <!-- E-mails with disagreement -->
     <g transform="translate(486.85625 669.076563)scale(0.1 -0.1)">
      <defs>
       <path id="DejaVuSans-45" d="M 628 4666 
L 3578 4666 
L 3578 4134 
L 1259 4134 
L 1259 2753 
L 3481 2753 
L 3481 2222 
L 1259 2222 
L 1259 531 
L 3634 531 
L 3634 0 
L 628 0 
L 628 4666 
z
" transform="scale(0.015625)"/>
       <path id="DejaVuSans-2d" d="M 313 2009 
L 1997 2009 
L 1997 1497 
L 313 1497 
L 313 2009 
z
" transform="scale(0.015625)"/>
       <path id="DejaVuSans-6d" d="M 3328 2828 
Q 3544 3216 3844 3400 
Q 4144 3584 4550 3584 
Q 5097 3584 5394 3201 
Q 5691 2819 5691 2113 
L 5691 0 
L 5113 0 
L 5113 2094 
Q 5113 2597 4934 2840 
Q 4756 3084 4391 3084 
Q 3944 3084 3684 2787 
Q 3425 2491 3425 1978 
L 3425 0 
L 2847 0 
L 2847 2094 
Q 2847 2600 2669 2842 
Q 2491 3084 2119 3084 
Q 1678 3084 1418 2786 
Q 1159 2488 1159 1978 
L 1159 0 
L 581 0 
L 581 3500 
L 1159 3500 
L 1159 2956 
Q 1356 3278 1631 3431 
Q 1906 3584 2284 3584 
Q 2666 3584 2933 3390 
Q 3200 3197 3328 2828 
z
" transform="scale(0.015625)"/>
       <path id="DejaVuSans-61" d="M 2194 1759 
Q 1497 1759 1228 1600 
Q 959 1441 959 1056 
Q 959 750 1161 570 
Q 1363 391 1709 391 
Q 2188 391 2477 730 
Q 2766 1069 2766 1631 
L 2766 1759 
L 2194 1759 
z
M 3341 1997 
L 3341 0 
L 2766 0 
L 2766 531 
Q 2569 213 2275 61 
Q 1981 -91 1556 -91 
Q 1019 -91 701 211 
Q 384 513 384 1019 
Q 384 1609 779 1909 
Q 1175 2209 1959 2209 
L 2766 2209 
L 2766 2266 
Q 2766 2663 2505 2880 
Q 2244 3097 1772 3097 
Q 1472 3097 1187 3025 
Q 903 2953 641 2809 
L 641 3341 
Q 956 3463 1253 3523 
Q 1550 3584 1831 3584 
Q 2591 3584 2966 3190 
Q 3341 2797 3341 1997 
z
" transform="scale(0.015625)"/>
       <path id="DejaVuSans-69" d="M 603 3500 
L 1178 3500 
L 1178 0 
L 603 0 
L 603 3500 
z
M 603 4863 
L 1178 4863 
L 1178 4134 
L 603 4134 
L 603 4863 
z
" transform="scale(0.015625)"/>
       <path id="DejaVuSans-6c" d="M 603 4863 
L 1178 4863 
L 1178 0 
L 603 0 
L 603 4863 
z
" transform="scale(0.015625)"/>
       <path id="DejaVuSans-73" d="M 2834 3397 
L 2834 2853 
Q 2591 2978 2328 3040 
Q 2066 3103 1784 3103 
Q 1356 3103 1142 2972 
Q 928 2841 928 2578 
Q 928 2378 1081 2264 
Q 1234 2150 1697 2047 
L 1894 2003 
Q 2506 1872 2764 1633 
Q 3022 1394 3022 966 
Q 3022 478 2636 193 
Q 2250 -91 1575 -91 
Q 1294 -91 989 -36 
Q 684 19 347 128 
L 347 722 
Q 666 556 975 473 
Q 1284 391 1588 391 
Q 1994 391 2212 530 
Q 2431 669 2431 922 
Q 2431 1156 2273 1281 
Q 2116 1406 1581 1522 
L 1381 1569 
Q 847 1681 609 1914 
Q 372 2147 372 2553 
Q 372 3047 722 3315 
Q 1072 3584 1716 3584 
Q 2034 3584 2315 3537 
Q 2597 3491 2834 3397 
z
" transform="scale(0.015625)"/>
       <path id="DejaVuSans-20" transform="scale(0.015625)"/>
       <path id="DejaVuSans-77" d="M 269 3500 
L 844 3500 
L 1563 769 
L 2278 3500 
L 2956 3500 
L 3675 769 
L 4391 3500 
L 4966 3500 
L 4050 0 
L 3372 0 
L 2619 2869 
L 1863 0 
L 1184 0 
L 269 3500 
z
" transform="scale(0.015625)"/>
       <path id="DejaVuSans-74" d="M 1172 4494 
L 1172 3500 
L 2356 3500 
L 2356 3053 
L 1172 3053 
L 1172 1153 
Q 1172 725 1289 603 
Q 1406 481 1766 481 
L 2356 481 
L 2356 0 
L 1766 0 
Q 1100 0 847 248 
Q 594 497 594 1153 
L 594 3053 
L 172 3053 
L 172 3500 
L 594 3500 
L 594 4494 
L 1172 4494 
z
" transform="scale(0.015625)"/>
       <path id="DejaVuSans-68" d="M 3513 2113 
L 3513 0 
L 2938 0 
L 2938 2094 
Q 2938 2591 2744 2837 
Q 2550 3084 2163 3084 
Q 1697 3084 1428 2787 
Q 1159 2491 1159 1978 
L 1159 0 
L 581 0 
L 581 4863 
L 1159 4863 
L 1159 2956 
Q 1366 3272 1645 3428 
Q 1925 3584 2291 3584 
Q 2894 3584 3203 3211 
Q 3513 2838 3513 2113 
z
" transform="scale(0.015625)"/>
       <path id="DejaVuSans-64" d="M 2906 2969 
L 2906 4863 
L 3481 4863 
L 3481 0 
L 2906 0 
L 2906 525 
Q 2725 213 2448 61 
Q 2172 -91 1784 -91 
Q 1150 -91 751 415 
Q 353 922 353 1747 
Q 353 2572 751 3078 
Q 1150 3584 1784 3584 
Q 2172 3584 2448 3432 
Q 2725 3281 2906 2969 
z
M 947 1747 
Q 947 1113 1208 752 
Q 1469 391 1925 391 
Q 2381 391 2643 752 
Q 2906 1113 2906 1747 
Q 2906 2381 2643 2742 
Q 2381 3103 1925 3103 
Q 1469 3103 1208 2742 
Q 947 2381 947 1747 
z
" transform="scale(0.015625)"/>
       <path id="DejaVuSans-67" d="M 2906 1791 
Q 2906 2416 2648 2759 
Q 2391 3103 1925 3103 
Q 1463 3103 1205 2759 
Q 947 2416 947 1791 
Q 947 1169 1205 825 
Q 1463 481 1925 481 
Q 2391 481 2648 825 
Q 2906 1169 2906 1791 
z
M 3481 434 
Q 3481 -459 3084 -895 
Q 2688 -1331 1869 -1331 
Q 1566 -1331 1297 -1286 
Q 1028 -1241 775 -1147 
L 775 -588 
Q 1028 -725 1275 -790 
Q 1522 -856 1778 -856 
Q 2344 -856 2625 -561 
Q 2906 -266 2906 331 
L 2906 616 
Q 2728 306 2450 153 
Q 2172 0 1784 0 
Q 1141 0 747 490 
Q 353 981 353 1791 
Q 353 2603 747 3093 
Q 1141 3584 1784 3584 
Q 2172 3584 2450 3431 
Q 2728 3278 2906 2969 
L 2906 3500 
L 3481 3500 
L 3481 434 
z
" transform="scale(0.015625)"/>
       <path id="DejaVuSans-72" d="M 2631 2963 
Q 2534 3019 2420 3045 
Q 2306 3072 2169 3072 
Q 1681 3072 1420 2755 
Q 1159 2438 1159 1844 
L 1159 0 
L 581 0 
L 581 3500 
L 1159 3500 
L 1159 2956 
Q 1341 3275 1631 3429 
Q 1922 3584 2338 3584 
Q 2397 3584 2469 3576 
Q 2541 3569 2628 3553 
L 2631 2963 
z
" transform="scale(0.015625)"/>
       <path id="DejaVuSans-65" d="M 3597 1894 
L 3597 1613 
L 953 1613 
Q 991 1019 1311 708 
Q 1631 397 2203 397 
Q 2534 397 2845 478 
Q 3156 559 3463 722 
L 3463 178 
Q 3153 47 2828 -22 
Q 2503 -91 2169 -91 
Q 1331 -91 842 396 
Q 353 884 353 1716 
Q 353 2575 817 3079 
Q 1281 3584 2069 3584 
Q 2775 3584 3186 3129 
Q 3597 2675 3597 1894 
z
M 3022 2063 
Q 3016 2534 2758 2815 
Q 2500 3097 2075 3097 
Q 1594 3097 1305 2825 
Q 1016 2553 972 2059 
L 3022 2063 
z
" transform="scale(0.015625)"/>
       <path id="DejaVuSans-6e" d="M 3513 2113 
L 3513 0 
L 2938 0 
L 2938 2094 
Q 2938 2591 2744 2837 
Q 2550 3084 2163 3084 
Q 1697 3084 1428 2787 
Q 1159 2491 1159 1978 
L 1159 0 
L 581 0 
L 581 3500 
L 1159 3500 
L 1159 2956 
Q 1366 3272 1645 3428 
Q 1925 3584 2291 3584 
Q 2894 3584 3203 3211 
Q 3513 2838 3513 2113 
z
" transform="scale(0.015625)"/>
      </defs>
      <use xlink:href="#DejaVuSans-45"/>
      <use xlink:href="#DejaVuSans-2d" x="63.183594"/>
      <use xlink:href="#DejaVuSans-6d" x="99.267578"/>
      <use xlink:href="#DejaVuSans-61" x="196.679688"/>
      <use xlink:href="#DejaVuSans-69" x="257.958984"/>
      <use xlink:href="#DejaVuSans-6c" x="285.742188"/>
      <use xlink:href="#DejaVuSans-73" x="313.525391"/>
      <use xlink:href="#DejaVuSans-20" x="365.625"/>
      <use xlink:href="#DejaVuSans-77" x="397.412109"/>
      <use xlink:href="#DejaVuSans-69" x="479.199219"/>
      <use xlink:href="#DejaVuSans-74" x="506.982422"/>
      <use xlink:href="#DejaVuSans-68" x="546.191406"/>
      <use xlink:href="#DejaVuSans-20" x="609.570312"/>
      <use xlink:href="#DejaVuSans-64" x="641.357422"/>
      <use xlink:href="#DejaVuSans-69" x="704.833984"/>
      <use xlink:href="#DejaVuSans-73" x="732.617188"/>
      <use xlink:href="#DejaVuSans-61" x="784.716797"/>
      <use xlink:href="#DejaVuSans-67" x="845.996094"/>
      <use xlink:href="#DejaVuSans-72" x="909.472656"/>
      <use xlink:href="#DejaVuSans-65" x="948.335938"/>
      <use xlink:href="#DejaVuSans-65" x="1009.859375"/>
      <use xlink:href="#DejaVuSans-6d" x="1071.382812"/>
      <use xlink:href="#DejaVuSans-65" x="1168.794922"/>
      <use xlink:href="#DejaVuSans-6e" x="1230.318359"/>
      <use xlink:href="#DejaVuSans-74" x="1293.697266"/>
     </g>
    </g>
   </g>
   <g id="matplotlib.axis_2">
    <g id="ytick_1">
     <g id="line2d_6">
      <defs>
       <path id="m465bebc94a" d="M 0 0 
L -3.5 0 
" style="stroke: #000000; stroke-width: 0.8"/>
      </defs>
      <g>
       <use xlink:href="#m465bebc94a" x="135" y="640.8" style="stroke: #000000; stroke-width: 0.8"/>
      </g>
     </g>
     <g id="text_7">
      <!-- 0 -->
      <g transform="translate(121.6375 644.599219)scale(0.1 -0.1)">
       <use xlink:href="#DejaVuSans-30"/>
      </g>
     </g>
    </g>
    <g id="ytick_2">
     <g id="line2d_7">
      <g>
       <use xlink:href="#m465bebc94a" x="135" y="523.466667" style="stroke: #000000; stroke-width: 0.8"/>
      </g>
     </g>
     <g id="text_8">
      <!-- 2 -->
      <g transform="translate(121.6375 527.265885)scale(0.1 -0.1)">
       <use xlink:href="#DejaVuSans-32"/>
      </g>
     </g>
    </g>
    <g id="ytick_3">
     <g id="line2d_8">
      <g>
       <use xlink:href="#m465bebc94a" x="135" y="406.133333" style="stroke: #000000; stroke-width: 0.8"/>
      </g>
     </g>
     <g id="text_9">
      <!-- 4 -->
      <g transform="translate(121.6375 409.932552)scale(0.1 -0.1)">
       <use xlink:href="#DejaVuSans-34"/>
      </g>
     </g>
    </g>
    <g id="ytick_4">
     <g id="line2d_9">
      <g>
       <use xlink:href="#m465bebc94a" x="135" y="288.8" style="stroke: #000000; stroke-width: 0.8"/>
      </g>
     </g>
     <g id="text_10">
      <!-- 6 -->
      <g transform="translate(121.6375 292.599219)scale(0.1 -0.1)">
       <use xlink:href="#DejaVuSans-36"/>
      </g>
     </g>
    </g>
    <g id="ytick_5">
     <g id="line2d_10">
      <g>
       <use xlink:href="#m465bebc94a" x="135" y="171.466667" style="stroke: #000000; stroke-width: 0.8"/>
      </g>
     </g>
     <g id="text_11">
      <!-- 8 -->
      <g transform="translate(121.6375 175.265885)scale(0.1 -0.1)">
       <use xlink:href="#DejaVuSans-38"/>
      </g>
     </g>
    </g>
   </g>
   <g id="patch_371">
    <path d="M 135 640.8 
L 135 86.4 
" style="fill: none; stroke: #000000; stroke-width: 0.8; stroke-linejoin: miter; stroke-linecap: square"/>
   </g>
   <g id="patch_372">
    <path d="M 972 640.8 
L 972 86.4 
" style="fill: none; stroke: #000000; stroke-width: 0.8; stroke-linejoin: miter; stroke-linecap: square"/>
   </g>
   <g id="patch_373">
    <path d="M 135 640.8 
L 972 640.8 
" style="fill: none; stroke: #000000; stroke-width: 0.8; stroke-linejoin: miter; stroke-linecap: square"/>
   </g>
   <g id="patch_374">
    <path d="M 135 86.4 
L 972 86.4 
" style="fill: none; stroke: #000000; stroke-width: 0.8; stroke-linejoin: miter; stroke-linecap: square"/>
   </g>
   <g id="text_12">
    <!-- Distribution of (Simplified) Aggression Targets per E-mail -->
    <g transform="translate(383.239688 80.4)scale(0.12 -0.12)">
     <defs>
      <path id="DejaVuSans-44" d="M 1259 4147 
L 1259 519 
L 2022 519 
Q 2988 519 3436 956 
Q 3884 1394 3884 2338 
Q 3884 3275 3436 3711 
Q 2988 4147 2022 4147 
L 1259 4147 
z
M 628 4666 
L 1925 4666 
Q 3281 4666 3915 4102 
Q 4550 3538 4550 2338 
Q 4550 1131 3912 565 
Q 3275 0 1925 0 
L 628 0 
L 628 4666 
z
" transform="scale(0.015625)"/>
      <path id="DejaVuSans-62" d="M 3116 1747 
Q 3116 2381 2855 2742 
Q 2594 3103 2138 3103 
Q 1681 3103 1420 2742 
Q 1159 2381 1159 1747 
Q 1159 1113 1420 752 
Q 1681 391 2138 391 
Q 2594 391 2855 752 
Q 3116 1113 3116 1747 
z
M 1159 2969 
Q 1341 3281 1617 3432 
Q 1894 3584 2278 3584 
Q 2916 3584 3314 3078 
Q 3713 2572 3713 1747 
Q 3713 922 3314 415 
Q 2916 -91 2278 -91 
Q 1894 -91 1617 61 
Q 1341 213 1159 525 
L 1159 0 
L 581 0 
L 581 4863 
L 1159 4863 
L 1159 2969 
z
" transform="scale(0.015625)"/>
      <path id="DejaVuSans-75" d="M 544 1381 
L 544 3500 
L 1119 3500 
L 1119 1403 
Q 1119 906 1312 657 
Q 1506 409 1894 409 
Q 2359 409 2629 706 
Q 2900 1003 2900 1516 
L 2900 3500 
L 3475 3500 
L 3475 0 
L 2900 0 
L 2900 538 
Q 2691 219 2414 64 
Q 2138 -91 1772 -91 
Q 1169 -91 856 284 
Q 544 659 544 1381 
z
M 1991 3584 
L 1991 3584 
z
" transform="scale(0.015625)"/>
      <path id="DejaVuSans-6f" d="M 1959 3097 
Q 1497 3097 1228 2736 
Q 959 2375 959 1747 
Q 959 1119 1226 758 
Q 1494 397 1959 397 
Q 2419 397 2687 759 
Q 2956 1122 2956 1747 
Q 2956 2369 2687 2733 
Q 2419 3097 1959 3097 
z
M 1959 3584 
Q 2709 3584 3137 3096 
Q 3566 2609 3566 1747 
Q 3566 888 3137 398 
Q 2709 -91 1959 -91 
Q 1206 -91 779 398 
Q 353 888 353 1747 
Q 353 2609 779 3096 
Q 1206 3584 1959 3584 
z
" transform="scale(0.015625)"/>
      <path id="DejaVuSans-66" d="M 2375 4863 
L 2375 4384 
L 1825 4384 
Q 1516 4384 1395 4259 
Q 1275 4134 1275 3809 
L 1275 3500 
L 2222 3500 
L 2222 3053 
L 1275 3053 
L 1275 0 
L 697 0 
L 697 3053 
L 147 3053 
L 147 3500 
L 697 3500 
L 697 3744 
Q 697 4328 969 4595 
Q 1241 4863 1831 4863 
L 2375 4863 
z
" transform="scale(0.015625)"/>
      <path id="DejaVuSans-28" d="M 1984 4856 
Q 1566 4138 1362 3434 
Q 1159 2731 1159 2009 
Q 1159 1288 1364 580 
Q 1569 -128 1984 -844 
L 1484 -844 
Q 1016 -109 783 600 
Q 550 1309 550 2009 
Q 550 2706 781 3412 
Q 1013 4119 1484 4856 
L 1984 4856 
z
" transform="scale(0.015625)"/>
      <path id="DejaVuSans-53" d="M 3425 4513 
L 3425 3897 
Q 3066 4069 2747 4153 
Q 2428 4238 2131 4238 
Q 1616 4238 1336 4038 
Q 1056 3838 1056 3469 
Q 1056 3159 1242 3001 
Q 1428 2844 1947 2747 
L 2328 2669 
Q 3034 2534 3370 2195 
Q 3706 1856 3706 1288 
Q 3706 609 3251 259 
Q 2797 -91 1919 -91 
Q 1588 -91 1214 -16 
Q 841 59 441 206 
L 441 856 
Q 825 641 1194 531 
Q 1563 422 1919 422 
Q 2459 422 2753 634 
Q 3047 847 3047 1241 
Q 3047 1584 2836 1778 
Q 2625 1972 2144 2069 
L 1759 2144 
Q 1053 2284 737 2584 
Q 422 2884 422 3419 
Q 422 4038 858 4394 
Q 1294 4750 2059 4750 
Q 2388 4750 2728 4690 
Q 3069 4631 3425 4513 
z
" transform="scale(0.015625)"/>
      <path id="DejaVuSans-70" d="M 1159 525 
L 1159 -1331 
L 581 -1331 
L 581 3500 
L 1159 3500 
L 1159 2969 
Q 1341 3281 1617 3432 
Q 1894 3584 2278 3584 
Q 2916 3584 3314 3078 
Q 3713 2572 3713 1747 
Q 3713 922 3314 415 
Q 2916 -91 2278 -91 
Q 1894 -91 1617 61 
Q 1341 213 1159 525 
z
M 3116 1747 
Q 3116 2381 2855 2742 
Q 2594 3103 2138 3103 
Q 1681 3103 1420 2742 
Q 1159 2381 1159 1747 
Q 1159 1113 1420 752 
Q 1681 391 2138 391 
Q 2594 391 2855 752 
Q 3116 1113 3116 1747 
z
" transform="scale(0.015625)"/>
      <path id="DejaVuSans-29" d="M 513 4856 
L 1013 4856 
Q 1481 4119 1714 3412 
Q 1947 2706 1947 2009 
Q 1947 1309 1714 600 
Q 1481 -109 1013 -844 
L 513 -844 
Q 928 -128 1133 580 
Q 1338 1288 1338 2009 
Q 1338 2731 1133 3434 
Q 928 4138 513 4856 
z
" transform="scale(0.015625)"/>
      <path id="DejaVuSans-41" d="M 2188 4044 
L 1331 1722 
L 3047 1722 
L 2188 4044 
z
M 1831 4666 
L 2547 4666 
L 4325 0 
L 3669 0 
L 3244 1197 
L 1141 1197 
L 716 0 
L 50 0 
L 1831 4666 
z
" transform="scale(0.015625)"/>
      <path id="DejaVuSans-54" d="M -19 4666 
L 3928 4666 
L 3928 4134 
L 2272 4134 
L 2272 0 
L 1638 0 
L 1638 4134 
L -19 4134 
L -19 4666 
z
" transform="scale(0.015625)"/>
     </defs>
     <use xlink:href="#DejaVuSans-44"/>
     <use xlink:href="#DejaVuSans-69" x="77.001953"/>
     <use xlink:href="#DejaVuSans-73" x="104.785156"/>
     <use xlink:href="#DejaVuSans-74" x="156.884766"/>
     <use xlink:href="#DejaVuSans-72" x="196.09375"/>
     <use xlink:href="#DejaVuSans-69" x="237.207031"/>
     <use xlink:href="#DejaVuSans-62" x="264.990234"/>
     <use xlink:href="#DejaVuSans-75" x="328.466797"/>
     <use xlink:href="#DejaVuSans-74" x="391.845703"/>
     <use xlink:href="#DejaVuSans-69" x="431.054688"/>
     <use xlink:href="#DejaVuSans-6f" x="458.837891"/>
     <use xlink:href="#DejaVuSans-6e" x="520.019531"/>
     <use xlink:href="#DejaVuSans-20" x="583.398438"/>
     <use xlink:href="#DejaVuSans-6f" x="615.185547"/>
     <use xlink:href="#DejaVuSans-66" x="676.367188"/>
     <use xlink:href="#DejaVuSans-20" x="711.572266"/>
     <use xlink:href="#DejaVuSans-28" x="743.359375"/>
     <use xlink:href="#DejaVuSans-53" x="782.373047"/>
     <use xlink:href="#DejaVuSans-69" x="845.849609"/>
     <use xlink:href="#DejaVuSans-6d" x="873.632812"/>
     <use xlink:href="#DejaVuSans-70" x="971.044922"/>
     <use xlink:href="#DejaVuSans-6c" x="1034.521484"/>
     <use xlink:href="#DejaVuSans-69" x="1062.304688"/>
     <use xlink:href="#DejaVuSans-66" x="1090.087891"/>
     <use xlink:href="#DejaVuSans-69" x="1125.292969"/>
     <use xlink:href="#DejaVuSans-65" x="1153.076172"/>
     <use xlink:href="#DejaVuSans-64" x="1214.599609"/>
     <use xlink:href="#DejaVuSans-29" x="1278.076172"/>
     <use xlink:href="#DejaVuSans-20" x="1317.089844"/>
     <use xlink:href="#DejaVuSans-41" x="1348.876953"/>
     <use xlink:href="#DejaVuSans-67" x="1417.285156"/>
     <use xlink:href="#DejaVuSans-67" x="1480.761719"/>
     <use xlink:href="#DejaVuSans-72" x="1544.238281"/>
     <use xlink:href="#DejaVuSans-65" x="1583.101562"/>
     <use xlink:href="#DejaVuSans-73" x="1644.625"/>
     <use xlink:href="#DejaVuSans-73" x="1696.724609"/>
     <use xlink:href="#DejaVuSans-69" x="1748.824219"/>
     <use xlink:href="#DejaVuSans-6f" x="1776.607422"/>
     <use xlink:href="#DejaVuSans-6e" x="1837.789062"/>
     <use xlink:href="#DejaVuSans-20" x="1901.167969"/>
     <use xlink:href="#DejaVuSans-54" x="1932.955078"/>
     <use xlink:href="#DejaVuSans-61" x="1977.539062"/>
     <use xlink:href="#DejaVuSans-72" x="2038.818359"/>
     <use xlink:href="#DejaVuSans-67" x="2078.181641"/>
     <use xlink:href="#DejaVuSans-65" x="2141.658203"/>
     <use xlink:href="#DejaVuSans-74" x="2203.181641"/>
     <use xlink:href="#DejaVuSans-73" x="2242.390625"/>
     <use xlink:href="#DejaVuSans-20" x="2294.490234"/>
     <use xlink:href="#DejaVuSans-70" x="2326.277344"/>
     <use xlink:href="#DejaVuSans-65" x="2389.753906"/>
     <use xlink:href="#DejaVuSans-72" x="2451.277344"/>
     <use xlink:href="#DejaVuSans-20" x="2492.390625"/>
     <use xlink:href="#DejaVuSans-45" x="2524.177734"/>
     <use xlink:href="#DejaVuSans-2d" x="2587.361328"/>
     <use xlink:href="#DejaVuSans-6d" x="2623.445312"/>
     <use xlink:href="#DejaVuSans-61" x="2720.857422"/>
     <use xlink:href="#DejaVuSans-69" x="2782.136719"/>
     <use xlink:href="#DejaVuSans-6c" x="2809.919922"/>
    </g>
   </g>
   <g id="legend_1">
    <g id="patch_375">
     <path d="M 887.570312 153.1125 
L 965 153.1125 
Q 967 153.1125 967 151.1125 
L 967 93.4 
Q 967 91.4 965 91.4 
L 887.570312 91.4 
Q 885.570312 91.4 885.570312 93.4 
L 885.570312 151.1125 
Q 885.570312 153.1125 887.570312 153.1125 
z
" style="fill: #ffffff; opacity: 0.8; stroke: #cccccc; stroke-linejoin: miter"/>
    </g>
    <g id="patch_376">
     <path d="M 889.570312 102.998437 
L 909.570312 102.998437 
L 909.570312 95.998437 
L 889.570312 95.998437 
z
" style="fill: #006ba4"/>
    </g>
    <g id="text_13">
     <!-- human -->
     <g transform="translate(917.570312 102.998437)scale(0.1 -0.1)">
      <use xlink:href="#DejaVuSans-68"/>
      <use xlink:href="#DejaVuSans-75" x="63.378906"/>
      <use xlink:href="#DejaVuSans-6d" x="126.757812"/>
      <use xlink:href="#DejaVuSans-61" x="224.169922"/>
      <use xlink:href="#DejaVuSans-6e" x="285.449219"/>
     </g>
    </g>
    <g id="patch_377">
     <path d="M 889.570312 117.676562 
L 909.570312 117.676562 
L 909.570312 110.676562 
L 889.570312 110.676562 
z
" style="fill: #ff800e"/>
    </g>
    <g id="text_14">
     <!-- technical -->
     <g transform="translate(917.570312 117.676562)scale(0.1 -0.1)">
      <defs>
       <path id="DejaVuSans-63" d="M 3122 3366 
L 3122 2828 
Q 2878 2963 2633 3030 
Q 2388 3097 2138 3097 
Q 1578 3097 1268 2742 
Q 959 2388 959 1747 
Q 959 1106 1268 751 
Q 1578 397 2138 397 
Q 2388 397 2633 464 
Q 2878 531 3122 666 
L 3122 134 
Q 2881 22 2623 -34 
Q 2366 -91 2075 -91 
Q 1284 -91 818 406 
Q 353 903 353 1747 
Q 353 2603 823 3093 
Q 1294 3584 2113 3584 
Q 2378 3584 2631 3529 
Q 2884 3475 3122 3366 
z
" transform="scale(0.015625)"/>
      </defs>
      <use xlink:href="#DejaVuSans-74"/>
      <use xlink:href="#DejaVuSans-65" x="39.208984"/>
      <use xlink:href="#DejaVuSans-63" x="100.732422"/>
      <use xlink:href="#DejaVuSans-68" x="155.712891"/>
      <use xlink:href="#DejaVuSans-6e" x="219.091797"/>
      <use xlink:href="#DejaVuSans-69" x="282.470703"/>
      <use xlink:href="#DejaVuSans-63" x="310.253906"/>
      <use xlink:href="#DejaVuSans-61" x="365.234375"/>
      <use xlink:href="#DejaVuSans-6c" x="426.513672"/>
     </g>
    </g>
    <g id="patch_378">
     <path d="M 889.570312 132.354687 
L 909.570312 132.354687 
L 909.570312 125.354687 
L 889.570312 125.354687 
z
" style="fill: #ababab"/>
    </g>
    <g id="text_15">
     <!-- other -->
     <g transform="translate(917.570312 132.354687)scale(0.1 -0.1)">
      <use xlink:href="#DejaVuSans-6f"/>
      <use xlink:href="#DejaVuSans-74" x="61.181641"/>
      <use xlink:href="#DejaVuSans-68" x="100.390625"/>
      <use xlink:href="#DejaVuSans-65" x="163.769531"/>
      <use xlink:href="#DejaVuSans-72" x="225.292969"/>
     </g>
    </g>
    <g id="patch_379">
     <path d="M 889.570312 147.032812 
L 909.570312 147.032812 
L 909.570312 140.032812 
L 889.570312 140.032812 
z
" style="fill: #595959"/>
    </g>
    <g id="text_16">
     <!-- none -->
     <g transform="translate(917.570312 147.032812)scale(0.1 -0.1)">
      <use xlink:href="#DejaVuSans-6e"/>
      <use xlink:href="#DejaVuSans-6f" x="63.378906"/>
      <use xlink:href="#DejaVuSans-6e" x="124.560547"/>
      <use xlink:href="#DejaVuSans-65" x="187.939453"/>
     </g>
    </g>
   </g>
  </g>
 </g>
 <defs>
  <clipPath id="pd7bac833f9">
   <rect x="135" y="86.4" width="837" height="554.4"/>
  </clipPath>
 </defs>
</svg>
