<?xml version="1.0" encoding="utf-8" standalone="no"?>
<!DOCTYPE svg PUBLIC "-//W3C//DTD SVG 1.1//EN"
  "http://www.w3.org/Graphics/SVG/1.1/DTD/svg11.dtd">
<svg xmlns:xlink="http://www.w3.org/1999/xlink" width="720pt" height="720pt" viewBox="0 0 720 720" xmlns="http://www.w3.org/2000/svg" version="1.1">
 <metadata>
  <rdf:RDF xmlns:dc="http://purl.org/dc/elements/1.1/" xmlns:cc="http://creativecommons.org/ns#" xmlns:rdf="http://www.w3.org/1999/02/22-rdf-syntax-ns#">
   <cc:Work>
    <dc:type rdf:resource="http://purl.org/dc/dcmitype/StillImage"/>
    <dc:date>2022-08-29T17:29:39.818848</dc:date>
    <dc:format>image/svg+xml</dc:format>
    <dc:creator>
     <cc:Agent>
      <dc:title>Matplotlib v3.5.3, https://matplotlib.org/</dc:title>
     </cc:Agent>
    </dc:creator>
   </cc:Work>
  </rdf:RDF>
 </metadata>
 <defs>
  <style type="text/css">*{stroke-linejoin: round; stroke-linecap: butt}</style>
 </defs>
 <g id="figure_1">
  <g id="patch_1">
   <path d="M 0 720 
L 720 720 
L 720 0 
L 0 0 
z
" style="fill: #ffffff"/>
  </g>
  <g id="axes_1">
   <g id="patch_2">
    <path d="M 90 640.8 
L 648 640.8 
L 648 86.4 
L 90 86.4 
z
" style="fill: #ffffff"/>
   </g>
   <g id="patch_3">
    <path d="M 115.363636 640.8 
L 123.512596 640.8 
L 123.512596 376.8 
L 115.363636 376.8 
z
" clip-path="url(#p6f03738268)" style="fill: #006ba4"/>
   </g>
   <g id="patch_4">
    <path d="M 125.549836 640.8 
L 133.698795 640.8 
L 133.698795 271.2 
L 125.549836 271.2 
z
" clip-path="url(#p6f03738268)" style="fill: #006ba4"/>
   </g>
   <g id="patch_5">
    <path d="M 135.736035 640.8 
L 143.884995 640.8 
L 143.884995 324 
L 135.736035 324 
z
" clip-path="url(#p6f03738268)" style="fill: #006ba4"/>
   </g>
   <g id="patch_6">
    <path d="M 145.922234 640.8 
L 154.071194 640.8 
L 154.071194 376.8 
L 145.922234 376.8 
z
" clip-path="url(#p6f03738268)" style="fill: #006ba4"/>
   </g>
   <g id="patch_7">
    <path d="M 156.108434 640.8 
L 164.257393 640.8 
L 164.257393 376.8 
L 156.108434 376.8 
z
" clip-path="url(#p6f03738268)" style="fill: #006ba4"/>
   </g>
   <g id="patch_8">
    <path d="M 166.294633 640.8 
L 174.443593 640.8 
L 174.443593 376.8 
L 166.294633 376.8 
z
" clip-path="url(#p6f03738268)" style="fill: #006ba4"/>
   </g>
   <g id="patch_9">
    <path d="M 176.480832 640.8 
L 184.629792 640.8 
L 184.629792 218.4 
L 176.480832 218.4 
z
" clip-path="url(#p6f03738268)" style="fill: #006ba4"/>
   </g>
   <g id="patch_10">
    <path d="M 186.667032 640.8 
L 194.815991 640.8 
L 194.815991 324 
L 186.667032 324 
z
" clip-path="url(#p6f03738268)" style="fill: #006ba4"/>
   </g>
   <g id="patch_11">
    <path d="M 196.853231 640.8 
L 205.002191 640.8 
L 205.002191 376.8 
L 196.853231 376.8 
z
" clip-path="url(#p6f03738268)" style="fill: #006ba4"/>
   </g>
   <g id="patch_12">
    <path d="M 207.03943 640.8 
L 215.18839 640.8 
L 215.18839 482.4 
L 207.03943 482.4 
z
" clip-path="url(#p6f03738268)" style="fill: #006ba4"/>
   </g>
   <g id="patch_13">
    <path d="M 217.22563 640.8 
L 225.374589 640.8 
L 225.374589 324 
L 217.22563 324 
z
" clip-path="url(#p6f03738268)" style="fill: #006ba4"/>
   </g>
   <g id="patch_14">
    <path d="M 227.411829 640.8 
L 235.560789 640.8 
L 235.560789 429.6 
L 227.411829 429.6 
z
" clip-path="url(#p6f03738268)" style="fill: #006ba4"/>
   </g>
   <g id="patch_15">
    <path d="M 237.598028 640.8 
L 245.746988 640.8 
L 245.746988 535.2 
L 237.598028 535.2 
z
" clip-path="url(#p6f03738268)" style="fill: #006ba4"/>
   </g>
   <g id="patch_16">
    <path d="M 247.784228 640.8 
L 255.933187 640.8 
L 255.933187 324 
L 247.784228 324 
z
" clip-path="url(#p6f03738268)" style="fill: #006ba4"/>
   </g>
   <g id="patch_17">
    <path d="M 257.970427 640.8 
L 266.119387 640.8 
L 266.119387 218.4 
L 257.970427 218.4 
z
" clip-path="url(#p6f03738268)" style="fill: #006ba4"/>
   </g>
   <g id="patch_18">
    <path d="M 268.156627 640.8 
L 276.305586 640.8 
L 276.305586 271.2 
L 268.156627 271.2 
z
" clip-path="url(#p6f03738268)" style="fill: #006ba4"/>
   </g>
   <g id="patch_19">
    <path d="M 278.342826 640.8 
L 286.491785 640.8 
L 286.491785 324 
L 278.342826 324 
z
" clip-path="url(#p6f03738268)" style="fill: #006ba4"/>
   </g>
   <g id="patch_20">
    <path d="M 288.529025 640.8 
L 296.677985 640.8 
L 296.677985 640.8 
L 288.529025 640.8 
z
" clip-path="url(#p6f03738268)" style="fill: #006ba4"/>
   </g>
   <g id="patch_21">
    <path d="M 298.715225 640.8 
L 306.864184 640.8 
L 306.864184 112.8 
L 298.715225 112.8 
z
" clip-path="url(#p6f03738268)" style="fill: #006ba4"/>
   </g>
   <g id="patch_22">
    <path d="M 308.901424 640.8 
L 317.050383 640.8 
L 317.050383 324 
L 308.901424 324 
z
" clip-path="url(#p6f03738268)" style="fill: #006ba4"/>
   </g>
   <g id="patch_23">
    <path d="M 319.087623 640.8 
L 327.236583 640.8 
L 327.236583 271.2 
L 319.087623 271.2 
z
" clip-path="url(#p6f03738268)" style="fill: #006ba4"/>
   </g>
   <g id="patch_24">
    <path d="M 329.273823 640.8 
L 337.422782 640.8 
L 337.422782 271.2 
L 329.273823 271.2 
z
" clip-path="url(#p6f03738268)" style="fill: #006ba4"/>
   </g>
   <g id="patch_25">
    <path d="M 339.460022 640.8 
L 347.608981 640.8 
L 347.608981 324 
L 339.460022 324 
z
" clip-path="url(#p6f03738268)" style="fill: #006ba4"/>
   </g>
   <g id="patch_26">
    <path d="M 349.646221 640.8 
L 357.795181 640.8 
L 357.795181 429.6 
L 349.646221 429.6 
z
" clip-path="url(#p6f03738268)" style="fill: #006ba4"/>
   </g>
   <g id="patch_27">
    <path d="M 359.832421 640.8 
L 367.98138 640.8 
L 367.98138 324 
L 359.832421 324 
z
" clip-path="url(#p6f03738268)" style="fill: #006ba4"/>
   </g>
   <g id="patch_28">
    <path d="M 370.01862 640.8 
L 378.167579 640.8 
L 378.167579 271.2 
L 370.01862 271.2 
z
" clip-path="url(#p6f03738268)" style="fill: #006ba4"/>
   </g>
   <g id="patch_29">
    <path d="M 380.204819 640.8 
L 388.353779 640.8 
L 388.353779 324 
L 380.204819 324 
z
" clip-path="url(#p6f03738268)" style="fill: #006ba4"/>
   </g>
   <g id="patch_30">
    <path d="M 390.391019 640.8 
L 398.539978 640.8 
L 398.539978 429.6 
L 390.391019 429.6 
z
" clip-path="url(#p6f03738268)" style="fill: #006ba4"/>
   </g>
   <g id="patch_31">
    <path d="M 400.577218 640.8 
L 408.726177 640.8 
L 408.726177 112.8 
L 400.577218 112.8 
z
" clip-path="url(#p6f03738268)" style="fill: #006ba4"/>
   </g>
   <g id="patch_32">
    <path d="M 410.763417 640.8 
L 418.912377 640.8 
L 418.912377 376.8 
L 410.763417 376.8 
z
" clip-path="url(#p6f03738268)" style="fill: #006ba4"/>
   </g>
   <g id="patch_33">
    <path d="M 420.949617 640.8 
L 429.098576 640.8 
L 429.098576 324 
L 420.949617 324 
z
" clip-path="url(#p6f03738268)" style="fill: #006ba4"/>
   </g>
   <g id="patch_34">
    <path d="M 431.135816 640.8 
L 439.284775 640.8 
L 439.284775 376.8 
L 431.135816 376.8 
z
" clip-path="url(#p6f03738268)" style="fill: #006ba4"/>
   </g>
   <g id="patch_35">
    <path d="M 441.322015 640.8 
L 449.470975 640.8 
L 449.470975 376.8 
L 441.322015 376.8 
z
" clip-path="url(#p6f03738268)" style="fill: #006ba4"/>
   </g>
   <g id="patch_36">
    <path d="M 451.508215 640.8 
L 459.657174 640.8 
L 459.657174 324 
L 451.508215 324 
z
" clip-path="url(#p6f03738268)" style="fill: #006ba4"/>
   </g>
   <g id="patch_37">
    <path d="M 461.694414 640.8 
L 469.843373 640.8 
L 469.843373 324 
L 461.694414 324 
z
" clip-path="url(#p6f03738268)" style="fill: #006ba4"/>
   </g>
   <g id="patch_38">
    <path d="M 471.880613 640.8 
L 480.029573 640.8 
L 480.029573 376.8 
L 471.880613 376.8 
z
" clip-path="url(#p6f03738268)" style="fill: #006ba4"/>
   </g>
   <g id="patch_39">
    <path d="M 482.066813 640.8 
L 490.215772 640.8 
L 490.215772 324 
L 482.066813 324 
z
" clip-path="url(#p6f03738268)" style="fill: #006ba4"/>
   </g>
   <g id="patch_40">
    <path d="M 492.253012 640.8 
L 500.401972 640.8 
L 500.401972 376.8 
L 492.253012 376.8 
z
" clip-path="url(#p6f03738268)" style="fill: #006ba4"/>
   </g>
   <g id="patch_41">
    <path d="M 502.439211 640.8 
L 510.588171 640.8 
L 510.588171 271.2 
L 502.439211 271.2 
z
" clip-path="url(#p6f03738268)" style="fill: #006ba4"/>
   </g>
   <g id="patch_42">
    <path d="M 512.625411 640.8 
L 520.77437 640.8 
L 520.77437 640.8 
L 512.625411 640.8 
z
" clip-path="url(#p6f03738268)" style="fill: #006ba4"/>
   </g>
   <g id="patch_43">
    <path d="M 522.81161 640.8 
L 530.96057 640.8 
L 530.96057 271.2 
L 522.81161 271.2 
z
" clip-path="url(#p6f03738268)" style="fill: #006ba4"/>
   </g>
   <g id="patch_44">
    <path d="M 532.997809 640.8 
L 541.146769 640.8 
L 541.146769 482.4 
L 532.997809 482.4 
z
" clip-path="url(#p6f03738268)" style="fill: #006ba4"/>
   </g>
   <g id="patch_45">
    <path d="M 543.184009 640.8 
L 551.332968 640.8 
L 551.332968 112.8 
L 543.184009 112.8 
z
" clip-path="url(#p6f03738268)" style="fill: #006ba4"/>
   </g>
   <g id="patch_46">
    <path d="M 553.370208 640.8 
L 561.519168 640.8 
L 561.519168 218.4 
L 553.370208 218.4 
z
" clip-path="url(#p6f03738268)" style="fill: #006ba4"/>
   </g>
   <g id="patch_47">
    <path d="M 563.556407 640.8 
L 571.705367 640.8 
L 571.705367 376.8 
L 563.556407 376.8 
z
" clip-path="url(#p6f03738268)" style="fill: #006ba4"/>
   </g>
   <g id="patch_48">
    <path d="M 573.742607 640.8 
L 581.891566 640.8 
L 581.891566 271.2 
L 573.742607 271.2 
z
" clip-path="url(#p6f03738268)" style="fill: #006ba4"/>
   </g>
   <g id="patch_49">
    <path d="M 583.928806 640.8 
L 592.077766 640.8 
L 592.077766 218.4 
L 583.928806 218.4 
z
" clip-path="url(#p6f03738268)" style="fill: #006ba4"/>
   </g>
   <g id="patch_50">
    <path d="M 594.115005 640.8 
L 602.263965 640.8 
L 602.263965 324 
L 594.115005 324 
z
" clip-path="url(#p6f03738268)" style="fill: #006ba4"/>
   </g>
   <g id="patch_51">
    <path d="M 604.301205 640.8 
L 612.450164 640.8 
L 612.450164 324 
L 604.301205 324 
z
" clip-path="url(#p6f03738268)" style="fill: #006ba4"/>
   </g>
   <g id="patch_52">
    <path d="M 614.487404 640.8 
L 622.636364 640.8 
L 622.636364 271.2 
L 614.487404 271.2 
z
" clip-path="url(#p6f03738268)" style="fill: #006ba4"/>
   </g>
   <g id="patch_53">
    <path d="M 115.363636 640.8 
L 123.512596 640.8 
L 123.512596 640.8 
L 115.363636 640.8 
z
" clip-path="url(#p6f03738268)" style="fill: #ff800e"/>
   </g>
   <g id="patch_54">
    <path d="M 125.549836 640.8 
L 133.698795 640.8 
L 133.698795 588 
L 125.549836 588 
z
" clip-path="url(#p6f03738268)" style="fill: #ff800e"/>
   </g>
   <g id="patch_55">
    <path d="M 135.736035 640.8 
L 143.884995 640.8 
L 143.884995 640.8 
L 135.736035 640.8 
z
" clip-path="url(#p6f03738268)" style="fill: #ff800e"/>
   </g>
   <g id="patch_56">
    <path d="M 145.922234 640.8 
L 154.071194 640.8 
L 154.071194 640.8 
L 145.922234 640.8 
z
" clip-path="url(#p6f03738268)" style="fill: #ff800e"/>
   </g>
   <g id="patch_57">
    <path d="M 156.108434 640.8 
L 164.257393 640.8 
L 164.257393 640.8 
L 156.108434 640.8 
z
" clip-path="url(#p6f03738268)" style="fill: #ff800e"/>
   </g>
   <g id="patch_58">
    <path d="M 166.294633 640.8 
L 174.443593 640.8 
L 174.443593 640.8 
L 166.294633 640.8 
z
" clip-path="url(#p6f03738268)" style="fill: #ff800e"/>
   </g>
   <g id="patch_59">
    <path d="M 176.480832 640.8 
L 184.629792 640.8 
L 184.629792 640.8 
L 176.480832 640.8 
z
" clip-path="url(#p6f03738268)" style="fill: #ff800e"/>
   </g>
   <g id="patch_60">
    <path d="M 186.667032 640.8 
L 194.815991 640.8 
L 194.815991 640.8 
L 186.667032 640.8 
z
" clip-path="url(#p6f03738268)" style="fill: #ff800e"/>
   </g>
   <g id="patch_61">
    <path d="M 196.853231 640.8 
L 205.002191 640.8 
L 205.002191 640.8 
L 196.853231 640.8 
z
" clip-path="url(#p6f03738268)" style="fill: #ff800e"/>
   </g>
   <g id="patch_62">
    <path d="M 207.03943 640.8 
L 215.18839 640.8 
L 215.18839 429.6 
L 207.03943 429.6 
z
" clip-path="url(#p6f03738268)" style="fill: #ff800e"/>
   </g>
   <g id="patch_63">
    <path d="M 217.22563 640.8 
L 225.374589 640.8 
L 225.374589 640.8 
L 217.22563 640.8 
z
" clip-path="url(#p6f03738268)" style="fill: #ff800e"/>
   </g>
   <g id="patch_64">
    <path d="M 227.411829 640.8 
L 235.560789 640.8 
L 235.560789 640.8 
L 227.411829 640.8 
z
" clip-path="url(#p6f03738268)" style="fill: #ff800e"/>
   </g>
   <g id="patch_65">
    <path d="M 237.598028 640.8 
L 245.746988 640.8 
L 245.746988 429.6 
L 237.598028 429.6 
z
" clip-path="url(#p6f03738268)" style="fill: #ff800e"/>
   </g>
   <g id="patch_66">
    <path d="M 247.784228 640.8 
L 255.933187 640.8 
L 255.933187 640.8 
L 247.784228 640.8 
z
" clip-path="url(#p6f03738268)" style="fill: #ff800e"/>
   </g>
   <g id="patch_67">
    <path d="M 257.970427 640.8 
L 266.119387 640.8 
L 266.119387 588 
L 257.970427 588 
z
" clip-path="url(#p6f03738268)" style="fill: #ff800e"/>
   </g>
   <g id="patch_68">
    <path d="M 268.156627 640.8 
L 276.305586 640.8 
L 276.305586 640.8 
L 268.156627 640.8 
z
" clip-path="url(#p6f03738268)" style="fill: #ff800e"/>
   </g>
   <g id="patch_69">
    <path d="M 278.342826 640.8 
L 286.491785 640.8 
L 286.491785 640.8 
L 278.342826 640.8 
z
" clip-path="url(#p6f03738268)" style="fill: #ff800e"/>
   </g>
   <g id="patch_70">
    <path d="M 288.529025 640.8 
L 296.677985 640.8 
L 296.677985 429.6 
L 288.529025 429.6 
z
" clip-path="url(#p6f03738268)" style="fill: #ff800e"/>
   </g>
   <g id="patch_71">
    <path d="M 298.715225 640.8 
L 306.864184 640.8 
L 306.864184 640.8 
L 298.715225 640.8 
z
" clip-path="url(#p6f03738268)" style="fill: #ff800e"/>
   </g>
   <g id="patch_72">
    <path d="M 308.901424 640.8 
L 317.050383 640.8 
L 317.050383 640.8 
L 308.901424 640.8 
z
" clip-path="url(#p6f03738268)" style="fill: #ff800e"/>
   </g>
   <g id="patch_73">
    <path d="M 319.087623 640.8 
L 327.236583 640.8 
L 327.236583 640.8 
L 319.087623 640.8 
z
" clip-path="url(#p6f03738268)" style="fill: #ff800e"/>
   </g>
   <g id="patch_74">
    <path d="M 329.273823 640.8 
L 337.422782 640.8 
L 337.422782 640.8 
L 329.273823 640.8 
z
" clip-path="url(#p6f03738268)" style="fill: #ff800e"/>
   </g>
   <g id="patch_75">
    <path d="M 339.460022 640.8 
L 347.608981 640.8 
L 347.608981 640.8 
L 339.460022 640.8 
z
" clip-path="url(#p6f03738268)" style="fill: #ff800e"/>
   </g>
   <g id="patch_76">
    <path d="M 349.646221 640.8 
L 357.795181 640.8 
L 357.795181 640.8 
L 349.646221 640.8 
z
" clip-path="url(#p6f03738268)" style="fill: #ff800e"/>
   </g>
   <g id="patch_77">
    <path d="M 359.832421 640.8 
L 367.98138 640.8 
L 367.98138 640.8 
L 359.832421 640.8 
z
" clip-path="url(#p6f03738268)" style="fill: #ff800e"/>
   </g>
   <g id="patch_78">
    <path d="M 370.01862 640.8 
L 378.167579 640.8 
L 378.167579 640.8 
L 370.01862 640.8 
z
" clip-path="url(#p6f03738268)" style="fill: #ff800e"/>
   </g>
   <g id="patch_79">
    <path d="M 380.204819 640.8 
L 388.353779 640.8 
L 388.353779 640.8 
L 380.204819 640.8 
z
" clip-path="url(#p6f03738268)" style="fill: #ff800e"/>
   </g>
   <g id="patch_80">
    <path d="M 390.391019 640.8 
L 398.539978 640.8 
L 398.539978 482.4 
L 390.391019 482.4 
z
" clip-path="url(#p6f03738268)" style="fill: #ff800e"/>
   </g>
   <g id="patch_81">
    <path d="M 400.577218 640.8 
L 408.726177 640.8 
L 408.726177 640.8 
L 400.577218 640.8 
z
" clip-path="url(#p6f03738268)" style="fill: #ff800e"/>
   </g>
   <g id="patch_82">
    <path d="M 410.763417 640.8 
L 418.912377 640.8 
L 418.912377 588 
L 410.763417 588 
z
" clip-path="url(#p6f03738268)" style="fill: #ff800e"/>
   </g>
   <g id="patch_83">
    <path d="M 420.949617 640.8 
L 429.098576 640.8 
L 429.098576 640.8 
L 420.949617 640.8 
z
" clip-path="url(#p6f03738268)" style="fill: #ff800e"/>
   </g>
   <g id="patch_84">
    <path d="M 431.135816 640.8 
L 439.284775 640.8 
L 439.284775 640.8 
L 431.135816 640.8 
z
" clip-path="url(#p6f03738268)" style="fill: #ff800e"/>
   </g>
   <g id="patch_85">
    <path d="M 441.322015 640.8 
L 449.470975 640.8 
L 449.470975 640.8 
L 441.322015 640.8 
z
" clip-path="url(#p6f03738268)" style="fill: #ff800e"/>
   </g>
   <g id="patch_86">
    <path d="M 451.508215 640.8 
L 459.657174 640.8 
L 459.657174 640.8 
L 451.508215 640.8 
z
" clip-path="url(#p6f03738268)" style="fill: #ff800e"/>
   </g>
   <g id="patch_87">
    <path d="M 461.694414 640.8 
L 469.843373 640.8 
L 469.843373 640.8 
L 461.694414 640.8 
z
" clip-path="url(#p6f03738268)" style="fill: #ff800e"/>
   </g>
   <g id="patch_88">
    <path d="M 471.880613 640.8 
L 480.029573 640.8 
L 480.029573 588 
L 471.880613 588 
z
" clip-path="url(#p6f03738268)" style="fill: #ff800e"/>
   </g>
   <g id="patch_89">
    <path d="M 482.066813 640.8 
L 490.215772 640.8 
L 490.215772 640.8 
L 482.066813 640.8 
z
" clip-path="url(#p6f03738268)" style="fill: #ff800e"/>
   </g>
   <g id="patch_90">
    <path d="M 492.253012 640.8 
L 500.401972 640.8 
L 500.401972 640.8 
L 492.253012 640.8 
z
" clip-path="url(#p6f03738268)" style="fill: #ff800e"/>
   </g>
   <g id="patch_91">
    <path d="M 502.439211 640.8 
L 510.588171 640.8 
L 510.588171 429.6 
L 502.439211 429.6 
z
" clip-path="url(#p6f03738268)" style="fill: #ff800e"/>
   </g>
   <g id="patch_92">
    <path d="M 512.625411 640.8 
L 520.77437 640.8 
L 520.77437 271.2 
L 512.625411 271.2 
z
" clip-path="url(#p6f03738268)" style="fill: #ff800e"/>
   </g>
   <g id="patch_93">
    <path d="M 522.81161 640.8 
L 530.96057 640.8 
L 530.96057 535.2 
L 522.81161 535.2 
z
" clip-path="url(#p6f03738268)" style="fill: #ff800e"/>
   </g>
   <g id="patch_94">
    <path d="M 532.997809 640.8 
L 541.146769 640.8 
L 541.146769 271.2 
L 532.997809 271.2 
z
" clip-path="url(#p6f03738268)" style="fill: #ff800e"/>
   </g>
   <g id="patch_95">
    <path d="M 543.184009 640.8 
L 551.332968 640.8 
L 551.332968 640.8 
L 543.184009 640.8 
z
" clip-path="url(#p6f03738268)" style="fill: #ff800e"/>
   </g>
   <g id="patch_96">
    <path d="M 553.370208 640.8 
L 561.519168 640.8 
L 561.519168 218.4 
L 553.370208 218.4 
z
" clip-path="url(#p6f03738268)" style="fill: #ff800e"/>
   </g>
   <g id="patch_97">
    <path d="M 563.556407 640.8 
L 571.705367 640.8 
L 571.705367 429.6 
L 563.556407 429.6 
z
" clip-path="url(#p6f03738268)" style="fill: #ff800e"/>
   </g>
   <g id="patch_98">
    <path d="M 573.742607 640.8 
L 581.891566 640.8 
L 581.891566 588 
L 573.742607 588 
z
" clip-path="url(#p6f03738268)" style="fill: #ff800e"/>
   </g>
   <g id="patch_99">
    <path d="M 583.928806 640.8 
L 592.077766 640.8 
L 592.077766 640.8 
L 583.928806 640.8 
z
" clip-path="url(#p6f03738268)" style="fill: #ff800e"/>
   </g>
   <g id="patch_100">
    <path d="M 594.115005 640.8 
L 602.263965 640.8 
L 602.263965 482.4 
L 594.115005 482.4 
z
" clip-path="url(#p6f03738268)" style="fill: #ff800e"/>
   </g>
   <g id="patch_101">
    <path d="M 604.301205 640.8 
L 612.450164 640.8 
L 612.450164 640.8 
L 604.301205 640.8 
z
" clip-path="url(#p6f03738268)" style="fill: #ff800e"/>
   </g>
   <g id="patch_102">
    <path d="M 614.487404 640.8 
L 622.636364 640.8 
L 622.636364 376.8 
L 614.487404 376.8 
z
" clip-path="url(#p6f03738268)" style="fill: #ff800e"/>
   </g>
   <g id="patch_103">
    <path d="M 115.363636 640.8 
L 123.512596 640.8 
L 123.512596 429.6 
L 115.363636 429.6 
z
" clip-path="url(#p6f03738268)" style="fill: #ababab"/>
   </g>
   <g id="patch_104">
    <path d="M 125.549836 640.8 
L 133.698795 640.8 
L 133.698795 588 
L 125.549836 588 
z
" clip-path="url(#p6f03738268)" style="fill: #ababab"/>
   </g>
   <g id="patch_105">
    <path d="M 135.736035 640.8 
L 143.884995 640.8 
L 143.884995 640.8 
L 135.736035 640.8 
z
" clip-path="url(#p6f03738268)" style="fill: #ababab"/>
   </g>
   <g id="patch_106">
    <path d="M 145.922234 640.8 
L 154.071194 640.8 
L 154.071194 588 
L 145.922234 588 
z
" clip-path="url(#p6f03738268)" style="fill: #ababab"/>
   </g>
   <g id="patch_107">
    <path d="M 156.108434 640.8 
L 164.257393 640.8 
L 164.257393 588 
L 156.108434 588 
z
" clip-path="url(#p6f03738268)" style="fill: #ababab"/>
   </g>
   <g id="patch_108">
    <path d="M 166.294633 640.8 
L 174.443593 640.8 
L 174.443593 588 
L 166.294633 588 
z
" clip-path="url(#p6f03738268)" style="fill: #ababab"/>
   </g>
   <g id="patch_109">
    <path d="M 176.480832 640.8 
L 184.629792 640.8 
L 184.629792 588 
L 176.480832 588 
z
" clip-path="url(#p6f03738268)" style="fill: #ababab"/>
   </g>
   <g id="patch_110">
    <path d="M 186.667032 640.8 
L 194.815991 640.8 
L 194.815991 640.8 
L 186.667032 640.8 
z
" clip-path="url(#p6f03738268)" style="fill: #ababab"/>
   </g>
   <g id="patch_111">
    <path d="M 196.853231 640.8 
L 205.002191 640.8 
L 205.002191 640.8 
L 196.853231 640.8 
z
" clip-path="url(#p6f03738268)" style="fill: #ababab"/>
   </g>
   <g id="patch_112">
    <path d="M 207.03943 640.8 
L 215.18839 640.8 
L 215.18839 588 
L 207.03943 588 
z
" clip-path="url(#p6f03738268)" style="fill: #ababab"/>
   </g>
   <g id="patch_113">
    <path d="M 217.22563 640.8 
L 225.374589 640.8 
L 225.374589 535.2 
L 217.22563 535.2 
z
" clip-path="url(#p6f03738268)" style="fill: #ababab"/>
   </g>
   <g id="patch_114">
    <path d="M 227.411829 640.8 
L 235.560789 640.8 
L 235.560789 429.6 
L 227.411829 429.6 
z
" clip-path="url(#p6f03738268)" style="fill: #ababab"/>
   </g>
   <g id="patch_115">
    <path d="M 237.598028 640.8 
L 245.746988 640.8 
L 245.746988 588 
L 237.598028 588 
z
" clip-path="url(#p6f03738268)" style="fill: #ababab"/>
   </g>
   <g id="patch_116">
    <path d="M 247.784228 640.8 
L 255.933187 640.8 
L 255.933187 588 
L 247.784228 588 
z
" clip-path="url(#p6f03738268)" style="fill: #ababab"/>
   </g>
   <g id="patch_117">
    <path d="M 257.970427 640.8 
L 266.119387 640.8 
L 266.119387 535.2 
L 257.970427 535.2 
z
" clip-path="url(#p6f03738268)" style="fill: #ababab"/>
   </g>
   <g id="patch_118">
    <path d="M 268.156627 640.8 
L 276.305586 640.8 
L 276.305586 482.4 
L 268.156627 482.4 
z
" clip-path="url(#p6f03738268)" style="fill: #ababab"/>
   </g>
   <g id="patch_119">
    <path d="M 278.342826 640.8 
L 286.491785 640.8 
L 286.491785 640.8 
L 278.342826 640.8 
z
" clip-path="url(#p6f03738268)" style="fill: #ababab"/>
   </g>
   <g id="patch_120">
    <path d="M 288.529025 640.8 
L 296.677985 640.8 
L 296.677985 535.2 
L 288.529025 535.2 
z
" clip-path="url(#p6f03738268)" style="fill: #ababab"/>
   </g>
   <g id="patch_121">
    <path d="M 298.715225 640.8 
L 306.864184 640.8 
L 306.864184 588 
L 298.715225 588 
z
" clip-path="url(#p6f03738268)" style="fill: #ababab"/>
   </g>
   <g id="patch_122">
    <path d="M 308.901424 640.8 
L 317.050383 640.8 
L 317.050383 588 
L 308.901424 588 
z
" clip-path="url(#p6f03738268)" style="fill: #ababab"/>
   </g>
   <g id="patch_123">
    <path d="M 319.087623 640.8 
L 327.236583 640.8 
L 327.236583 588 
L 319.087623 588 
z
" clip-path="url(#p6f03738268)" style="fill: #ababab"/>
   </g>
   <g id="patch_124">
    <path d="M 329.273823 640.8 
L 337.422782 640.8 
L 337.422782 640.8 
L 329.273823 640.8 
z
" clip-path="url(#p6f03738268)" style="fill: #ababab"/>
   </g>
   <g id="patch_125">
    <path d="M 339.460022 640.8 
L 347.608981 640.8 
L 347.608981 640.8 
L 339.460022 640.8 
z
" clip-path="url(#p6f03738268)" style="fill: #ababab"/>
   </g>
   <g id="patch_126">
    <path d="M 349.646221 640.8 
L 357.795181 640.8 
L 357.795181 535.2 
L 349.646221 535.2 
z
" clip-path="url(#p6f03738268)" style="fill: #ababab"/>
   </g>
   <g id="patch_127">
    <path d="M 359.832421 640.8 
L 367.98138 640.8 
L 367.98138 588 
L 359.832421 588 
z
" clip-path="url(#p6f03738268)" style="fill: #ababab"/>
   </g>
   <g id="patch_128">
    <path d="M 370.01862 640.8 
L 378.167579 640.8 
L 378.167579 640.8 
L 370.01862 640.8 
z
" clip-path="url(#p6f03738268)" style="fill: #ababab"/>
   </g>
   <g id="patch_129">
    <path d="M 380.204819 640.8 
L 388.353779 640.8 
L 388.353779 588 
L 380.204819 588 
z
" clip-path="url(#p6f03738268)" style="fill: #ababab"/>
   </g>
   <g id="patch_130">
    <path d="M 390.391019 640.8 
L 398.539978 640.8 
L 398.539978 640.8 
L 390.391019 640.8 
z
" clip-path="url(#p6f03738268)" style="fill: #ababab"/>
   </g>
   <g id="patch_131">
    <path d="M 400.577218 640.8 
L 408.726177 640.8 
L 408.726177 588 
L 400.577218 588 
z
" clip-path="url(#p6f03738268)" style="fill: #ababab"/>
   </g>
   <g id="patch_132">
    <path d="M 410.763417 640.8 
L 418.912377 640.8 
L 418.912377 482.4 
L 410.763417 482.4 
z
" clip-path="url(#p6f03738268)" style="fill: #ababab"/>
   </g>
   <g id="patch_133">
    <path d="M 420.949617 640.8 
L 429.098576 640.8 
L 429.098576 588 
L 420.949617 588 
z
" clip-path="url(#p6f03738268)" style="fill: #ababab"/>
   </g>
   <g id="patch_134">
    <path d="M 431.135816 640.8 
L 439.284775 640.8 
L 439.284775 482.4 
L 431.135816 482.4 
z
" clip-path="url(#p6f03738268)" style="fill: #ababab"/>
   </g>
   <g id="patch_135">
    <path d="M 441.322015 640.8 
L 449.470975 640.8 
L 449.470975 588 
L 441.322015 588 
z
" clip-path="url(#p6f03738268)" style="fill: #ababab"/>
   </g>
   <g id="patch_136">
    <path d="M 451.508215 640.8 
L 459.657174 640.8 
L 459.657174 640.8 
L 451.508215 640.8 
z
" clip-path="url(#p6f03738268)" style="fill: #ababab"/>
   </g>
   <g id="patch_137">
    <path d="M 461.694414 640.8 
L 469.843373 640.8 
L 469.843373 640.8 
L 461.694414 640.8 
z
" clip-path="url(#p6f03738268)" style="fill: #ababab"/>
   </g>
   <g id="patch_138">
    <path d="M 471.880613 640.8 
L 480.029573 640.8 
L 480.029573 640.8 
L 471.880613 640.8 
z
" clip-path="url(#p6f03738268)" style="fill: #ababab"/>
   </g>
   <g id="patch_139">
    <path d="M 482.066813 640.8 
L 490.215772 640.8 
L 490.215772 535.2 
L 482.066813 535.2 
z
" clip-path="url(#p6f03738268)" style="fill: #ababab"/>
   </g>
   <g id="patch_140">
    <path d="M 492.253012 640.8 
L 500.401972 640.8 
L 500.401972 588 
L 492.253012 588 
z
" clip-path="url(#p6f03738268)" style="fill: #ababab"/>
   </g>
   <g id="patch_141">
    <path d="M 502.439211 640.8 
L 510.588171 640.8 
L 510.588171 535.2 
L 502.439211 535.2 
z
" clip-path="url(#p6f03738268)" style="fill: #ababab"/>
   </g>
   <g id="patch_142">
    <path d="M 512.625411 640.8 
L 520.77437 640.8 
L 520.77437 588 
L 512.625411 588 
z
" clip-path="url(#p6f03738268)" style="fill: #ababab"/>
   </g>
   <g id="patch_143">
    <path d="M 522.81161 640.8 
L 530.96057 640.8 
L 530.96057 640.8 
L 522.81161 640.8 
z
" clip-path="url(#p6f03738268)" style="fill: #ababab"/>
   </g>
   <g id="patch_144">
    <path d="M 532.997809 640.8 
L 541.146769 640.8 
L 541.146769 640.8 
L 532.997809 640.8 
z
" clip-path="url(#p6f03738268)" style="fill: #ababab"/>
   </g>
   <g id="patch_145">
    <path d="M 543.184009 640.8 
L 551.332968 640.8 
L 551.332968 482.4 
L 543.184009 482.4 
z
" clip-path="url(#p6f03738268)" style="fill: #ababab"/>
   </g>
   <g id="patch_146">
    <path d="M 553.370208 640.8 
L 561.519168 640.8 
L 561.519168 588 
L 553.370208 588 
z
" clip-path="url(#p6f03738268)" style="fill: #ababab"/>
   </g>
   <g id="patch_147">
    <path d="M 563.556407 640.8 
L 571.705367 640.8 
L 571.705367 535.2 
L 563.556407 535.2 
z
" clip-path="url(#p6f03738268)" style="fill: #ababab"/>
   </g>
   <g id="patch_148">
    <path d="M 573.742607 640.8 
L 581.891566 640.8 
L 581.891566 588 
L 573.742607 588 
z
" clip-path="url(#p6f03738268)" style="fill: #ababab"/>
   </g>
   <g id="patch_149">
    <path d="M 583.928806 640.8 
L 592.077766 640.8 
L 592.077766 588 
L 583.928806 588 
z
" clip-path="url(#p6f03738268)" style="fill: #ababab"/>
   </g>
   <g id="patch_150">
    <path d="M 594.115005 640.8 
L 602.263965 640.8 
L 602.263965 640.8 
L 594.115005 640.8 
z
" clip-path="url(#p6f03738268)" style="fill: #ababab"/>
   </g>
   <g id="patch_151">
    <path d="M 604.301205 640.8 
L 612.450164 640.8 
L 612.450164 588 
L 604.301205 588 
z
" clip-path="url(#p6f03738268)" style="fill: #ababab"/>
   </g>
   <g id="patch_152">
    <path d="M 614.487404 640.8 
L 622.636364 640.8 
L 622.636364 588 
L 614.487404 588 
z
" clip-path="url(#p6f03738268)" style="fill: #ababab"/>
   </g>
   <g id="patch_153">
    <path d="M 115.363636 640.8 
L 123.512596 640.8 
L 123.512596 588 
L 115.363636 588 
z
" clip-path="url(#p6f03738268)" style="fill: #595959"/>
   </g>
   <g id="patch_154">
    <path d="M 125.549836 640.8 
L 133.698795 640.8 
L 133.698795 640.8 
L 125.549836 640.8 
z
" clip-path="url(#p6f03738268)" style="fill: #595959"/>
   </g>
   <g id="patch_155">
    <path d="M 135.736035 640.8 
L 143.884995 640.8 
L 143.884995 640.8 
L 135.736035 640.8 
z
" clip-path="url(#p6f03738268)" style="fill: #595959"/>
   </g>
   <g id="patch_156">
    <path d="M 145.922234 640.8 
L 154.071194 640.8 
L 154.071194 588 
L 145.922234 588 
z
" clip-path="url(#p6f03738268)" style="fill: #595959"/>
   </g>
   <g id="patch_157">
    <path d="M 156.108434 640.8 
L 164.257393 640.8 
L 164.257393 640.8 
L 156.108434 640.8 
z
" clip-path="url(#p6f03738268)" style="fill: #595959"/>
   </g>
   <g id="patch_158">
    <path d="M 166.294633 640.8 
L 174.443593 640.8 
L 174.443593 588 
L 166.294633 588 
z
" clip-path="url(#p6f03738268)" style="fill: #595959"/>
   </g>
   <g id="patch_159">
    <path d="M 176.480832 640.8 
L 184.629792 640.8 
L 184.629792 640.8 
L 176.480832 640.8 
z
" clip-path="url(#p6f03738268)" style="fill: #595959"/>
   </g>
   <g id="patch_160">
    <path d="M 186.667032 640.8 
L 194.815991 640.8 
L 194.815991 640.8 
L 186.667032 640.8 
z
" clip-path="url(#p6f03738268)" style="fill: #595959"/>
   </g>
   <g id="patch_161">
    <path d="M 196.853231 640.8 
L 205.002191 640.8 
L 205.002191 588 
L 196.853231 588 
z
" clip-path="url(#p6f03738268)" style="fill: #595959"/>
   </g>
   <g id="patch_162">
    <path d="M 207.03943 640.8 
L 215.18839 640.8 
L 215.18839 640.8 
L 207.03943 640.8 
z
" clip-path="url(#p6f03738268)" style="fill: #595959"/>
   </g>
   <g id="patch_163">
    <path d="M 217.22563 640.8 
L 225.374589 640.8 
L 225.374589 640.8 
L 217.22563 640.8 
z
" clip-path="url(#p6f03738268)" style="fill: #595959"/>
   </g>
   <g id="patch_164">
    <path d="M 227.411829 640.8 
L 235.560789 640.8 
L 235.560789 640.8 
L 227.411829 640.8 
z
" clip-path="url(#p6f03738268)" style="fill: #595959"/>
   </g>
   <g id="patch_165">
    <path d="M 237.598028 640.8 
L 245.746988 640.8 
L 245.746988 640.8 
L 237.598028 640.8 
z
" clip-path="url(#p6f03738268)" style="fill: #595959"/>
   </g>
   <g id="patch_166">
    <path d="M 247.784228 640.8 
L 255.933187 640.8 
L 255.933187 640.8 
L 247.784228 640.8 
z
" clip-path="url(#p6f03738268)" style="fill: #595959"/>
   </g>
   <g id="patch_167">
    <path d="M 257.970427 640.8 
L 266.119387 640.8 
L 266.119387 640.8 
L 257.970427 640.8 
z
" clip-path="url(#p6f03738268)" style="fill: #595959"/>
   </g>
   <g id="patch_168">
    <path d="M 268.156627 640.8 
L 276.305586 640.8 
L 276.305586 640.8 
L 268.156627 640.8 
z
" clip-path="url(#p6f03738268)" style="fill: #595959"/>
   </g>
   <g id="patch_169">
    <path d="M 278.342826 640.8 
L 286.491785 640.8 
L 286.491785 640.8 
L 278.342826 640.8 
z
" clip-path="url(#p6f03738268)" style="fill: #595959"/>
   </g>
   <g id="patch_170">
    <path d="M 288.529025 640.8 
L 296.677985 640.8 
L 296.677985 640.8 
L 288.529025 640.8 
z
" clip-path="url(#p6f03738268)" style="fill: #595959"/>
   </g>
   <g id="patch_171">
    <path d="M 298.715225 640.8 
L 306.864184 640.8 
L 306.864184 640.8 
L 298.715225 640.8 
z
" clip-path="url(#p6f03738268)" style="fill: #595959"/>
   </g>
   <g id="patch_172">
    <path d="M 308.901424 640.8 
L 317.050383 640.8 
L 317.050383 588 
L 308.901424 588 
z
" clip-path="url(#p6f03738268)" style="fill: #595959"/>
   </g>
   <g id="patch_173">
    <path d="M 319.087623 640.8 
L 327.236583 640.8 
L 327.236583 640.8 
L 319.087623 640.8 
z
" clip-path="url(#p6f03738268)" style="fill: #595959"/>
   </g>
   <g id="patch_174">
    <path d="M 329.273823 640.8 
L 337.422782 640.8 
L 337.422782 640.8 
L 329.273823 640.8 
z
" clip-path="url(#p6f03738268)" style="fill: #595959"/>
   </g>
   <g id="patch_175">
    <path d="M 339.460022 640.8 
L 347.608981 640.8 
L 347.608981 640.8 
L 339.460022 640.8 
z
" clip-path="url(#p6f03738268)" style="fill: #595959"/>
   </g>
   <g id="patch_176">
    <path d="M 349.646221 640.8 
L 357.795181 640.8 
L 357.795181 588 
L 349.646221 588 
z
" clip-path="url(#p6f03738268)" style="fill: #595959"/>
   </g>
   <g id="patch_177">
    <path d="M 359.832421 640.8 
L 367.98138 640.8 
L 367.98138 640.8 
L 359.832421 640.8 
z
" clip-path="url(#p6f03738268)" style="fill: #595959"/>
   </g>
   <g id="patch_178">
    <path d="M 370.01862 640.8 
L 378.167579 640.8 
L 378.167579 640.8 
L 370.01862 640.8 
z
" clip-path="url(#p6f03738268)" style="fill: #595959"/>
   </g>
   <g id="patch_179">
    <path d="M 380.204819 640.8 
L 388.353779 640.8 
L 388.353779 640.8 
L 380.204819 640.8 
z
" clip-path="url(#p6f03738268)" style="fill: #595959"/>
   </g>
   <g id="patch_180">
    <path d="M 390.391019 640.8 
L 398.539978 640.8 
L 398.539978 640.8 
L 390.391019 640.8 
z
" clip-path="url(#p6f03738268)" style="fill: #595959"/>
   </g>
   <g id="patch_181">
    <path d="M 400.577218 640.8 
L 408.726177 640.8 
L 408.726177 640.8 
L 400.577218 640.8 
z
" clip-path="url(#p6f03738268)" style="fill: #595959"/>
   </g>
   <g id="patch_182">
    <path d="M 410.763417 640.8 
L 418.912377 640.8 
L 418.912377 640.8 
L 410.763417 640.8 
z
" clip-path="url(#p6f03738268)" style="fill: #595959"/>
   </g>
   <g id="patch_183">
    <path d="M 420.949617 640.8 
L 429.098576 640.8 
L 429.098576 640.8 
L 420.949617 640.8 
z
" clip-path="url(#p6f03738268)" style="fill: #595959"/>
   </g>
   <g id="patch_184">
    <path d="M 431.135816 640.8 
L 439.284775 640.8 
L 439.284775 640.8 
L 431.135816 640.8 
z
" clip-path="url(#p6f03738268)" style="fill: #595959"/>
   </g>
   <g id="patch_185">
    <path d="M 441.322015 640.8 
L 449.470975 640.8 
L 449.470975 640.8 
L 441.322015 640.8 
z
" clip-path="url(#p6f03738268)" style="fill: #595959"/>
   </g>
   <g id="patch_186">
    <path d="M 451.508215 640.8 
L 459.657174 640.8 
L 459.657174 640.8 
L 451.508215 640.8 
z
" clip-path="url(#p6f03738268)" style="fill: #595959"/>
   </g>
   <g id="patch_187">
    <path d="M 461.694414 640.8 
L 469.843373 640.8 
L 469.843373 640.8 
L 461.694414 640.8 
z
" clip-path="url(#p6f03738268)" style="fill: #595959"/>
   </g>
   <g id="patch_188">
    <path d="M 471.880613 640.8 
L 480.029573 640.8 
L 480.029573 588 
L 471.880613 588 
z
" clip-path="url(#p6f03738268)" style="fill: #595959"/>
   </g>
   <g id="patch_189">
    <path d="M 482.066813 640.8 
L 490.215772 640.8 
L 490.215772 588 
L 482.066813 588 
z
" clip-path="url(#p6f03738268)" style="fill: #595959"/>
   </g>
   <g id="patch_190">
    <path d="M 492.253012 640.8 
L 500.401972 640.8 
L 500.401972 588 
L 492.253012 588 
z
" clip-path="url(#p6f03738268)" style="fill: #595959"/>
   </g>
   <g id="patch_191">
    <path d="M 502.439211 640.8 
L 510.588171 640.8 
L 510.588171 640.8 
L 502.439211 640.8 
z
" clip-path="url(#p6f03738268)" style="fill: #595959"/>
   </g>
   <g id="patch_192">
    <path d="M 512.625411 640.8 
L 520.77437 640.8 
L 520.77437 640.8 
L 512.625411 640.8 
z
" clip-path="url(#p6f03738268)" style="fill: #595959"/>
   </g>
   <g id="patch_193">
    <path d="M 522.81161 640.8 
L 530.96057 640.8 
L 530.96057 640.8 
L 522.81161 640.8 
z
" clip-path="url(#p6f03738268)" style="fill: #595959"/>
   </g>
   <g id="patch_194">
    <path d="M 532.997809 640.8 
L 541.146769 640.8 
L 541.146769 640.8 
L 532.997809 640.8 
z
" clip-path="url(#p6f03738268)" style="fill: #595959"/>
   </g>
   <g id="patch_195">
    <path d="M 543.184009 640.8 
L 551.332968 640.8 
L 551.332968 588 
L 543.184009 588 
z
" clip-path="url(#p6f03738268)" style="fill: #595959"/>
   </g>
   <g id="patch_196">
    <path d="M 553.370208 640.8 
L 561.519168 640.8 
L 561.519168 640.8 
L 553.370208 640.8 
z
" clip-path="url(#p6f03738268)" style="fill: #595959"/>
   </g>
   <g id="patch_197">
    <path d="M 563.556407 640.8 
L 571.705367 640.8 
L 571.705367 640.8 
L 563.556407 640.8 
z
" clip-path="url(#p6f03738268)" style="fill: #595959"/>
   </g>
   <g id="patch_198">
    <path d="M 573.742607 640.8 
L 581.891566 640.8 
L 581.891566 640.8 
L 573.742607 640.8 
z
" clip-path="url(#p6f03738268)" style="fill: #595959"/>
   </g>
   <g id="patch_199">
    <path d="M 583.928806 640.8 
L 592.077766 640.8 
L 592.077766 588 
L 583.928806 588 
z
" clip-path="url(#p6f03738268)" style="fill: #595959"/>
   </g>
   <g id="patch_200">
    <path d="M 594.115005 640.8 
L 602.263965 640.8 
L 602.263965 640.8 
L 594.115005 640.8 
z
" clip-path="url(#p6f03738268)" style="fill: #595959"/>
   </g>
   <g id="patch_201">
    <path d="M 604.301205 640.8 
L 612.450164 640.8 
L 612.450164 588 
L 604.301205 588 
z
" clip-path="url(#p6f03738268)" style="fill: #595959"/>
   </g>
   <g id="patch_202">
    <path d="M 614.487404 640.8 
L 622.636364 640.8 
L 622.636364 640.8 
L 614.487404 640.8 
z
" clip-path="url(#p6f03738268)" style="fill: #595959"/>
   </g>
   <g id="matplotlib.axis_1">
    <g id="xtick_1">
     <g id="line2d_1">
      <defs>
       <path id="ma9566252fe" d="M 0 0 
L 0 3.5 
" style="stroke: #000000; stroke-width: 0.8"/>
      </defs>
      <g>
       <use xlink:href="#ma9566252fe" x="109.251917" y="640.8" style="stroke: #000000; stroke-width: 0.8"/>
      </g>
     </g>
     <g id="text_1">
      <!-- 0 -->
      <g transform="translate(106.070667 655.398438)scale(0.1 -0.1)">
       <defs>
        <path id="DejaVuSans-30" d="M 2034 4250 
Q 1547 4250 1301 3770 
Q 1056 3291 1056 2328 
Q 1056 1369 1301 889 
Q 1547 409 2034 409 
Q 2525 409 2770 889 
Q 3016 1369 3016 2328 
Q 3016 3291 2770 3770 
Q 2525 4250 2034 4250 
z
M 2034 4750 
Q 2819 4750 3233 4129 
Q 3647 3509 3647 2328 
Q 3647 1150 3233 529 
Q 2819 -91 2034 -91 
Q 1250 -91 836 529 
Q 422 1150 422 2328 
Q 422 3509 836 4129 
Q 1250 4750 2034 4750 
z
" transform="scale(0.015625)"/>
       </defs>
       <use xlink:href="#DejaVuSans-30"/>
      </g>
     </g>
    </g>
    <g id="xtick_2">
     <g id="line2d_2">
      <g>
       <use xlink:href="#ma9566252fe" x="211.11391" y="640.8" style="stroke: #000000; stroke-width: 0.8"/>
      </g>
     </g>
     <g id="text_2">
      <!-- 10 -->
      <g transform="translate(204.75141 655.398438)scale(0.1 -0.1)">
       <defs>
        <path id="DejaVuSans-31" d="M 794 531 
L 1825 531 
L 1825 4091 
L 703 3866 
L 703 4441 
L 1819 4666 
L 2450 4666 
L 2450 531 
L 3481 531 
L 3481 0 
L 794 0 
L 794 531 
z
" transform="scale(0.015625)"/>
       </defs>
       <use xlink:href="#DejaVuSans-31"/>
       <use xlink:href="#DejaVuSans-30" x="63.623047"/>
      </g>
     </g>
    </g>
    <g id="xtick_3">
     <g id="line2d_3">
      <g>
       <use xlink:href="#ma9566252fe" x="312.975904" y="640.8" style="stroke: #000000; stroke-width: 0.8"/>
      </g>
     </g>
     <g id="text_3">
      <!-- 20 -->
      <g transform="translate(306.613404 655.398438)scale(0.1 -0.1)">
       <defs>
        <path id="DejaVuSans-32" d="M 1228 531 
L 3431 531 
L 3431 0 
L 469 0 
L 469 531 
Q 828 903 1448 1529 
Q 2069 2156 2228 2338 
Q 2531 2678 2651 2914 
Q 2772 3150 2772 3378 
Q 2772 3750 2511 3984 
Q 2250 4219 1831 4219 
Q 1534 4219 1204 4116 
Q 875 4013 500 3803 
L 500 4441 
Q 881 4594 1212 4672 
Q 1544 4750 1819 4750 
Q 2544 4750 2975 4387 
Q 3406 4025 3406 3419 
Q 3406 3131 3298 2873 
Q 3191 2616 2906 2266 
Q 2828 2175 2409 1742 
Q 1991 1309 1228 531 
z
" transform="scale(0.015625)"/>
       </defs>
       <use xlink:href="#DejaVuSans-32"/>
       <use xlink:href="#DejaVuSans-30" x="63.623047"/>
      </g>
     </g>
    </g>
    <g id="xtick_4">
     <g id="line2d_4">
      <g>
       <use xlink:href="#ma9566252fe" x="414.837897" y="640.8" style="stroke: #000000; stroke-width: 0.8"/>
      </g>
     </g>
     <g id="text_4">
      <!-- 30 -->
      <g transform="translate(408.475397 655.398438)scale(0.1 -0.1)">
       <defs>
        <path id="DejaVuSans-33" d="M 2597 2516 
Q 3050 2419 3304 2112 
Q 3559 1806 3559 1356 
Q 3559 666 3084 287 
Q 2609 -91 1734 -91 
Q 1441 -91 1130 -33 
Q 819 25 488 141 
L 488 750 
Q 750 597 1062 519 
Q 1375 441 1716 441 
Q 2309 441 2620 675 
Q 2931 909 2931 1356 
Q 2931 1769 2642 2001 
Q 2353 2234 1838 2234 
L 1294 2234 
L 1294 2753 
L 1863 2753 
Q 2328 2753 2575 2939 
Q 2822 3125 2822 3475 
Q 2822 3834 2567 4026 
Q 2313 4219 1838 4219 
Q 1578 4219 1281 4162 
Q 984 4106 628 3988 
L 628 4550 
Q 988 4650 1302 4700 
Q 1616 4750 1894 4750 
Q 2613 4750 3031 4423 
Q 3450 4097 3450 3541 
Q 3450 3153 3228 2886 
Q 3006 2619 2597 2516 
z
" transform="scale(0.015625)"/>
       </defs>
       <use xlink:href="#DejaVuSans-33"/>
       <use xlink:href="#DejaVuSans-30" x="63.623047"/>
      </g>
     </g>
    </g>
    <g id="xtick_5">
     <g id="line2d_5">
      <g>
       <use xlink:href="#ma9566252fe" x="516.69989" y="640.8" style="stroke: #000000; stroke-width: 0.8"/>
      </g>
     </g>
     <g id="text_5">
      <!-- 40 -->
      <g transform="translate(510.33739 655.398438)scale(0.1 -0.1)">
       <defs>
        <path id="DejaVuSans-34" d="M 2419 4116 
L 825 1625 
L 2419 1625 
L 2419 4116 
z
M 2253 4666 
L 3047 4666 
L 3047 1625 
L 3713 1625 
L 3713 1100 
L 3047 1100 
L 3047 0 
L 2419 0 
L 2419 1100 
L 313 1100 
L 313 1709 
L 2253 4666 
z
" transform="scale(0.015625)"/>
       </defs>
       <use xlink:href="#DejaVuSans-34"/>
       <use xlink:href="#DejaVuSans-30" x="63.623047"/>
      </g>
     </g>
    </g>
    <g id="xtick_6">
     <g id="line2d_6">
      <g>
       <use xlink:href="#ma9566252fe" x="618.561884" y="640.8" style="stroke: #000000; stroke-width: 0.8"/>
      </g>
     </g>
     <g id="text_6">
      <!-- 50 -->
      <g transform="translate(612.199384 655.398438)scale(0.1 -0.1)">
       <defs>
        <path id="DejaVuSans-35" d="M 691 4666 
L 3169 4666 
L 3169 4134 
L 1269 4134 
L 1269 2991 
Q 1406 3038 1543 3061 
Q 1681 3084 1819 3084 
Q 2600 3084 3056 2656 
Q 3513 2228 3513 1497 
Q 3513 744 3044 326 
Q 2575 -91 1722 -91 
Q 1428 -91 1123 -41 
Q 819 9 494 109 
L 494 744 
Q 775 591 1075 516 
Q 1375 441 1709 441 
Q 2250 441 2565 725 
Q 2881 1009 2881 1497 
Q 2881 1984 2565 2268 
Q 2250 2553 1709 2553 
Q 1456 2553 1204 2497 
Q 953 2441 691 2322 
L 691 4666 
z
" transform="scale(0.015625)"/>
       </defs>
       <use xlink:href="#DejaVuSans-35"/>
       <use xlink:href="#DejaVuSans-30" x="63.623047"/>
      </g>
     </g>
    </g>
    <g id="text_7">
     <!-- E-mails without disagreement rated 'aggressive' -->
     <g transform="translate(247.844531 669.076563)scale(0.1 -0.1)">
      <defs>
       <path id="DejaVuSans-45" d="M 628 4666 
L 3578 4666 
L 3578 4134 
L 1259 4134 
L 1259 2753 
L 3481 2753 
L 3481 2222 
L 1259 2222 
L 1259 531 
L 3634 531 
L 3634 0 
L 628 0 
L 628 4666 
z
" transform="scale(0.015625)"/>
       <path id="DejaVuSans-2d" d="M 313 2009 
L 1997 2009 
L 1997 1497 
L 313 1497 
L 313 2009 
z
" transform="scale(0.015625)"/>
       <path id="DejaVuSans-6d" d="M 3328 2828 
Q 3544 3216 3844 3400 
Q 4144 3584 4550 3584 
Q 5097 3584 5394 3201 
Q 5691 2819 5691 2113 
L 5691 0 
L 5113 0 
L 5113 2094 
Q 5113 2597 4934 2840 
Q 4756 3084 4391 3084 
Q 3944 3084 3684 2787 
Q 3425 2491 3425 1978 
L 3425 0 
L 2847 0 
L 2847 2094 
Q 2847 2600 2669 2842 
Q 2491 3084 2119 3084 
Q 1678 3084 1418 2786 
Q 1159 2488 1159 1978 
L 1159 0 
L 581 0 
L 581 3500 
L 1159 3500 
L 1159 2956 
Q 1356 3278 1631 3431 
Q 1906 3584 2284 3584 
Q 2666 3584 2933 3390 
Q 3200 3197 3328 2828 
z
" transform="scale(0.015625)"/>
       <path id="DejaVuSans-61" d="M 2194 1759 
Q 1497 1759 1228 1600 
Q 959 1441 959 1056 
Q 959 750 1161 570 
Q 1363 391 1709 391 
Q 2188 391 2477 730 
Q 2766 1069 2766 1631 
L 2766 1759 
L 2194 1759 
z
M 3341 1997 
L 3341 0 
L 2766 0 
L 2766 531 
Q 2569 213 2275 61 
Q 1981 -91 1556 -91 
Q 1019 -91 701 211 
Q 384 513 384 1019 
Q 384 1609 779 1909 
Q 1175 2209 1959 2209 
L 2766 2209 
L 2766 2266 
Q 2766 2663 2505 2880 
Q 2244 3097 1772 3097 
Q 1472 3097 1187 3025 
Q 903 2953 641 2809 
L 641 3341 
Q 956 3463 1253 3523 
Q 1550 3584 1831 3584 
Q 2591 3584 2966 3190 
Q 3341 2797 3341 1997 
z
" transform="scale(0.015625)"/>
       <path id="DejaVuSans-69" d="M 603 3500 
L 1178 3500 
L 1178 0 
L 603 0 
L 603 3500 
z
M 603 4863 
L 1178 4863 
L 1178 4134 
L 603 4134 
L 603 4863 
z
" transform="scale(0.015625)"/>
       <path id="DejaVuSans-6c" d="M 603 4863 
L 1178 4863 
L 1178 0 
L 603 0 
L 603 4863 
z
" transform="scale(0.015625)"/>
       <path id="DejaVuSans-73" d="M 2834 3397 
L 2834 2853 
Q 2591 2978 2328 3040 
Q 2066 3103 1784 3103 
Q 1356 3103 1142 2972 
Q 928 2841 928 2578 
Q 928 2378 1081 2264 
Q 1234 2150 1697 2047 
L 1894 2003 
Q 2506 1872 2764 1633 
Q 3022 1394 3022 966 
Q 3022 478 2636 193 
Q 2250 -91 1575 -91 
Q 1294 -91 989 -36 
Q 684 19 347 128 
L 347 722 
Q 666 556 975 473 
Q 1284 391 1588 391 
Q 1994 391 2212 530 
Q 2431 669 2431 922 
Q 2431 1156 2273 1281 
Q 2116 1406 1581 1522 
L 1381 1569 
Q 847 1681 609 1914 
Q 372 2147 372 2553 
Q 372 3047 722 3315 
Q 1072 3584 1716 3584 
Q 2034 3584 2315 3537 
Q 2597 3491 2834 3397 
z
" transform="scale(0.015625)"/>
       <path id="DejaVuSans-20" transform="scale(0.015625)"/>
       <path id="DejaVuSans-77" d="M 269 3500 
L 844 3500 
L 1563 769 
L 2278 3500 
L 2956 3500 
L 3675 769 
L 4391 3500 
L 4966 3500 
L 4050 0 
L 3372 0 
L 2619 2869 
L 1863 0 
L 1184 0 
L 269 3500 
z
" transform="scale(0.015625)"/>
       <path id="DejaVuSans-74" d="M 1172 4494 
L 1172 3500 
L 2356 3500 
L 2356 3053 
L 1172 3053 
L 1172 1153 
Q 1172 725 1289 603 
Q 1406 481 1766 481 
L 2356 481 
L 2356 0 
L 1766 0 
Q 1100 0 847 248 
Q 594 497 594 1153 
L 594 3053 
L 172 3053 
L 172 3500 
L 594 3500 
L 594 4494 
L 1172 4494 
z
" transform="scale(0.015625)"/>
       <path id="DejaVuSans-68" d="M 3513 2113 
L 3513 0 
L 2938 0 
L 2938 2094 
Q 2938 2591 2744 2837 
Q 2550 3084 2163 3084 
Q 1697 3084 1428 2787 
Q 1159 2491 1159 1978 
L 1159 0 
L 581 0 
L 581 4863 
L 1159 4863 
L 1159 2956 
Q 1366 3272 1645 3428 
Q 1925 3584 2291 3584 
Q 2894 3584 3203 3211 
Q 3513 2838 3513 2113 
z
" transform="scale(0.015625)"/>
       <path id="DejaVuSans-6f" d="M 1959 3097 
Q 1497 3097 1228 2736 
Q 959 2375 959 1747 
Q 959 1119 1226 758 
Q 1494 397 1959 397 
Q 2419 397 2687 759 
Q 2956 1122 2956 1747 
Q 2956 2369 2687 2733 
Q 2419 3097 1959 3097 
z
M 1959 3584 
Q 2709 3584 3137 3096 
Q 3566 2609 3566 1747 
Q 3566 888 3137 398 
Q 2709 -91 1959 -91 
Q 1206 -91 779 398 
Q 353 888 353 1747 
Q 353 2609 779 3096 
Q 1206 3584 1959 3584 
z
" transform="scale(0.015625)"/>
       <path id="DejaVuSans-75" d="M 544 1381 
L 544 3500 
L 1119 3500 
L 1119 1403 
Q 1119 906 1312 657 
Q 1506 409 1894 409 
Q 2359 409 2629 706 
Q 2900 1003 2900 1516 
L 2900 3500 
L 3475 3500 
L 3475 0 
L 2900 0 
L 2900 538 
Q 2691 219 2414 64 
Q 2138 -91 1772 -91 
Q 1169 -91 856 284 
Q 544 659 544 1381 
z
M 1991 3584 
L 1991 3584 
z
" transform="scale(0.015625)"/>
       <path id="DejaVuSans-64" d="M 2906 2969 
L 2906 4863 
L 3481 4863 
L 3481 0 
L 2906 0 
L 2906 525 
Q 2725 213 2448 61 
Q 2172 -91 1784 -91 
Q 1150 -91 751 415 
Q 353 922 353 1747 
Q 353 2572 751 3078 
Q 1150 3584 1784 3584 
Q 2172 3584 2448 3432 
Q 2725 3281 2906 2969 
z
M 947 1747 
Q 947 1113 1208 752 
Q 1469 391 1925 391 
Q 2381 391 2643 752 
Q 2906 1113 2906 1747 
Q 2906 2381 2643 2742 
Q 2381 3103 1925 3103 
Q 1469 3103 1208 2742 
Q 947 2381 947 1747 
z
" transform="scale(0.015625)"/>
       <path id="DejaVuSans-67" d="M 2906 1791 
Q 2906 2416 2648 2759 
Q 2391 3103 1925 3103 
Q 1463 3103 1205 2759 
Q 947 2416 947 1791 
Q 947 1169 1205 825 
Q 1463 481 1925 481 
Q 2391 481 2648 825 
Q 2906 1169 2906 1791 
z
M 3481 434 
Q 3481 -459 3084 -895 
Q 2688 -1331 1869 -1331 
Q 1566 -1331 1297 -1286 
Q 1028 -1241 775 -1147 
L 775 -588 
Q 1028 -725 1275 -790 
Q 1522 -856 1778 -856 
Q 2344 -856 2625 -561 
Q 2906 -266 2906 331 
L 2906 616 
Q 2728 306 2450 153 
Q 2172 0 1784 0 
Q 1141 0 747 490 
Q 353 981 353 1791 
Q 353 2603 747 3093 
Q 1141 3584 1784 3584 
Q 2172 3584 2450 3431 
Q 2728 3278 2906 2969 
L 2906 3500 
L 3481 3500 
L 3481 434 
z
" transform="scale(0.015625)"/>
       <path id="DejaVuSans-72" d="M 2631 2963 
Q 2534 3019 2420 3045 
Q 2306 3072 2169 3072 
Q 1681 3072 1420 2755 
Q 1159 2438 1159 1844 
L 1159 0 
L 581 0 
L 581 3500 
L 1159 3500 
L 1159 2956 
Q 1341 3275 1631 3429 
Q 1922 3584 2338 3584 
Q 2397 3584 2469 3576 
Q 2541 3569 2628 3553 
L 2631 2963 
z
" transform="scale(0.015625)"/>
       <path id="DejaVuSans-65" d="M 3597 1894 
L 3597 1613 
L 953 1613 
Q 991 1019 1311 708 
Q 1631 397 2203 397 
Q 2534 397 2845 478 
Q 3156 559 3463 722 
L 3463 178 
Q 3153 47 2828 -22 
Q 2503 -91 2169 -91 
Q 1331 -91 842 396 
Q 353 884 353 1716 
Q 353 2575 817 3079 
Q 1281 3584 2069 3584 
Q 2775 3584 3186 3129 
Q 3597 2675 3597 1894 
z
M 3022 2063 
Q 3016 2534 2758 2815 
Q 2500 3097 2075 3097 
Q 1594 3097 1305 2825 
Q 1016 2553 972 2059 
L 3022 2063 
z
" transform="scale(0.015625)"/>
       <path id="DejaVuSans-6e" d="M 3513 2113 
L 3513 0 
L 2938 0 
L 2938 2094 
Q 2938 2591 2744 2837 
Q 2550 3084 2163 3084 
Q 1697 3084 1428 2787 
Q 1159 2491 1159 1978 
L 1159 0 
L 581 0 
L 581 3500 
L 1159 3500 
L 1159 2956 
Q 1366 3272 1645 3428 
Q 1925 3584 2291 3584 
Q 2894 3584 3203 3211 
Q 3513 2838 3513 2113 
z
" transform="scale(0.015625)"/>
       <path id="DejaVuSans-27" d="M 1147 4666 
L 1147 2931 
L 616 2931 
L 616 4666 
L 1147 4666 
z
" transform="scale(0.015625)"/>
       <path id="DejaVuSans-76" d="M 191 3500 
L 800 3500 
L 1894 563 
L 2988 3500 
L 3597 3500 
L 2284 0 
L 1503 0 
L 191 3500 
z
" transform="scale(0.015625)"/>
      </defs>
      <use xlink:href="#DejaVuSans-45"/>
      <use xlink:href="#DejaVuSans-2d" x="63.183594"/>
      <use xlink:href="#DejaVuSans-6d" x="99.267578"/>
      <use xlink:href="#DejaVuSans-61" x="196.679688"/>
      <use xlink:href="#DejaVuSans-69" x="257.958984"/>
      <use xlink:href="#DejaVuSans-6c" x="285.742188"/>
      <use xlink:href="#DejaVuSans-73" x="313.525391"/>
      <use xlink:href="#DejaVuSans-20" x="365.625"/>
      <use xlink:href="#DejaVuSans-77" x="397.412109"/>
      <use xlink:href="#DejaVuSans-69" x="479.199219"/>
      <use xlink:href="#DejaVuSans-74" x="506.982422"/>
      <use xlink:href="#DejaVuSans-68" x="546.191406"/>
      <use xlink:href="#DejaVuSans-6f" x="609.570312"/>
      <use xlink:href="#DejaVuSans-75" x="670.751953"/>
      <use xlink:href="#DejaVuSans-74" x="734.130859"/>
      <use xlink:href="#DejaVuSans-20" x="773.339844"/>
      <use xlink:href="#DejaVuSans-64" x="805.126953"/>
      <use xlink:href="#DejaVuSans-69" x="868.603516"/>
      <use xlink:href="#DejaVuSans-73" x="896.386719"/>
      <use xlink:href="#DejaVuSans-61" x="948.486328"/>
      <use xlink:href="#DejaVuSans-67" x="1009.765625"/>
      <use xlink:href="#DejaVuSans-72" x="1073.242188"/>
      <use xlink:href="#DejaVuSans-65" x="1112.105469"/>
      <use xlink:href="#DejaVuSans-65" x="1173.628906"/>
      <use xlink:href="#DejaVuSans-6d" x="1235.152344"/>
      <use xlink:href="#DejaVuSans-65" x="1332.564453"/>
      <use xlink:href="#DejaVuSans-6e" x="1394.087891"/>
      <use xlink:href="#DejaVuSans-74" x="1457.466797"/>
      <use xlink:href="#DejaVuSans-20" x="1496.675781"/>
      <use xlink:href="#DejaVuSans-72" x="1528.462891"/>
      <use xlink:href="#DejaVuSans-61" x="1569.576172"/>
      <use xlink:href="#DejaVuSans-74" x="1630.855469"/>
      <use xlink:href="#DejaVuSans-65" x="1670.064453"/>
      <use xlink:href="#DejaVuSans-64" x="1731.587891"/>
      <use xlink:href="#DejaVuSans-20" x="1795.064453"/>
      <use xlink:href="#DejaVuSans-27" x="1826.851562"/>
      <use xlink:href="#DejaVuSans-61" x="1854.341797"/>
      <use xlink:href="#DejaVuSans-67" x="1915.621094"/>
      <use xlink:href="#DejaVuSans-67" x="1979.097656"/>
      <use xlink:href="#DejaVuSans-72" x="2042.574219"/>
      <use xlink:href="#DejaVuSans-65" x="2081.4375"/>
      <use xlink:href="#DejaVuSans-73" x="2142.960938"/>
      <use xlink:href="#DejaVuSans-73" x="2195.060547"/>
      <use xlink:href="#DejaVuSans-69" x="2247.160156"/>
      <use xlink:href="#DejaVuSans-76" x="2274.943359"/>
      <use xlink:href="#DejaVuSans-65" x="2334.123047"/>
      <use xlink:href="#DejaVuSans-27" x="2395.646484"/>
     </g>
    </g>
   </g>
   <g id="matplotlib.axis_2">
    <g id="ytick_1">
     <g id="line2d_7">
      <defs>
       <path id="m48f01474ca" d="M 0 0 
L -3.5 0 
" style="stroke: #000000; stroke-width: 0.8"/>
      </defs>
      <g>
       <use xlink:href="#m48f01474ca" x="90" y="640.8" style="stroke: #000000; stroke-width: 0.8"/>
      </g>
     </g>
     <g id="text_8">
      <!-- 0 -->
      <g transform="translate(76.6375 644.599219)scale(0.1 -0.1)">
       <use xlink:href="#DejaVuSans-30"/>
      </g>
     </g>
    </g>
    <g id="ytick_2">
     <g id="line2d_8">
      <g>
       <use xlink:href="#m48f01474ca" x="90" y="535.2" style="stroke: #000000; stroke-width: 0.8"/>
      </g>
     </g>
     <g id="text_9">
      <!-- 2 -->
      <g transform="translate(76.6375 538.999219)scale(0.1 -0.1)">
       <use xlink:href="#DejaVuSans-32"/>
      </g>
     </g>
    </g>
    <g id="ytick_3">
     <g id="line2d_9">
      <g>
       <use xlink:href="#m48f01474ca" x="90" y="429.6" style="stroke: #000000; stroke-width: 0.8"/>
      </g>
     </g>
     <g id="text_10">
      <!-- 4 -->
      <g transform="translate(76.6375 433.399219)scale(0.1 -0.1)">
       <use xlink:href="#DejaVuSans-34"/>
      </g>
     </g>
    </g>
    <g id="ytick_4">
     <g id="line2d_10">
      <g>
       <use xlink:href="#m48f01474ca" x="90" y="324" style="stroke: #000000; stroke-width: 0.8"/>
      </g>
     </g>
     <g id="text_11">
      <!-- 6 -->
      <g transform="translate(76.6375 327.799219)scale(0.1 -0.1)">
       <defs>
        <path id="DejaVuSans-36" d="M 2113 2584 
Q 1688 2584 1439 2293 
Q 1191 2003 1191 1497 
Q 1191 994 1439 701 
Q 1688 409 2113 409 
Q 2538 409 2786 701 
Q 3034 994 3034 1497 
Q 3034 2003 2786 2293 
Q 2538 2584 2113 2584 
z
M 3366 4563 
L 3366 3988 
Q 3128 4100 2886 4159 
Q 2644 4219 2406 4219 
Q 1781 4219 1451 3797 
Q 1122 3375 1075 2522 
Q 1259 2794 1537 2939 
Q 1816 3084 2150 3084 
Q 2853 3084 3261 2657 
Q 3669 2231 3669 1497 
Q 3669 778 3244 343 
Q 2819 -91 2113 -91 
Q 1303 -91 875 529 
Q 447 1150 447 2328 
Q 447 3434 972 4092 
Q 1497 4750 2381 4750 
Q 2619 4750 2861 4703 
Q 3103 4656 3366 4563 
z
" transform="scale(0.015625)"/>
       </defs>
       <use xlink:href="#DejaVuSans-36"/>
      </g>
     </g>
    </g>
    <g id="ytick_5">
     <g id="line2d_11">
      <g>
       <use xlink:href="#m48f01474ca" x="90" y="218.4" style="stroke: #000000; stroke-width: 0.8"/>
      </g>
     </g>
     <g id="text_12">
      <!-- 8 -->
      <g transform="translate(76.6375 222.199219)scale(0.1 -0.1)">
       <defs>
        <path id="DejaVuSans-38" d="M 2034 2216 
Q 1584 2216 1326 1975 
Q 1069 1734 1069 1313 
Q 1069 891 1326 650 
Q 1584 409 2034 409 
Q 2484 409 2743 651 
Q 3003 894 3003 1313 
Q 3003 1734 2745 1975 
Q 2488 2216 2034 2216 
z
M 1403 2484 
Q 997 2584 770 2862 
Q 544 3141 544 3541 
Q 544 4100 942 4425 
Q 1341 4750 2034 4750 
Q 2731 4750 3128 4425 
Q 3525 4100 3525 3541 
Q 3525 3141 3298 2862 
Q 3072 2584 2669 2484 
Q 3125 2378 3379 2068 
Q 3634 1759 3634 1313 
Q 3634 634 3220 271 
Q 2806 -91 2034 -91 
Q 1263 -91 848 271 
Q 434 634 434 1313 
Q 434 1759 690 2068 
Q 947 2378 1403 2484 
z
M 1172 3481 
Q 1172 3119 1398 2916 
Q 1625 2713 2034 2713 
Q 2441 2713 2670 2916 
Q 2900 3119 2900 3481 
Q 2900 3844 2670 4047 
Q 2441 4250 2034 4250 
Q 1625 4250 1398 4047 
Q 1172 3844 1172 3481 
z
" transform="scale(0.015625)"/>
       </defs>
       <use xlink:href="#DejaVuSans-38"/>
      </g>
     </g>
    </g>
    <g id="ytick_6">
     <g id="line2d_12">
      <g>
       <use xlink:href="#m48f01474ca" x="90" y="112.8" style="stroke: #000000; stroke-width: 0.8"/>
      </g>
     </g>
     <g id="text_13">
      <!-- 10 -->
      <g transform="translate(70.275 116.599219)scale(0.1 -0.1)">
       <use xlink:href="#DejaVuSans-31"/>
       <use xlink:href="#DejaVuSans-30" x="63.623047"/>
      </g>
     </g>
    </g>
   </g>
   <g id="patch_203">
    <path d="M 90 640.8 
L 90 86.4 
" style="fill: none; stroke: #000000; stroke-width: 0.8; stroke-linejoin: miter; stroke-linecap: square"/>
   </g>
   <g id="patch_204">
    <path d="M 648 640.8 
L 648 86.4 
" style="fill: none; stroke: #000000; stroke-width: 0.8; stroke-linejoin: miter; stroke-linecap: square"/>
   </g>
   <g id="patch_205">
    <path d="M 90 640.8 
L 648 640.8 
" style="fill: none; stroke: #000000; stroke-width: 0.8; stroke-linejoin: miter; stroke-linecap: square"/>
   </g>
   <g id="patch_206">
    <path d="M 90 86.4 
L 648 86.4 
" style="fill: none; stroke: #000000; stroke-width: 0.8; stroke-linejoin: miter; stroke-linecap: square"/>
   </g>
   <g id="text_14">
    <!-- Distribution of (Simplified) Aggression Targets per E-mail -->
    <g transform="translate(198.739688 80.4)scale(0.12 -0.12)">
     <defs>
      <path id="DejaVuSans-44" d="M 1259 4147 
L 1259 519 
L 2022 519 
Q 2988 519 3436 956 
Q 3884 1394 3884 2338 
Q 3884 3275 3436 3711 
Q 2988 4147 2022 4147 
L 1259 4147 
z
M 628 4666 
L 1925 4666 
Q 3281 4666 3915 4102 
Q 4550 3538 4550 2338 
Q 4550 1131 3912 565 
Q 3275 0 1925 0 
L 628 0 
L 628 4666 
z
" transform="scale(0.015625)"/>
      <path id="DejaVuSans-62" d="M 3116 1747 
Q 3116 2381 2855 2742 
Q 2594 3103 2138 3103 
Q 1681 3103 1420 2742 
Q 1159 2381 1159 1747 
Q 1159 1113 1420 752 
Q 1681 391 2138 391 
Q 2594 391 2855 752 
Q 3116 1113 3116 1747 
z
M 1159 2969 
Q 1341 3281 1617 3432 
Q 1894 3584 2278 3584 
Q 2916 3584 3314 3078 
Q 3713 2572 3713 1747 
Q 3713 922 3314 415 
Q 2916 -91 2278 -91 
Q 1894 -91 1617 61 
Q 1341 213 1159 525 
L 1159 0 
L 581 0 
L 581 4863 
L 1159 4863 
L 1159 2969 
z
" transform="scale(0.015625)"/>
      <path id="DejaVuSans-66" d="M 2375 4863 
L 2375 4384 
L 1825 4384 
Q 1516 4384 1395 4259 
Q 1275 4134 1275 3809 
L 1275 3500 
L 2222 3500 
L 2222 3053 
L 1275 3053 
L 1275 0 
L 697 0 
L 697 3053 
L 147 3053 
L 147 3500 
L 697 3500 
L 697 3744 
Q 697 4328 969 4595 
Q 1241 4863 1831 4863 
L 2375 4863 
z
" transform="scale(0.015625)"/>
      <path id="DejaVuSans-28" d="M 1984 4856 
Q 1566 4138 1362 3434 
Q 1159 2731 1159 2009 
Q 1159 1288 1364 580 
Q 1569 -128 1984 -844 
L 1484 -844 
Q 1016 -109 783 600 
Q 550 1309 550 2009 
Q 550 2706 781 3412 
Q 1013 4119 1484 4856 
L 1984 4856 
z
" transform="scale(0.015625)"/>
      <path id="DejaVuSans-53" d="M 3425 4513 
L 3425 3897 
Q 3066 4069 2747 4153 
Q 2428 4238 2131 4238 
Q 1616 4238 1336 4038 
Q 1056 3838 1056 3469 
Q 1056 3159 1242 3001 
Q 1428 2844 1947 2747 
L 2328 2669 
Q 3034 2534 3370 2195 
Q 3706 1856 3706 1288 
Q 3706 609 3251 259 
Q 2797 -91 1919 -91 
Q 1588 -91 1214 -16 
Q 841 59 441 206 
L 441 856 
Q 825 641 1194 531 
Q 1563 422 1919 422 
Q 2459 422 2753 634 
Q 3047 847 3047 1241 
Q 3047 1584 2836 1778 
Q 2625 1972 2144 2069 
L 1759 2144 
Q 1053 2284 737 2584 
Q 422 2884 422 3419 
Q 422 4038 858 4394 
Q 1294 4750 2059 4750 
Q 2388 4750 2728 4690 
Q 3069 4631 3425 4513 
z
" transform="scale(0.015625)"/>
      <path id="DejaVuSans-70" d="M 1159 525 
L 1159 -1331 
L 581 -1331 
L 581 3500 
L 1159 3500 
L 1159 2969 
Q 1341 3281 1617 3432 
Q 1894 3584 2278 3584 
Q 2916 3584 3314 3078 
Q 3713 2572 3713 1747 
Q 3713 922 3314 415 
Q 2916 -91 2278 -91 
Q 1894 -91 1617 61 
Q 1341 213 1159 525 
z
M 3116 1747 
Q 3116 2381 2855 2742 
Q 2594 3103 2138 3103 
Q 1681 3103 1420 2742 
Q 1159 2381 1159 1747 
Q 1159 1113 1420 752 
Q 1681 391 2138 391 
Q 2594 391 2855 752 
Q 3116 1113 3116 1747 
z
" transform="scale(0.015625)"/>
      <path id="DejaVuSans-29" d="M 513 4856 
L 1013 4856 
Q 1481 4119 1714 3412 
Q 1947 2706 1947 2009 
Q 1947 1309 1714 600 
Q 1481 -109 1013 -844 
L 513 -844 
Q 928 -128 1133 580 
Q 1338 1288 1338 2009 
Q 1338 2731 1133 3434 
Q 928 4138 513 4856 
z
" transform="scale(0.015625)"/>
      <path id="DejaVuSans-41" d="M 2188 4044 
L 1331 1722 
L 3047 1722 
L 2188 4044 
z
M 1831 4666 
L 2547 4666 
L 4325 0 
L 3669 0 
L 3244 1197 
L 1141 1197 
L 716 0 
L 50 0 
L 1831 4666 
z
" transform="scale(0.015625)"/>
      <path id="DejaVuSans-54" d="M -19 4666 
L 3928 4666 
L 3928 4134 
L 2272 4134 
L 2272 0 
L 1638 0 
L 1638 4134 
L -19 4134 
L -19 4666 
z
" transform="scale(0.015625)"/>
     </defs>
     <use xlink:href="#DejaVuSans-44"/>
     <use xlink:href="#DejaVuSans-69" x="77.001953"/>
     <use xlink:href="#DejaVuSans-73" x="104.785156"/>
     <use xlink:href="#DejaVuSans-74" x="156.884766"/>
     <use xlink:href="#DejaVuSans-72" x="196.09375"/>
     <use xlink:href="#DejaVuSans-69" x="237.207031"/>
     <use xlink:href="#DejaVuSans-62" x="264.990234"/>
     <use xlink:href="#DejaVuSans-75" x="328.466797"/>
     <use xlink:href="#DejaVuSans-74" x="391.845703"/>
     <use xlink:href="#DejaVuSans-69" x="431.054688"/>
     <use xlink:href="#DejaVuSans-6f" x="458.837891"/>
     <use xlink:href="#DejaVuSans-6e" x="520.019531"/>
     <use xlink:href="#DejaVuSans-20" x="583.398438"/>
     <use xlink:href="#DejaVuSans-6f" x="615.185547"/>
     <use xlink:href="#DejaVuSans-66" x="676.367188"/>
     <use xlink:href="#DejaVuSans-20" x="711.572266"/>
     <use xlink:href="#DejaVuSans-28" x="743.359375"/>
     <use xlink:href="#DejaVuSans-53" x="782.373047"/>
     <use xlink:href="#DejaVuSans-69" x="845.849609"/>
     <use xlink:href="#DejaVuSans-6d" x="873.632812"/>
     <use xlink:href="#DejaVuSans-70" x="971.044922"/>
     <use xlink:href="#DejaVuSans-6c" x="1034.521484"/>
     <use xlink:href="#DejaVuSans-69" x="1062.304688"/>
     <use xlink:href="#DejaVuSans-66" x="1090.087891"/>
     <use xlink:href="#DejaVuSans-69" x="1125.292969"/>
     <use xlink:href="#DejaVuSans-65" x="1153.076172"/>
     <use xlink:href="#DejaVuSans-64" x="1214.599609"/>
     <use xlink:href="#DejaVuSans-29" x="1278.076172"/>
     <use xlink:href="#DejaVuSans-20" x="1317.089844"/>
     <use xlink:href="#DejaVuSans-41" x="1348.876953"/>
     <use xlink:href="#DejaVuSans-67" x="1417.285156"/>
     <use xlink:href="#DejaVuSans-67" x="1480.761719"/>
     <use xlink:href="#DejaVuSans-72" x="1544.238281"/>
     <use xlink:href="#DejaVuSans-65" x="1583.101562"/>
     <use xlink:href="#DejaVuSans-73" x="1644.625"/>
     <use xlink:href="#DejaVuSans-73" x="1696.724609"/>
     <use xlink:href="#DejaVuSans-69" x="1748.824219"/>
     <use xlink:href="#DejaVuSans-6f" x="1776.607422"/>
     <use xlink:href="#DejaVuSans-6e" x="1837.789062"/>
     <use xlink:href="#DejaVuSans-20" x="1901.167969"/>
     <use xlink:href="#DejaVuSans-54" x="1932.955078"/>
     <use xlink:href="#DejaVuSans-61" x="1977.539062"/>
     <use xlink:href="#DejaVuSans-72" x="2038.818359"/>
     <use xlink:href="#DejaVuSans-67" x="2078.181641"/>
     <use xlink:href="#DejaVuSans-65" x="2141.658203"/>
     <use xlink:href="#DejaVuSans-74" x="2203.181641"/>
     <use xlink:href="#DejaVuSans-73" x="2242.390625"/>
     <use xlink:href="#DejaVuSans-20" x="2294.490234"/>
     <use xlink:href="#DejaVuSans-70" x="2326.277344"/>
     <use xlink:href="#DejaVuSans-65" x="2389.753906"/>
     <use xlink:href="#DejaVuSans-72" x="2451.277344"/>
     <use xlink:href="#DejaVuSans-20" x="2492.390625"/>
     <use xlink:href="#DejaVuSans-45" x="2524.177734"/>
     <use xlink:href="#DejaVuSans-2d" x="2587.361328"/>
     <use xlink:href="#DejaVuSans-6d" x="2623.445312"/>
     <use xlink:href="#DejaVuSans-61" x="2720.857422"/>
     <use xlink:href="#DejaVuSans-69" x="2782.136719"/>
     <use xlink:href="#DejaVuSans-6c" x="2809.919922"/>
    </g>
   </g>
   <g id="legend_1">
    <g id="patch_207">
     <path d="M 563.570312 153.1125 
L 641 153.1125 
Q 643 153.1125 643 151.1125 
L 643 93.4 
Q 643 91.4 641 91.4 
L 563.570312 91.4 
Q 561.570312 91.4 561.570312 93.4 
L 561.570312 151.1125 
Q 561.570312 153.1125 563.570312 153.1125 
z
" style="fill: #ffffff; opacity: 0.8; stroke: #cccccc; stroke-linejoin: miter"/>
    </g>
    <g id="patch_208">
     <path d="M 565.570312 102.998437 
L 585.570312 102.998437 
L 585.570312 95.998437 
L 565.570312 95.998437 
z
" style="fill: #006ba4"/>
    </g>
    <g id="text_15">
     <!-- human -->
     <g transform="translate(593.570312 102.998437)scale(0.1 -0.1)">
      <use xlink:href="#DejaVuSans-68"/>
      <use xlink:href="#DejaVuSans-75" x="63.378906"/>
      <use xlink:href="#DejaVuSans-6d" x="126.757812"/>
      <use xlink:href="#DejaVuSans-61" x="224.169922"/>
      <use xlink:href="#DejaVuSans-6e" x="285.449219"/>
     </g>
    </g>
    <g id="patch_209">
     <path d="M 565.570312 117.676562 
L 585.570312 117.676562 
L 585.570312 110.676562 
L 565.570312 110.676562 
z
" style="fill: #ff800e"/>
    </g>
    <g id="text_16">
     <!-- technical -->
     <g transform="translate(593.570312 117.676562)scale(0.1 -0.1)">
      <defs>
       <path id="DejaVuSans-63" d="M 3122 3366 
L 3122 2828 
Q 2878 2963 2633 3030 
Q 2388 3097 2138 3097 
Q 1578 3097 1268 2742 
Q 959 2388 959 1747 
Q 959 1106 1268 751 
Q 1578 397 2138 397 
Q 2388 397 2633 464 
Q 2878 531 3122 666 
L 3122 134 
Q 2881 22 2623 -34 
Q 2366 -91 2075 -91 
Q 1284 -91 818 406 
Q 353 903 353 1747 
Q 353 2603 823 3093 
Q 1294 3584 2113 3584 
Q 2378 3584 2631 3529 
Q 2884 3475 3122 3366 
z
" transform="scale(0.015625)"/>
      </defs>
      <use xlink:href="#DejaVuSans-74"/>
      <use xlink:href="#DejaVuSans-65" x="39.208984"/>
      <use xlink:href="#DejaVuSans-63" x="100.732422"/>
      <use xlink:href="#DejaVuSans-68" x="155.712891"/>
      <use xlink:href="#DejaVuSans-6e" x="219.091797"/>
      <use xlink:href="#DejaVuSans-69" x="282.470703"/>
      <use xlink:href="#DejaVuSans-63" x="310.253906"/>
      <use xlink:href="#DejaVuSans-61" x="365.234375"/>
      <use xlink:href="#DejaVuSans-6c" x="426.513672"/>
     </g>
    </g>
    <g id="patch_210">
     <path d="M 565.570312 132.354687 
L 585.570312 132.354687 
L 585.570312 125.354687 
L 565.570312 125.354687 
z
" style="fill: #ababab"/>
    </g>
    <g id="text_17">
     <!-- other -->
     <g transform="translate(593.570312 132.354687)scale(0.1 -0.1)">
      <use xlink:href="#DejaVuSans-6f"/>
      <use xlink:href="#DejaVuSans-74" x="61.181641"/>
      <use xlink:href="#DejaVuSans-68" x="100.390625"/>
      <use xlink:href="#DejaVuSans-65" x="163.769531"/>
      <use xlink:href="#DejaVuSans-72" x="225.292969"/>
     </g>
    </g>
    <g id="patch_211">
     <path d="M 565.570312 147.032812 
L 585.570312 147.032812 
L 585.570312 140.032812 
L 565.570312 140.032812 
z
" style="fill: #595959"/>
    </g>
    <g id="text_18">
     <!-- none -->
     <g transform="translate(593.570312 147.032812)scale(0.1 -0.1)">
      <use xlink:href="#DejaVuSans-6e"/>
      <use xlink:href="#DejaVuSans-6f" x="63.378906"/>
      <use xlink:href="#DejaVuSans-6e" x="124.560547"/>
      <use xlink:href="#DejaVuSans-65" x="187.939453"/>
     </g>
    </g>
   </g>
  </g>
 </g>
 <defs>
  <clipPath id="p6f03738268">
   <rect x="90" y="86.4" width="558" height="554.4"/>
  </clipPath>
 </defs>
</svg>
